<svg version="1.1" xmlns="http://www.w3.org/2000/svg" xmlns:xlink="http://www.w3.org/1999/xlink" width="832.3779296875" height="749"><defs/><g><g transform="translate(2,-14) scale(1,1)"><path fill="#C0C0C0" stroke="none" d="M 441 183 L 541 183 Q 551 183 551 193 L 551 229 Q 551 239 541 239 L 441 239 Q 431 239 431 229 L 431 193 Q 431 183 441 183 Z" opacity="0.2"/></g><g transform="translate(2,-14) scale(1,1)"><path fill="#ffffff" stroke="none" d="M 434 176 L 534 176 Q 544 176 544 186 L 544 222 Q 544 232 534 232 L 434 232 Q 424 232 424 222 L 424 186 Q 424 176 434 176 Z"/></g><g transform="translate(2,-14) scale(1,1)"><path fill="none" stroke="#000000" d="M 434 176 L 534 176 Q 544 176 544 186 L 544 222 Q 544 232 534 232 L 434 232 Q 424 232 424 222 L 424 186 Q 424 176 434 176 Z" stroke-miterlimit="10"/></g><g transform="translate(2,-14) scale(1,1)"><g><path fill="none" stroke="none"/><text fill="#000000" stroke="none" font-family="Arial" font-size="13px" font-style="normal" font-weight="bold" text-decoration="none" x="460.52001953125" y="195.5">OnDeck</text></g></g><g transform="translate(2,-14) scale(1,1)"><path fill="#C0C0C0" stroke="none" d="M 471 120.5 C 471 115.2532944 475.2532944 111 480.5 111 C 485.7467056 111 490 115.2532944 490 120.5 C 490 125.7467056 485.7467056 130 480.5 130 C 475.2532944 130 471 125.7467056 471 120.5 Z" opacity="0.2"/></g><g transform="translate(2,-14) scale(1,1)"><path fill="#000000" stroke="none" d="M 464 113.5 C 464 108.2532944 468.2532944 104 473.5 104 C 478.7467056 104 483 108.2532944 483 113.5 C 483 118.7467056 478.7467056 123 473.5 123 C 468.2532944 123 464 118.7467056 464 113.5 Z"/></g><g transform="translate(2,-14) scale(1,1)"><path fill="none" stroke="#000000" d="M 472 123 L 472 176" stroke-miterlimit="10"/></g><g transform="translate(2,-14) scale(1,1)"><path fill="none" stroke="#000000" d="M 467.790482243984 165.83732514237585 L 472 176 L 476.209517756016 165.83732514237585" stroke-miterlimit="10"/></g><g transform="translate(2,-14) scale(1,1)"><path fill="#C0C0C0" stroke="none" d="M 599 747.5 C 599 740.59644 604.59644 735 611.5 735 C 618.40356 735 624 740.59644 624 747.5 C 624 754.40356 618.40356 760 611.5 760 C 604.59644 760 599 754.40356 599 747.5 Z" opacity="0.2"/></g><g transform="translate(2,-14) scale(1,1)"><path fill="none" stroke="#000000" d="M 592 740.5 C 592 733.59644 597.59644 728 604.5 728 C 611.40356 728 617 733.59644 617 740.5 C 617 747.40356 611.40356 753 604.5 753 C 597.59644 753 592 747.40356 592 740.5 Z" stroke-miterlimit="10"/></g><g transform="translate(2,-14) scale(1,1)"><path fill="#000000" stroke="none" d="M 597 740.5 C 597 736.357864 600.357864 733 604.5 733 C 608.642136 733 612 736.357864 612 740.5 C 612 744.642136 608.642136 748 604.5 748 C 600.357864 748 597 744.642136 597 740.5 Z"/></g><g transform="translate(2,-14) scale(1,1)"><path fill="#C0C0C0" stroke="none" d="M 225 359 L 305.17724609375 359 Q 315.17724609375 359 315.17724609375 369 L 315.17724609375 405 Q 315.17724609375 415 305.17724609375 415 L 225 415 Q 215 415 215 405 L 215 369 Q 215 359 225 359 Z" opacity="0.2"/></g><g transform="translate(2,-14) scale(1,1)"><path fill="#ffffff" stroke="none" d="M 218 352 L 298.17724609375 352 Q 308.17724609375 352 308.17724609375 362 L 308.17724609375 398 Q 308.17724609375 408 298.17724609375 408 L 218 408 Q 208 408 208 398 L 208 362 Q 208 352 218 352 Z"/></g><g transform="translate(2,-14) scale(1,1)"><path fill="none" stroke="#000000" d="M 218 352 L 298.17724609375 352 Q 308.17724609375 352 308.17724609375 362 L 308.17724609375 398 Q 308.17724609375 408 298.17724609375 408 L 218 408 Q 208 408 208 398 L 208 362 Q 208 352 218 352 Z" stroke-miterlimit="10"/></g><g transform="translate(2,-14) scale(1,1)"><g><path fill="none" stroke="none"/><text fill="#000000" stroke="none" font-family="Arial" font-size="13px" font-style="normal" font-weight="bold" text-decoration="none" x="225.92822265625" y="371.5">OnTableau</text></g></g><g transform="translate(2,-14) scale(1,1)"><path fill="#C0C0C0" stroke="none" d="M 449 591 L 526.81005859375 591 Q 536.81005859375 591 536.81005859375 601 L 536.81005859375 637 Q 536.81005859375 647 526.81005859375 647 L 449 647 Q 439 647 439 637 L 439 601 Q 439 591 449 591 Z" opacity="0.2"/></g><g transform="translate(2,-14) scale(1,1)"><path fill="#ffffff" stroke="none" d="M 442 584 L 519.81005859375 584 Q 529.81005859375 584 529.81005859375 594 L 529.81005859375 630 Q 529.81005859375 640 519.81005859375 640 L 442 640 Q 432 640 432 630 L 432 594 Q 432 584 442 584 Z"/></g><g transform="translate(2,-14) scale(1,1)"><path fill="none" stroke="#000000" d="M 442 584 L 519.81005859375 584 Q 529.81005859375 584 529.81005859375 594 L 529.81005859375 630 Q 529.81005859375 640 519.81005859375 640 L 442 640 Q 432 640 432 630 L 432 594 Q 432 584 442 584 Z" stroke-miterlimit="10"/></g><g transform="translate(2,-14) scale(1,1)"><g><path fill="none" stroke="none"/><text fill="#000000" stroke="none" font-family="Arial" font-size="13px" font-style="normal" font-weight="bold" text-decoration="none" x="439.708740234375" y="603.5">OnFoundation</text></g></g><g transform="translate(2,-14) scale(1,1)"><path fill="#C0C0C0" stroke="none" d="M 497 367 L 573 367 Q 583 367 583 377 L 583 413 Q 583 423 573 423 L 497 423 Q 487 423 487 413 L 487 377 Q 487 367 497 367 Z" opacity="0.2"/></g><g transform="translate(2,-14) scale(1,1)"><path fill="#ffffff" stroke="none" d="M 490 360 L 566 360 Q 576 360 576 370 L 576 406 Q 576 416 566 416 L 490 416 Q 480 416 480 406 L 480 370 Q 480 360 490 360 Z"/></g><g transform="translate(2,-14) scale(1,1)"><path fill="none" stroke="#000000" d="M 490 360 L 566 360 Q 576 360 576 370 L 576 406 Q 576 416 566 416 L 490 416 Q 480 416 480 406 L 480 370 Q 480 360 490 360 Z" stroke-miterlimit="10"/></g><g transform="translate(2,-14) scale(1,1)"><g><path fill="none" stroke="none"/><text fill="#000000" stroke="none" font-family="Arial" font-size="13px" font-style="normal" font-weight="bold" text-decoration="none" x="500.908203125" y="379.5">OnWaste</text></g></g><g transform="translate(2,-14) scale(1,1)"><path fill="none" stroke="#000000" d="M 440 232 L 440 248 L 664 248 L 664 195 L 544 195" stroke-miterlimit="10"/></g><g transform="translate(2,-14) scale(1,1)"><path fill="none" stroke="#000000" d="M 554.1626748576241 190.790482243984 L 544 195 L 554.1626748576241 199.209517756016" stroke-miterlimit="10"/></g><g transform="translate(2,-14) scale(1,1)"><g><path fill="none" stroke="none"/><text fill="#000000" stroke="none" font-family="Arial" font-size="13px" font-style="normal" font-weight="normal" text-decoration="none" x="607.8818359375" y="236.5">Shuffle</text></g></g><g transform="translate(2,-14) scale(1,1)"><path fill="none" stroke="#000000" d="M 424 192 L 270 192 L 270 352" stroke-miterlimit="10"/></g><g transform="translate(2,-14) scale(1,1)"><path fill="none" stroke="#000000" d="M 265.790482243984 341.83732514237585 L 270 352 L 274.209517756016 341.83732514237585" stroke-miterlimit="10"/></g><g transform="translate(2,-14) scale(1,1)"><g><path fill="none" stroke="none"/><text fill="#000000" stroke="none" font-family="Arial" font-size="13px" font-style="normal" font-weight="normal" text-decoration="none" x="100.471923828125" y="308.5">Repartir [card.position &lt; 24]</text></g></g><g transform="translate(2,-14) scale(1,1)"><path fill="none" stroke="#000000" d="M 464 232 L 464 280 L 792 280 L 792 215 L 544 215" stroke-miterlimit="10"/></g><g transform="translate(2,-14) scale(1,1)"><path fill="none" stroke="#000000" d="M 554.1626748576241 210.790482243984 L 544 215 L 554.1626748576241 219.209517756016" stroke-miterlimit="10"/></g><g transform="translate(2,-14) scale(1,1)"><g><path fill="none" stroke="none"/><text fill="#000000" stroke="none" font-family="Arial" font-size="13px" font-style="normal" font-weight="normal" text-decoration="none" x="646.364990234375" y="300.5">Repartir [card.position &gt;= 24]</text></g></g><g transform="translate(2,-14) scale(1,1)"><path fill="#C0C0C0" stroke="none" d="M 519 491.5 L 535.5 479 L 551 491.5 L 535.5 503 L 519 491.5" opacity="0.2"/></g><g transform="translate(2,-14) scale(1,1)"><path fill="#ffffff" stroke="none" d="M 512 484 L 528 472 L 544 484 L 528 496 L 512 484"/></g><g transform="translate(2,-14) scale(1,1)"><path fill="none" stroke="#000000" d="M 512 484 L 528 472 L 544 484 L 528 496 L 512 484 L 512 484" stroke-miterlimit="10"/></g><g transform="translate(2,-14) scale(1,1)"><path fill="none" stroke="#000000" d="M 528 417 L 528 471" stroke-miterlimit="10"/></g><g transform="translate(2,-14) scale(1,1)"><path fill="none" stroke="#000000" d="M 523.790482243984 460.83732514237585 L 528 471 L 532.209517756016 460.83732514237585" stroke-miterlimit="10"/></g><g transform="translate(2,-14) scale(1,1)"><g><path fill="none" stroke="none"/><text fill="#000000" stroke="none" font-family="Arial" font-size="13px" font-style="normal" font-weight="normal" text-decoration="none" x="478.5" y="452.5">MoveToFoundation</text></g></g><g transform="translate(2,-14) scale(1,1)"><path fill="none" stroke="#000000" d="M 523 497 L 491 583" stroke-miterlimit="10"/></g><g transform="translate(2,-14) scale(1,1)"><path fill="none" stroke="#000000" d="M 490.598815303813 572.0073183053659 L 491 583 L 498.489319350519 574.9433198111169" stroke-miterlimit="10"/></g><g transform="translate(2,-14) scale(1,1)"><g><path fill="none" stroke="none"/><text fill="#000000" stroke="none" font-family="Arial" font-size="13px" font-style="normal" font-weight="normal" text-decoration="none" x="503.5400390625" y="554.5"> [allowed]</text></g></g><g transform="translate(2,-14) scale(1,1)"><path fill="none" stroke="#000000" d="M 544 484 L 704 484 L 704 378 L 576 378" stroke-miterlimit="10"/></g><g transform="translate(2,-14) scale(1,1)"><path fill="none" stroke="#000000" d="M 586.1626748576241 373.790482243984 L 576 378 L 586.1626748576241 382.209517756016" stroke-miterlimit="10"/></g><g transform="translate(2,-14) scale(1,1)"><path fill="none" stroke="#000000" d="M 301 409 L 407 481" stroke-miterlimit="10"/></g><g transform="translate(2,-14) scale(1,1)"><path fill="none" stroke="#000000" d="M 396.22800911468136 478.7719487513498 L 407 481 L 400.95852234486324 471.80758205135976" stroke-miterlimit="10"/></g><g transform="translate(2,-14) scale(1,1)"><g><path fill="none" stroke="none"/><text fill="#000000" stroke="none" font-family="Arial" font-size="13px" font-style="normal" font-weight="normal" text-decoration="none" x="294.5" y="460.5">MoveToFoundation</text></g></g><g transform="translate(2,-14) scale(1,1)"><path fill="#C0C0C0" stroke="none" d="M 103 451.5 L 118.5 439 L 133 451.5 L 118.5 463 L 103 451.5" opacity="0.2"/></g><g transform="translate(2,-14) scale(1,1)"><path fill="#ffffff" stroke="none" d="M 96 444 L 111 432 L 126 444 L 111 456 L 96 444"/></g><g transform="translate(2,-14) scale(1,1)"><path fill="none" stroke="#000000" d="M 96 444 L 111 432 L 126 444 L 111 456 L 96 444 L 96 444" stroke-miterlimit="10"/></g><g transform="translate(2,-14) scale(1,1)"><path fill="none" stroke="#000000" d="M 207 402 L 127 437" stroke-miterlimit="10"/></g><g transform="translate(2,-14) scale(1,1)"><path fill="none" stroke="#000000" d="M 134.62335511428685 429.0700279444706 L 127 437 L 137.99786311179002 436.7831890816207" stroke-miterlimit="10"/></g><g transform="translate(2,-14) scale(1,1)"><g><path fill="none" stroke="none"/><text fill="#000000" stroke="none" font-family="Arial" font-size="13px" font-style="normal" font-weight="normal" text-decoration="none" x="146.5" y="450.5">MoveToTableau</text></g></g><g transform="translate(2,-14) scale(1,1)"><path fill="none" stroke="#000000" d="M 96 448 L 32 448 L 32 371 L 208 371" stroke-miterlimit="10"/></g><g transform="translate(2,-14) scale(1,1)"><path fill="none" stroke="#000000" d="M 197.83732514237585 375.209517756016 L 208 371 L 197.83732514237585 366.790482243984" stroke-miterlimit="10"/></g><g transform="translate(2,-14) scale(1,1)"><g><path fill="none" stroke="none"/><text fill="#000000" stroke="none" font-family="Arial" font-size="13px" font-style="normal" font-weight="normal" text-decoration="none" x="28.5400390625" y="417.5"> [allowed]</text></g></g><g transform="translate(2,-14) scale(1,1)"><path fill="none" stroke="#000000" d="M 112 432 L 112 370 L 208 370" stroke-miterlimit="10"/></g><g transform="translate(2,-14) scale(1,1)"><path fill="none" stroke="#000000" d="M 197.83732514237585 374.209517756016 L 208 370 L 197.83732514237585 365.790482243984" stroke-miterlimit="10"/></g><g transform="translate(2,-14) scale(1,1)"><path fill="none" stroke="#000000" d="M 512 232 L 512 360" stroke-miterlimit="10"/></g><g transform="translate(2,-14) scale(1,1)"><path fill="none" stroke="#000000" d="M 507.790482243984 349.83732514237585 L 512 360 L 516.209517756016 349.83732514237585" stroke-miterlimit="10"/></g><g transform="translate(2,-14) scale(1,1)"><g><path fill="none" stroke="none"/><text fill="#000000" stroke="none" font-family="Arial" font-size="13px" font-style="normal" font-weight="normal" text-decoration="none" x="519.5" y="339.5">FirstCard</text></g></g><g transform="translate(2,-14) scale(1,1)"><path fill="#C0C0C0" stroke="none" d="M 415 499.5 L 431.5 487 L 447 499.5 L 431.5 511 L 415 499.5" opacity="0.2"/></g><g transform="translate(2,-14) scale(1,1)"><path fill="#ffffff" stroke="none" d="M 408 492 L 424 480 L 440 492 L 424 504 L 408 492"/></g><g transform="translate(2,-14) scale(1,1)"><path fill="none" stroke="#000000" d="M 408 492 L 424 480 L 440 492 L 424 504 L 408 492 L 408 492" stroke-miterlimit="10"/></g><g transform="translate(2,-14) scale(1,1)"><path fill="none" stroke="#000000" d="M 430 505 L 466 583" stroke-miterlimit="10"/></g><g transform="translate(2,-14) scale(1,1)"><path fill="none" stroke="#000000" d="M 457.9191768452317 575.5367368302223 L 466 583 L 465.5633191468237 572.0086711525645" stroke-miterlimit="10"/></g><g transform="translate(2,-14) scale(1,1)"><g><path fill="none" stroke="none"/><text fill="#000000" stroke="none" font-family="Arial" font-size="13px" font-style="normal" font-weight="normal" text-decoration="none" x="397.5400390625" y="547.5"> [allowed]</text></g></g><g transform="translate(2,-14) scale(1,1)"><path fill="none" stroke="#000000" d="M 424 480 L 424 376 L 308 376" stroke-miterlimit="10"/></g><g transform="translate(2,-14) scale(1,1)"><path fill="none" stroke="#000000" d="M 318.16267485762415 371.790482243984 L 308 376 L 318.16267485762415 380.209517756016" stroke-miterlimit="10"/></g><g transform="translate(2,-14) scale(1,1)"><path fill="#C0C0C0" stroke="none" d="M 255 616.5 L 266.5 607 L 277 616.5 L 266.5 625 L 255 616.5" opacity="0.2"/></g><g transform="translate(2,-14) scale(1,1)"><path fill="#ffffff" stroke="none" d="M 248 609 L 259 600 L 270 609 L 259 618 L 248 609"/></g><g transform="translate(2,-14) scale(1,1)"><path fill="none" stroke="#000000" d="M 248 609 L 259 600 L 270 609 L 259 618 L 248 609 L 248 609" stroke-miterlimit="10"/></g><g transform="translate(2,-14) scale(1,1)"><path fill="none" stroke="#000000" d="M 431 611 L 271 609" stroke-miterlimit="10"/></g><g transform="translate(2,-14) scale(1,1)"><path fill="none" stroke="#000000" d="M 281.2144958532555 604.9178345864204 L 271 609 L 281.10926613010616 613.3362124383716" stroke-miterlimit="10"/></g><g transform="translate(2,-14) scale(1,1)"><g><path fill="none" stroke="none"/><text fill="#000000" stroke="none" font-family="Arial" font-size="13px" font-style="normal" font-weight="normal" text-decoration="none" x="303.5" y="630.5">MoveToTableau</text></g></g><g transform="translate(2,-14) scale(1,1)"><path fill="none" stroke="#000000" d="M 259 599 L 258 409" stroke-miterlimit="10"/></g><g transform="translate(2,-14) scale(1,1)"><path fill="none" stroke="#000000" d="M 262.26294647525344 419.1403790535228 L 258 409 L 253.84402756793898 419.184689153035" stroke-miterlimit="10"/></g><g transform="translate(2,-14) scale(1,1)"><g><path fill="none" stroke="none"/><text fill="#000000" stroke="none" font-family="Arial" font-size="13px" font-style="normal" font-weight="normal" text-decoration="none" x="197.5400390625" y="581.5"> [allowed]</text></g></g><g transform="translate(2,-14) scale(1,1)"><path fill="none" stroke="#000000" d="M 259 618 L 259 680 L 480 680 L 480 640" stroke-miterlimit="10"/></g><g transform="translate(2,-14) scale(1,1)"><path fill="none" stroke="#000000" d="M 484.209517756016 650.1626748576241 L 480 640 L 475.790482243984 650.1626748576241" stroke-miterlimit="10"/></g><g transform="translate(2,-14) scale(1,1)"><path fill="none" stroke="#000000" d="M 508 641 L 591 727" stroke-miterlimit="10"/></g><g transform="translate(2,-14) scale(1,1)"><path fill="none" stroke="#000000" d="M 580.9136393663196 722.6107712331958 L 591 727 L 586.9715194236178 716.7642125732452" stroke-miterlimit="10"/></g><g transform="translate(2,-14) scale(1,1)"><g><path fill="none" stroke="none"/><text fill="#000000" stroke="none" font-family="Arial" font-size="13px" font-style="normal" font-weight="normal" text-decoration="none" x="560.5" y="688.5"> [hasWon]</text></g></g><g transform="translate(2,-14) scale(1,1)"><rect fill="#ffffff" stroke="none" x="152" y="24" width="103.39453125" height="22"/></g><g transform="translate(2,-14) scale(1,1)"><path fill="none" stroke="#000000" d="M 152 24 L 255.39453125 24 L 255.39453125 46 L 152 46 L 152 24 Z Z" stroke-miterlimit="10"/></g><g transform="translate(2,-14) scale(1,1)"><path fill="none" stroke="#000000" d="M 184.39453125 24 L 184.39453125 46" stroke-miterlimit="10"/></g><g transform="translate(2,-14) scale(1,1)"><g><path fill="none" stroke="none"/><text fill="#000000" stroke="none" font-family="Arial" font-size="13px" font-style="normal" font-weight="normal" text-decoration="none" x="190.3095703125" y="41.5">4+1 views</text></g></g><g transform="translate(2,-14) scale(1,1)"><g><path fill="none" stroke="none"/><text fill="#000000" stroke="none" font-family="Arial" font-size="13px" font-style="normal" font-weight="bold" text-decoration="none" x="158.444091796875" y="41.5">link</text></g></g><g transform="translate(2,-14) scale(1,1)"><rect fill="#ffffff" stroke="none" x="24" y="24" width="120.43896484375" height="22"/></g><g transform="translate(2,-14) scale(1,1)"><path fill="none" stroke="#000000" d="M 24 24 L 144.43896484375 24 L 144.43896484375 46 L 24 46 L 24 24 Z Z" stroke-miterlimit="10"/></g><g transform="translate(2,-14) scale(1,1)"><path fill="none" stroke="#000000" d="M 56.39453125 24 L 56.39453125 46" stroke-miterlimit="10"/></g><g transform="translate(2,-14) scale(1,1)"><g><path fill="none" stroke="none"/><text fill="#000000" stroke="none" font-family="Arial" font-size="13px" font-style="normal" font-weight="normal" text-decoration="none" x="60.89453125" y="41.5">domainModel</text></g></g><g transform="translate(2,-14) scale(1,1)"><g><path fill="none" stroke="none"/><text fill="#000000" stroke="none" font-family="Arial" font-size="13px" font-style="normal" font-weight="bold" text-decoration="none" x="30.444091796875" y="41.5">link</text></g></g></g></svg>