<svg version="1.1" xmlns="http://www.w3.org/2000/svg" xmlns:xlink="http://www.w3.org/1999/xlink" width="1006" height="564"><defs/><g><g transform="translate(2,-6) scale(1,1)"><rect fill="#ffffff" stroke="none" x="544" y="16" width="103.39453125" height="22"/></g><g transform="translate(2,-6) scale(1,1)"><path fill="none" stroke="#000000" d="M 544 16 L 647.39453125 16 L 647.39453125 38 L 544 38 L 544 16 Z Z" stroke-miterlimit="10"/></g><g transform="translate(2,-6) scale(1,1)"><path fill="none" stroke="#000000" d="M 576.39453125 16 L 576.39453125 38" stroke-miterlimit="10"/></g><g transform="translate(2,-6) scale(1,1)"><g><path fill="none" stroke="none"/><text fill="#000000" stroke="none" font-family="Arial" font-size="13px" font-style="normal" font-weight="normal" text-decoration="none" x="582.3095703125" y="33.5">4+1 views</text></g></g><g transform="translate(2,-6) scale(1,1)"><g><path fill="none" stroke="none"/><text fill="#000000" stroke="none" font-family="Arial" font-size="13px" font-style="normal" font-weight="bold" text-decoration="none" x="550.444091796875" y="33.5">link</text></g></g><g transform="translate(2,-6) scale(1,1)"><rect fill="#ffffff" stroke="none" x="384" y="16" width="143.4453125" height="22"/></g><g transform="translate(2,-6) scale(1,1)"><path fill="none" stroke="#000000" d="M 384 16 L 527.4453125 16 L 527.4453125 38 L 384 38 L 384 16 Z Z" stroke-miterlimit="10"/></g><g transform="translate(2,-6) scale(1,1)"><path fill="none" stroke="#000000" d="M 416.39453125 16 L 416.39453125 38" stroke-miterlimit="10"/></g><g transform="translate(2,-6) scale(1,1)"><g><path fill="none" stroke="none"/><text fill="#000000" stroke="none" font-family="Arial" font-size="13px" font-style="normal" font-weight="normal" text-decoration="none" x="437.87451171875" y="33.5">designView</text></g></g><g transform="translate(2,-6) scale(1,1)"><g><path fill="none" stroke="none"/><text fill="#000000" stroke="none" font-family="Arial" font-size="13px" font-style="normal" font-weight="bold" text-decoration="none" x="390.444091796875" y="33.5">link</text></g></g><g transform="translate(2,-6) scale(1,1)"><rect fill="#ffffff" stroke="none" x="216" y="16" width="153" height="22"/></g><g transform="translate(2,-6) scale(1,1)"><path fill="none" stroke="#000000" d="M 216 16 L 369 16 L 369 38 L 216 38 L 216 16 Z Z" stroke-miterlimit="10"/></g><g transform="translate(2,-6) scale(1,1)"><path fill="none" stroke="#000000" d="M 248.39453125 16 L 248.39453125 38" stroke-miterlimit="10"/></g><g transform="translate(2,-6) scale(1,1)"><g><path fill="none" stroke="none"/><text fill="#000000" stroke="none" font-family="Arial" font-size="13px" font-style="normal" font-weight="normal" text-decoration="none" x="253.701416015625" y="33.5">IndexAnalysisView</text></g></g><g transform="translate(2,-6) scale(1,1)"><g><path fill="none" stroke="none"/><text fill="#000000" stroke="none" font-family="Arial" font-size="13px" font-style="normal" font-weight="bold" text-decoration="none" x="222.444091796875" y="33.5">link</text></g></g><g transform="translate(2,-6) scale(1,1)"><rect fill="#ffffff" stroke="none" x="16" y="16" width="185" height="22"/></g><g transform="translate(2,-6) scale(1,1)"><path fill="none" stroke="#000000" d="M 16 16 L 201 16 L 201 38 L 16 38 L 16 16 Z Z" stroke-miterlimit="10"/></g><g transform="translate(2,-6) scale(1,1)"><path fill="none" stroke="#000000" d="M 48.39453125 16 L 48.39453125 38" stroke-miterlimit="10"/></g><g transform="translate(2,-6) scale(1,1)"><g><path fill="none" stroke="none"/><text fill="#000000" stroke="none" font-family="Arial" font-size="13px" font-style="normal" font-weight="normal" text-decoration="none" x="53.806884765625" y="33.5">IndexUseCasesAnalysis</text></g></g><g transform="translate(2,-6) scale(1,1)"><g><path fill="none" stroke="none"/><text fill="#000000" stroke="none" font-family="Arial" font-size="13px" font-style="normal" font-weight="bold" text-decoration="none" x="22.444091796875" y="33.5">link</text></g></g><g transform="translate(2,-6) scale(1,1)"><path fill="none" stroke="#000000" d="M 51 176 L 74 176 L 74 199 L 51 199 L 51 176 Z Z" stroke-miterlimit="10"/></g><g transform="translate(2,-6) scale(1,1)"><path fill="none" stroke="#000000" d="M 51 176 L 74 199" stroke-miterlimit="10"/></g><g transform="translate(2,-6) scale(1,1)"><path fill="none" stroke="#000000" d="M 74 176 L 51 199" stroke-miterlimit="10"/></g><g transform="translate(2,-6) scale(1,1)"><g><path fill="none" stroke="none"/><text fill="#000000" stroke="none" font-family="Arial" font-size="13px" font-style="normal" font-weight="bold" text-decoration="none" x="62.5" y="218.5"></text></g></g><g transform="translate(2,-6) scale(1,1)"><rect fill="#C0C0C0" stroke="none" x="159" y="287" width="136" height="48" opacity="0.2"/></g><g transform="translate(2,-6) scale(1,1)"><rect fill="#ffffff" stroke="none" x="152" y="280" width="136" height="48"/></g><g transform="translate(2,-6) scale(1,1)"><path fill="none" stroke="#000000" d="M 152 280 L 288 280 L 288 328 L 152 328 L 152 280 Z Z" stroke-miterlimit="10"/></g><g transform="translate(2,-6) scale(1,1)"><rect fill="#ffffff" stroke="none" x="152" y="280" width="136" height="48"/></g><g transform="translate(2,-6) scale(1,1)"><path fill="none" stroke="#000000" d="M 152 280 L 288 280 L 288 328 L 152 328 L 152 280 Z Z" stroke-miterlimit="10"/></g><g transform="translate(2,-6) scale(1,1)"><g><path fill="none" stroke="none"/><text fill="#000000" stroke="none" font-family="Arial" font-size="13px" font-style="normal" font-weight="bold" text-decoration="none" x="184.59912109375" y="299.5">: GameView</text></g></g><g transform="translate(2,-6) scale(1,1)"><rect fill="#C0C0C0" stroke="none" x="359" y="119" width="300" height="48" opacity="0.2"/></g><g transform="translate(2,-6) scale(1,1)"><rect fill="#ffffff" stroke="none" x="352" y="112" width="300" height="48"/></g><g transform="translate(2,-6) scale(1,1)"><path fill="none" stroke="#000000" d="M 352 112 L 652 112 L 652 160 L 352 160 L 352 112 Z Z" stroke-miterlimit="10"/></g><g transform="translate(2,-6) scale(1,1)"><rect fill="#ffffff" stroke="none" x="352" y="112" width="300" height="48"/></g><g transform="translate(2,-6) scale(1,1)"><path fill="none" stroke="#000000" d="M 352 112 L 652 112 L 652 160 L 352 160 L 352 112 Z Z" stroke-miterlimit="10"/></g><g transform="translate(2,-6) scale(1,1)"><g><path fill="none" stroke="none"/><text fill="#000000" stroke="none" font-family="Arial" font-size="13px" font-style="normal" font-weight="bold" text-decoration="none" x="389.656005859375" y="131.5">: MoveFromWasteToTableauController</text></g></g><g transform="translate(2,-6) scale(1,1)"><rect fill="#C0C0C0" stroke="none" x="47" y="423" width="203" height="48" opacity="0.2"/></g><g transform="translate(2,-6) scale(1,1)"><rect fill="#ffffff" stroke="none" x="40" y="416" width="203" height="48"/></g><g transform="translate(2,-6) scale(1,1)"><path fill="none" stroke="#000000" d="M 40 416 L 243 416 L 243 464 L 40 464 L 40 416 Z Z" stroke-miterlimit="10"/></g><g transform="translate(2,-6) scale(1,1)"><rect fill="#ffffff" stroke="none" x="40" y="416" width="203" height="48"/></g><g transform="translate(2,-6) scale(1,1)"><path fill="none" stroke="#000000" d="M 40 416 L 243 416 L 243 464 L 40 464 L 40 416 Z Z" stroke-miterlimit="10"/></g><g transform="translate(2,-6) scale(1,1)"><g><path fill="none" stroke="none"/><text fill="#000000" stroke="none" font-family="Arial" font-size="13px" font-style="normal" font-weight="bold" text-decoration="none" x="75.7509765625" y="435.5">: ShowGameController</text></g></g><g transform="translate(2,-6) scale(1,1)"><rect fill="#C0C0C0" stroke="none" x="759" y="127" width="156" height="48" opacity="0.2"/></g><g transform="translate(2,-6) scale(1,1)"><rect fill="#ffffff" stroke="none" x="752" y="120" width="156" height="48"/></g><g transform="translate(2,-6) scale(1,1)"><path fill="none" stroke="#000000" d="M 752 120 L 908 120 L 908 168 L 752 168 L 752 120 Z Z" stroke-miterlimit="10"/></g><g transform="translate(2,-6) scale(1,1)"><rect fill="#ffffff" stroke="none" x="752" y="120" width="156" height="48"/></g><g transform="translate(2,-6) scale(1,1)"><path fill="none" stroke="#000000" d="M 752 120 L 908 120 L 908 168 L 752 168 L 752 120 Z Z" stroke-miterlimit="10"/></g><g transform="translate(2,-6) scale(1,1)"><g><path fill="none" stroke="none"/><text fill="#000000" stroke="none" font-family="Arial" font-size="13px" font-style="normal" font-weight="bold" text-decoration="none" x="787.00732421875" y="139.5">: SessionEntity</text></g></g><g transform="translate(2,-6) scale(1,1)"><rect fill="#C0C0C0" stroke="none" x="535" y="343" width="142" height="48" opacity="0.2"/></g><g transform="translate(2,-6) scale(1,1)"><rect fill="#ffffff" stroke="none" x="528" y="336" width="142" height="48"/></g><g transform="translate(2,-6) scale(1,1)"><path fill="none" stroke="#000000" d="M 528 336 L 670 336 L 670 384 L 528 384 L 528 336 Z Z" stroke-miterlimit="10"/></g><g transform="translate(2,-6) scale(1,1)"><rect fill="#ffffff" stroke="none" x="528" y="336" width="142" height="48"/></g><g transform="translate(2,-6) scale(1,1)"><path fill="none" stroke="#000000" d="M 528 336 L 670 336 L 670 384 L 528 384 L 528 336 Z Z" stroke-miterlimit="10"/></g><g transform="translate(2,-6) scale(1,1)"><g><path fill="none" stroke="none"/><text fill="#000000" stroke="none" font-family="Arial" font-size="13px" font-style="normal" font-weight="bold" text-decoration="none" x="561.431396484375" y="355.5">: GameEntity</text></g></g><g transform="translate(2,-6) scale(1,1)"><rect fill="#C0C0C0" stroke="none" x="319" y="447" width="135" height="48" opacity="0.2"/></g><g transform="translate(2,-6) scale(1,1)"><rect fill="#ffffff" stroke="none" x="312" y="440" width="135" height="48"/></g><g transform="translate(2,-6) scale(1,1)"><path fill="none" stroke="#000000" d="M 312 440 L 447 440 L 447 488 L 312 488 L 312 440 Z Z" stroke-miterlimit="10"/></g><g transform="translate(2,-6) scale(1,1)"><rect fill="#ffffff" stroke="none" x="312" y="440" width="135" height="48"/></g><g transform="translate(2,-6) scale(1,1)"><path fill="none" stroke="#000000" d="M 312 440 L 447 440 L 447 488 L 312 488 L 312 440 Z Z" stroke-miterlimit="10"/></g><g transform="translate(2,-6) scale(1,1)"><g><path fill="none" stroke="none"/><text fill="#000000" stroke="none" font-family="Arial" font-size="13px" font-style="normal" font-weight="bold" text-decoration="none" x="345.543212890625" y="459.5">: CardEntity</text></g></g><g transform="translate(2,-6) scale(1,1)"><rect fill="#C0C0C0" stroke="none" x="567" y="519" width="140" height="48" opacity="0.2"/></g><g transform="translate(2,-6) scale(1,1)"><rect fill="#ffffff" stroke="none" x="560" y="512" width="140" height="48"/></g><g transform="translate(2,-6) scale(1,1)"><path fill="none" stroke="#000000" d="M 560 512 L 700 512 L 700 560 L 560 560 L 560 512 Z Z" stroke-miterlimit="10"/></g><g transform="translate(2,-6) scale(1,1)"><rect fill="#ffffff" stroke="none" x="560" y="512" width="140" height="48"/></g><g transform="translate(2,-6) scale(1,1)"><path fill="none" stroke="#000000" d="M 560 512 L 700 512 L 700 560 L 560 560 L 560 512 Z Z" stroke-miterlimit="10"/></g><g transform="translate(2,-6) scale(1,1)"><g><path fill="none" stroke="none"/><text fill="#000000" stroke="none" font-family="Arial" font-size="13px" font-style="normal" font-weight="bold" text-decoration="none" x="591.7109375" y="531.5">: WasteEntity</text></g></g><g transform="translate(2,-6) scale(1,1)"><rect fill="#C0C0C0" stroke="none" x="839" y="487" width="143" height="48" opacity="0.2"/></g><g transform="translate(2,-6) scale(1,1)"><rect fill="#ffffff" stroke="none" x="832" y="480" width="143" height="48"/></g><g transform="translate(2,-6) scale(1,1)"><path fill="none" stroke="#000000" d="M 832 480 L 975 480 L 975 528 L 832 528 L 832 480 Z Z" stroke-miterlimit="10"/></g><g transform="translate(2,-6) scale(1,1)"><rect fill="#ffffff" stroke="none" x="832" y="480" width="143" height="48"/></g><g transform="translate(2,-6) scale(1,1)"><path fill="none" stroke="#000000" d="M 832 480 L 975 480 L 975 528 L 832 528 L 832 480 Z Z" stroke-miterlimit="10"/></g><g transform="translate(2,-6) scale(1,1)"><g><path fill="none" stroke="none"/><text fill="#000000" stroke="none" font-family="Arial" font-size="13px" font-style="normal" font-weight="bold" text-decoration="none" x="866.286865234375" y="499.5">: BoardEntity</text></g></g><g transform="translate(2,-6) scale(1,1)"><rect fill="#C0C0C0" stroke="none" x="839" y="327" width="162" height="48" opacity="0.2"/></g><g transform="translate(2,-6) scale(1,1)"><rect fill="#ffffff" stroke="none" x="832" y="320" width="162" height="48"/></g><g transform="translate(2,-6) scale(1,1)"><path fill="none" stroke="#000000" d="M 832 320 L 994 320 L 994 368 L 832 368 L 832 320 Z Z" stroke-miterlimit="10"/></g><g transform="translate(2,-6) scale(1,1)"><rect fill="#ffffff" stroke="none" x="832" y="320" width="162" height="48"/></g><g transform="translate(2,-6) scale(1,1)"><path fill="none" stroke="#000000" d="M 832 320 L 994 320 L 994 368 L 832 368 L 832 320 Z Z" stroke-miterlimit="10"/></g><g transform="translate(2,-6) scale(1,1)"><g><path fill="none" stroke="none"/><text fill="#000000" stroke="none" font-family="Arial" font-size="13px" font-style="normal" font-weight="bold" text-decoration="none" x="869.642333984375" y="339.5">: TableauEntity</text></g></g><g transform="translate(2,-6) scale(1,1)"><path fill="none" stroke="#000000" d="M 100 225 L 182 279" stroke-miterlimit="10"/></g><g transform="translate(2,-6) scale(1,1)"><path fill="none" stroke="#000000" d="M 205 329 L 156 415" stroke-miterlimit="10"/></g><g transform="translate(2,-6) scale(1,1)"><path fill="none" stroke="#000000" d="M 262 279 L 460 161" stroke-miterlimit="10"/></g><g transform="translate(2,-6) scale(1,1)"><path fill="none" stroke="#000000" d="M 513 161 L 588 335" stroke-miterlimit="10"/></g><g transform="translate(2,-6) scale(1,1)"><path fill="none" stroke="#000000" d="M 653 140 L 751 142" stroke-miterlimit="10"/></g><g transform="translate(2,-6) scale(1,1)"><path fill="none" stroke="#000000" d="M 546 385 L 432 439" stroke-miterlimit="10"/></g><g transform="translate(2,-6) scale(1,1)"><path fill="none" stroke="#000000" d="M 603 385 L 626 511" stroke-miterlimit="10"/></g><g transform="translate(2,-6) scale(1,1)"><path fill="none" stroke="#000000" d="M 652 385 L 850 479" stroke-miterlimit="10"/></g><g transform="translate(2,-6) scale(1,1)"><path fill="none" stroke="#000000" d="M 671 356 L 831 348" stroke-miterlimit="10"/></g><g transform="translate(2,-6) scale(1,1)"><path fill="none" stroke="#000000" d="M 653 140 L 751 142" stroke-miterlimit="10"/></g><g transform="translate(2,-6) scale(1,1)"><path fill="none" stroke="#000000" d="M 722 131 L 683 131" stroke-miterlimit="10"/></g><g transform="translate(2,-6) scale(1,1)"><path fill="#000000" stroke="none" d="M 710 135 L 722 131 L 710 126"/></g><g transform="translate(2,-6) scale(1,1)"><g><path fill="none" stroke="none"/><text fill="#000000" stroke="none" font-family="Arial" font-size="13px" font-style="normal" font-weight="normal" text-decoration="none" x="665.73095703125" y="126.5">1 : getGame</text></g></g><g transform="translate(2,-6) scale(1,1)"><path fill="none" stroke="#000000" d="M 653 140 L 751 142" stroke-miterlimit="10"/></g><g transform="translate(2,-6) scale(1,1)"><path fill="none" stroke="#000000" d="M 722 131 L 683 131" stroke-miterlimit="10"/></g><g transform="translate(2,-6) scale(1,1)"><path fill="#000000" stroke="none" d="M 710 135 L 722 131 L 710 126"/></g><g transform="translate(2,-6) scale(1,1)"><g><path fill="none" stroke="none"/><text fill="#000000" stroke="none" font-family="Arial" font-size="13px" font-style="normal" font-weight="normal" text-decoration="none" x="706.00732421875" y="108.5">2 : getPlayer</text></g></g><g transform="translate(2,-6) scale(1,1)"><path fill="none" stroke="#000000" d="M 100 225 L 182 279" stroke-miterlimit="10"/></g><g transform="translate(2,-6) scale(1,1)"><path fill="none" stroke="#000000" d="M 163 254 L 130 233" stroke-miterlimit="10"/></g><g transform="translate(2,-6) scale(1,1)"><path fill="#000000" stroke="none" d="M 151 251 L 163 254 L 156 244"/></g><g transform="translate(2,-6) scale(1,1)"><g><path fill="none" stroke="none"/><text fill="#000000" stroke="none" font-family="Arial" font-size="13px" font-style="normal" font-weight="normal" text-decoration="none" x="95.057373046875" y="164">3 : setSelectedCardFromWaste(card=)</text></g></g><g transform="translate(2,-6) scale(1,1)"><path fill="none" stroke="#000000" d="M 100 225 L 182 279" stroke-miterlimit="10"/></g><g transform="translate(2,-6) scale(1,1)"><path fill="none" stroke="#000000" d="M 163 254 L 130 233" stroke-miterlimit="10"/></g><g transform="translate(2,-6) scale(1,1)"><path fill="#000000" stroke="none" d="M 151 251 L 163 254 L 156 244"/></g><g transform="translate(2,-6) scale(1,1)"><g><path fill="none" stroke="none"/><text fill="#000000" stroke="none" font-family="Arial" font-size="13px" font-style="normal" font-weight="normal" text-decoration="none" x="103.04248046875" y="188">4 : setSelectedDestinationTableau(tableau=)</text></g></g><g transform="translate(2,-6) scale(1,1)"><path fill="none" stroke="#000000" d="M 100 225 L 182 279" stroke-miterlimit="10"/></g><g transform="translate(2,-6) scale(1,1)"><path fill="none" stroke="#000000" d="M 163 254 L 130 233" stroke-miterlimit="10"/></g><g transform="translate(2,-6) scale(1,1)"><path fill="#000000" stroke="none" d="M 151 251 L 163 254 L 156 244"/></g><g transform="translate(2,-6) scale(1,1)"><g><path fill="none" stroke="none"/><text fill="#000000" stroke="none" font-family="Arial" font-size="13px" font-style="normal" font-weight="normal" text-decoration="none" x="106.583251953125" y="212">5 : moveFromWasteToTableau()</text></g></g><g transform="translate(2,-6) scale(1,1)"><path fill="none" stroke="#000000" d="M 262 279 L 460 161" stroke-miterlimit="10"/></g><g transform="translate(2,-6) scale(1,1)"><path fill="none" stroke="#000000" d="M 372 201 L 338 221" stroke-miterlimit="10"/></g><g transform="translate(2,-6) scale(1,1)"><path fill="#000000" stroke="none" d="M 364 210 L 372 201 L 360 202"/></g><g transform="translate(2,-6) scale(1,1)"><g><path fill="none" stroke="none"/><text fill="#000000" stroke="none" font-family="Arial" font-size="13px" font-style="normal" font-weight="normal" text-decoration="none" x="254.716064453125" y="243.5">6 : moveFromWasteToTableau(card=,tableau=)</text></g></g><g transform="translate(2,-6) scale(1,1)"><path fill="none" stroke="#000000" d="M 513 161 L 588 335" stroke-miterlimit="10"/></g><g transform="translate(2,-6) scale(1,1)"><path fill="none" stroke="#000000" d="M 567 261 L 551 225" stroke-miterlimit="10"/></g><g transform="translate(2,-6) scale(1,1)"><path fill="#000000" stroke="none" d="M 558 252 L 567 261 L 566 249"/></g><g transform="translate(2,-6) scale(1,1)"><g><path fill="none" stroke="none"/><text fill="#000000" stroke="none" font-family="Arial" font-size="13px" font-style="normal" font-weight="normal" text-decoration="none" x="486.716064453125" y="212.5">7 : moveFromWasteToTableau(card=,tableau=)</text></g></g><g transform="translate(2,-6) scale(1,1)"><path fill="none" stroke="#000000" d="M 546 385 L 432 439" stroke-miterlimit="10"/></g><g transform="translate(2,-6) scale(1,1)"><path fill="none" stroke="#000000" d="M 475 430 L 511 413" stroke-miterlimit="10"/></g><g transform="translate(2,-6) scale(1,1)"><path fill="#000000" stroke="none" d="M 483 421 L 475 430 L 486 429"/></g><g transform="translate(2,-6) scale(1,1)"><g><path fill="none" stroke="none"/><text fill="#000000" stroke="none" font-family="Arial" font-size="13px" font-style="normal" font-weight="normal" text-decoration="none" x="470.8427734375" y="451">8 : getCard</text></g></g><g transform="translate(2,-6) scale(1,1)"><path fill="none" stroke="#000000" d="M 546 385 L 432 439" stroke-miterlimit="10"/></g><g transform="translate(2,-6) scale(1,1)"><path fill="none" stroke="#000000" d="M 475 430 L 511 413" stroke-miterlimit="10"/></g><g transform="translate(2,-6) scale(1,1)"><path fill="#000000" stroke="none" d="M 483 421 L 475 430 L 486 429"/></g><g transform="translate(2,-6) scale(1,1)"><g><path fill="none" stroke="none"/><text fill="#000000" stroke="none" font-family="Arial" font-size="13px" font-style="normal" font-weight="normal" text-decoration="none" x="374.115966796875" y="419">9 : getSuite</text></g></g><g transform="translate(2,-6) scale(1,1)"><path fill="none" stroke="#000000" d="M 546 385 L 432 439" stroke-miterlimit="10"/></g><g transform="translate(2,-6) scale(1,1)"><path fill="none" stroke="#000000" d="M 475 430 L 511 413" stroke-miterlimit="10"/></g><g transform="translate(2,-6) scale(1,1)"><path fill="#000000" stroke="none" d="M 483 421 L 475 430 L 486 429"/></g><g transform="translate(2,-6) scale(1,1)"><g><path fill="none" stroke="none"/><text fill="#000000" stroke="none" font-family="Arial" font-size="13px" font-style="normal" font-weight="normal" text-decoration="none" x="415.1982421875" y="395">10 : getNumber</text></g></g><g transform="translate(2,-6) scale(1,1)"><path fill="none" stroke="#000000" d="M 671 356 L 831 348" stroke-miterlimit="10"/></g><g transform="translate(2,-6) scale(1,1)"><path fill="none" stroke="#000000" d="M 770 342 L 731 343" stroke-miterlimit="10"/></g><g transform="translate(2,-6) scale(1,1)"><path fill="#000000" stroke="none" d="M 759 346 L 770 342 L 758 337"/></g><g transform="translate(2,-6) scale(1,1)"><g><path fill="none" stroke="none"/><text fill="#000000" stroke="none" font-family="Arial" font-size="13px" font-style="normal" font-weight="normal" text-decoration="none" x="693.3232421875" y="338">11 : setCard(card=)</text></g></g><g transform="translate(2,-6) scale(1,1)"><path fill="none" stroke="#000000" d="M 652 385 L 850 479" stroke-miterlimit="10"/></g><g transform="translate(2,-6) scale(1,1)"><path fill="none" stroke="#000000" d="M 773 431 L 737 414" stroke-miterlimit="10"/></g><g transform="translate(2,-6) scale(1,1)"><path fill="#000000" stroke="none" d="M 761 430 L 773 431 L 764 422"/></g><g transform="translate(2,-6) scale(1,1)"><g><path fill="none" stroke="none"/><text fill="#000000" stroke="none" font-family="Arial" font-size="13px" font-style="normal" font-weight="normal" text-decoration="none" x="712.0673828125" y="417">12 : moveCard(card=, topCard=)</text></g></g><g transform="translate(2,-6) scale(1,1)"><path fill="none" stroke="#000000" d="M 671 356 L 831 348" stroke-miterlimit="10"/></g><g transform="translate(2,-6) scale(1,1)"><path fill="none" stroke="#000000" d="M 770 342 L 731 343" stroke-miterlimit="10"/></g><g transform="translate(2,-6) scale(1,1)"><path fill="#000000" stroke="none" d="M 759 346 L 770 342 L 758 337"/></g><g transform="translate(2,-6) scale(1,1)"><g><path fill="none" stroke="none"/><text fill="#000000" stroke="none" font-family="Arial" font-size="13px" font-style="normal" font-weight="normal" text-decoration="none" x="689.63330078125" y="316">13 : findTopCard(tableau=)</text></g></g><g transform="translate(2,-6) scale(1,1)"><path fill="none" stroke="#000000" d="M 603 385 L 626 511" stroke-miterlimit="10"/></g><g transform="translate(2,-6) scale(1,1)"><path fill="none" stroke="#000000" d="M 627 466 L 620 427" stroke-miterlimit="10"/></g><g transform="translate(2,-6) scale(1,1)"><path fill="#000000" stroke="none" d="M 620 455 L 627 466 L 629 454"/></g><g transform="translate(2,-6) scale(1,1)"><g><path fill="none" stroke="none"/><text fill="#000000" stroke="none" font-family="Arial" font-size="13px" font-style="normal" font-weight="normal" text-decoration="none" x="553.320068359375" y="442">14 : removeCard(card=)</text></g></g></g></svg>