<svg version="1.1" xmlns="http://www.w3.org/2000/svg" xmlns:xlink="http://www.w3.org/1999/xlink" width="730" height="486"><defs/><g><g transform="translate(2,-6) scale(1,1)"><rect fill="#ffffff" stroke="none" x="264" y="16" width="103.39453125" height="22"/></g><g transform="translate(2,-6) scale(1,1)"><path fill="none" stroke="#000000" d="M 264 16 L 367.39453125 16 L 367.39453125 38 L 264 38 L 264 16 Z Z" stroke-miterlimit="10"/></g><g transform="translate(2,-6) scale(1,1)"><path fill="none" stroke="#000000" d="M 296.39453125 16 L 296.39453125 38" stroke-miterlimit="10"/></g><g transform="translate(2,-6) scale(1,1)"><g><path fill="none" stroke="none"/><text fill="#000000" stroke="none" font-family="Arial" font-size="13px" font-style="normal" font-weight="normal" text-decoration="none" x="302.3095703125" y="33.5">4+1 views</text></g></g><g transform="translate(2,-6) scale(1,1)"><g><path fill="none" stroke="none"/><text fill="#000000" stroke="none" font-family="Arial" font-size="13px" font-style="normal" font-weight="bold" text-decoration="none" x="270.444091796875" y="33.5">link</text></g></g><g transform="translate(2,-6) scale(1,1)"><rect fill="#ffffff" stroke="none" x="128" y="16" width="124.0380859375" height="22"/></g><g transform="translate(2,-6) scale(1,1)"><path fill="none" stroke="#000000" d="M 128 16 L 252.0380859375 16 L 252.0380859375 38 L 128 38 L 128 16 Z Z" stroke-miterlimit="10"/></g><g transform="translate(2,-6) scale(1,1)"><path fill="none" stroke="#000000" d="M 160.39453125 16 L 160.39453125 38" stroke-miterlimit="10"/></g><g transform="translate(2,-6) scale(1,1)"><g><path fill="none" stroke="none"/><text fill="#000000" stroke="none" font-family="Arial" font-size="13px" font-style="normal" font-weight="normal" text-decoration="none" x="164.89453125" y="33.5">UseCaseView</text></g></g><g transform="translate(2,-6) scale(1,1)"><g><path fill="none" stroke="none"/><text fill="#000000" stroke="none" font-family="Arial" font-size="13px" font-style="normal" font-weight="bold" text-decoration="none" x="134.444091796875" y="33.5">link</text></g></g><g transform="translate(2,-6) scale(1,1)"><path fill="#C0C0C0" stroke="none" d="M 175 352 C 175 342.6111584 199.8481936 335 230.5 335 C 261.1518064 335 286 342.6111584 286 352 C 286 361.3888416 261.1518064 369 230.5 369 C 199.8481936 369 175 361.3888416 175 352 Z" opacity="0.2"/></g><g transform="translate(2,-6) scale(1,1)"><path fill="#ffffff" stroke="none" d="M 168 345 C 168 335.6111584 192.8481936 328 223.5 328 C 254.1518064 328 279 335.6111584 279 345 C 279 354.3888416 254.1518064 362 223.5 362 C 192.8481936 362 168 354.3888416 168 345 Z"/></g><g transform="translate(2,-6) scale(1,1)"><path fill="none" stroke="#000000" d="M 168 345 C 168 335.6111584 192.8481936 328 223.5 328 C 254.1518064 328 279 335.6111584 279 345 C 279 354.3888416 254.1518064 362 223.5 362 C 192.8481936 362 168 354.3888416 168 345 Z" stroke-miterlimit="10"/></g><g transform="translate(2,-6) scale(1,1)"><g><path fill="none" stroke="none"/><text fill="#000000" stroke="none" font-family="Arial" font-size="13px" font-style="normal" font-weight="bold" text-decoration="none" x="192.07275390625" y="352">StartGame</text></g></g><g transform="translate(2,-6) scale(1,1)"><path fill="#C0C0C0" stroke="none" d="M 615 472 C 615 462.6111584 639.1766208 455 669 455 C 698.8233792 455 723 462.6111584 723 472 C 723 481.3888416 698.8233792 489 669 489 C 639.1766208 489 615 481.3888416 615 472 Z" opacity="0.2"/></g><g transform="translate(2,-6) scale(1,1)"><path fill="#ffffff" stroke="none" d="M 608 465 C 608 455.6111584 632.1766208 448 662 448 C 691.8233792 448 716 455.6111584 716 465 C 716 474.3888416 691.8233792 482 662 482 C 632.1766208 482 608 474.3888416 608 465 Z"/></g><g transform="translate(2,-6) scale(1,1)"><path fill="none" stroke="#000000" d="M 608 465 C 608 455.6111584 632.1766208 448 662 448 C 691.8233792 448 716 455.6111584 716 465 C 716 474.3888416 691.8233792 482 662 482 C 632.1766208 482 608 474.3888416 608 465 Z" stroke-miterlimit="10"/></g><g transform="translate(2,-6) scale(1,1)"><g><path fill="none" stroke="none"/><text fill="#000000" stroke="none" font-family="Arial" font-size="13px" font-style="normal" font-weight="bold" text-decoration="none" x="629.839599609375" y="472">LoadGame</text></g></g><g transform="translate(2,-6) scale(1,1)"><path fill="#C0C0C0" stroke="none" d="M 623 312 C 623 302.6111584 645.8334752 295 674 295 C 702.1665248 295 725 302.6111584 725 312 C 725 321.3888416 702.1665248 329 674 329 C 645.8334752 329 623 321.3888416 623 312 Z" opacity="0.2"/></g><g transform="translate(2,-6) scale(1,1)"><path fill="#ffffff" stroke="none" d="M 616 305 C 616 295.6111584 638.8334752 288 667 288 C 695.1665248 288 718 295.6111584 718 305 C 718 314.3888416 695.1665248 322 667 322 C 638.8334752 322 616 314.3888416 616 305 Z"/></g><g transform="translate(2,-6) scale(1,1)"><path fill="none" stroke="#000000" d="M 616 305 C 616 295.6111584 638.8334752 288 667 288 C 695.1665248 288 718 295.6111584 718 305 C 718 314.3888416 695.1665248 322 667 322 C 638.8334752 322 616 314.3888416 616 305 Z" stroke-miterlimit="10"/></g><g transform="translate(2,-6) scale(1,1)"><g><path fill="none" stroke="none"/><text fill="#000000" stroke="none" font-family="Arial" font-size="13px" font-style="normal" font-weight="bold" text-decoration="none" x="636.29638671875" y="312">NewGame</text></g></g><g transform="translate(2,-6) scale(1,1)"><path fill="#ffffff" stroke="none" d="M 64.40935031960227 313.68 C 64.40935031960227 308.886167936 68.29519264454773 305 73.088623046875 305 C 77.88205344920227 305 81.76789577414773 308.886167936 81.76789577414773 313.68 C 81.76789577414773 318.473832064 77.88205344920227 322.36 73.088623046875 322.36 C 68.29519264454773 322.36 64.40935031960227 318.473832064 64.40935031960227 313.68 Z"/></g><g transform="translate(2,-6) scale(1,1)"><path fill="none" stroke="#000000" d="M 64.40935031960227 313.68 C 64.40935031960227 308.886167936 68.29519264454773 305 73.088623046875 305 C 77.88205344920227 305 81.76789577414773 308.886167936 81.76789577414773 313.68 C 81.76789577414773 318.473832064 77.88205344920227 322.36 73.088623046875 322.36 C 68.29519264454773 322.36 64.40935031960227 318.473832064 64.40935031960227 313.68 Z" stroke-miterlimit="10"/></g><g transform="translate(2,-6) scale(1,1)"><path fill="none" stroke="#000000" d="M 73.088623046875 322.36 L 73.088623046875 339.64" stroke-miterlimit="10"/></g><g transform="translate(2,-6) scale(1,1)"><path fill="none" stroke="#000000" d="M 63.89880486505682 328.84 L 82.27844122869318 328.84" stroke-miterlimit="10"/></g><g transform="translate(2,-6) scale(1,1)"><path fill="none" stroke="#000000" d="M 73.088623046875 339.64 L 60.324986683238635 357" stroke-miterlimit="10"/></g><g transform="translate(2,-6) scale(1,1)"><path fill="none" stroke="#000000" d="M 73.088623046875 339.64 L 85.85225941051137 357" stroke-miterlimit="10"/></g><g transform="translate(2,-6) scale(1,1)"><g><path fill="none" stroke="none"/><text fill="#000000" stroke="none" font-family="Arial" font-size="13px" font-style="normal" font-weight="bold" text-decoration="none" x="54.66455078125" y="377.5">Player</text></g></g><g transform="translate(2,-6) scale(1,1)"><path fill="#C0C0C0" stroke="none" d="M 311 264 C 311 254.6111584 348.1603616 247 394 247 C 439.8396384 247 477 254.6111584 477 264 C 477 273.3888416 439.8396384 281 394 281 C 348.1603616 281 311 273.3888416 311 264 Z" opacity="0.2"/></g><g transform="translate(2,-6) scale(1,1)"><path fill="#ffffff" stroke="none" d="M 304 257 C 304 247.6111584 341.1603616 240 387 240 C 432.8396384 240 470 247.6111584 470 257 C 470 266.3888416 432.8396384 274 387 274 C 341.1603616 274 304 266.3888416 304 257 Z"/></g><g transform="translate(2,-6) scale(1,1)"><path fill="none" stroke="#000000" d="M 304 257 C 304 247.6111584 341.1603616 240 387 240 C 432.8396384 240 470 247.6111584 470 257 C 470 266.3888416 432.8396384 274 387 274 C 341.1603616 274 304 266.3888416 304 257 Z" stroke-miterlimit="10"/></g><g transform="translate(2,-6) scale(1,1)"><g><path fill="none" stroke="none"/><text fill="#000000" stroke="none" font-family="Arial" font-size="13px" font-style="normal" font-weight="bold" text-decoration="none" x="334.974609375" y="264">SelectGameMode</text></g></g><g transform="translate(2,-6) scale(1,1)"><path fill="#C0C0C0" stroke="none" d="M 495 200 C 495 190.6111584 518.7289056 183 548 183 C 577.2710944 183 601 190.6111584 601 200 C 601 209.3888416 577.2710944 217 548 217 C 518.7289056 217 495 209.3888416 495 200 Z" opacity="0.2"/></g><g transform="translate(2,-6) scale(1,1)"><path fill="#ffffff" stroke="none" d="M 488 193 C 488 183.6111584 511.7289056 176 541 176 C 570.2710944 176 594 183.6111584 594 193 C 594 202.3888416 570.2710944 210 541 210 C 511.7289056 210 488 202.3888416 488 193 Z"/></g><g transform="translate(2,-6) scale(1,1)"><path fill="none" stroke="#000000" d="M 488 193 C 488 183.6111584 511.7289056 176 541 176 C 570.2710944 176 594 183.6111584 594 193 C 594 202.3888416 570.2710944 210 541 210 C 511.7289056 210 488 202.3888416 488 193 Z" stroke-miterlimit="10"/></g><g transform="translate(2,-6) scale(1,1)"><g><path fill="none" stroke="none"/><text fill="#000000" stroke="none" font-family="Arial" font-size="13px" font-style="normal" font-weight="bold" text-decoration="none" x="509.9345703125" y="200">StartDemo</text></g></g><g transform="translate(2,-6) scale(1,1)"><path fill="none" stroke="#000000" d="M 99 343 L 167 344" stroke-miterlimit="10"/></g><g transform="translate(2,-6) scale(1,1)"><path fill="none" stroke="#000000" d="M 156.77652588919815 348.0596277053154 L 167 344 L 156.90032184944562 339.6415024084882" stroke-miterlimit="10"/></g><g transform="translate(2,-6) scale(1,1)"><path fill="#C0C0C0" stroke="none" d="M 471 392 C 471 382.6111584 495.62433599999997 375 526 375 C 556.375664 375 581 382.6111584 581 392 C 581 401.3888416 556.375664 409 526 409 C 495.62433599999997 409 471 401.3888416 471 392 Z" opacity="0.2"/></g><g transform="translate(2,-6) scale(1,1)"><path fill="#ffffff" stroke="none" d="M 464 385 C 464 375.6111584 488.62433599999997 368 519 368 C 549.375664 368 574 375.6111584 574 385 C 574 394.3888416 549.375664 402 519 402 C 488.62433599999997 402 464 394.3888416 464 385 Z"/></g><g transform="translate(2,-6) scale(1,1)"><path fill="none" stroke="#000000" d="M 464 385 C 464 375.6111584 488.62433599999997 368 519 368 C 549.375664 368 574 375.6111584 574 385 C 574 394.3888416 549.375664 402 519 402 C 488.62433599999997 402 464 394.3888416 464 385 Z" stroke-miterlimit="10"/></g><g transform="translate(2,-6) scale(1,1)"><g><path fill="none" stroke="none"/><text fill="#000000" stroke="none" font-family="Arial" font-size="13px" font-style="normal" font-weight="bold" text-decoration="none" x="486.84912109375" y="392">StartPlayer</text></g></g><g transform="translate(2,-6) scale(1,1)"><path fill="none" stroke="#000000" d="M 257 327 L 353 275" stroke-miterlimit="10" stroke-dasharray="3"/></g><g transform="translate(2,-6) scale(1,1)"><path fill="none" stroke="#000000" d="M 346.0689640098393 283.54170592464396 L 353 275 L 342.05911926849234 276.1389156329264" stroke-miterlimit="10"/></g><g transform="translate(2,-6) scale(1,1)"><g><path fill="none" stroke="none"/><text fill="#000000" stroke="none" font-family="Arial" font-size="13px" font-style="normal" font-weight="normal" text-decoration="none" x="262.5" y="280.5">«include»</text></g></g><g transform="translate(2,-6) scale(1,1)"><path fill="none" stroke="#000000" d="M 630 447 L 551 403" stroke-miterlimit="10" stroke-dasharray="3"/></g><g transform="translate(2,-6) scale(1,1)"><path fill="none" stroke="#000000" d="M 561.9267436985857 404.2673879222309 L 551 403 L 557.8301959713539 411.6225531597608" stroke-miterlimit="10"/></g><g transform="translate(2,-6) scale(1,1)"><g><path fill="none" stroke="none"/><text fill="#000000" stroke="none" font-family="Arial" font-size="13px" font-style="normal" font-weight="normal" text-decoration="none" x="548.5" y="452.5">«extend»</text></g></g><g transform="translate(2,-6) scale(1,1)"><path fill="none" stroke="#000000" d="M 498 211 L 430 239" stroke-miterlimit="10" stroke-dasharray="3"/></g><g transform="translate(2,-6) scale(1,1)"><path fill="none" stroke="#000000" d="M 437.7944297969471 231.23811465296848 L 430 239 L 440.9999759285823 239.02301240122532" stroke-miterlimit="10"/></g><g transform="translate(2,-6) scale(1,1)"><g><path fill="none" stroke="none"/><text fill="#000000" stroke="none" font-family="Arial" font-size="13px" font-style="normal" font-weight="normal" text-decoration="none" x="463.5" y="243.5">«extend»</text></g></g><g transform="translate(2,-6) scale(1,1)"><path fill="none" stroke="#000000" d="M 500 367 L 406 275" stroke-miterlimit="10" stroke-dasharray="3"/></g><g transform="translate(2,-6) scale(1,1)"><path fill="none" stroke="#000000" d="M 416.20734841810673 279.100004667238 L 406 275 L 410.31854418127654 285.11682638747754" stroke-miterlimit="10"/></g><g transform="translate(2,-6) scale(1,1)"><g><path fill="none" stroke="none"/><text fill="#000000" stroke="none" font-family="Arial" font-size="13px" font-style="normal" font-weight="normal" text-decoration="none" x="405.5" y="348.5">«extend»</text></g></g><g transform="translate(2,-6) scale(1,1)"><path fill="none" stroke="#000000" d="M 634 323 L 552 367" stroke-miterlimit="10" stroke-dasharray="3"/></g><g transform="translate(2,-6) scale(1,1)"><path fill="none" stroke="#000000" d="M 558.9646107780112 358.48564760473175 L 552 367 L 562.9452798255627 365.90416719335053" stroke-miterlimit="10"/></g><g transform="translate(2,-6) scale(1,1)"><g><path fill="none" stroke="none"/><text fill="#000000" stroke="none" font-family="Arial" font-size="13px" font-style="normal" font-weight="normal" text-decoration="none" x="580.5" y="363.5">«extend»</text></g></g><g transform="translate(2,-6) scale(1,1)"><path fill="#C0C0C0" stroke="none" d="M 183 440 C 183 430.6111584 205.6096176 423 233.5 423 C 261.3903824 423 284 430.6111584 284 440 C 284 449.3888416 261.3903824 457 233.5 457 C 205.6096176 457 183 449.3888416 183 440 Z" opacity="0.2"/></g><g transform="translate(2,-6) scale(1,1)"><path fill="#ffffff" stroke="none" d="M 176 433 C 176 423.6111584 198.6096176 416 226.5 416 C 254.3903824 416 277 423.6111584 277 433 C 277 442.3888416 254.3903824 450 226.5 450 C 198.6096176 450 176 442.3888416 176 433 Z"/></g><g transform="translate(2,-6) scale(1,1)"><path fill="none" stroke="#000000" d="M 176 433 C 176 423.6111584 198.6096176 416 226.5 416 C 254.3903824 416 277 423.6111584 277 433 C 277 442.3888416 254.3903824 450 226.5 450 C 198.6096176 450 176 442.3888416 176 433 Z" stroke-miterlimit="10"/></g><g transform="translate(2,-6) scale(1,1)"><g><path fill="none" stroke="none"/><text fill="#000000" stroke="none" font-family="Arial" font-size="13px" font-style="normal" font-weight="bold" text-decoration="none" x="198.6845703125" y="440">exitGame</text></g></g><g transform="translate(2,-6) scale(1,1)"><path fill="none" stroke="#000000" d="M 99 358 L 195 415" stroke-miterlimit="10"/></g><g transform="translate(2,-6) scale(1,1)"><path fill="none" stroke="#000000" d="M 184.11245386280933 413.43113445109395 L 195 415 L 188.4106977643125 406.19198682750965" stroke-miterlimit="10"/></g><g transform="translate(2,-6) scale(1,1)"><rect fill="#ffffff" stroke="none" x="8" y="16" width="102.36083984375" height="22"/></g><g transform="translate(2,-6) scale(1,1)"><path fill="none" stroke="#000000" d="M 8 16 L 110.36083984375 16 L 110.36083984375 38 L 8 38 L 8 16 Z Z" stroke-miterlimit="10"/></g><g transform="translate(2,-6) scale(1,1)"><path fill="none" stroke="#000000" d="M 40.39453125 16 L 40.39453125 38" stroke-miterlimit="10"/></g><g transform="translate(2,-6) scale(1,1)"><g><path fill="none" stroke="none"/><text fill="#000000" stroke="none" font-family="Arial" font-size="13px" font-style="normal" font-weight="normal" text-decoration="none" x="44.89453125" y="33.5">UseCases</text></g></g><g transform="translate(2,-6) scale(1,1)"><g><path fill="none" stroke="none"/><text fill="#000000" stroke="none" font-family="Arial" font-size="13px" font-style="normal" font-weight="bold" text-decoration="none" x="14.444091796875" y="33.5">link</text></g></g></g></svg>