<svg version="1.1" xmlns="http://www.w3.org/2000/svg" xmlns:xlink="http://www.w3.org/1999/xlink" width="1008.919921875" height="629"><defs/><g><g transform="translate(-14,-6) scale(1,1)"><rect fill="#ffffff" stroke="none" x="24" y="16" width="103.39453125" height="22"/></g><g transform="translate(-14,-6) scale(1,1)"><path fill="none" stroke="#000000" d="M 24 16 L 127.39453125 16 L 127.39453125 38 L 24 38 L 24 16 Z Z" stroke-miterlimit="10"/></g><g transform="translate(-14,-6) scale(1,1)"><path fill="none" stroke="#000000" d="M 56.39453125 16 L 56.39453125 38" stroke-miterlimit="10"/></g><g transform="translate(-14,-6) scale(1,1)"><g><path fill="none" stroke="none"/><text fill="#000000" stroke="none" font-family="Arial" font-size="13px" font-style="normal" font-weight="normal" text-decoration="none" x="62.3095703125" y="33.5">4+1 views</text></g></g><g transform="translate(-14,-6) scale(1,1)"><g><path fill="none" stroke="none"/><text fill="#000000" stroke="none" font-family="Arial" font-size="13px" font-style="normal" font-weight="bold" text-decoration="none" x="30.444091796875" y="33.5">link</text></g></g><g transform="translate(-14,-6) scale(1,1)"><path fill="#C0C0C0" stroke="none" d="M 663 120.5 C 663 115.2532944 667.2532944 111 672.5 111 C 677.7467056 111 682 115.2532944 682 120.5 C 682 125.7467056 677.7467056 130 672.5 130 C 667.2532944 130 663 125.7467056 663 120.5 Z" opacity="0.2"/></g><g transform="translate(-14,-6) scale(1,1)"><path fill="#000000" stroke="none" d="M 656 113.5 C 656 108.2532944 660.2532944 104 665.5 104 C 670.7467056 104 675 108.2532944 675 113.5 C 675 118.7467056 670.7467056 123 665.5 123 C 660.2532944 123 656 118.7467056 656 113.5 Z"/></g><g transform="translate(-14,-6) scale(1,1)"><path fill="#C0C0C0" stroke="none" d="M 793 255 L 893.26806640625 255 Q 903.26806640625 255 903.26806640625 265 L 903.26806640625 285 Q 903.26806640625 295 893.26806640625 295 L 793 295 Q 783 295 783 285 L 783 265 Q 783 255 793 255 Z" opacity="0.2"/></g><g transform="translate(-14,-6) scale(1,1)"><path fill="#ffffff" stroke="none" d="M 786 248 L 886.26806640625 248 Q 896.26806640625 248 896.26806640625 258 L 896.26806640625 278 Q 896.26806640625 288 886.26806640625 288 L 786 288 Q 776 288 776 278 L 776 258 Q 776 248 786 248 Z"/></g><g transform="translate(-14,-6) scale(1,1)"><path fill="none" stroke="#000000" d="M 786 248 L 886.26806640625 248 Q 896.26806640625 248 896.26806640625 258 L 896.26806640625 278 Q 896.26806640625 288 886.26806640625 288 L 786 288 Q 776 288 776 278 L 776 258 Q 776 248 786 248 Z" stroke-miterlimit="10"/></g><g transform="translate(-14,-6) scale(1,1)"><g><path fill="none" stroke="none"/><text fill="#000000" stroke="none" font-family="Arial" font-size="13px" font-style="normal" font-weight="bold" text-decoration="none" x="783.029541015625" y="267.5">SelectMatchName</text></g></g><g transform="translate(-14,-6) scale(1,1)"><path fill="#C0C0C0" stroke="none" d="M 655 208.5 L 671.5 199 L 687 208.5 L 671.5 217 L 655 208.5" opacity="0.2"/></g><g transform="translate(-14,-6) scale(1,1)"><path fill="#ffffff" stroke="none" d="M 648 201 L 664 192 L 680 201 L 664 210 L 648 201"/></g><g transform="translate(-14,-6) scale(1,1)"><path fill="none" stroke="#000000" d="M 648 201 L 664 192 L 680 201 L 664 210 L 648 201 L 648 201" stroke-miterlimit="10"/></g><g transform="translate(-14,-6) scale(1,1)"><path fill="none" stroke="#000000" d="M 666 123 L 666 192" stroke-miterlimit="10"/></g><g transform="translate(-14,-6) scale(1,1)"><path fill="none" stroke="#000000" d="M 661.790482243984 181.83732514237585 L 666 192 L 670.209517756016 181.83732514237585" stroke-miterlimit="10"/></g><g transform="translate(-14,-6) scale(1,1)"><path fill="#C0C0C0" stroke="none" d="M 953 415 L 1009.919921875 415 Q 1019.919921875 415 1019.919921875 425 L 1019.919921875 445 Q 1019.919921875 455 1009.919921875 455 L 953 455 Q 943 455 943 445 L 943 425 Q 943 415 953 415 Z" opacity="0.2"/></g><g transform="translate(-14,-6) scale(1,1)"><path fill="#ffffff" stroke="none" d="M 946 408 L 1002.919921875 408 Q 1012.919921875 408 1012.919921875 418 L 1012.919921875 438 Q 1012.919921875 448 1002.919921875 448 L 946 448 Q 936 448 936 438 L 936 418 Q 936 408 946 408 Z"/></g><g transform="translate(-14,-6) scale(1,1)"><path fill="none" stroke="#000000" d="M 946 408 L 1002.919921875 408 Q 1012.919921875 408 1012.919921875 418 L 1012.919921875 438 Q 1012.919921875 448 1002.919921875 448 L 946 448 Q 936 448 936 438 L 936 418 Q 936 408 946 408 Z" stroke-miterlimit="10"/></g><g transform="translate(-14,-6) scale(1,1)"><g><path fill="none" stroke="none"/><text fill="#000000" stroke="none" font-family="Arial" font-size="13px" font-style="normal" font-weight="bold" text-decoration="none" x="941.944091796875" y="427.5">SaveMatch</text></g></g><g transform="translate(-14,-6) scale(1,1)"><path fill="none" stroke="#000000" d="M 681 208 L 782 247" stroke-miterlimit="10"/></g><g transform="translate(-14,-6) scale(1,1)"><path fill="none" stroke="#000000" d="M 771.0032205936334 247.2661628969461 L 782 247 L 774.0358971212147 239.41230829987643" stroke-miterlimit="10"/></g><g transform="translate(-14,-6) scale(1,1)"><g><path fill="none" stroke="none"/><text fill="#000000" stroke="none" font-family="Arial" font-size="13px" font-style="normal" font-weight="normal" text-decoration="none" x="717.5" y="206.5"> [firstSave || newSaveRecord]</text></g></g><g transform="translate(-14,-6) scale(1,1)"><path fill="#C0C0C0" stroke="none" d="M 337 415 L 461.83349609375 415 Q 471.83349609375 415 471.83349609375 425 L 471.83349609375 445 Q 471.83349609375 455 461.83349609375 455 L 337 455 Q 327 455 327 445 L 327 425 Q 327 415 337 415 Z" opacity="0.2"/></g><g transform="translate(-14,-6) scale(1,1)"><path fill="#ffffff" stroke="none" d="M 330 408 L 454.83349609375 408 Q 464.83349609375 408 464.83349609375 418 L 464.83349609375 438 Q 464.83349609375 448 454.83349609375 448 L 330 448 Q 320 448 320 438 L 320 418 Q 320 408 330 408 Z"/></g><g transform="translate(-14,-6) scale(1,1)"><path fill="none" stroke="#000000" d="M 330 408 L 454.83349609375 408 Q 464.83349609375 408 464.83349609375 418 L 464.83349609375 438 Q 464.83349609375 448 454.83349609375 448 L 330 448 Q 320 448 320 438 L 320 418 Q 320 408 330 408 Z" stroke-miterlimit="10"/></g><g transform="translate(-14,-6) scale(1,1)"><g><path fill="none" stroke="none"/><text fill="#000000" stroke="none" font-family="Arial" font-size="13px" font-style="normal" font-weight="bold" text-decoration="none" x="328.476806640625" y="427.5">OverwriteSavedMatch</text></g></g><g transform="translate(-14,-6) scale(1,1)"><path fill="none" stroke="#000000" d="M 652 211 L 417 407" stroke-miterlimit="10"/></g><g transform="translate(-14,-6) scale(1,1)"><path fill="none" stroke="#000000" d="M 422.1082397971712 397.2580347888839 L 417 407 L 427.50068066337036 403.72346133764313" stroke-miterlimit="10"/></g><g transform="translate(-14,-6) scale(1,1)"><g><path fill="none" stroke="none"/><text fill="#000000" stroke="none" font-family="Arial" font-size="13px" font-style="normal" font-weight="normal" text-decoration="none" x="487.5" y="291.5"> [overwrite]</text></g></g><g transform="translate(-14,-6) scale(1,1)"><path fill="#C0C0C0" stroke="none" d="M 831 360.5 L 842.5 351 L 853 360.5 L 842.5 369 L 831 360.5" opacity="0.2"/></g><g transform="translate(-14,-6) scale(1,1)"><path fill="#ffffff" stroke="none" d="M 824 353 L 835 344 L 846 353 L 835 362 L 824 353"/></g><g transform="translate(-14,-6) scale(1,1)"><path fill="none" stroke="#000000" d="M 824 353 L 835 344 L 846 353 L 835 362 L 824 353 L 824 353" stroke-miterlimit="10"/></g><g transform="translate(-14,-6) scale(1,1)"><path fill="none" stroke="#000000" d="M 836 289 L 835 343" stroke-miterlimit="10"/></g><g transform="translate(-14,-6) scale(1,1)"><path fill="none" stroke="#000000" d="M 830.9793692759974 332.76112659609436 L 835 343 L 839.396961566023 332.9170079347985" stroke-miterlimit="10"/></g><g transform="translate(-14,-6) scale(1,1)"><path fill="none" stroke="#000000" d="M 847 359 L 935 407" stroke-miterlimit="10"/></g><g transform="translate(-14,-6) scale(1,1)"><path fill="none" stroke="#000000" d="M 924.0624961869174 405.8290984931237 L 935 407 L 928.0939692801294 398.43806448890183" stroke-miterlimit="10"/></g><g transform="translate(-14,-6) scale(1,1)"><g><path fill="none" stroke="none"/><text fill="#000000" stroke="none" font-family="Arial" font-size="13px" font-style="normal" font-weight="normal" text-decoration="none" x="878.5" y="380.5"> [uniqueName]</text></g></g><g transform="translate(-14,-6) scale(1,1)"><path fill="#C0C0C0" stroke="none" d="M 735 432.5 L 750.5 423 L 765 432.5 L 750.5 441 L 735 432.5" opacity="0.2"/></g><g transform="translate(-14,-6) scale(1,1)"><path fill="#ffffff" stroke="none" d="M 728 425 L 743 416 L 758 425 L 743 434 L 728 425"/></g><g transform="translate(-14,-6) scale(1,1)"><path fill="none" stroke="#000000" d="M 728 425 L 743 416 L 758 425 L 743 434 L 728 425 L 728 425" stroke-miterlimit="10"/></g><g transform="translate(-14,-6) scale(1,1)"><path fill="none" stroke="#000000" d="M 823 362 L 756 415" stroke-miterlimit="10"/></g><g transform="translate(-14,-6) scale(1,1)"><path fill="none" stroke="#000000" d="M 761.3588166922881 405.39359153177134 L 756 415 L 766.5820121929848 411.9964990515202" stroke-miterlimit="10"/></g><g transform="translate(-14,-6) scale(1,1)"><path fill="none" stroke="#000000" d="M 727 425 L 466 427" stroke-miterlimit="10"/></g><g transform="translate(-14,-6) scale(1,1)"><path fill="none" stroke="#000000" d="M 476.1301206054487 422.7127332111165 L 466 427 L 476.19463239352575 431.1315215551749" stroke-miterlimit="10"/></g><g transform="translate(-14,-6) scale(1,1)"><g><path fill="none" stroke="none"/><text fill="#000000" stroke="none" font-family="Arial" font-size="13px" font-style="normal" font-weight="normal" text-decoration="none" x="544.5" y="420.5"> [overwriteExisting]</text></g></g><g transform="translate(-14,-6) scale(1,1)"><path fill="none" stroke="#000000" d="M 743 415 L 744 264 L 775 265" stroke-miterlimit="10"/></g><g transform="translate(-14,-6) scale(1,1)"><path fill="none" stroke="#000000" d="M 764.7068882716885 268.8796715000754 L 775 265 L 764.9783288709207 260.4650129238797" stroke-miterlimit="10"/></g><g transform="translate(-14,-6) scale(1,1)"><path fill="#C0C0C0" stroke="none" d="M 679 587.5 C 679 580.59644 684.59644 575 691.5 575 C 698.40356 575 704 580.59644 704 587.5 C 704 594.40356 698.40356 600 691.5 600 C 684.59644 600 679 594.40356 679 587.5 Z" opacity="0.2"/></g><g transform="translate(-14,-6) scale(1,1)"><path fill="none" stroke="#000000" d="M 672 580.5 C 672 573.59644 677.59644 568 684.5 568 C 691.40356 568 697 573.59644 697 580.5 C 697 587.40356 691.40356 593 684.5 593 C 677.59644 593 672 587.40356 672 580.5 Z" stroke-miterlimit="10"/></g><g transform="translate(-14,-6) scale(1,1)"><path fill="#000000" stroke="none" d="M 677 580.5 C 677 576.357864 680.357864 573 684.5 573 C 688.642136 573 692 576.357864 692 580.5 C 692 584.642136 688.642136 588 684.5 588 C 680.357864 588 677 584.642136 677 580.5 Z"/></g><g transform="translate(-14,-6) scale(1,1)"><path fill="none" stroke="#000000" d="M 432 449 L 671 573" stroke-miterlimit="10"/></g><g transform="translate(-14,-6) scale(1,1)"><path fill="none" stroke="#000000" d="M 660.0405562222765 572.0562881356495 L 671 573 L 663.9178080455074 564.5831979279706" stroke-miterlimit="10"/></g><g transform="translate(-14,-6) scale(1,1)"><path fill="none" stroke="#000000" d="M 935 448 L 698 573" stroke-miterlimit="10"/></g><g transform="translate(-14,-6) scale(1,1)"><path fill="none" stroke="#000000" d="M 705.0252144220977 564.535582576246 L 698 573 L 708.9528237162848 571.9823297980248" stroke-miterlimit="10"/></g><g transform="translate(-14,-6) scale(1,1)"><rect fill="#ffffff" stroke="none" x="288" y="16" width="181.814453125" height="22"/></g><g transform="translate(-14,-6) scale(1,1)"><path fill="none" stroke="#000000" d="M 288 16 L 469.814453125 16 L 469.814453125 38 L 288 38 L 288 16 Z Z" stroke-miterlimit="10"/></g><g transform="translate(-14,-6) scale(1,1)"><path fill="none" stroke="#000000" d="M 320.39453125 16 L 320.39453125 38" stroke-miterlimit="10"/></g><g transform="translate(-14,-6) scale(1,1)"><g><path fill="none" stroke="none"/><text fill="#000000" stroke="none" font-family="Arial" font-size="13px" font-style="normal" font-weight="normal" text-decoration="none" x="324.89453125" y="33.5">Game (Activity diagram)</text></g></g><g transform="translate(-14,-6) scale(1,1)"><g><path fill="none" stroke="none"/><text fill="#000000" stroke="none" font-family="Arial" font-size="13px" font-style="normal" font-weight="bold" text-decoration="none" x="294.444091796875" y="33.5">link</text></g></g><g transform="translate(-14,-6) scale(1,1)"><rect fill="#ffffff" stroke="none" x="152" y="16" width="120.43896484375" height="22"/></g><g transform="translate(-14,-6) scale(1,1)"><path fill="none" stroke="#000000" d="M 152 16 L 272.43896484375 16 L 272.43896484375 38 L 152 38 L 152 16 Z Z" stroke-miterlimit="10"/></g><g transform="translate(-14,-6) scale(1,1)"><path fill="none" stroke="#000000" d="M 184.39453125 16 L 184.39453125 38" stroke-miterlimit="10"/></g><g transform="translate(-14,-6) scale(1,1)"><g><path fill="none" stroke="none"/><text fill="#000000" stroke="none" font-family="Arial" font-size="13px" font-style="normal" font-weight="normal" text-decoration="none" x="188.89453125" y="33.5">domainModel</text></g></g><g transform="translate(-14,-6) scale(1,1)"><g><path fill="none" stroke="none"/><text fill="#000000" stroke="none" font-family="Arial" font-size="13px" font-style="normal" font-weight="bold" text-decoration="none" x="158.444091796875" y="33.5">link</text></g></g><g transform="translate(-14,-6) scale(1,1)"><rect fill="#ffffff" stroke="none" x="600" y="603" width="181.814453125" height="22"/></g><g transform="translate(-14,-6) scale(1,1)"><path fill="none" stroke="#000000" d="M 600 603 L 781.814453125 603 L 781.814453125 625 L 600 625 L 600 603 Z Z" stroke-miterlimit="10"/></g><g transform="translate(-14,-6) scale(1,1)"><path fill="none" stroke="#000000" d="M 632.39453125 603 L 632.39453125 625" stroke-miterlimit="10"/></g><g transform="translate(-14,-6) scale(1,1)"><g><path fill="none" stroke="none"/><text fill="#000000" stroke="none" font-family="Arial" font-size="13px" font-style="normal" font-weight="normal" text-decoration="none" x="636.89453125" y="620.5">Game (Activity diagram)</text></g></g><g transform="translate(-14,-6) scale(1,1)"><g><path fill="none" stroke="none"/><text fill="#000000" stroke="none" font-family="Arial" font-size="13px" font-style="normal" font-weight="bold" text-decoration="none" x="606.444091796875" y="620.5">link</text></g></g></g></svg>