<svg version="1.1" xmlns="http://www.w3.org/2000/svg" xmlns:xlink="http://www.w3.org/1999/xlink" width="668.39453125" height="652"><defs/><g><g transform="translate(-21,-14) scale(1,1)"><path fill="none" stroke="#000000" d="M 95.733154296875 96 L 134.733154296875 96 L 134.733154296875 135 L 95.733154296875 135 L 95.733154296875 96 Z Z" stroke-miterlimit="10"/></g><g transform="translate(-21,-14) scale(1,1)"><path fill="none" stroke="#000000" d="M 95.733154296875 96 L 134.733154296875 135" stroke-miterlimit="10"/></g><g transform="translate(-21,-14) scale(1,1)"><path fill="none" stroke="#000000" d="M 134.733154296875 96 L 95.733154296875 135" stroke-miterlimit="10"/></g><g transform="translate(-21,-14) scale(1,1)"><g><path fill="none" stroke="none"/><text fill="#000000" stroke="none" font-family="Arial" font-size="13px" font-style="normal" font-weight="bold" text-decoration="none" x="54.8955078125" y="154.5">LoadGameController</text></g></g><g transform="translate(-21,-14) scale(1,1)"><path fill="none" stroke="#000000" d="M 96.3544921875 176 L 135.3544921875 176 L 135.3544921875 215 L 96.3544921875 215 L 96.3544921875 176 Z Z" stroke-miterlimit="10"/></g><g transform="translate(-21,-14) scale(1,1)"><path fill="none" stroke="#000000" d="M 96.3544921875 176 L 135.3544921875 215" stroke-miterlimit="10"/></g><g transform="translate(-21,-14) scale(1,1)"><path fill="none" stroke="#000000" d="M 135.3544921875 176 L 96.3544921875 215" stroke-miterlimit="10"/></g><g transform="translate(-21,-14) scale(1,1)"><g><path fill="none" stroke="none"/><text fill="#000000" stroke="none" font-family="Arial" font-size="13px" font-style="normal" font-weight="bold" text-decoration="none" x="56.9736328125" y="234.5">NewGameController</text></g></g><g transform="translate(-21,-14) scale(1,1)"><path fill="none" stroke="#000000" d="M 96.28271484375 256 L 135.28271484375 256 L 135.28271484375 295 L 96.28271484375 295 L 96.28271484375 256 Z Z" stroke-miterlimit="10"/></g><g transform="translate(-21,-14) scale(1,1)"><path fill="none" stroke="#000000" d="M 96.28271484375 256 L 135.28271484375 295" stroke-miterlimit="10"/></g><g transform="translate(-21,-14) scale(1,1)"><path fill="none" stroke="#000000" d="M 135.28271484375 256 L 96.28271484375 295" stroke-miterlimit="10"/></g><g transform="translate(-21,-14) scale(1,1)"><g><path fill="none" stroke="none"/><text fill="#000000" stroke="none" font-family="Arial" font-size="13px" font-style="normal" font-weight="bold" text-decoration="none" x="59.069580078125" y="314.5">ExitGameController</text></g></g><g transform="translate(-21,-14) scale(1,1)"><path fill="none" stroke="#000000" d="M 96.3017578125 416 L 135.3017578125 416 L 135.3017578125 455 L 96.3017578125 455 L 96.3017578125 416 Z Z" stroke-miterlimit="10"/></g><g transform="translate(-21,-14) scale(1,1)"><path fill="none" stroke="#000000" d="M 96.3017578125 416 L 135.3017578125 455" stroke-miterlimit="10"/></g><g transform="translate(-21,-14) scale(1,1)"><path fill="none" stroke="#000000" d="M 135.3017578125 416 L 96.3017578125 455" stroke-miterlimit="10"/></g><g transform="translate(-21,-14) scale(1,1)"><g><path fill="none" stroke="none"/><text fill="#000000" stroke="none" font-family="Arial" font-size="13px" font-style="normal" font-weight="bold" text-decoration="none" x="55.108642578125" y="474.5">SaveGameController</text></g></g><g transform="translate(-21,-14) scale(1,1)"><path fill="none" stroke="#000000" d="M 95.5 336 L 134.5 336 L 134.5 375 L 95.5 375 L 95.5 336 Z Z" stroke-miterlimit="10"/></g><g transform="translate(-21,-14) scale(1,1)"><path fill="none" stroke="#000000" d="M 95.5 336 L 134.5 375" stroke-miterlimit="10"/></g><g transform="translate(-21,-14) scale(1,1)"><path fill="none" stroke="#000000" d="M 134.5 336 L 95.5 375" stroke-miterlimit="10"/></g><g transform="translate(-21,-14) scale(1,1)"><g><path fill="none" stroke="none"/><text fill="#000000" stroke="none" font-family="Arial" font-size="13px" font-style="normal" font-weight="bold" text-decoration="none" x="52.86279296875" y="394.5">ShowGameController</text></g></g><g transform="translate(-21,-14) scale(1,1)"><path fill="none" stroke="#000000" d="M 96.450439453125 592 L 135.450439453125 592 L 135.450439453125 631 L 96.450439453125 631 L 96.450439453125 592 Z Z" stroke-miterlimit="10"/></g><g transform="translate(-21,-14) scale(1,1)"><path fill="none" stroke="#000000" d="M 96.450439453125 592 L 135.450439453125 631" stroke-miterlimit="10"/></g><g transform="translate(-21,-14) scale(1,1)"><path fill="none" stroke="#000000" d="M 135.450439453125 592 L 96.450439453125 631" stroke-miterlimit="10"/></g><g transform="translate(-21,-14) scale(1,1)"><g><path fill="none" stroke="none"/><text fill="#000000" stroke="none" font-family="Arial" font-size="13px" font-style="normal" font-weight="bold" text-decoration="none" x="41.88916015625" y="650.5">RedoMovementController</text></g></g><g transform="translate(-21,-14) scale(1,1)"><path fill="none" stroke="#000000" d="M 95.805908203125 504 L 134.805908203125 504 L 134.805908203125 543 L 95.805908203125 543 L 95.805908203125 504 Z Z" stroke-miterlimit="10"/></g><g transform="translate(-21,-14) scale(1,1)"><path fill="none" stroke="#000000" d="M 95.805908203125 504 L 134.805908203125 543" stroke-miterlimit="10"/></g><g transform="translate(-21,-14) scale(1,1)"><path fill="none" stroke="#000000" d="M 134.805908203125 504 L 95.805908203125 543" stroke-miterlimit="10"/></g><g transform="translate(-21,-14) scale(1,1)"><g><path fill="none" stroke="none"/><text fill="#000000" stroke="none" font-family="Arial" font-size="13px" font-style="normal" font-weight="bold" text-decoration="none" x="41.24462890625" y="562.5">UndoMovementController</text></g></g><g transform="translate(-21,-14) scale(1,1)"><path fill="none" stroke="#000000" d="M 451.706787109375 504 L 490.706787109375 504 L 490.706787109375 543 L 451.706787109375 543 L 451.706787109375 504 Z Z" stroke-miterlimit="10"/></g><g transform="translate(-21,-14) scale(1,1)"><path fill="none" stroke="#000000" d="M 451.706787109375 504 L 490.706787109375 543" stroke-miterlimit="10"/></g><g transform="translate(-21,-14) scale(1,1)"><path fill="none" stroke="#000000" d="M 490.706787109375 504 L 451.706787109375 543" stroke-miterlimit="10"/></g><g transform="translate(-21,-14) scale(1,1)"><g><path fill="none" stroke="none"/><text fill="#000000" stroke="none" font-family="Arial" font-size="13px" font-style="normal" font-weight="bold" text-decoration="none" x="369.707763671875" y="562.5">MoveFromStockToWasteController</text></g></g><g transform="translate(-21,-14) scale(1,1)"><path fill="none" stroke="#000000" d="M 451.385009765625 416 L 490.385009765625 416 L 490.385009765625 455 L 451.385009765625 455 L 451.385009765625 416 Z Z" stroke-miterlimit="10"/></g><g transform="translate(-21,-14) scale(1,1)"><path fill="none" stroke="#000000" d="M 451.385009765625 416 L 490.385009765625 455" stroke-miterlimit="10"/></g><g transform="translate(-21,-14) scale(1,1)"><path fill="none" stroke="#000000" d="M 490.385009765625 416 L 451.385009765625 455" stroke-miterlimit="10"/></g><g transform="translate(-21,-14) scale(1,1)"><g><path fill="none" stroke="none"/><text fill="#000000" stroke="none" font-family="Arial" font-size="13px" font-style="normal" font-weight="bold" text-decoration="none" x="353.116943359375" y="474.5">MoveFromWasteToFoundationController</text></g></g><g transform="translate(-21,-14) scale(1,1)"><path fill="none" stroke="#000000" d="M 451.568603515625 256 L 490.568603515625 256 L 490.568603515625 295 L 451.568603515625 295 L 451.568603515625 256 Z Z" stroke-miterlimit="10"/></g><g transform="translate(-21,-14) scale(1,1)"><path fill="none" stroke="#000000" d="M 451.568603515625 256 L 490.568603515625 295" stroke-miterlimit="10"/></g><g transform="translate(-21,-14) scale(1,1)"><path fill="none" stroke="#000000" d="M 490.568603515625 256 L 451.568603515625 295" stroke-miterlimit="10"/></g><g transform="translate(-21,-14) scale(1,1)"><g><path fill="none" stroke="none"/><text fill="#000000" stroke="none" font-family="Arial" font-size="13px" font-style="normal" font-weight="bold" text-decoration="none" x="362.33642578125" y="314.5">MoveFromWasteToTableauController</text></g></g><g transform="translate(-21,-14) scale(1,1)"><path fill="none" stroke="#000000" d="M 451 336 L 490 336 L 490 375 L 451 375 L 451 336 Z Z" stroke-miterlimit="10"/></g><g transform="translate(-21,-14) scale(1,1)"><path fill="none" stroke="#000000" d="M 451 336 L 490 375" stroke-miterlimit="10"/></g><g transform="translate(-21,-14) scale(1,1)"><path fill="none" stroke="#000000" d="M 490 336 L 451 375" stroke-miterlimit="10"/></g><g transform="translate(-21,-14) scale(1,1)"><g><path fill="none" stroke="none"/><text fill="#000000" stroke="none" font-family="Arial" font-size="13px" font-style="normal" font-weight="bold" text-decoration="none" x="356.69921875" y="394.5">MoveFromTableauToTableauController</text></g></g><g transform="translate(-21,-14) scale(1,1)"><path fill="none" stroke="#000000" d="M 451 96 L 490 96 L 490 135 L 451 135 L 451 96 Z Z" stroke-miterlimit="10"/></g><g transform="translate(-21,-14) scale(1,1)"><path fill="none" stroke="#000000" d="M 451 96 L 490 135" stroke-miterlimit="10"/></g><g transform="translate(-21,-14) scale(1,1)"><path fill="none" stroke="#000000" d="M 490 96 L 451 135" stroke-miterlimit="10"/></g><g transform="translate(-21,-14) scale(1,1)"><g><path fill="none" stroke="none"/><text fill="#000000" stroke="none" font-family="Arial" font-size="13px" font-style="normal" font-weight="bold" text-decoration="none" x="347.663330078125" y="154.5">MoveFromTableauToFoundationController</text></g></g><g transform="translate(-21,-14) scale(1,1)"><path fill="none" stroke="#000000" d="M 451 176 L 490 176 L 490 215 L 451 215 L 451 176 Z Z" stroke-miterlimit="10"/></g><g transform="translate(-21,-14) scale(1,1)"><path fill="none" stroke="#000000" d="M 451 176 L 490 215" stroke-miterlimit="10"/></g><g transform="translate(-21,-14) scale(1,1)"><path fill="none" stroke="#000000" d="M 490 176 L 451 215" stroke-miterlimit="10"/></g><g transform="translate(-21,-14) scale(1,1)"><g><path fill="none" stroke="none"/><text fill="#000000" stroke="none" font-family="Arial" font-size="13px" font-style="normal" font-weight="bold" text-decoration="none" x="375.840576171875" y="234.5">MoveFromFoundationToTableau</text></g></g><g transform="translate(-21,-14) scale(1,1)"><rect fill="#ffffff" stroke="none" x="32" y="24" width="195" height="22"/></g><g transform="translate(-21,-14) scale(1,1)"><path fill="none" stroke="#000000" d="M 32 24 L 227 24 L 227 46 L 32 46 L 32 24 Z Z" stroke-miterlimit="10"/></g><g transform="translate(-21,-14) scale(1,1)"><path fill="none" stroke="#000000" d="M 64.39453125 24 L 64.39453125 46" stroke-miterlimit="10"/></g><g transform="translate(-21,-14) scale(1,1)"><g><path fill="none" stroke="none"/><text fill="#000000" stroke="none" font-family="Arial" font-size="13px" font-style="normal" font-weight="normal" text-decoration="none" x="69.74462890625" y="41.5">IndexArquitectureAnalysis</text></g></g><g transform="translate(-21,-14) scale(1,1)"><g><path fill="none" stroke="none"/><text fill="#000000" stroke="none" font-family="Arial" font-size="13px" font-style="normal" font-weight="bold" text-decoration="none" x="38.444091796875" y="41.5">link</text></g></g><g transform="translate(-21,-14) scale(1,1)"><rect fill="#ffffff" stroke="none" x="248" y="25" width="153" height="22"/></g><g transform="translate(-21,-14) scale(1,1)"><path fill="none" stroke="#000000" d="M 248 25 L 401 25 L 401 47 L 248 47 L 248 25 Z Z" stroke-miterlimit="10"/></g><g transform="translate(-21,-14) scale(1,1)"><path fill="none" stroke="#000000" d="M 280.39453125 25 L 280.39453125 47" stroke-miterlimit="10"/></g><g transform="translate(-21,-14) scale(1,1)"><g><path fill="none" stroke="none"/><text fill="#000000" stroke="none" font-family="Arial" font-size="13px" font-style="normal" font-weight="normal" text-decoration="none" x="285.701416015625" y="42.5">IndexAnalysisView</text></g></g><g transform="translate(-21,-14) scale(1,1)"><g><path fill="none" stroke="none"/><text fill="#000000" stroke="none" font-family="Arial" font-size="13px" font-style="normal" font-weight="bold" text-decoration="none" x="254.444091796875" y="42.5">link</text></g></g><g transform="translate(-21,-14) scale(1,1)"><rect fill="#ffffff" stroke="none" x="416" y="24" width="143.4453125" height="22"/></g><g transform="translate(-21,-14) scale(1,1)"><path fill="none" stroke="#000000" d="M 416 24 L 559.4453125 24 L 559.4453125 46 L 416 46 L 416 24 Z Z" stroke-miterlimit="10"/></g><g transform="translate(-21,-14) scale(1,1)"><path fill="none" stroke="#000000" d="M 448.39453125 24 L 448.39453125 46" stroke-miterlimit="10"/></g><g transform="translate(-21,-14) scale(1,1)"><g><path fill="none" stroke="none"/><text fill="#000000" stroke="none" font-family="Arial" font-size="13px" font-style="normal" font-weight="normal" text-decoration="none" x="469.87451171875" y="41.5">designView</text></g></g><g transform="translate(-21,-14) scale(1,1)"><g><path fill="none" stroke="none"/><text fill="#000000" stroke="none" font-family="Arial" font-size="13px" font-style="normal" font-weight="bold" text-decoration="none" x="422.444091796875" y="41.5">link</text></g></g><g transform="translate(-21,-14) scale(1,1)"><rect fill="#ffffff" stroke="none" x="576" y="24" width="103.39453125" height="22"/></g><g transform="translate(-21,-14) scale(1,1)"><path fill="none" stroke="#000000" d="M 576 24 L 679.39453125 24 L 679.39453125 46 L 576 46 L 576 24 Z Z" stroke-miterlimit="10"/></g><g transform="translate(-21,-14) scale(1,1)"><path fill="none" stroke="#000000" d="M 608.39453125 24 L 608.39453125 46" stroke-miterlimit="10"/></g><g transform="translate(-21,-14) scale(1,1)"><g><path fill="none" stroke="none"/><text fill="#000000" stroke="none" font-family="Arial" font-size="13px" font-style="normal" font-weight="normal" text-decoration="none" x="614.3095703125" y="41.5">4+1 views</text></g></g><g transform="translate(-21,-14) scale(1,1)"><g><path fill="none" stroke="none"/><text fill="#000000" stroke="none" font-family="Arial" font-size="13px" font-style="normal" font-weight="bold" text-decoration="none" x="582.444091796875" y="41.5">link</text></g></g></g></svg>