<svg version="1.1" xmlns="http://www.w3.org/2000/svg" xmlns:xlink="http://www.w3.org/1999/xlink" width="821" height="646"><defs/><g><g transform="translate(2,-6) scale(1,1)"><path fill="#C0C0C0" stroke="none" d="M 400.76181640625 119 L 428.20181640625 119 L 439.96181640624997 130.76 L 439.96181640624997 168 L 400.76181640625 168" opacity="0.2"/></g><g transform="translate(2,-6) scale(1,1)"><path fill="#ffffff" stroke="none" d="M 393.76181640625 112 L 421.20181640625003 112 L 432.96181640625 123.76000000000002 L 432.96181640625 161 L 393.76181640625 161"/></g><g transform="translate(2,-6) scale(1,1)"><path fill="none" stroke="#000000" d="M 393.76181640625 112 L 421.20181640625003 112 L 432.96181640625 123.76000000000002 L 432.96181640625 161 L 393.76181640625 161 L 393.76181640625 112" stroke-miterlimit="10"/></g><g transform="translate(2,-6) scale(1,1)"><path fill="none" stroke="#000000" d="M 421.20181640625003 112 L 421.20181640625003 123.76000000000002 L 432.96181640625 123.76000000000002 L 421.20181640625003 112" stroke-miterlimit="10"/></g><g transform="translate(2,-6) scale(1,1)"><g><path fill="none" stroke="none"/><text fill="#000000" stroke="none" font-family="Arial" font-size="13px" font-style="normal" font-weight="bold" text-decoration="none" x="383.016845703125" y="180.5">home.html</text><path fill="none" stroke="#000000" d="M 446.2236328125 180.5 L 380.5 180.5" stroke-miterlimit="10"/></g></g><g transform="translate(2,-6) scale(1,1)"><path fill="#C0C0C0" stroke="none" d="M 399.93271484375 255 L 427.37271484375 255 L 439.13271484374997 266.76 L 439.13271484374997 304 L 399.93271484375 304" opacity="0.2"/></g><g transform="translate(2,-6) scale(1,1)"><path fill="#ffffff" stroke="none" d="M 392.93271484375 248 L 420.37271484375003 248 L 432.13271484375 259.76 L 432.13271484375 297 L 392.93271484375 297"/></g><g transform="translate(2,-6) scale(1,1)"><path fill="none" stroke="#000000" d="M 392.93271484375 248 L 420.37271484375003 248 L 432.13271484375 259.76 L 432.13271484375 297 L 392.93271484375 297 L 392.93271484375 248" stroke-miterlimit="10"/></g><g transform="translate(2,-6) scale(1,1)"><path fill="none" stroke="#000000" d="M 420.37271484375003 248 L 420.37271484375003 259.76 L 432.13271484375 259.76 L 420.37271484375003 248" stroke-miterlimit="10"/></g><g transform="translate(2,-6) scale(1,1)"><g><path fill="none" stroke="none"/><text fill="#000000" stroke="none" font-family="Arial" font-size="13px" font-style="normal" font-weight="bold" text-decoration="none" x="367.734130859375" y="316.5">load-game.html</text><path fill="none" stroke="#000000" d="M 460.5654296875 316.5 L 364.5 316.5" stroke-miterlimit="10"/></g></g><g transform="translate(2,-6) scale(1,1)"><path fill="#C0C0C0" stroke="none" d="M 401.030859375 575 L 428.470859375 575 L 440.23085937499997 586.76 L 440.23085937499997 624 L 401.030859375 624" opacity="0.2"/></g><g transform="translate(2,-6) scale(1,1)"><path fill="#ffffff" stroke="none" d="M 394.030859375 568 L 421.47085937500003 568 L 433.230859375 579.76 L 433.230859375 617 L 394.030859375 617"/></g><g transform="translate(2,-6) scale(1,1)"><path fill="none" stroke="#000000" d="M 394.030859375 568 L 421.47085937500003 568 L 433.230859375 579.76 L 433.230859375 617 L 394.030859375 617 L 394.030859375 568" stroke-miterlimit="10"/></g><g transform="translate(2,-6) scale(1,1)"><path fill="none" stroke="#000000" d="M 421.47085937500003 568 L 421.47085937500003 579.76 L 433.230859375 579.76 L 421.47085937500003 568" stroke-miterlimit="10"/></g><g transform="translate(2,-6) scale(1,1)"><g><path fill="none" stroke="none"/><text fill="#000000" stroke="none" font-family="Arial" font-size="13px" font-style="normal" font-weight="bold" text-decoration="none" x="367.391357421875" y="636.5">save-game.html</text><path fill="none" stroke="#000000" d="M 462.76171875 636.5 L 364.5 636.5" stroke-miterlimit="10"/></g></g><g transform="translate(2,-6) scale(1,1)"><path fill="#C0C0C0" stroke="none" d="M 55 106.5 C 55 91.312168 106.7111056 79 170.5 79 C 234.2888944 79 286 91.312168 286 106.5 C 286 121.687832 234.2888944 134 170.5 134 C 106.7111056 134 55 121.687832 55 106.5 Z" opacity="0.2"/></g><g transform="translate(2,-6) scale(1,1)"><path fill="#ffffff" stroke="none" d="M 48 99.5 C 48 84.312168 99.7111056 72 163.5 72 C 227.2888944 72 279 84.312168 279 99.5 C 279 114.687832 227.2888944 127 163.5 127 C 99.7111056 127 48 114.687832 48 99.5 Z"/></g><g transform="translate(2,-6) scale(1,1)"><path fill="none" stroke="#000000" d="M 48 99.5 C 48 84.312168 99.7111056 72 163.5 72 C 227.2888944 72 279 84.312168 279 99.5 C 279 114.687832 227.2888944 127 163.5 127 C 99.7111056 127 48 114.687832 48 99.5 Z" stroke-miterlimit="10"/></g><g transform="translate(2,-6) scale(1,1)"><g><path fill="none" stroke="none"/><text fill="#000000" stroke="none" font-family="Arial" font-size="13px" font-style="normal" font-weight="bold" text-decoration="none" x="132.07275390625" y="99">StartGame</text></g></g><g transform="translate(2,-6) scale(1,1)"><g><path fill="none" stroke="none"/><text fill="#000000" stroke="none" font-family="Arial" font-size="13px" font-style="normal" font-weight="normal" text-decoration="none" x="86.20458984375" y="114">(from OutGameUseCases)</text></g></g><g transform="translate(2,-6) scale(1,1)"><path fill="#C0C0C0" stroke="none" d="M 63 202.5 C 63 187.31216799999999 114.7111056 175 178.5 175 C 242.2888944 175 294 187.31216799999999 294 202.5 C 294 217.68783200000001 242.2888944 230 178.5 230 C 114.7111056 230 63 217.68783200000001 63 202.5 Z" opacity="0.2"/></g><g transform="translate(2,-6) scale(1,1)"><path fill="#ffffff" stroke="none" d="M 56 195.5 C 56 180.31216799999999 107.7111056 168 171.5 168 C 235.2888944 168 287 180.31216799999999 287 195.5 C 287 210.68783200000001 235.2888944 223 171.5 223 C 107.7111056 223 56 210.68783200000001 56 195.5 Z"/></g><g transform="translate(2,-6) scale(1,1)"><path fill="none" stroke="#000000" d="M 56 195.5 C 56 180.31216799999999 107.7111056 168 171.5 168 C 235.2888944 168 287 180.31216799999999 287 195.5 C 287 210.68783200000001 235.2888944 223 171.5 223 C 107.7111056 223 56 210.68783200000001 56 195.5 Z" stroke-miterlimit="10"/></g><g transform="translate(2,-6) scale(1,1)"><g><path fill="none" stroke="none"/><text fill="#000000" stroke="none" font-family="Arial" font-size="13px" font-style="normal" font-weight="bold" text-decoration="none" x="139.339599609375" y="195">LoadGame</text></g></g><g transform="translate(2,-6) scale(1,1)"><g><path fill="none" stroke="none"/><text fill="#000000" stroke="none" font-family="Arial" font-size="13px" font-style="normal" font-weight="normal" text-decoration="none" x="94.20458984375" y="210">(from OutGameUseCases)</text></g></g><g transform="translate(2,-6) scale(1,1)"><path fill="none" stroke="#000000" d="M 375 141 L 280 122" stroke-miterlimit="10" stroke-dasharray="3"/></g><g transform="translate(2,-6) scale(1,1)"><path fill="none" stroke="#000000" d="M 290.79087693182163 119.86529275021616 L 280 122 L 289.1397682256108 128.12083628127033" stroke-miterlimit="10"/></g><g transform="translate(2,-6) scale(1,1)"><g><path fill="none" stroke="none"/><text fill="#000000" stroke="none" font-family="Arial" font-size="13px" font-style="normal" font-weight="normal" text-decoration="none" x="303.5" y="131.5">«trace»</text></g></g><g transform="translate(2,-6) scale(1,1)"><path fill="none" stroke="#000000" d="M 375 156 L 288 173" stroke-miterlimit="10" stroke-dasharray="3"/></g><g transform="translate(2,-6) scale(1,1)"><path fill="none" stroke="#000000" d="M 297.16676183593825 166.91966469319442 L 288 173 L 298.78132578304417 175.18243312838374" stroke-miterlimit="10"/></g><g transform="translate(2,-6) scale(1,1)"><g><path fill="none" stroke="none"/><text fill="#000000" stroke="none" font-family="Arial" font-size="13px" font-style="normal" font-weight="normal" text-decoration="none" x="311.5" y="171.5">«trace»</text></g></g><g transform="translate(2,-6) scale(1,1)"><path fill="none" stroke="#000000" d="M 359 265 L 249 224" stroke-miterlimit="10" stroke-dasharray="3"/></g><g transform="translate(2,-6) scale(1,1)"><path fill="none" stroke="#000000" d="M 259.99290344909474 223.60493828471866 L 249 224 L 257.0525073916465 231.49380575592124" stroke-miterlimit="10"/></g><g transform="translate(2,-6) scale(1,1)"><g><path fill="none" stroke="none"/><text fill="#000000" stroke="none" font-family="Arial" font-size="13px" font-style="normal" font-weight="normal" text-decoration="none" x="287.5" y="251.5">«trace»</text></g></g><g transform="translate(2,-6) scale(1,1)"><path fill="#C0C0C0" stroke="none" d="M 559 322.5 C 559 307.312168 607.5770992 295 667.5 295 C 727.4229008 295 776 307.312168 776 322.5 C 776 337.687832 727.4229008 350 667.5 350 C 607.5770992 350 559 337.687832 559 322.5 Z" opacity="0.2"/></g><g transform="translate(2,-6) scale(1,1)"><path fill="#ffffff" stroke="none" d="M 552 315.5 C 552 300.312168 600.5770992 288 660.5 288 C 720.4229008 288 769 300.312168 769 315.5 C 769 330.687832 720.4229008 343 660.5 343 C 600.5770992 343 552 330.687832 552 315.5 Z"/></g><g transform="translate(2,-6) scale(1,1)"><path fill="none" stroke="#000000" d="M 552 315.5 C 552 300.312168 600.5770992 288 660.5 288 C 720.4229008 288 769 300.312168 769 315.5 C 769 330.687832 720.4229008 343 660.5 343 C 600.5770992 343 552 330.687832 552 315.5 Z" stroke-miterlimit="10"/></g><g transform="translate(2,-6) scale(1,1)"><g><path fill="none" stroke="none"/><text fill="#000000" stroke="none" font-family="Arial" font-size="13px" font-style="normal" font-weight="bold" text-decoration="none" x="631.964111328125" y="315">ExitMatch</text></g></g><g transform="translate(2,-6) scale(1,1)"><g><path fill="none" stroke="none"/><text fill="#000000" stroke="none" font-family="Arial" font-size="13px" font-style="normal" font-weight="normal" text-decoration="none" x="588.260498046875" y="330">(from InGameUseCases)</text></g></g><g transform="translate(2,-6) scale(1,1)"><path fill="#C0C0C0" stroke="none" d="M 400.61630859375 399 L 428.05630859375 399 L 439.81630859374997 410.76 L 439.81630859374997 448 L 400.61630859375 448" opacity="0.2"/></g><g transform="translate(2,-6) scale(1,1)"><path fill="#ffffff" stroke="none" d="M 393.61630859375 392 L 421.05630859375003 392 L 432.81630859375 403.76 L 432.81630859375 441 L 393.61630859375 441"/></g><g transform="translate(2,-6) scale(1,1)"><path fill="none" stroke="#000000" d="M 393.61630859375 392 L 421.05630859375003 392 L 432.81630859375 403.76 L 432.81630859375 441 L 393.61630859375 441 L 393.61630859375 392" stroke-miterlimit="10"/></g><g transform="translate(2,-6) scale(1,1)"><path fill="none" stroke="#000000" d="M 421.05630859375003 392 L 421.05630859375003 403.76 L 432.81630859375 403.76 L 421.05630859375003 392" stroke-miterlimit="10"/></g><g transform="translate(2,-6) scale(1,1)"><g><path fill="none" stroke="none"/><text fill="#000000" stroke="none" font-family="Arial" font-size="13px" font-style="normal" font-weight="bold" text-decoration="none" x="360.11181640625" y="460.5">game-canvas.html</text><path fill="none" stroke="#000000" d="M 469.9326171875 460.5 L 356.5 460.5" stroke-miterlimit="10"/></g></g><g transform="translate(2,-6) scale(1,1)"><path fill="#C0C0C0" stroke="none" d="M 599 426.5 C 599 411.312168 647.5770992 399 707.5 399 C 767.4229008 399 816 411.312168 816 426.5 C 816 441.687832 767.4229008 454 707.5 454 C 647.5770992 454 599 441.687832 599 426.5 Z" opacity="0.2"/></g><g transform="translate(2,-6) scale(1,1)"><path fill="#ffffff" stroke="none" d="M 592 419.5 C 592 404.312168 640.5770992 392 700.5 392 C 760.4229008 392 809 404.312168 809 419.5 C 809 434.687832 760.4229008 447 700.5 447 C 640.5770992 447 592 434.687832 592 419.5 Z"/></g><g transform="translate(2,-6) scale(1,1)"><path fill="none" stroke="#000000" d="M 592 419.5 C 592 404.312168 640.5770992 392 700.5 392 C 760.4229008 392 809 404.312168 809 419.5 C 809 434.687832 760.4229008 447 700.5 447 C 640.5770992 447 592 434.687832 592 419.5 Z" stroke-miterlimit="10"/></g><g transform="translate(2,-6) scale(1,1)"><g><path fill="none" stroke="none"/><text fill="#000000" stroke="none" font-family="Arial" font-size="13px" font-style="normal" font-weight="bold" text-decoration="none" x="670.516845703125" y="419">MoveCard</text></g></g><g transform="translate(2,-6) scale(1,1)"><g><path fill="none" stroke="none"/><text fill="#000000" stroke="none" font-family="Arial" font-size="13px" font-style="normal" font-weight="normal" text-decoration="none" x="628.260498046875" y="434">(from InGameUseCases)</text></g></g><g transform="translate(2,-6) scale(1,1)"><path fill="#C0C0C0" stroke="none" d="M 567 538.5 C 567 523.312168 615.5770992 511 675.5 511 C 735.4229008 511 784 523.312168 784 538.5 C 784 553.687832 735.4229008 566 675.5 566 C 615.5770992 566 567 553.687832 567 538.5 Z" opacity="0.2"/></g><g transform="translate(2,-6) scale(1,1)"><path fill="#ffffff" stroke="none" d="M 560 531.5 C 560 516.312168 608.5770992 504 668.5 504 C 728.4229008 504 777 516.312168 777 531.5 C 777 546.687832 728.4229008 559 668.5 559 C 608.5770992 559 560 546.687832 560 531.5 Z"/></g><g transform="translate(2,-6) scale(1,1)"><path fill="none" stroke="#000000" d="M 560 531.5 C 560 516.312168 608.5770992 504 668.5 504 C 728.4229008 504 777 516.312168 777 531.5 C 777 546.687832 728.4229008 559 668.5 559 C 608.5770992 559 560 546.687832 560 531.5 Z" stroke-miterlimit="10"/></g><g transform="translate(2,-6) scale(1,1)"><g><path fill="none" stroke="none"/><text fill="#000000" stroke="none" font-family="Arial" font-size="13px" font-style="normal" font-weight="bold" text-decoration="none" x="631.293212890625" y="531">RecycleCard</text></g></g><g transform="translate(2,-6) scale(1,1)"><g><path fill="none" stroke="none"/><text fill="#000000" stroke="none" font-family="Arial" font-size="13px" font-style="normal" font-weight="normal" text-decoration="none" x="596.260498046875" y="546">(from InGameUseCases)</text></g></g><g transform="translate(2,-6) scale(1,1)"><path fill="#C0C0C0" stroke="none" d="M 31 442.5 C 31 427.312168 79.57709919999999 415 139.5 415 C 199.4229008 415 248 427.312168 248 442.5 C 248 457.687832 199.4229008 470 139.5 470 C 79.57709919999999 470 31 457.687832 31 442.5 Z" opacity="0.2"/></g><g transform="translate(2,-6) scale(1,1)"><path fill="#ffffff" stroke="none" d="M 24 435.5 C 24 420.312168 72.57709919999999 408 132.5 408 C 192.4229008 408 241 420.312168 241 435.5 C 241 450.687832 192.4229008 463 132.5 463 C 72.57709919999999 463 24 450.687832 24 435.5 Z"/></g><g transform="translate(2,-6) scale(1,1)"><path fill="none" stroke="#000000" d="M 24 435.5 C 24 420.312168 72.57709919999999 408 132.5 408 C 192.4229008 408 241 420.312168 241 435.5 C 241 450.687832 192.4229008 463 132.5 463 C 72.57709919999999 463 24 450.687832 24 435.5 Z" stroke-miterlimit="10"/></g><g transform="translate(2,-6) scale(1,1)"><g><path fill="none" stroke="none"/><text fill="#000000" stroke="none" font-family="Arial" font-size="13px" font-style="normal" font-weight="bold" text-decoration="none" x="86.615966796875" y="435">UndoMovement</text></g></g><g transform="translate(2,-6) scale(1,1)"><g><path fill="none" stroke="none"/><text fill="#000000" stroke="none" font-family="Arial" font-size="13px" font-style="normal" font-weight="normal" text-decoration="none" x="60.260498046875" y="450">(from InGameUseCases)</text></g></g><g transform="translate(2,-6) scale(1,1)"><path fill="#C0C0C0" stroke="none" d="M 47 338.5 C 47 323.312168 95.57709919999999 311 155.5 311 C 215.4229008 311 264 323.312168 264 338.5 C 264 353.687832 215.4229008 366 155.5 366 C 95.57709919999999 366 47 353.687832 47 338.5 Z" opacity="0.2"/></g><g transform="translate(2,-6) scale(1,1)"><path fill="#ffffff" stroke="none" d="M 40 331.5 C 40 316.312168 88.57709919999999 304 148.5 304 C 208.4229008 304 257 316.312168 257 331.5 C 257 346.687832 208.4229008 359 148.5 359 C 88.57709919999999 359 40 346.687832 40 331.5 Z"/></g><g transform="translate(2,-6) scale(1,1)"><path fill="none" stroke="#000000" d="M 40 331.5 C 40 316.312168 88.57709919999999 304 148.5 304 C 208.4229008 304 257 316.312168 257 331.5 C 257 346.687832 208.4229008 359 148.5 359 C 88.57709919999999 359 40 346.687832 40 331.5 Z" stroke-miterlimit="10"/></g><g transform="translate(2,-6) scale(1,1)"><g><path fill="none" stroke="none"/><text fill="#000000" stroke="none" font-family="Arial" font-size="13px" font-style="normal" font-weight="bold" text-decoration="none" x="102.615966796875" y="331">RedoMovement</text></g></g><g transform="translate(2,-6) scale(1,1)"><g><path fill="none" stroke="none"/><text fill="#000000" stroke="none" font-family="Arial" font-size="13px" font-style="normal" font-weight="normal" text-decoration="none" x="76.260498046875" y="346">(from InGameUseCases)</text></g></g><g transform="translate(2,-6) scale(1,1)"><path fill="#C0C0C0" stroke="none" d="M 39 546.5 C 39 531.312168 87.57709919999999 519 147.5 519 C 207.4229008 519 256 531.312168 256 546.5 C 256 561.687832 207.4229008 574 147.5 574 C 87.57709919999999 574 39 561.687832 39 546.5 Z" opacity="0.2"/></g><g transform="translate(2,-6) scale(1,1)"><path fill="#ffffff" stroke="none" d="M 32 539.5 C 32 524.312168 80.57709919999999 512 140.5 512 C 200.4229008 512 249 524.312168 249 539.5 C 249 554.687832 200.4229008 567 140.5 567 C 80.57709919999999 567 32 554.687832 32 539.5 Z"/></g><g transform="translate(2,-6) scale(1,1)"><path fill="none" stroke="#000000" d="M 32 539.5 C 32 524.312168 80.57709919999999 512 140.5 512 C 200.4229008 512 249 524.312168 249 539.5 C 249 554.687832 200.4229008 567 140.5 567 C 80.57709919999999 567 32 554.687832 32 539.5 Z" stroke-miterlimit="10"/></g><g transform="translate(2,-6) scale(1,1)"><g><path fill="none" stroke="none"/><text fill="#000000" stroke="none" font-family="Arial" font-size="13px" font-style="normal" font-weight="bold" text-decoration="none" x="107.984130859375" y="539">SaveMatch</text></g></g><g transform="translate(2,-6) scale(1,1)"><g><path fill="none" stroke="none"/><text fill="#000000" stroke="none" font-family="Arial" font-size="13px" font-style="normal" font-weight="normal" text-decoration="none" x="68.260498046875" y="554">(from InGameUseCases)</text></g></g><g transform="translate(2,-6) scale(1,1)"><path fill="none" stroke="#000000" d="M 475 400 L 597 344" stroke-miterlimit="10" stroke-dasharray="3"/></g><g transform="translate(2,-6) scale(1,1)"><path fill="none" stroke="#000000" d="M 589.5199354992394 352.0652734029579 L 597 344 L 586.0077861524443 344.41380518315447" stroke-miterlimit="10"/></g><g transform="translate(2,-6) scale(1,1)"><g><path fill="none" stroke="none"/><text fill="#000000" stroke="none" font-family="Arial" font-size="13px" font-style="normal" font-weight="normal" text-decoration="none" x="527.5" y="387.5">«trace»</text></g></g><g transform="translate(2,-6) scale(1,1)"><path fill="none" stroke="#000000" d="M 475 427 L 591 423" stroke-miterlimit="10" stroke-dasharray="3"/></g><g transform="translate(2,-6) scale(1,1)"><path fill="none" stroke="#000000" d="M 580.9884313398708 427.55724620396126 L 591 423 L 580.6982922157503 419.1432116044656" stroke-miterlimit="10"/></g><g transform="translate(2,-6) scale(1,1)"><g><path fill="none" stroke="none"/><text fill="#000000" stroke="none" font-family="Arial" font-size="13px" font-style="normal" font-weight="normal" text-decoration="none" x="519.5" y="443.5">«trace»</text></g></g><g transform="translate(2,-6) scale(1,1)"><path fill="none" stroke="#000000" d="M 475 454 L 598 503" stroke-miterlimit="10" stroke-dasharray="3"/></g><g transform="translate(2,-6) scale(1,1)"><path fill="none" stroke="#000000" d="M 587.001016550608 503.14954290354586 L 598 503 L 590.1168014156007 495.32828701795194" stroke-miterlimit="10"/></g><g transform="translate(2,-6) scale(1,1)"><g><path fill="none" stroke="none"/><text fill="#000000" stroke="none" font-family="Arial" font-size="13px" font-style="normal" font-weight="normal" text-decoration="none" x="535.5" y="476.5">«trace»</text></g></g><g transform="translate(2,-6) scale(1,1)"><path fill="none" stroke="#000000" d="M 351 406 L 226 360" stroke-miterlimit="10" stroke-dasharray="3"/></g><g transform="translate(2,-6) scale(1,1)"><path fill="none" stroke="#000000" d="M 236.99116617835202 359.55924378637314 L 226 360 L 234.0835898453666 367.4602664303553" stroke-miterlimit="10"/></g><g transform="translate(2,-6) scale(1,1)"><g><path fill="none" stroke="none"/><text fill="#000000" stroke="none" font-family="Arial" font-size="13px" font-style="normal" font-weight="normal" text-decoration="none" x="265.5" y="394.5">«trace»</text></g></g><g transform="translate(2,-6) scale(1,1)"><path fill="none" stroke="#000000" d="M 351 430 L 242 433" stroke-miterlimit="10" stroke-dasharray="3"/></g><g transform="translate(2,-6) scale(1,1)"><path fill="none" stroke="#000000" d="M 252.04301343928663 428.51247495179047 L 242 433 L 252.27464229880067 436.92832351413375" stroke-miterlimit="10"/></g><g transform="translate(2,-6) scale(1,1)"><g><path fill="none" stroke="none"/><text fill="#000000" stroke="none" font-family="Arial" font-size="13px" font-style="normal" font-weight="normal" text-decoration="none" x="271.5" y="444.5">«trace»</text></g></g><g transform="translate(2,-6) scale(1,1)"><path fill="none" stroke="#000000" d="M 351 454 L 209 511" stroke-miterlimit="10" stroke-dasharray="3"/></g><g transform="translate(2,-6) scale(1,1)"><path fill="none" stroke="#000000" d="M 216.86310154535352 503.3076899381617 L 209 511 L 219.99933703159329 511.1207678161625" stroke-miterlimit="10"/></g><g transform="translate(2,-6) scale(1,1)"><g><path fill="none" stroke="none"/><text fill="#000000" stroke="none" font-family="Arial" font-size="13px" font-style="normal" font-weight="normal" text-decoration="none" x="263.5" y="491.5">«trace»</text></g></g><g transform="translate(2,-6) scale(1,1)"><path fill="none" stroke="#000000" d="M 359 592 L 250 566" stroke-miterlimit="10" stroke-dasharray="3"/></g><g transform="translate(2,-6) scale(1,1)"><path fill="none" stroke="#000000" d="M 260.8620428389614 564.2633292296557 L 250 566 L 258.9086358273673 572.4526124705694" stroke-miterlimit="10"/></g><g transform="translate(2,-6) scale(1,1)"><g><path fill="none" stroke="none"/><text fill="#000000" stroke="none" font-family="Arial" font-size="13px" font-style="normal" font-weight="normal" text-decoration="none" x="276.5" y="601.5">«trace»</text></g></g><g transform="translate(2,-6) scale(1,1)"><rect fill="#ffffff" stroke="none" x="264" y="16" width="100.564453125" height="22"/></g><g transform="translate(2,-6) scale(1,1)"><path fill="none" stroke="#000000" d="M 264 16 L 364.564453125 16 L 364.564453125 38 L 264 38 L 264 16 Z Z" stroke-miterlimit="10"/></g><g transform="translate(2,-6) scale(1,1)"><path fill="none" stroke="#000000" d="M 296.39453125 16 L 296.39453125 38" stroke-miterlimit="10"/></g><g transform="translate(2,-6) scale(1,1)"><g><path fill="none" stroke="none"/><text fill="#000000" stroke="none" font-family="Arial" font-size="13px" font-style="normal" font-weight="normal" text-decoration="none" x="300.89453125" y="33.5">4+1 views</text></g></g><g transform="translate(2,-6) scale(1,1)"><g><path fill="none" stroke="none"/><text fill="#000000" stroke="none" font-family="Arial" font-size="13px" font-style="normal" font-weight="bold" text-decoration="none" x="270.444091796875" y="33.5">link</text></g></g><g transform="translate(2,-6) scale(1,1)"><rect fill="#ffffff" stroke="none" x="128" y="17" width="124.0380859375" height="22"/></g><g transform="translate(2,-6) scale(1,1)"><path fill="none" stroke="#000000" d="M 128 17 L 252.0380859375 17 L 252.0380859375 39 L 128 39 L 128 17 Z Z" stroke-miterlimit="10"/></g><g transform="translate(2,-6) scale(1,1)"><path fill="none" stroke="#000000" d="M 160.39453125 17 L 160.39453125 39" stroke-miterlimit="10"/></g><g transform="translate(2,-6) scale(1,1)"><g><path fill="none" stroke="none"/><text fill="#000000" stroke="none" font-family="Arial" font-size="13px" font-style="normal" font-weight="normal" text-decoration="none" x="164.89453125" y="34.5">UseCaseView</text></g></g><g transform="translate(2,-6) scale(1,1)"><g><path fill="none" stroke="none"/><text fill="#000000" stroke="none" font-family="Arial" font-size="13px" font-style="normal" font-weight="bold" text-decoration="none" x="134.444091796875" y="34.5">link</text></g></g><g transform="translate(2,-6) scale(1,1)"><rect fill="#ffffff" stroke="none" x="8" y="16" width="111.0380859375" height="22"/></g><g transform="translate(2,-6) scale(1,1)"><path fill="none" stroke="#000000" d="M 8 16 L 119.0380859375 16 L 119.0380859375 38 L 8 38 L 8 16 Z Z" stroke-miterlimit="10"/></g><g transform="translate(2,-6) scale(1,1)"><path fill="none" stroke="#000000" d="M 40.39453125 16 L 40.39453125 38" stroke-miterlimit="10"/></g><g transform="translate(2,-6) scale(1,1)"><g><path fill="none" stroke="none"/><text fill="#000000" stroke="none" font-family="Arial" font-size="13px" font-style="normal" font-weight="normal" text-decoration="none" x="44.89453125" y="33.5">UIPrototype</text></g></g><g transform="translate(2,-6) scale(1,1)"><g><path fill="none" stroke="none"/><text fill="#000000" stroke="none" font-family="Arial" font-size="13px" font-style="normal" font-weight="bold" text-decoration="none" x="14.444091796875" y="33.5">link</text></g></g></g></svg>