<svg version="1.1" xmlns="http://www.w3.org/2000/svg" xmlns:xlink="http://www.w3.org/1999/xlink" width="1037" height="707"><defs/><g><g transform="translate(2,-14) scale(1,1)"><rect fill="#ffffff" stroke="none" x="192" y="24" width="124.0380859375" height="22"/></g><g transform="translate(2,-14) scale(1,1)"><path fill="none" stroke="#000000" d="M 192 24 L 316.0380859375 24 L 316.0380859375 46 L 192 46 L 192 24 Z Z" stroke-miterlimit="10"/></g><g transform="translate(2,-14) scale(1,1)"><path fill="none" stroke="#000000" d="M 224.39453125 24 L 224.39453125 46" stroke-miterlimit="10"/></g><g transform="translate(2,-14) scale(1,1)"><g><path fill="none" stroke="none"/><text fill="#000000" stroke="none" font-family="Arial" font-size="13px" font-style="normal" font-weight="normal" text-decoration="none" x="228.89453125" y="41.5">UseCaseView</text></g></g><g transform="translate(2,-14) scale(1,1)"><g><path fill="none" stroke="none"/><text fill="#000000" stroke="none" font-family="Arial" font-size="13px" font-style="normal" font-weight="bold" text-decoration="none" x="198.444091796875" y="41.5">link</text></g></g><g transform="translate(2,-14) scale(1,1)"><rect fill="#ffffff" stroke="none" x="8" y="24" width="169.56982421875" height="22"/></g><g transform="translate(2,-14) scale(1,1)"><path fill="none" stroke="#000000" d="M 8 24 L 177.56982421875 24 L 177.56982421875 46 L 8 46 L 8 24 Z Z" stroke-miterlimit="10"/></g><g transform="translate(2,-14) scale(1,1)"><path fill="none" stroke="#000000" d="M 40.39453125 24 L 40.39453125 46" stroke-miterlimit="10"/></g><g transform="translate(2,-14) scale(1,1)"><g><path fill="none" stroke="none"/><text fill="#000000" stroke="none" font-family="Arial" font-size="13px" font-style="normal" font-weight="normal" text-decoration="none" x="44.89453125" y="41.5">UseCaseSpecification</text></g></g><g transform="translate(2,-14) scale(1,1)"><g><path fill="none" stroke="none"/><text fill="#000000" stroke="none" font-family="Arial" font-size="13px" font-style="normal" font-weight="bold" text-decoration="none" x="14.444091796875" y="41.5">link</text></g></g><g transform="translate(2,-14) scale(1,1)"><rect fill="#ffffff" stroke="none" x="336" y="24" width="103.39453125" height="22"/></g><g transform="translate(2,-14) scale(1,1)"><path fill="none" stroke="#000000" d="M 336 24 L 439.39453125 24 L 439.39453125 46 L 336 46 L 336 24 Z Z" stroke-miterlimit="10"/></g><g transform="translate(2,-14) scale(1,1)"><path fill="none" stroke="#000000" d="M 368.39453125 24 L 368.39453125 46" stroke-miterlimit="10"/></g><g transform="translate(2,-14) scale(1,1)"><g><path fill="none" stroke="none"/><text fill="#000000" stroke="none" font-family="Arial" font-size="13px" font-style="normal" font-weight="normal" text-decoration="none" x="374.3095703125" y="41.5">4+1 views</text></g></g><g transform="translate(2,-14) scale(1,1)"><g><path fill="none" stroke="none"/><text fill="#000000" stroke="none" font-family="Arial" font-size="13px" font-style="normal" font-weight="bold" text-decoration="none" x="342.444091796875" y="41.5">link</text></g></g><g transform="translate(2,-14) scale(1,1)"><path fill="#C0C0C0" stroke="none" d="M 103 328.5 C 103 323.2532944 107.2532944 319 112.5 319 C 117.7467056 319 122 323.2532944 122 328.5 C 122 333.7467056 117.7467056 338 112.5 338 C 107.2532944 338 103 333.7467056 103 328.5 Z" opacity="0.2"/></g><g transform="translate(2,-14) scale(1,1)"><path fill="#000000" stroke="none" d="M 96 321.5 C 96 316.2532944 100.2532944 312 105.5 312 C 110.7467056 312 115 316.2532944 115 321.5 C 115 326.7467056 110.7467056 331 105.5 331 C 100.2532944 331 96 326.7467056 96 321.5 Z"/></g><g transform="translate(2,-14) scale(1,1)"><path fill="#C0C0C0" stroke="none" d="M 217 263 L 365 263 Q 375 263 375 273 L 375 381 Q 375 391 365 391 L 217 391 Q 207 391 207 381 L 207 273 Q 207 263 217 263 Z" opacity="0.2"/></g><g transform="translate(2,-14) scale(1,1)"><path fill="#ffffff" stroke="none" d="M 210 256 L 358 256 Q 368 256 368 266 L 368 374 Q 368 384 358 384 L 210 384 Q 200 384 200 374 L 200 266 Q 200 256 210 256 Z"/></g><g transform="translate(2,-14) scale(1,1)"><path fill="none" stroke="#000000" d="M 210 256 L 358 256 Q 368 256 368 266 L 368 374 Q 368 384 358 384 L 210 384 Q 200 384 200 374 L 200 266 Q 200 256 210 256 Z" stroke-miterlimit="10"/></g><g transform="translate(2,-14) scale(1,1)"><g><path fill="none" stroke="none"/><text fill="#000000" stroke="none" font-family="Arial" font-size="13px" font-style="normal" font-weight="bold" text-decoration="none" x="254.74365234375" y="275.5">IN_GAME</text></g></g><g transform="translate(2,-14) scale(1,1)"><path fill="none" stroke="#000000" d="M 116 321 L 199 320" stroke-miterlimit="10"/></g><g transform="translate(2,-14) scale(1,1)"><path fill="none" stroke="#000000" d="M 188.88877606446374 324.3316452446431 L 199 320 L 188.78734926290502 315.91322071526815" stroke-miterlimit="10"/></g><g transform="translate(2,-14) scale(1,1)"><path fill="#C0C0C0" stroke="none" d="M 609 679 L 648 679 Q 658 679 658 689 L 658 708 Q 658 718 648 718 L 609 718 Q 599 718 599 708 L 599 689 Q 599 679 609 679 Z" opacity="0.2"/></g><g transform="translate(2,-14) scale(1,1)"><path fill="#ffffff" stroke="none" d="M 602 672 L 641 672 Q 651 672 651 682 L 651 701 Q 651 711 641 711 L 602 711 Q 592 711 592 701 L 592 682 Q 592 672 602 672 Z"/></g><g transform="translate(2,-14) scale(1,1)"><path fill="none" stroke="#000000" d="M 602 672 L 641 672 Q 651 672 651 682 L 651 701 Q 651 711 641 711 L 602 711 Q 592 711 592 701 L 592 682 Q 592 672 602 672 Z" stroke-miterlimit="10"/></g><g transform="translate(2,-14) scale(1,1)"><g><path fill="none" stroke="none"/><text fill="#000000" stroke="none" font-family="Arial" font-size="13px" font-style="normal" font-weight="bold" text-decoration="none" x="621.5" y="691.5"></text></g></g><g transform="translate(2,-14) scale(1,1)"><path fill="#C0C0C0" stroke="none" d="M 623 331.5 L 643.5 319 L 663 331.5 L 643.5 343 L 623 331.5" opacity="0.2"/></g><g transform="translate(2,-14) scale(1,1)"><path fill="#ffffff" stroke="none" d="M 616 324 L 636 312 L 656 324 L 636 336 L 616 324"/></g><g transform="translate(2,-14) scale(1,1)"><path fill="none" stroke="#000000" d="M 616 324 L 636 312 L 656 324 L 636 336 L 616 324 L 616 324" stroke-miterlimit="10"/></g><g transform="translate(2,-14) scale(1,1)"><path fill="none" stroke="#000000" d="M 369 321 L 615 324" stroke-miterlimit="10"/></g><g transform="translate(2,-14) scale(1,1)"><path fill="none" stroke="#000000" d="M 604.7867489941989 328.0852789246883 L 615 324 L 604.8894125251521 319.6668693865233" stroke-miterlimit="10"/></g><g transform="translate(2,-14) scale(1,1)"><g><path fill="none" stroke="none"/><text fill="#000000" stroke="none" font-family="Arial" font-size="13px" font-style="normal" font-weight="normal" text-decoration="none" x="382.5" y="337.5">user selects tableau origin to move</text></g></g><g transform="translate(2,-14) scale(1,1)"><path fill="#C0C0C0" stroke="none" d="M 743 532.5 L 763.5 519 L 783 532.5 L 763.5 545 L 743 532.5" opacity="0.2"/></g><g transform="translate(2,-14) scale(1,1)"><path fill="#ffffff" stroke="none" d="M 736 525 L 756 512 L 776 525 L 756 538 L 736 525"/></g><g transform="translate(2,-14) scale(1,1)"><path fill="none" stroke="#000000" d="M 736 525 L 756 512 L 776 525 L 756 538 L 736 525 L 736 525" stroke-miterlimit="10"/></g><g transform="translate(2,-14) scale(1,1)"><path fill="none" stroke="#000000" d="M 653 337 L 732 399" stroke-miterlimit="10"/></g><g transform="translate(2,-14) scale(1,1)"><path fill="none" stroke="#000000" d="M 721.406512905927 396.03722576160305 L 732 399 L 726.6042711944641 389.4142756842735" stroke-miterlimit="10"/></g><g transform="translate(2,-14) scale(1,1)"><path fill="none" stroke="#000000" d="M 745 539 L 637 671" stroke-miterlimit="10"/></g><g transform="translate(2,-14) scale(1,1)"><path fill="none" stroke="#000000" d="M 640.1774027765504 660.4688978926434 L 637 671 L 646.6933767633395 665.80014933638" stroke-miterlimit="10"/></g><g transform="translate(2,-14) scale(1,1)"><g><path fill="none" stroke="none"/><text fill="#000000" stroke="none" font-family="Arial" font-size="13px" font-style="normal" font-weight="normal" text-decoration="none" x="657.86181640625" y="612.5"> [allowedCard]</text></g></g><g transform="translate(2,-14) scale(1,1)"><path fill="#C0C0C0" stroke="none" d="M 471 531.5 L 491.5 519 L 511 531.5 L 491.5 543 L 471 531.5" opacity="0.2"/></g><g transform="translate(2,-14) scale(1,1)"><path fill="#ffffff" stroke="none" d="M 464 524 L 484 512 L 504 524 L 484 536 L 464 524"/></g><g transform="translate(2,-14) scale(1,1)"><path fill="none" stroke="#000000" d="M 464 524 L 484 512 L 504 524 L 484 536 L 464 524 L 464 524" stroke-miterlimit="10"/></g><g transform="translate(2,-14) scale(1,1)"><path fill="none" stroke="#000000" d="M 615 337 L 516 399" stroke-miterlimit="10"/></g><g transform="translate(2,-14) scale(1,1)"><path fill="none" stroke="#000000" d="M 522.3787615439959 390.03833714287134 L 516 399 L 526.8473181203148 397.17361296634823" stroke-miterlimit="10"/></g><g transform="translate(2,-14) scale(1,1)"><g><path fill="none" stroke="none"/><text fill="#000000" stroke="none" font-family="Arial" font-size="13px" font-style="normal" font-weight="normal" text-decoration="none" x="550.5" y="387.5"> [cardList]</text></g></g><g transform="translate(2,-14) scale(1,1)"><path fill="none" stroke="#000000" d="M 495 537 L 605 671" stroke-miterlimit="10"/></g><g transform="translate(2,-14) scale(1,1)"><path fill="none" stroke="#000000" d="M 595.298194704474 665.8158921685882 L 605 671 L 601.8055054877756 660.4740698837885" stroke-miterlimit="10"/></g><g transform="translate(2,-14) scale(1,1)"><g><path fill="none" stroke="none"/><text fill="#000000" stroke="none" font-family="Arial" font-size="13px" font-style="normal" font-weight="normal" text-decoration="none" x="491.5" y="615.5"> [allowedTopCard]</text></g></g><g transform="translate(2,-14) scale(1,1)"><path fill="none" stroke="#000000" d="M 776 532 L 1024 532 L 1024 152 L 280 152 L 280 256" stroke-miterlimit="10"/></g><g transform="translate(2,-14) scale(1,1)"><path fill="none" stroke="#000000" d="M 275.790482243984 245.83732514237585 L 280 256 L 284.209517756016 245.83732514237585" stroke-miterlimit="10"/></g><g transform="translate(2,-14) scale(1,1)"><path fill="none" stroke="#000000" d="M 464 528 L 80 528 L 80 152 L 280 152 L 280 256" stroke-miterlimit="10"/></g><g transform="translate(2,-14) scale(1,1)"><path fill="none" stroke="#000000" d="M 275.790482243984 245.83732514237585 L 280 256 L 284.209517756016 245.83732514237585" stroke-miterlimit="10"/></g><g transform="translate(2,-14) scale(1,1)"><path fill="none" stroke="#000000" d="M 651 691 L 1024 691 L 1024 152 L 280 152 L 280 256" stroke-miterlimit="10"/></g><g transform="translate(2,-14) scale(1,1)"><path fill="none" stroke="#000000" d="M 275.790482243984 245.83732514237585 L 280 256 L 284.209517756016 245.83732514237585" stroke-miterlimit="10"/></g><g transform="translate(2,-14) scale(1,1)"><path fill="#C0C0C0" stroke="none" d="M 473 407 L 512 407 Q 522 407 522 417 L 522 436 Q 522 446 512 446 L 473 446 Q 463 446 463 436 L 463 417 Q 463 407 473 407 Z" opacity="0.2"/></g><g transform="translate(2,-14) scale(1,1)"><path fill="#ffffff" stroke="none" d="M 466 400 L 505 400 Q 515 400 515 410 L 515 429 Q 515 439 505 439 L 466 439 Q 456 439 456 429 L 456 410 Q 456 400 466 400 Z"/></g><g transform="translate(2,-14) scale(1,1)"><path fill="none" stroke="#000000" d="M 466 400 L 505 400 Q 515 400 515 410 L 515 429 Q 515 439 505 439 L 466 439 Q 456 439 456 429 L 456 410 Q 456 400 466 400 Z" stroke-miterlimit="10"/></g><g transform="translate(2,-14) scale(1,1)"><g><path fill="none" stroke="none"/><text fill="#000000" stroke="none" font-family="Arial" font-size="13px" font-style="normal" font-weight="bold" text-decoration="none" x="485.5" y="419.5"></text></g></g><g transform="translate(2,-14) scale(1,1)"><path fill="#C0C0C0" stroke="none" d="M 745 407 L 784 407 Q 794 407 794 417 L 794 436 Q 794 446 784 446 L 745 446 Q 735 446 735 436 L 735 417 Q 735 407 745 407 Z" opacity="0.2"/></g><g transform="translate(2,-14) scale(1,1)"><path fill="#ffffff" stroke="none" d="M 738 400 L 777 400 Q 787 400 787 410 L 787 429 Q 787 439 777 439 L 738 439 Q 728 439 728 429 L 728 410 Q 728 400 738 400 Z"/></g><g transform="translate(2,-14) scale(1,1)"><path fill="none" stroke="#000000" d="M 738 400 L 777 400 Q 787 400 787 410 L 787 429 Q 787 439 777 439 L 738 439 Q 728 439 728 429 L 728 410 Q 728 400 738 400 Z" stroke-miterlimit="10"/></g><g transform="translate(2,-14) scale(1,1)"><g><path fill="none" stroke="none"/><text fill="#000000" stroke="none" font-family="Arial" font-size="13px" font-style="normal" font-weight="bold" text-decoration="none" x="757.5" y="419.5"></text></g></g><g transform="translate(2,-14) scale(1,1)"><path fill="none" stroke="#000000" d="M 485 440 L 484 511" stroke-miterlimit="10"/></g><g transform="translate(2,-14) scale(1,1)"><path fill="none" stroke="#000000" d="M 479.9340217804229 500.77904989162334 L 484 511 L 488.35222236058274 500.89761609697774" stroke-miterlimit="10"/></g><g transform="translate(2,-14) scale(1,1)"><g><path fill="none" stroke="none"/><text fill="#000000" stroke="none" font-family="Arial" font-size="13px" font-style="normal" font-weight="normal" text-decoration="none" x="421.5" y="480.5">user selects tableau target</text></g></g><g transform="translate(2,-14) scale(1,1)"><path fill="none" stroke="#000000" d="M 757 440 L 756 511" stroke-miterlimit="10"/></g><g transform="translate(2,-14) scale(1,1)"><path fill="none" stroke="#000000" d="M 751.9340217804229 500.77904989162334 L 756 511 L 760.3522223605827 500.89761609697774" stroke-miterlimit="10"/></g><g transform="translate(2,-14) scale(1,1)"><g><path fill="none" stroke="none"/><text fill="#000000" stroke="none" font-family="Arial" font-size="13px" font-style="normal" font-weight="normal" text-decoration="none" x="693.5" y="480.5">user selects tableau target</text></g></g><g transform="translate(2,-14) scale(1,1)"><path fill="#C0C0C0" stroke="none" d="M 279 491.5 C 279 484.59644 284.59644 479 291.5 479 C 298.40356 479 304 484.59644 304 491.5 C 304 498.40356 298.40356 504 291.5 504 C 284.59644 504 279 498.40356 279 491.5 Z" opacity="0.2"/></g><g transform="translate(2,-14) scale(1,1)"><path fill="none" stroke="#000000" d="M 272 484.5 C 272 477.59644 277.59644 472 284.5 472 C 291.40356 472 297 477.59644 297 484.5 C 297 491.40356 291.40356 497 284.5 497 C 277.59644 497 272 491.40356 272 484.5 Z" stroke-miterlimit="10"/></g><g transform="translate(2,-14) scale(1,1)"><path fill="#000000" stroke="none" d="M 277 484.5 C 277 480.357864 280.357864 477 284.5 477 C 288.642136 477 292 480.357864 292 484.5 C 292 488.642136 288.642136 492 284.5 492 C 280.357864 492 277 488.642136 277 484.5 Z"/></g><g transform="translate(2,-14) scale(1,1)"><path fill="none" stroke="#000000" d="M 284 385 L 284 471" stroke-miterlimit="10"/></g><g transform="translate(2,-14) scale(1,1)"><path fill="none" stroke="#000000" d="M 279.790482243984 460.83732514237585 L 284 471 L 288.209517756016 460.83732514237585" stroke-miterlimit="10"/></g><g transform="translate(2,-14) scale(1,1)"><g><path fill="none" stroke="none"/><text fill="#000000" stroke="none" font-family="Arial" font-size="13px" font-style="normal" font-weight="normal" text-decoration="none" x="196.599365234375" y="433.5"> [hasWon || gameOver || exitMatch]</text></g></g></g></svg>