<svg version="1.1" xmlns="http://www.w3.org/2000/svg" xmlns:xlink="http://www.w3.org/1999/xlink" width="898.67333984375" height="250"><defs/><g><g transform="translate(-6,-6) scale(1,1)"><path fill="#C0C0C0" stroke="none" d="M 55 194.5 C 55 179.31216799999999 103.57709919999999 167 163.5 167 C 223.4229008 167 272 179.31216799999999 272 194.5 C 272 209.68783200000001 223.4229008 222 163.5 222 C 103.57709919999999 222 55 209.68783200000001 55 194.5 Z" opacity="0.2"/></g><g transform="translate(-6,-6) scale(1,1)"><path fill="#ffffff" stroke="none" d="M 48 187.5 C 48 172.31216799999999 96.57709919999999 160 156.5 160 C 216.4229008 160 265 172.31216799999999 265 187.5 C 265 202.68783200000001 216.4229008 215 156.5 215 C 96.57709919999999 215 48 202.68783200000001 48 187.5 Z"/></g><g transform="translate(-6,-6) scale(1,1)"><path fill="none" stroke="#000000" d="M 48 187.5 C 48 172.31216799999999 96.57709919999999 160 156.5 160 C 216.4229008 160 265 172.31216799999999 265 187.5 C 265 202.68783200000001 216.4229008 215 156.5 215 C 96.57709919999999 215 48 202.68783200000001 48 187.5 Z" stroke-miterlimit="10"/></g><g transform="translate(-6,-6) scale(1,1)"><g><path fill="none" stroke="none"/><text fill="#000000" stroke="none" font-family="Arial" font-size="13px" font-style="normal" font-weight="bold" text-decoration="none" x="98.3427734375" y="187">MoveStockToWaste</text></g></g><g transform="translate(-6,-6) scale(1,1)"><g><path fill="none" stroke="none"/><text fill="#000000" stroke="none" font-family="Arial" font-size="13px" font-style="normal" font-weight="normal" text-decoration="none" x="84.260498046875" y="202">(from InGameUseCases)</text></g></g><g transform="translate(-6,-6) scale(1,1)"><path fill="#C0C0C0" stroke="none" d="M 343 186.5 C 343 171.31216799999999 391.5770992 159 451.5 159 C 511.4229008 159 560 171.31216799999999 560 186.5 C 560 201.68783200000001 511.4229008 214 451.5 214 C 391.5770992 214 343 201.68783200000001 343 186.5 Z" opacity="0.2"/></g><g transform="translate(-6,-6) scale(1,1)"><path fill="#ffffff" stroke="none" d="M 336 179.5 C 336 164.31216799999999 384.5770992 152 444.5 152 C 504.4229008 152 553 164.31216799999999 553 179.5 C 553 194.68783200000001 504.4229008 207 444.5 207 C 384.5770992 207 336 194.68783200000001 336 179.5 Z"/></g><g transform="translate(-6,-6) scale(1,1)"><path fill="none" stroke="#000000" d="M 336 179.5 C 336 164.31216799999999 384.5770992 152 444.5 152 C 504.4229008 152 553 164.31216799999999 553 179.5 C 553 194.68783200000001 504.4229008 207 444.5 207 C 384.5770992 207 336 194.68783200000001 336 179.5 Z" stroke-miterlimit="10"/></g><g transform="translate(-6,-6) scale(1,1)"><g><path fill="none" stroke="none"/><text fill="#000000" stroke="none" font-family="Arial" font-size="13px" font-style="normal" font-weight="bold" text-decoration="none" x="379.109619140625" y="179">MoveWasteToTableau</text></g></g><g transform="translate(-6,-6) scale(1,1)"><g><path fill="none" stroke="none"/><text fill="#000000" stroke="none" font-family="Arial" font-size="13px" font-style="normal" font-weight="normal" text-decoration="none" x="372.260498046875" y="194">(from InGameUseCases)</text></g></g><g transform="translate(-6,-6) scale(1,1)"><path fill="#C0C0C0" stroke="none" d="M 639 194.5 C 639 179.31216799999999 688.4725296 167 749.5 167 C 810.5274704 167 860 179.31216799999999 860 194.5 C 860 209.68783200000001 810.5274704 222 749.5 222 C 688.4725296 222 639 209.68783200000001 639 194.5 Z" opacity="0.2"/></g><g transform="translate(-6,-6) scale(1,1)"><path fill="#ffffff" stroke="none" d="M 632 187.5 C 632 172.31216799999999 681.4725296 160 742.5 160 C 803.5274704 160 853 172.31216799999999 853 187.5 C 853 202.68783200000001 803.5274704 215 742.5 215 C 681.4725296 215 632 202.68783200000001 632 187.5 Z"/></g><g transform="translate(-6,-6) scale(1,1)"><path fill="none" stroke="#000000" d="M 632 187.5 C 632 172.31216799999999 681.4725296 160 742.5 160 C 803.5274704 160 853 172.31216799999999 853 187.5 C 853 202.68783200000001 803.5274704 215 742.5 215 C 681.4725296 215 632 202.68783200000001 632 187.5 Z" stroke-miterlimit="10"/></g><g transform="translate(-6,-6) scale(1,1)"><g><path fill="none" stroke="none"/><text fill="#000000" stroke="none" font-family="Arial" font-size="13px" font-style="normal" font-weight="bold" text-decoration="none" x="672.041015625" y="187">MoveTableauToTableau</text></g></g><g transform="translate(-6,-6) scale(1,1)"><g><path fill="none" stroke="none"/><text fill="#000000" stroke="none" font-family="Arial" font-size="13px" font-style="normal" font-weight="normal" text-decoration="none" x="670.260498046875" y="202">(from InGameUseCases)</text></g></g><g transform="translate(-6,-6) scale(1,1)"><rect fill="#ffffff" stroke="none" x="16" y="16" width="124.0380859375" height="22"/></g><g transform="translate(-6,-6) scale(1,1)"><path fill="none" stroke="#000000" d="M 16 16 L 140.0380859375 16 L 140.0380859375 38 L 16 38 L 16 16 Z Z" stroke-miterlimit="10"/></g><g transform="translate(-6,-6) scale(1,1)"><path fill="none" stroke="#000000" d="M 48.39453125 16 L 48.39453125 38" stroke-miterlimit="10"/></g><g transform="translate(-6,-6) scale(1,1)"><g><path fill="none" stroke="none"/><text fill="#000000" stroke="none" font-family="Arial" font-size="13px" font-style="normal" font-weight="normal" text-decoration="none" x="52.89453125" y="33.5">UseCaseView</text></g></g><g transform="translate(-6,-6) scale(1,1)"><g><path fill="none" stroke="none"/><text fill="#000000" stroke="none" font-family="Arial" font-size="13px" font-style="normal" font-weight="bold" text-decoration="none" x="22.444091796875" y="33.5">link</text></g></g><g transform="translate(-6,-6) scale(1,1)"><rect fill="#ffffff" stroke="none" x="160" y="16" width="103.39453125" height="22"/></g><g transform="translate(-6,-6) scale(1,1)"><path fill="none" stroke="#000000" d="M 160 16 L 263.39453125 16 L 263.39453125 38 L 160 38 L 160 16 Z Z" stroke-miterlimit="10"/></g><g transform="translate(-6,-6) scale(1,1)"><path fill="none" stroke="#000000" d="M 192.39453125 16 L 192.39453125 38" stroke-miterlimit="10"/></g><g transform="translate(-6,-6) scale(1,1)"><g><path fill="none" stroke="none"/><text fill="#000000" stroke="none" font-family="Arial" font-size="13px" font-style="normal" font-weight="normal" text-decoration="none" x="198.3095703125" y="33.5">4+1 views</text></g></g><g transform="translate(-6,-6) scale(1,1)"><g><path fill="none" stroke="none"/><text fill="#000000" stroke="none" font-family="Arial" font-size="13px" font-style="normal" font-weight="bold" text-decoration="none" x="166.444091796875" y="33.5">link</text></g></g><g transform="translate(-6,-6) scale(1,1)"><rect fill="#ffffff" stroke="none" x="32" y="224" width="254.06982421875" height="22"/></g><g transform="translate(-6,-6) scale(1,1)"><path fill="none" stroke="#000000" d="M 32 224 L 286.06982421875 224 L 286.06982421875 246 L 32 246 L 32 224 Z Z" stroke-miterlimit="10"/></g><g transform="translate(-6,-6) scale(1,1)"><path fill="none" stroke="#000000" d="M 64.39453125 224 L 64.39453125 246" stroke-miterlimit="10"/></g><g transform="translate(-6,-6) scale(1,1)"><g><path fill="none" stroke="none"/><text fill="#000000" stroke="none" font-family="Arial" font-size="13px" font-style="normal" font-weight="normal" text-decoration="none" x="68.89453125" y="241.5">MoveStockToWaste (State Diagram)</text></g></g><g transform="translate(-6,-6) scale(1,1)"><g><path fill="none" stroke="none"/><text fill="#000000" stroke="none" font-family="Arial" font-size="13px" font-style="normal" font-weight="bold" text-decoration="none" x="38.444091796875" y="241.5">link</text></g></g><g transform="translate(-6,-6) scale(1,1)"><rect fill="#ffffff" stroke="none" x="312" y="224" width="268.5361328125" height="22"/></g><g transform="translate(-6,-6) scale(1,1)"><path fill="none" stroke="#000000" d="M 312 224 L 580.5361328125 224 L 580.5361328125 246 L 312 246 L 312 224 Z Z" stroke-miterlimit="10"/></g><g transform="translate(-6,-6) scale(1,1)"><path fill="none" stroke="#000000" d="M 344.39453125 224 L 344.39453125 246" stroke-miterlimit="10"/></g><g transform="translate(-6,-6) scale(1,1)"><g><path fill="none" stroke="none"/><text fill="#000000" stroke="none" font-family="Arial" font-size="13px" font-style="normal" font-weight="normal" text-decoration="none" x="348.89453125" y="241.5">MoveWasteToTableau (State Diagram)</text></g></g><g transform="translate(-6,-6) scale(1,1)"><g><path fill="none" stroke="none"/><text fill="#000000" stroke="none" font-family="Arial" font-size="13px" font-style="normal" font-weight="bold" text-decoration="none" x="318.444091796875" y="241.5">link</text></g></g><g transform="translate(-6,-6) scale(1,1)"><rect fill="#ffffff" stroke="none" x="616" y="224" width="278.67333984375" height="22"/></g><g transform="translate(-6,-6) scale(1,1)"><path fill="none" stroke="#000000" d="M 616 224 L 894.67333984375 224 L 894.67333984375 246 L 616 246 L 616 224 Z Z" stroke-miterlimit="10"/></g><g transform="translate(-6,-6) scale(1,1)"><path fill="none" stroke="#000000" d="M 648.39453125 224 L 648.39453125 246" stroke-miterlimit="10"/></g><g transform="translate(-6,-6) scale(1,1)"><g><path fill="none" stroke="none"/><text fill="#000000" stroke="none" font-family="Arial" font-size="13px" font-style="normal" font-weight="normal" text-decoration="none" x="652.89453125" y="241.5">MoveTableauToTableau (State Diagram)</text></g></g><g transform="translate(-6,-6) scale(1,1)"><g><path fill="none" stroke="none"/><text fill="#000000" stroke="none" font-family="Arial" font-size="13px" font-style="normal" font-weight="bold" text-decoration="none" x="622.444091796875" y="241.5">link</text></g></g></g></svg>