<svg version="1.1" xmlns="http://www.w3.org/2000/svg" xmlns:xlink="http://www.w3.org/1999/xlink" width="650" height="237"><defs/><g><g transform="translate(-19,-6) scale(1,1)"><rect fill="#C0C0C0" stroke="none" x="171" y="122" width="55.904687499999994" height="15" opacity="0.2"/></g><g transform="translate(-19,-6) scale(1,1)"><rect fill="#C0C0C0" stroke="none" x="171" y="136" width="139.76171875" height="25" opacity="0.2"/></g><g transform="translate(-19,-6) scale(1,1)"><rect fill="#ffffff" stroke="none" x="164" y="130" width="139.76171875" height="24"/></g><g transform="translate(-19,-6) scale(1,1)"><path fill="none" stroke="#000000" d="M 164 130 L 303.76171875 130 L 303.76171875 154 L 164 154 L 164 130 Z Z" stroke-miterlimit="10"/></g><g transform="translate(-19,-6) scale(1,1)"><rect fill="#ffffff" stroke="none" x="164" y="115" width="55.904687499999994" height="15"/></g><g transform="translate(-19,-6) scale(1,1)"><path fill="none" stroke="#000000" d="M 164 115 L 219.9046875 115 L 219.9046875 130 L 164 130 L 164 115 Z Z" stroke-miterlimit="10"/></g><g transform="translate(-19,-6) scale(1,1)"><rect fill="#ffffff" stroke="none" x="164" y="129" width="139.76171875" height="25"/></g><g transform="translate(-19,-6) scale(1,1)"><path fill="none" stroke="#000000" d="M 164 129 L 303.76171875 129 L 303.76171875 154 L 164 154 L 164 129 Z Z" stroke-miterlimit="10"/></g><g transform="translate(-19,-6) scale(1,1)"><g><path fill="none" stroke="none"/><text fill="#000000" stroke="none" font-family="Arial" font-size="13px" font-style="normal" font-weight="bold" text-decoration="none" x="174.6318359375" y="149.5">ArquitectureAnalisys</text></g></g><g transform="translate(-19,-6) scale(1,1)"><rect fill="#C0C0C0" stroke="none" x="355" y="201" width="49.8515625" height="15" opacity="0.2"/></g><g transform="translate(-19,-6) scale(1,1)"><rect fill="#C0C0C0" stroke="none" x="355" y="215" width="124.62890625" height="25" opacity="0.2"/></g><g transform="translate(-19,-6) scale(1,1)"><rect fill="#ffffff" stroke="none" x="348" y="209" width="124.62890625" height="24"/></g><g transform="translate(-19,-6) scale(1,1)"><path fill="none" stroke="#000000" d="M 348 209 L 472.62890625 209 L 472.62890625 233 L 348 233 L 348 209 Z Z" stroke-miterlimit="10"/></g><g transform="translate(-19,-6) scale(1,1)"><rect fill="#ffffff" stroke="none" x="348" y="194" width="49.8515625" height="15"/></g><g transform="translate(-19,-6) scale(1,1)"><path fill="none" stroke="#000000" d="M 348 194 L 397.8515625 194 L 397.8515625 209 L 348 209 L 348 194 Z Z" stroke-miterlimit="10"/></g><g transform="translate(-19,-6) scale(1,1)"><rect fill="#ffffff" stroke="none" x="348" y="208" width="124.62890625" height="25"/></g><g transform="translate(-19,-6) scale(1,1)"><path fill="none" stroke="#000000" d="M 348 208 L 472.62890625 208 L 472.62890625 233 L 348 233 L 348 208 Z Z" stroke-miterlimit="10"/></g><g transform="translate(-19,-6) scale(1,1)"><g><path fill="none" stroke="none"/><text fill="#000000" stroke="none" font-family="Arial" font-size="13px" font-style="normal" font-weight="bold" text-decoration="none" x="356.127685546875" y="228.5">UseCasesAnalysis</text></g></g><g transform="translate(-19,-6) scale(1,1)"><path fill="none" stroke="#000000" d="M 365 193 L 280 155" stroke-miterlimit="10" stroke-dasharray="3"/></g><g transform="translate(-19,-6) scale(1,1)"><path fill="none" stroke="#000000" d="M 290.9957782645398 155.30472997403305 L 280 155 L 287.5597127442102 162.9906660063493" stroke-miterlimit="10"/></g><g transform="translate(-19,-6) scale(1,1)"><rect fill="#ffffff" stroke="none" x="29" y="16" width="143" height="22"/></g><g transform="translate(-19,-6) scale(1,1)"><path fill="none" stroke="#000000" d="M 29 16 L 172 16 L 172 38 L 29 38 L 29 16 Z Z" stroke-miterlimit="10"/></g><g transform="translate(-19,-6) scale(1,1)"><path fill="none" stroke="#000000" d="M 61.39453125 16 L 61.39453125 38" stroke-miterlimit="10"/></g><g transform="translate(-19,-6) scale(1,1)"><g><path fill="none" stroke="none"/><text fill="#000000" stroke="none" font-family="Arial" font-size="13px" font-style="normal" font-weight="normal" text-decoration="none" x="82.87451171875" y="33.5">designView</text></g></g><g transform="translate(-19,-6) scale(1,1)"><g><path fill="none" stroke="none"/><text fill="#000000" stroke="none" font-family="Arial" font-size="13px" font-style="normal" font-weight="bold" text-decoration="none" x="35.444091796875" y="33.5">link</text></g></g><g transform="translate(-19,-6) scale(1,1)"><rect fill="#ffffff" stroke="none" x="312" y="128" width="195" height="22"/></g><g transform="translate(-19,-6) scale(1,1)"><path fill="none" stroke="#000000" d="M 312 128 L 507 128 L 507 150 L 312 150 L 312 128 Z Z" stroke-miterlimit="10"/></g><g transform="translate(-19,-6) scale(1,1)"><path fill="none" stroke="#000000" d="M 344.39453125 128 L 344.39453125 150" stroke-miterlimit="10"/></g><g transform="translate(-19,-6) scale(1,1)"><g><path fill="none" stroke="none"/><text fill="#000000" stroke="none" font-family="Arial" font-size="13px" font-style="normal" font-weight="normal" text-decoration="none" x="349.74462890625" y="145.5">IndexArquitectureAnalysis</text></g></g><g transform="translate(-19,-6) scale(1,1)"><g><path fill="none" stroke="none"/><text fill="#000000" stroke="none" font-family="Arial" font-size="13px" font-style="normal" font-weight="bold" text-decoration="none" x="318.444091796875" y="145.5">link</text></g></g><g transform="translate(-19,-6) scale(1,1)"><rect fill="#ffffff" stroke="none" x="184" y="16" width="104" height="22"/></g><g transform="translate(-19,-6) scale(1,1)"><path fill="none" stroke="#000000" d="M 184 16 L 288 16 L 288 38 L 184 38 L 184 16 Z Z" stroke-miterlimit="10"/></g><g transform="translate(-19,-6) scale(1,1)"><path fill="none" stroke="#000000" d="M 216.39453125 16 L 216.39453125 38" stroke-miterlimit="10"/></g><g transform="translate(-19,-6) scale(1,1)"><g><path fill="none" stroke="none"/><text fill="#000000" stroke="none" font-family="Arial" font-size="13px" font-style="normal" font-weight="normal" text-decoration="none" x="222.3095703125" y="33.5">4+1 views</text></g></g><g transform="translate(-19,-6) scale(1,1)"><g><path fill="none" stroke="none"/><text fill="#000000" stroke="none" font-family="Arial" font-size="13px" font-style="normal" font-weight="bold" text-decoration="none" x="190.444091796875" y="33.5">link</text></g></g><g transform="translate(-19,-6) scale(1,1)"><rect fill="#ffffff" stroke="none" x="474" y="208" width="185" height="22"/></g><g transform="translate(-19,-6) scale(1,1)"><path fill="none" stroke="#000000" d="M 474 208 L 659 208 L 659 230 L 474 230 L 474 208 Z Z" stroke-miterlimit="10"/></g><g transform="translate(-19,-6) scale(1,1)"><path fill="none" stroke="#000000" d="M 506.39453125 208 L 506.39453125 230" stroke-miterlimit="10"/></g><g transform="translate(-19,-6) scale(1,1)"><g><path fill="none" stroke="none"/><text fill="#000000" stroke="none" font-family="Arial" font-size="13px" font-style="normal" font-weight="normal" text-decoration="none" x="511.806884765625" y="225.5">IndexUseCasesAnalysis</text></g></g><g transform="translate(-19,-6) scale(1,1)"><g><path fill="none" stroke="none"/><text fill="#000000" stroke="none" font-family="Arial" font-size="13px" font-style="normal" font-weight="bold" text-decoration="none" x="480.444091796875" y="225.5">link</text></g></g></g></svg>