<svg version="1.1" xmlns="http://www.w3.org/2000/svg" xmlns:xlink="http://www.w3.org/1999/xlink" width="797.5126953125" height="669"><defs/><g><g transform="translate(-13,-13) scale(1,1)"><path fill="none" stroke="#000000" d="M 193.864990234375 576 L 232.864990234375 576 L 232.864990234375 615 L 193.864990234375 615 L 193.864990234375 576 Z Z" stroke-miterlimit="10"/></g><g transform="translate(-13,-13) scale(1,1)"><path fill="none" stroke="#000000" d="M 193.864990234375 576 L 232.864990234375 615" stroke-miterlimit="10"/></g><g transform="translate(-13,-13) scale(1,1)"><path fill="none" stroke="#000000" d="M 232.864990234375 576 L 193.864990234375 615" stroke-miterlimit="10"/></g><g transform="translate(-13,-13) scale(1,1)"><g><path fill="none" stroke="none"/><text fill="#000000" stroke="none" font-family="Arial" font-size="13px" font-style="normal" font-weight="bold" text-decoration="none" x="183.02001953125" y="634.5">CardEntity</text></g></g><g transform="translate(-13,-13) scale(1,1)"><path fill="none" stroke="#000000" d="M 370.594970703125 352 L 409.594970703125 352 L 409.594970703125 391 L 370.594970703125 391 L 370.594970703125 352 Z Z" stroke-miterlimit="10"/></g><g transform="translate(-13,-13) scale(1,1)"><path fill="none" stroke="#000000" d="M 370.594970703125 352 L 409.594970703125 391" stroke-miterlimit="10"/></g><g transform="translate(-13,-13) scale(1,1)"><path fill="none" stroke="#000000" d="M 409.594970703125 352 L 370.594970703125 391" stroke-miterlimit="10"/></g><g transform="translate(-13,-13) scale(1,1)"><g><path fill="none" stroke="none"/><text fill="#000000" stroke="none" font-family="Arial" font-size="13px" font-style="normal" font-weight="bold" text-decoration="none" x="359.029541015625" y="410.5">DeckEntity</text></g></g><g transform="translate(-13,-13) scale(1,1)"><path fill="none" stroke="#000000" d="M 740.75634765625 608 L 779.75634765625 608 L 779.75634765625 647 L 740.75634765625 647 L 740.75634765625 608 Z Z" stroke-miterlimit="10"/></g><g transform="translate(-13,-13) scale(1,1)"><path fill="none" stroke="#000000" d="M 740.75634765625 608 L 779.75634765625 647" stroke-miterlimit="10"/></g><g transform="translate(-13,-13) scale(1,1)"><path fill="none" stroke="#000000" d="M 779.75634765625 608 L 740.75634765625 647" stroke-miterlimit="10"/></g><g transform="translate(-13,-13) scale(1,1)"><g><path fill="none" stroke="none"/><text fill="#000000" stroke="none" font-family="Arial" font-size="13px" font-style="normal" font-weight="bold" text-decoration="none" x="727.74365234375" y="666.5">StockEntity</text></g></g><g transform="translate(-13,-13) scale(1,1)"><path fill="none" stroke="#000000" d="M 627.6181640625 544 L 666.6181640625 544 L 666.6181640625 583 L 627.6181640625 583 L 627.6181640625 544 Z Z" stroke-miterlimit="10"/></g><g transform="translate(-13,-13) scale(1,1)"><path fill="none" stroke="#000000" d="M 627.6181640625 544 L 666.6181640625 583" stroke-miterlimit="10"/></g><g transform="translate(-13,-13) scale(1,1)"><path fill="none" stroke="#000000" d="M 666.6181640625 544 L 627.6181640625 583" stroke-miterlimit="10"/></g><g transform="translate(-13,-13) scale(1,1)"><g><path fill="none" stroke="none"/><text fill="#000000" stroke="none" font-family="Arial" font-size="13px" font-style="normal" font-weight="bold" text-decoration="none" x="607.372314453125" y="602.5">TableauEntity</text></g></g><g transform="translate(-13,-13) scale(1,1)"><path fill="none" stroke="#000000" d="M 414.5 432 L 453.5 432 L 453.5 471 L 414.5 471 L 414.5 432 Z Z" stroke-miterlimit="10"/></g><g transform="translate(-13,-13) scale(1,1)"><path fill="none" stroke="#000000" d="M 414.5 432 L 453.5 471" stroke-miterlimit="10"/></g><g transform="translate(-13,-13) scale(1,1)"><path fill="none" stroke="#000000" d="M 453.5 432 L 414.5 471" stroke-miterlimit="10"/></g><g transform="translate(-13,-13) scale(1,1)"><g><path fill="none" stroke="none"/><text fill="#000000" stroke="none" font-family="Arial" font-size="13px" font-style="normal" font-weight="bold" text-decoration="none" x="385.21826171875" y="490.5">FoundationEntity</text></g></g><g transform="translate(-13,-13) scale(1,1)"><path fill="none" stroke="#000000" d="M 510.200439453125 488 L 549.200439453125 488 L 549.200439453125 527 L 510.200439453125 527 L 510.200439453125 488 Z Z" stroke-miterlimit="10"/></g><g transform="translate(-13,-13) scale(1,1)"><path fill="none" stroke="#000000" d="M 510.200439453125 488 L 549.200439453125 527" stroke-miterlimit="10"/></g><g transform="translate(-13,-13) scale(1,1)"><path fill="none" stroke="#000000" d="M 549.200439453125 488 L 510.200439453125 527" stroke-miterlimit="10"/></g><g transform="translate(-13,-13) scale(1,1)"><g><path fill="none" stroke="none"/><text fill="#000000" stroke="none" font-family="Arial" font-size="13px" font-style="normal" font-weight="bold" text-decoration="none" x="495.023193359375" y="546.5">WasteEntity</text></g></g><g transform="translate(-13,-13) scale(1,1)"><path fill="none" stroke="#000000" d="M 46.57177734375 264 L 85.57177734375 264 L 85.57177734375 303 L 46.57177734375 303 L 46.57177734375 264 Z Z" stroke-miterlimit="10"/></g><g transform="translate(-13,-13) scale(1,1)"><path fill="none" stroke="#000000" d="M 46.57177734375 264 L 85.57177734375 303" stroke-miterlimit="10"/></g><g transform="translate(-13,-13) scale(1,1)"><path fill="none" stroke="#000000" d="M 85.57177734375 264 L 46.57177734375 303" stroke-miterlimit="10"/></g><g transform="translate(-13,-13) scale(1,1)"><g><path fill="none" stroke="none"/><text fill="#000000" stroke="none" font-family="Arial" font-size="13px" font-style="normal" font-weight="bold" text-decoration="none" x="31.391357421875" y="322.5">PlayerEntity</text></g></g><g transform="translate(-13,-13) scale(1,1)"><path fill="none" stroke="#000000" d="M 52 136 L 91 136 L 91 175 L 52 175 L 52 136 Z Z" stroke-miterlimit="10"/></g><g transform="translate(-13,-13) scale(1,1)"><path fill="none" stroke="#000000" d="M 52 136 L 91 175" stroke-miterlimit="10"/></g><g transform="translate(-13,-13) scale(1,1)"><path fill="none" stroke="#000000" d="M 91 136 L 52 175" stroke-miterlimit="10"/></g><g transform="translate(-13,-13) scale(1,1)"><g><path fill="none" stroke="none"/><text fill="#000000" stroke="none" font-family="Arial" font-size="13px" font-style="normal" font-weight="bold" text-decoration="none" x="31.760498046875" y="194.5">PlayerEntities</text></g></g><g transform="translate(-13,-13) scale(1,1)"><path fill="none" stroke="#000000" d="M 549.83544921875 360 L 588.83544921875 360 L 588.83544921875 399 L 549.83544921875 399 L 549.83544921875 360 Z Z" stroke-miterlimit="10"/></g><g transform="translate(-13,-13) scale(1,1)"><path fill="none" stroke="#000000" d="M 549.83544921875 360 L 588.83544921875 399" stroke-miterlimit="10"/></g><g transform="translate(-13,-13) scale(1,1)"><path fill="none" stroke="#000000" d="M 588.83544921875 360 L 549.83544921875 399" stroke-miterlimit="10"/></g><g transform="translate(-13,-13) scale(1,1)"><g><path fill="none" stroke="none"/><text fill="#000000" stroke="none" font-family="Arial" font-size="13px" font-style="normal" font-weight="bold" text-decoration="none" x="535.734130859375" y="418.5">BoardEntity</text></g></g><g transform="translate(-13,-13) scale(1,1)"><path fill="none" stroke="#000000" d="M 437.121337890625 256 L 476.121337890625 256 L 476.121337890625 295 L 437.121337890625 295 L 437.121337890625 256 Z Z" stroke-miterlimit="10"/></g><g transform="translate(-13,-13) scale(1,1)"><path fill="none" stroke="#000000" d="M 437.121337890625 256 L 476.121337890625 295" stroke-miterlimit="10"/></g><g transform="translate(-13,-13) scale(1,1)"><path fill="none" stroke="#000000" d="M 476.121337890625 256 L 437.121337890625 295" stroke-miterlimit="10"/></g><g transform="translate(-13,-13) scale(1,1)"><g><path fill="none" stroke="none"/><text fill="#000000" stroke="none" font-family="Arial" font-size="13px" font-style="normal" font-weight="bold" text-decoration="none" x="422.66455078125" y="314.5">GameEntity</text></g></g><g transform="translate(-13,-13) scale(1,1)"><path fill="none" stroke="#000000" d="M 434.542236328125 128 L 473.542236328125 128 L 473.542236328125 167 L 434.542236328125 167 L 434.542236328125 128 Z Z" stroke-miterlimit="10"/></g><g transform="translate(-13,-13) scale(1,1)"><path fill="none" stroke="#000000" d="M 434.542236328125 128 L 473.542236328125 167" stroke-miterlimit="10"/></g><g transform="translate(-13,-13) scale(1,1)"><path fill="none" stroke="#000000" d="M 473.542236328125 128 L 434.542236328125 167" stroke-miterlimit="10"/></g><g transform="translate(-13,-13) scale(1,1)"><g><path fill="none" stroke="none"/><text fill="#000000" stroke="none" font-family="Arial" font-size="13px" font-style="normal" font-weight="bold" text-decoration="none" x="415.0263671875" y="186.5">GameEntities</text></g></g><g transform="translate(-13,-13) scale(1,1)"><path fill="none" stroke="#000000" d="M 244 144 L 283 144 L 283 183 L 244 183 L 244 144 Z Z" stroke-miterlimit="10"/></g><g transform="translate(-13,-13) scale(1,1)"><path fill="none" stroke="#000000" d="M 244 144 L 283 183" stroke-miterlimit="10"/></g><g transform="translate(-13,-13) scale(1,1)"><path fill="none" stroke="#000000" d="M 283 144 L 244 183" stroke-miterlimit="10"/></g><g transform="translate(-13,-13) scale(1,1)"><g><path fill="none" stroke="none"/><text fill="#000000" stroke="none" font-family="Arial" font-size="13px" font-style="normal" font-weight="bold" text-decoration="none" x="224.119140625" y="202.5">SessionEntity</text></g></g><g transform="translate(-13,-13) scale(1,1)"><path fill="none" stroke="#000000" d="M 244.697265625 64 L 283.697265625 64 L 283.697265625 103 L 244.697265625 103 L 244.697265625 64 Z Z" stroke-miterlimit="10"/></g><g transform="translate(-13,-13) scale(1,1)"><path fill="none" stroke="#000000" d="M 244.697265625 64 L 283.697265625 103" stroke-miterlimit="10"/></g><g transform="translate(-13,-13) scale(1,1)"><path fill="none" stroke="#000000" d="M 283.697265625 64 L 244.697265625 103" stroke-miterlimit="10"/></g><g transform="translate(-13,-13) scale(1,1)"><g><path fill="none" stroke="none"/><text fill="#000000" stroke="none" font-family="Arial" font-size="13px" font-style="normal" font-weight="bold" text-decoration="none" x="224.0927734375" y="122.5">RankingEntity</text></g></g><g transform="translate(-13,-13) scale(1,1)"><rect fill="#ffffff" stroke="none" x="23" y="24" width="195" height="22"/></g><g transform="translate(-13,-13) scale(1,1)"><path fill="none" stroke="#000000" d="M 23 24 L 218 24 L 218 46 L 23 46 L 23 24 Z Z" stroke-miterlimit="10"/></g><g transform="translate(-13,-13) scale(1,1)"><path fill="none" stroke="#000000" d="M 55.39453125 24 L 55.39453125 46" stroke-miterlimit="10"/></g><g transform="translate(-13,-13) scale(1,1)"><g><path fill="none" stroke="none"/><text fill="#000000" stroke="none" font-family="Arial" font-size="13px" font-style="normal" font-weight="normal" text-decoration="none" x="60.74462890625" y="41.5">IndexArquitectureAnalysis</text></g></g><g transform="translate(-13,-13) scale(1,1)"><g><path fill="none" stroke="none"/><text fill="#000000" stroke="none" font-family="Arial" font-size="13px" font-style="normal" font-weight="bold" text-decoration="none" x="29.444091796875" y="41.5">link</text></g></g><g transform="translate(-13,-13) scale(1,1)"><rect fill="#ffffff" stroke="none" x="235" y="24" width="153" height="22"/></g><g transform="translate(-13,-13) scale(1,1)"><path fill="none" stroke="#000000" d="M 235 24 L 388 24 L 388 46 L 235 46 L 235 24 Z Z" stroke-miterlimit="10"/></g><g transform="translate(-13,-13) scale(1,1)"><path fill="none" stroke="#000000" d="M 267.39453125 24 L 267.39453125 46" stroke-miterlimit="10"/></g><g transform="translate(-13,-13) scale(1,1)"><g><path fill="none" stroke="none"/><text fill="#000000" stroke="none" font-family="Arial" font-size="13px" font-style="normal" font-weight="normal" text-decoration="none" x="272.701416015625" y="41.5">IndexAnalysisView</text></g></g><g transform="translate(-13,-13) scale(1,1)"><g><path fill="none" stroke="none"/><text fill="#000000" stroke="none" font-family="Arial" font-size="13px" font-style="normal" font-weight="bold" text-decoration="none" x="241.444091796875" y="41.5">link</text></g></g><g transform="translate(-13,-13) scale(1,1)"><rect fill="#ffffff" stroke="none" x="408" y="23" width="143.4453125" height="22"/></g><g transform="translate(-13,-13) scale(1,1)"><path fill="none" stroke="#000000" d="M 408 23 L 551.4453125 23 L 551.4453125 45 L 408 45 L 408 23 Z Z" stroke-miterlimit="10"/></g><g transform="translate(-13,-13) scale(1,1)"><path fill="none" stroke="#000000" d="M 440.39453125 23 L 440.39453125 45" stroke-miterlimit="10"/></g><g transform="translate(-13,-13) scale(1,1)"><g><path fill="none" stroke="none"/><text fill="#000000" stroke="none" font-family="Arial" font-size="13px" font-style="normal" font-weight="normal" text-decoration="none" x="461.87451171875" y="40.5">designView</text></g></g><g transform="translate(-13,-13) scale(1,1)"><g><path fill="none" stroke="none"/><text fill="#000000" stroke="none" font-family="Arial" font-size="13px" font-style="normal" font-weight="bold" text-decoration="none" x="414.444091796875" y="40.5">link</text></g></g><g transform="translate(-13,-13) scale(1,1)"><rect fill="#ffffff" stroke="none" x="568" y="24" width="103.39453125" height="22"/></g><g transform="translate(-13,-13) scale(1,1)"><path fill="none" stroke="#000000" d="M 568 24 L 671.39453125 24 L 671.39453125 46 L 568 46 L 568 24 Z Z" stroke-miterlimit="10"/></g><g transform="translate(-13,-13) scale(1,1)"><path fill="none" stroke="#000000" d="M 600.39453125 24 L 600.39453125 46" stroke-miterlimit="10"/></g><g transform="translate(-13,-13) scale(1,1)"><g><path fill="none" stroke="none"/><text fill="#000000" stroke="none" font-family="Arial" font-size="13px" font-style="normal" font-weight="normal" text-decoration="none" x="606.3095703125" y="41.5">4+1 views</text></g></g><g transform="translate(-13,-13) scale(1,1)"><g><path fill="none" stroke="none"/><text fill="#000000" stroke="none" font-family="Arial" font-size="13px" font-style="normal" font-weight="bold" text-decoration="none" x="574.444091796875" y="41.5">link</text></g></g><g transform="translate(-13,-13) scale(1,1)"><path fill="none" stroke="#000000" d="M 70 201 L 67 263" stroke-miterlimit="10"/></g><g transform="translate(-13,-13) scale(1,1)"><path fill="none" stroke="#000000" d="M 63.2865691827315 252.6457529696573 L 67 263 L 71.69576617687834 253.05264959840633" stroke-miterlimit="10"/></g><g transform="translate(-13,-13) scale(1,1)"><path fill="none" stroke="#000000" d="M 455 193 L 455 255" stroke-miterlimit="10"/></g><g transform="translate(-13,-13) scale(1,1)"><path fill="none" stroke="#000000" d="M 450.790482243984 244.83732514237585 L 455 255 L 459.209517756016 244.83732514237585" stroke-miterlimit="10"/></g><g transform="translate(-13,-13) scale(1,1)"><path fill="none" stroke="#000000" d="M 215 205 L 109 270" stroke-miterlimit="10"/></g><g transform="translate(-13,-13) scale(1,1)"><path fill="none" stroke="#000000" d="M 115.46300637420786 261.09890183140595 L 109 270 L 119.86406250907429 268.27600875903426" stroke-miterlimit="10"/></g><g transform="translate(-13,-13) scale(1,1)"><path fill="none" stroke="#000000" d="M 312 204 L 415 264" stroke-miterlimit="10"/></g><g transform="translate(-13,-13) scale(1,1)"><path fill="none" stroke="#000000" d="M 404.09974735161535 262.52199722551546 L 415 264 L 408.33746322013116 255.24725165123007" stroke-miterlimit="10"/></g><g transform="translate(-13,-13) scale(1,1)"><path fill="none" stroke="#000000" d="M 415 289 L 109 295" stroke-miterlimit="10"/></g><g transform="translate(-13,-13) scale(1,1)"><path fill="none" stroke="#000000" d="M 119.07819811007995 290.5920613826891 L 109 295 L 119.24324551313359 299.00947893842437" stroke-miterlimit="10"/></g><g transform="translate(-13,-13) scale(1,1)"><path fill="none" stroke="#000000" d="M 492 321 L 533 359" stroke-miterlimit="10"/></g><g transform="translate(-13,-13) scale(1,1)"><path fill="none" stroke="#000000" d="M 522.6849049368178 355.1791605846995 L 533 359 L 528.4078677926238 349.00438487185613" stroke-miterlimit="10"/></g><g transform="translate(-13,-13) scale(1,1)"><path fill="none" stroke="#000000" d="M 433 321 L 413 351" stroke-miterlimit="10"/></g><g transform="translate(-13,-13) scale(1,1)"><path fill="none" stroke="#000000" d="M 415.13470724978384 340.20912306817837 L 413 351 L 422.1397682256108 344.87916371872967" stroke-miterlimit="10"/></g><g transform="translate(-13,-13) scale(1,1)"><path fill="none" stroke="#000000" d="M 364 417 L 239 575" stroke-miterlimit="10"/></g><g transform="translate(-13,-13) scale(1,1)"><path fill="none" stroke="#000000" d="M 242.00411578346439 564.4181623354192 L 239 575 L 248.6067198119975 569.6417414719169" stroke-miterlimit="10"/></g><g transform="translate(-13,-13) scale(1,1)"><path fill="none" stroke="#000000" d="M 313 113 L 407 144" stroke-miterlimit="10"/></g><g transform="translate(-13,-13) scale(1,1)"><path fill="none" stroke="#000000" d="M 396.03022099630346 144.81483041797583 L 407 144 L 398.6670227643006 136.81936699243616" stroke-miterlimit="10"/></g><g transform="translate(-13,-13) scale(1,1)"><path fill="none" stroke="#000000" d="M 527 414 L 493 433" stroke-miterlimit="10"/></g><g transform="translate(-13,-13) scale(1,1)"><path fill="none" stroke="#000000" d="M 499.81794811118885 424.36775906539117 L 493 433 L 503.92493344489765 431.71710124150167" stroke-miterlimit="10"/></g><g transform="translate(-13,-13) scale(1,1)"><path fill="none" stroke="#000000" d="M 559 425 L 539 487" stroke-miterlimit="10"/></g><g transform="translate(-13,-13) scale(1,1)"><path fill="none" stroke="#000000" d="M 538.1137351077252 476.0357611052695 L 539 487 L 546.1262037577582 478.6204284117317" stroke-miterlimit="10"/></g><g transform="translate(-13,-13) scale(1,1)"><path fill="none" stroke="#000000" d="M 583 425 L 633 543" stroke-miterlimit="10"/></g><g transform="translate(-13,-13) scale(1,1)"><path fill="none" stroke="#000000" d="M 625.1591215025086 535.285038925077 L 633 543 L 632.9109629366324 532.0003603512957" stroke-miterlimit="10"/></g><g transform="translate(-13,-13) scale(1,1)"><path fill="none" stroke="#000000" d="M 594 425 L 735 607" stroke-miterlimit="10"/></g><g transform="translate(-13,-13) scale(1,1)"><path fill="none" stroke="#000000" d="M 725.448303526952 601.5442604088205 L 735 607 L 732.1037211133831 596.3881401907612" stroke-miterlimit="10"/></g><g transform="translate(-13,-13) scale(1,1)"><path fill="none" stroke="#000000" d="M 383 497 L 252 583" stroke-miterlimit="10"/></g><g transform="translate(-13,-13) scale(1,1)"><path fill="none" stroke="#000000" d="M 258.1853875968287 573.9037930829935 L 252 583 L 262.80571910807606 580.9417399198935" stroke-miterlimit="10"/></g><g transform="translate(-13,-13) scale(1,1)"><path fill="none" stroke="#000000" d="M 487 532 L 252 597" stroke-miterlimit="10"/></g><g transform="translate(-13,-13) scale(1,1)"><path fill="none" stroke="#000000" d="M 599 580 L 252 605" stroke-miterlimit="10"/></g><g transform="translate(-13,-13) scale(1,1)"><path fill="none" stroke="#000000" d="M 719 638 L 252 610" stroke-miterlimit="10"/></g><g transform="translate(-13,-13) scale(1,1)"><path fill="none" stroke="#000000" d="M 231 129 L 99 263" stroke-miterlimit="10"/></g><g transform="translate(-13,-13) scale(1,1)"><path fill="none" stroke="#000000" d="M 103.13298984478408 252.805962775087 L 99 263 L 109.13073799522603 258.7141922964179" stroke-miterlimit="10"/></g></g></svg>