<svg version="1.1" xmlns="http://www.w3.org/2000/svg" xmlns:xlink="http://www.w3.org/1999/xlink" width="2445" height="2173"><defs/><g><g transform="translate(-6,-14) scale(1,1)"><rect fill="#ffffff" stroke="none" x="16" y="24" width="120.43896484375" height="22"/></g><g transform="translate(-6,-14) scale(1,1)"><path fill="none" stroke="#000000" d="M 16 24 L 136.43896484375 24 L 136.43896484375 46 L 16 46 L 16 24 Z Z" stroke-miterlimit="10"/></g><g transform="translate(-6,-14) scale(1,1)"><path fill="none" stroke="#000000" d="M 48.39453125 24 L 48.39453125 46" stroke-miterlimit="10"/></g><g transform="translate(-6,-14) scale(1,1)"><g><path fill="none" stroke="none"/><text fill="#000000" stroke="none" font-family="Arial" font-size="13px" font-style="normal" font-weight="normal" text-decoration="none" x="52.89453125" y="41.5">domainModel</text></g></g><g transform="translate(-6,-14) scale(1,1)"><g><path fill="none" stroke="none"/><text fill="#000000" stroke="none" font-family="Arial" font-size="13px" font-style="normal" font-weight="bold" text-decoration="none" x="22.444091796875" y="41.5">link</text></g></g><g transform="translate(-6,-14) scale(1,1)"><rect fill="#ffffff" stroke="none" x="152" y="24" width="103.39453125" height="22"/></g><g transform="translate(-6,-14) scale(1,1)"><path fill="none" stroke="#000000" d="M 152 24 L 255.39453125 24 L 255.39453125 46 L 152 46 L 152 24 Z Z" stroke-miterlimit="10"/></g><g transform="translate(-6,-14) scale(1,1)"><path fill="none" stroke="#000000" d="M 184.39453125 24 L 184.39453125 46" stroke-miterlimit="10"/></g><g transform="translate(-6,-14) scale(1,1)"><g><path fill="none" stroke="none"/><text fill="#000000" stroke="none" font-family="Arial" font-size="13px" font-style="normal" font-weight="normal" text-decoration="none" x="190.3095703125" y="41.5">4+1 views</text></g></g><g transform="translate(-6,-14) scale(1,1)"><g><path fill="none" stroke="none"/><text fill="#000000" stroke="none" font-family="Arial" font-size="13px" font-style="normal" font-weight="bold" text-decoration="none" x="158.444091796875" y="41.5">link</text></g></g><g transform="translate(-6,-14) scale(1,1)"><path fill="#C0C0C0" stroke="none" d="M 1591 144.5 C 1591 139.2532944 1595.2532944 135 1600.5 135 C 1605.7467056 135 1610 139.2532944 1610 144.5 C 1610 149.7467056 1605.7467056 154 1600.5 154 C 1595.2532944 154 1591 149.7467056 1591 144.5 Z" opacity="0.2"/></g><g transform="translate(-6,-14) scale(1,1)"><path fill="#000000" stroke="none" d="M 1584 137.5 C 1584 132.2532944 1588.2532944 128 1593.5 128 C 1598.7467056 128 1603 132.2532944 1603 137.5 C 1603 142.7467056 1598.7467056 147 1593.5 147 C 1588.2532944 147 1584 142.7467056 1584 137.5 Z"/></g><g transform="translate(-6,-14) scale(1,1)"><path fill="#C0C0C0" stroke="none" d="M 1583 544.5 L 1598.5 535 L 1613 544.5 L 1598.5 553 L 1583 544.5" opacity="0.2"/></g><g transform="translate(-6,-14) scale(1,1)"><path fill="#ffffff" stroke="none" d="M 1576 537 L 1591 528 L 1606 537 L 1591 546 L 1576 537"/></g><g transform="translate(-6,-14) scale(1,1)"><path fill="none" stroke="#000000" d="M 1576 537 L 1591 528 L 1606 537 L 1591 546 L 1576 537 L 1576 537" stroke-miterlimit="10"/></g><g transform="translate(-6,-14) scale(1,1)"><path fill="#C0C0C0" stroke="none" d="M 793 767 L 1029 767 Q 1039 767 1039 777 L 1039 901 Q 1039 911 1029 911 L 793 911 Q 783 911 783 901 L 783 777 Q 783 767 793 767 Z" opacity="0.2"/></g><g transform="translate(-6,-14) scale(1,1)"><path fill="#ffffff" stroke="none" d="M 786 760 L 1022 760 Q 1032 760 1032 770 L 1032 894 Q 1032 904 1022 904 L 786 904 Q 776 904 776 894 L 776 770 Q 776 760 786 760 Z"/></g><g transform="translate(-6,-14) scale(1,1)"><path fill="none" stroke="#000000" d="M 786 760 L 1022 760 Q 1032 760 1032 770 L 1032 894 Q 1032 904 1022 904 L 786 904 Q 776 904 776 894 L 776 770 Q 776 760 786 760 Z" stroke-miterlimit="10"/></g><g transform="translate(-6,-14) scale(1,1)"><g><path fill="none" stroke="none"/><text fill="#000000" stroke="none" font-family="Arial" font-size="13px" font-style="normal" font-weight="bold" text-decoration="none" x="841.87548828125" y="779.5">RecycleWasteActivity</text></g></g><g transform="translate(-6,-14) scale(1,1)"><path fill="#C0C0C0" stroke="none" d="M 1073 767 L 1213.54443359375 767 Q 1223.54443359375 767 1223.54443359375 777 L 1223.54443359375 797 Q 1223.54443359375 807 1213.54443359375 807 L 1073 807 Q 1063 807 1063 797 L 1063 777 Q 1063 767 1073 767 Z" opacity="0.2"/></g><g transform="translate(-6,-14) scale(1,1)"><path fill="#ffffff" stroke="none" d="M 1066 760 L 1206.54443359375 760 Q 1216.54443359375 760 1216.54443359375 770 L 1216.54443359375 790 Q 1216.54443359375 800 1206.54443359375 800 L 1066 800 Q 1056 800 1056 790 L 1056 770 Q 1056 760 1066 760 Z"/></g><g transform="translate(-6,-14) scale(1,1)"><path fill="none" stroke="#000000" d="M 1066 760 L 1206.54443359375 760 Q 1216.54443359375 760 1216.54443359375 770 L 1216.54443359375 790 Q 1216.54443359375 800 1206.54443359375 800 L 1066 800 Q 1056 800 1056 790 L 1056 770 Q 1056 760 1066 760 Z" stroke-miterlimit="10"/></g><g transform="translate(-6,-14) scale(1,1)"><g><path fill="none" stroke="none"/><text fill="#000000" stroke="none" font-family="Arial" font-size="13px" font-style="normal" font-weight="bold" text-decoration="none" x="1070.8818359375" y="779.5">MoveWasteToTableau</text></g></g><g transform="translate(-6,-14) scale(1,1)"><path fill="#C0C0C0" stroke="none" d="M 1425 767 L 1572.158203125 767 Q 1582.158203125 767 1582.158203125 777 L 1582.158203125 797 Q 1582.158203125 807 1572.158203125 807 L 1425 807 Q 1415 807 1415 797 L 1415 777 Q 1415 767 1425 767 Z" opacity="0.2"/></g><g transform="translate(-6,-14) scale(1,1)"><path fill="#ffffff" stroke="none" d="M 1418 760 L 1565.158203125 760 Q 1575.158203125 760 1575.158203125 770 L 1575.158203125 790 Q 1575.158203125 800 1565.158203125 800 L 1418 800 Q 1408 800 1408 790 L 1408 770 Q 1408 760 1418 760 Z"/></g><g transform="translate(-6,-14) scale(1,1)"><path fill="none" stroke="#000000" d="M 1418 760 L 1565.158203125 760 Q 1575.158203125 760 1575.158203125 770 L 1575.158203125 790 Q 1575.158203125 800 1565.158203125 800 L 1418 800 Q 1408 800 1408 790 L 1408 770 Q 1408 760 1418 760 Z" stroke-miterlimit="10"/></g><g transform="translate(-6,-14) scale(1,1)"><g><path fill="none" stroke="none"/><text fill="#000000" stroke="none" font-family="Arial" font-size="13px" font-style="normal" font-weight="bold" text-decoration="none" x="1417.15283203125" y="779.5">MoveWasteToFoundation</text></g></g><g transform="translate(-6,-14) scale(1,1)"><path fill="#C0C0C0" stroke="none" d="M 1921 767 L 2077 767 Q 2087 767 2087 777 L 2087 797 Q 2087 807 2077 807 L 1921 807 Q 1911 807 1911 797 L 1911 777 Q 1911 767 1921 767 Z" opacity="0.2"/></g><g transform="translate(-6,-14) scale(1,1)"><path fill="#ffffff" stroke="none" d="M 1914 760 L 2070 760 Q 2080 760 2080 770 L 2080 790 Q 2080 800 2070 800 L 1914 800 Q 1904 800 1904 790 L 1904 770 Q 1904 760 1914 760 Z"/></g><g transform="translate(-6,-14) scale(1,1)"><path fill="none" stroke="#000000" d="M 1914 760 L 2070 760 Q 2080 760 2080 770 L 2080 790 Q 2080 800 2070 800 L 1914 800 Q 1904 800 1904 790 L 1904 770 Q 1904 760 1914 760 Z" stroke-miterlimit="10"/></g><g transform="translate(-6,-14) scale(1,1)"><g><path fill="none" stroke="none"/><text fill="#000000" stroke="none" font-family="Arial" font-size="13px" font-style="normal" font-weight="bold" text-decoration="none" x="1921.541015625" y="779.5">MoveTableauToTableau</text></g></g><g transform="translate(-6,-14) scale(1,1)"><path fill="#C0C0C0" stroke="none" d="M 2201 759 L 2363.32275390625 759 Q 2373.32275390625 759 2373.32275390625 769 L 2373.32275390625 789 Q 2373.32275390625 799 2363.32275390625 799 L 2201 799 Q 2191 799 2191 789 L 2191 769 Q 2191 759 2201 759 Z" opacity="0.2"/></g><g transform="translate(-6,-14) scale(1,1)"><path fill="#ffffff" stroke="none" d="M 2194 752 L 2356.32275390625 752 Q 2366.32275390625 752 2366.32275390625 762 L 2366.32275390625 782 Q 2366.32275390625 792 2356.32275390625 792 L 2194 792 Q 2184 792 2184 782 L 2184 762 Q 2184 752 2194 752 Z"/></g><g transform="translate(-6,-14) scale(1,1)"><path fill="none" stroke="#000000" d="M 2194 752 L 2356.32275390625 752 Q 2366.32275390625 752 2366.32275390625 762 L 2366.32275390625 782 Q 2366.32275390625 792 2356.32275390625 792 L 2194 792 Q 2184 792 2184 782 L 2184 762 Q 2184 752 2194 752 Z" stroke-miterlimit="10"/></g><g transform="translate(-6,-14) scale(1,1)"><g><path fill="none" stroke="none"/><text fill="#000000" stroke="none" font-family="Arial" font-size="13px" font-style="normal" font-weight="bold" text-decoration="none" x="2195.66650390625" y="771.5">MoveFoundationToTableau</text></g></g><g transform="translate(-6,-14) scale(1,1)"><path fill="#C0C0C0" stroke="none" d="M 1249 767 L 1375.25537109375 767 Q 1385.25537109375 767 1385.25537109375 777 L 1385.25537109375 797 Q 1385.25537109375 807 1375.25537109375 807 L 1249 807 Q 1239 807 1239 797 L 1239 777 Q 1239 767 1249 767 Z" opacity="0.2"/></g><g transform="translate(-6,-14) scale(1,1)"><path fill="#ffffff" stroke="none" d="M 1242 760 L 1368.25537109375 760 Q 1378.25537109375 760 1378.25537109375 770 L 1378.25537109375 790 Q 1378.25537109375 800 1368.25537109375 800 L 1242 800 Q 1232 800 1232 790 L 1232 770 Q 1232 760 1242 760 Z"/></g><g transform="translate(-6,-14) scale(1,1)"><path fill="none" stroke="#000000" d="M 1242 760 L 1368.25537109375 760 Q 1378.25537109375 760 1378.25537109375 770 L 1378.25537109375 790 Q 1378.25537109375 800 1368.25537109375 800 L 1242 800 Q 1232 800 1232 790 L 1232 770 Q 1232 760 1242 760 Z" stroke-miterlimit="10"/></g><g transform="translate(-6,-14) scale(1,1)"><g><path fill="none" stroke="none"/><text fill="#000000" stroke="none" font-family="Arial" font-size="13px" font-style="normal" font-weight="bold" text-decoration="none" x="1240.09912109375" y="779.5">TurnOverTableauCard</text></g></g><g transform="translate(-6,-14) scale(1,1)"><path fill="#C0C0C0" stroke="none" d="M 1143 584.5 L 1159.5 575 L 1175 584.5 L 1159.5 593 L 1143 584.5" opacity="0.2"/></g><g transform="translate(-6,-14) scale(1,1)"><path fill="#ffffff" stroke="none" d="M 1136 577 L 1152 568 L 1168 577 L 1152 586 L 1136 577"/></g><g transform="translate(-6,-14) scale(1,1)"><path fill="none" stroke="#000000" d="M 1136 577 L 1152 568 L 1168 577 L 1152 586 L 1136 577 L 1136 577" stroke-miterlimit="10"/></g><g transform="translate(-6,-14) scale(1,1)"><path fill="none" stroke="#000000" d="M 1576 536 L 912 536 L 912 760" stroke-miterlimit="10"/></g><g transform="translate(-6,-14) scale(1,1)"><path fill="none" stroke="#000000" d="M 907.790482243984 749.8373251423759 L 912 760 L 916.209517756016 749.8373251423759" stroke-miterlimit="10"/></g><g transform="translate(-6,-14) scale(1,1)"><path fill="#C0C0C0" stroke="none" d="M 1561 415 L 1637 415 Q 1647 415 1647 425 L 1647 445 Q 1647 455 1637 455 L 1561 455 Q 1551 455 1551 445 L 1551 425 Q 1551 415 1561 415 Z" opacity="0.2"/></g><g transform="translate(-6,-14) scale(1,1)"><path fill="#ffffff" stroke="none" d="M 1554 408 L 1630 408 Q 1640 408 1640 418 L 1640 438 Q 1640 448 1630 448 L 1554 448 Q 1544 448 1544 438 L 1544 418 Q 1544 408 1554 408 Z"/></g><g transform="translate(-6,-14) scale(1,1)"><path fill="none" stroke="#000000" d="M 1554 408 L 1630 408 Q 1640 408 1640 418 L 1640 438 Q 1640 448 1630 448 L 1554 448 Q 1544 448 1544 438 L 1544 418 Q 1544 408 1554 408 Z" stroke-miterlimit="10"/></g><g transform="translate(-6,-14) scale(1,1)"><g><path fill="none" stroke="none"/><text fill="#000000" stroke="none" font-family="Arial" font-size="13px" font-style="normal" font-weight="bold" text-decoration="none" x="1554.78369140625" y="427.5">SelectOption</text></g></g><g transform="translate(-6,-14) scale(1,1)"><path fill="none" stroke="#000000" d="M 1592 449 L 1591 527" stroke-miterlimit="10"/></g><g transform="translate(-6,-14) scale(1,1)"><path fill="none" stroke="#000000" d="M 1586.9211081481628 516.7841964945964 L 1591 527 L 1595.3394518457796 516.8921239778992" stroke-miterlimit="10"/></g><g transform="translate(-6,-14) scale(1,1)"><path fill="none" stroke="#000000" d="M 1152 586 L 1152 760" stroke-miterlimit="10"/></g><g transform="translate(-6,-14) scale(1,1)"><path fill="none" stroke="#000000" d="M 1147.7904822439841 749.8373251423759 L 1152 760 L 1156.2095177560159 749.8373251423759" stroke-miterlimit="10"/></g><g transform="translate(-6,-14) scale(1,1)"><g><path fill="none" stroke="none"/><text fill="#000000" stroke="none" font-family="Arial" font-size="13px" font-style="normal" font-weight="normal" text-decoration="none" x="996.044189453125" y="619.5"> [allowedWasteToTableau]</text></g></g><g transform="translate(-6,-14) scale(1,1)"><path fill="#ffffff" stroke="none" d="M 136 2000 L 1877 2000 L 1887 2010 L 1887 2176 L 136 2176 L 136 2000"/></g><g transform="translate(-6,-14) scale(1,1)"><path fill="none" stroke="#000000" d="M 136 2000 L 1877 2000 L 1887 2010 L 1887 2176 L 136 2176 L 136 2000 L 136 2000" stroke-miterlimit="10"/></g><g transform="translate(-6,-14) scale(1,1)"><path fill="none" stroke="#000000" d="M 1877 2000 L 1877 2010 L 1887 2010 L 1877 2000" stroke-miterlimit="10"/></g><g transform="translate(-6,-14) scale(1,1)"><g><path fill="none" stroke="none"/><text fill="#000000" stroke="none" font-family="Arial" font-size="28px" font-style="normal" font-weight="normal" text-decoration="none" x="141" y="2033">allowedWasteToTableau =&gt; waste.card.color != tableau.top.color &amp;&amp; tableau.top.value - waste.card.value == 1</text></g></g><g transform="translate(-6,-14) scale(1,1)"><g><path fill="none" stroke="none"/><text fill="#000000" stroke="none" font-family="Arial" font-size="28px" font-style="normal" font-weight="normal" text-decoration="none" x="141" y="2063">allowedWasteToFoundation =&gt; waste.card.color == tableau.top.color &amp;&amp; foundation.top.value  - waste.card.value == -1</text></g></g><g transform="translate(-6,-14) scale(1,1)"><g><path fill="none" stroke="none"/><text fill="#000000" stroke="none" font-family="Arial" font-size="28px" font-style="normal" font-weight="normal" text-decoration="none" x="141" y="2093">allowedTableauToTableau=&gt; tableauOrigin.top.color != tableauDest.top.color &amp;&amp; tableauDest.top.value - tableauOrigin.top.value == 1</text></g></g><g transform="translate(-6,-14) scale(1,1)"><g><path fill="none" stroke="none"/><text fill="#000000" stroke="none" font-family="Arial" font-size="28px" font-style="normal" font-weight="normal" text-decoration="none" x="141" y="2123">allowedFoundationToTableau =&gt; foundation.top.color != tableau.top.color &amp;&amp; tableau.top.value - foundation.top.value == 1</text></g></g><g transform="translate(-6,-14) scale(1,1)"><g><path fill="none" stroke="none"/><text fill="#000000" stroke="none" font-family="Arial" font-size="28px" font-style="normal" font-weight="normal" text-decoration="none" x="141" y="2153">allowedTableauToFoundation =&gt; tableau.top.color == tableau.top.color &amp;&amp; foundation.top.value  - tableau.top.value == -1</text></g></g><g transform="translate(-6,-14) scale(1,1)"><g><path fill="none" stroke="none"/></g></g><g transform="translate(-6,-14) scale(1,1)"><path fill="#C0C0C0" stroke="none" d="M 1577 919 L 1645.45361328125 919 Q 1655.45361328125 919 1655.45361328125 929 L 1655.45361328125 949 Q 1655.45361328125 959 1645.45361328125 959 L 1577 959 Q 1567 959 1567 949 L 1567 929 Q 1567 919 1577 919 Z" opacity="0.2"/></g><g transform="translate(-6,-14) scale(1,1)"><path fill="#ffffff" stroke="none" d="M 1570 912 L 1638.45361328125 912 Q 1648.45361328125 912 1648.45361328125 922 L 1648.45361328125 942 Q 1648.45361328125 952 1638.45361328125 952 L 1570 952 Q 1560 952 1560 942 L 1560 922 Q 1560 912 1570 912 Z"/></g><g transform="translate(-6,-14) scale(1,1)"><path fill="none" stroke="#000000" d="M 1570 912 L 1638.45361328125 912 Q 1648.45361328125 912 1648.45361328125 922 L 1648.45361328125 942 Q 1648.45361328125 952 1638.45361328125 952 L 1570 952 Q 1560 952 1560 942 L 1560 922 Q 1560 912 1570 912 Z" stroke-miterlimit="10"/></g><g transform="translate(-6,-14) scale(1,1)"><g><path fill="none" stroke="none"/><text fill="#000000" stroke="none" font-family="Arial" font-size="13px" font-style="normal" font-weight="bold" text-decoration="none" x="1567.365966796875" y="931.5">Add10Points</text></g></g><g transform="translate(-6,-14) scale(1,1)"><path fill="#C0C0C0" stroke="none" d="M 1209 911 L 1270.2236328125 911 Q 1280.2236328125 911 1280.2236328125 921 L 1280.2236328125 941 Q 1280.2236328125 951 1270.2236328125 951 L 1209 951 Q 1199 951 1199 941 L 1199 921 Q 1199 911 1209 911 Z" opacity="0.2"/></g><g transform="translate(-6,-14) scale(1,1)"><path fill="#ffffff" stroke="none" d="M 1202 904 L 1263.2236328125 904 Q 1273.2236328125 904 1273.2236328125 914 L 1273.2236328125 934 Q 1273.2236328125 944 1263.2236328125 944 L 1202 944 Q 1192 944 1192 934 L 1192 914 Q 1192 904 1202 904 Z"/></g><g transform="translate(-6,-14) scale(1,1)"><path fill="none" stroke="#000000" d="M 1202 904 L 1263.2236328125 904 Q 1273.2236328125 904 1273.2236328125 914 L 1273.2236328125 934 Q 1273.2236328125 944 1263.2236328125 944 L 1202 944 Q 1192 944 1192 934 L 1192 914 Q 1192 904 1202 904 Z" stroke-miterlimit="10"/></g><g transform="translate(-6,-14) scale(1,1)"><g><path fill="none" stroke="none"/><text fill="#000000" stroke="none" font-family="Arial" font-size="13px" font-style="normal" font-weight="bold" text-decoration="none" x="1199.365966796875" y="923.5">Add5Points</text></g></g><g transform="translate(-6,-14) scale(1,1)"><path fill="#C0C0C0" stroke="none" d="M 2233 903 L 2335.41357421875 903 Q 2345.41357421875 903 2345.41357421875 913 L 2345.41357421875 933 Q 2345.41357421875 943 2335.41357421875 943 L 2233 943 Q 2223 943 2223 933 L 2223 913 Q 2223 903 2233 903 Z" opacity="0.2"/></g><g transform="translate(-6,-14) scale(1,1)"><path fill="#ffffff" stroke="none" d="M 2226 896 L 2328.41357421875 896 Q 2338.41357421875 896 2338.41357421875 906 L 2338.41357421875 926 Q 2338.41357421875 936 2328.41357421875 936 L 2226 936 Q 2216 936 2216 926 L 2216 906 Q 2216 896 2226 896 Z"/></g><g transform="translate(-6,-14) scale(1,1)"><path fill="none" stroke="#000000" d="M 2226 896 L 2328.41357421875 896 Q 2338.41357421875 896 2338.41357421875 906 L 2338.41357421875 926 Q 2338.41357421875 936 2328.41357421875 936 L 2226 936 Q 2216 936 2216 926 L 2216 906 Q 2216 896 2226 896 Z" stroke-miterlimit="10"/></g><g transform="translate(-6,-14) scale(1,1)"><g><path fill="none" stroke="none"/><text fill="#000000" stroke="none" font-family="Arial" font-size="13px" font-style="normal" font-weight="bold" text-decoration="none" x="2225.175048828125" y="915.5">Substract15points</text></g></g><g transform="translate(-6,-14) scale(1,1)"><path fill="#C0C0C0" stroke="none" d="M 1641 767 L 1798.99365234375 767 Q 1808.99365234375 767 1808.99365234375 777 L 1808.99365234375 797 Q 1808.99365234375 807 1798.99365234375 807 L 1641 807 Q 1631 807 1631 797 L 1631 777 Q 1631 767 1641 767 Z" opacity="0.2"/></g><g transform="translate(-6,-14) scale(1,1)"><path fill="#ffffff" stroke="none" d="M 1634 760 L 1791.99365234375 760 Q 1801.99365234375 760 1801.99365234375 770 L 1801.99365234375 790 Q 1801.99365234375 800 1791.99365234375 800 L 1634 800 Q 1624 800 1624 790 L 1624 770 Q 1624 760 1634 760 Z"/></g><g transform="translate(-6,-14) scale(1,1)"><path fill="none" stroke="#000000" d="M 1634 760 L 1791.99365234375 760 Q 1801.99365234375 760 1801.99365234375 770 L 1801.99365234375 790 Q 1801.99365234375 800 1791.99365234375 800 L 1634 800 Q 1624 800 1624 790 L 1624 770 Q 1624 760 1634 760 Z" stroke-miterlimit="10"/></g><g transform="translate(-6,-14) scale(1,1)"><g><path fill="none" stroke="none"/><text fill="#000000" stroke="none" font-family="Arial" font-size="13px" font-style="normal" font-weight="bold" text-decoration="none" x="1633.501953125" y="779.5">MoveTableauToFoundation</text></g></g><g transform="translate(-6,-14) scale(1,1)"><path fill="#C0C0C0" stroke="none" d="M 1487 616.5 L 1503.5 607 L 1519 616.5 L 1503.5 625 L 1487 616.5" opacity="0.2"/></g><g transform="translate(-6,-14) scale(1,1)"><path fill="#ffffff" stroke="none" d="M 1480 609 L 1496 600 L 1512 609 L 1496 618 L 1480 609"/></g><g transform="translate(-6,-14) scale(1,1)"><path fill="none" stroke="#000000" d="M 1480 609 L 1496 600 L 1512 609 L 1496 618 L 1480 609 L 1480 609" stroke-miterlimit="10"/></g><g transform="translate(-6,-14) scale(1,1)"><path fill="#C0C0C0" stroke="none" d="M 1983 680.5 L 1999.5 671 L 2015 680.5 L 1999.5 689 L 1983 680.5" opacity="0.2"/></g><g transform="translate(-6,-14) scale(1,1)"><path fill="#ffffff" stroke="none" d="M 1976 673 L 1992 664 L 2008 673 L 1992 682 L 1976 673"/></g><g transform="translate(-6,-14) scale(1,1)"><path fill="none" stroke="#000000" d="M 1976 673 L 1992 664 L 2008 673 L 1992 682 L 1976 673 L 1976 673" stroke-miterlimit="10"/></g><g transform="translate(-6,-14) scale(1,1)"><path fill="#C0C0C0" stroke="none" d="M 2263 712.5 L 2279.5 703 L 2295 712.5 L 2279.5 721 L 2263 712.5" opacity="0.2"/></g><g transform="translate(-6,-14) scale(1,1)"><path fill="#ffffff" stroke="none" d="M 2256 705 L 2272 696 L 2288 705 L 2272 714 L 2256 705"/></g><g transform="translate(-6,-14) scale(1,1)"><path fill="none" stroke="#000000" d="M 2256 705 L 2272 696 L 2288 705 L 2272 714 L 2256 705 L 2256 705" stroke-miterlimit="10"/></g><g transform="translate(-6,-14) scale(1,1)"><path fill="#C0C0C0" stroke="none" d="M 1703 648.5 L 1719.5 639 L 1735 648.5 L 1719.5 657 L 1703 648.5" opacity="0.2"/></g><g transform="translate(-6,-14) scale(1,1)"><path fill="#ffffff" stroke="none" d="M 1696 641 L 1712 632 L 1728 641 L 1712 650 L 1696 641"/></g><g transform="translate(-6,-14) scale(1,1)"><path fill="none" stroke="#000000" d="M 1696 641 L 1712 632 L 1728 641 L 1712 650 L 1696 641 L 1696 641" stroke-miterlimit="10"/></g><g transform="translate(-6,-14) scale(1,1)"><path fill="none" stroke="#000000" d="M 1575 537 L 1496 536 L 1496 599" stroke-miterlimit="10"/></g><g transform="translate(-6,-14) scale(1,1)"><path fill="none" stroke="#000000" d="M 1491.7904822439841 588.8373251423759 L 1496 599 L 1500.2095177560159 588.8373251423759" stroke-miterlimit="10"/></g><g transform="translate(-6,-14) scale(1,1)"><path fill="none" stroke="#000000" d="M 1576 537 L 1152 537 L 1152 568" stroke-miterlimit="10"/></g><g transform="translate(-6,-14) scale(1,1)"><path fill="none" stroke="#000000" d="M 1147.7904822439841 557.8373251423759 L 1152 568 L 1156.2095177560159 557.8373251423759" stroke-miterlimit="10"/></g><g transform="translate(-6,-14) scale(1,1)"><path fill="none" stroke="#000000" d="M 1606 537 L 1992 537 L 1992 664" stroke-miterlimit="10"/></g><g transform="translate(-6,-14) scale(1,1)"><path fill="none" stroke="#000000" d="M 1987.7904822439841 653.8373251423759 L 1992 664 L 1996.2095177560159 653.8373251423759" stroke-miterlimit="10"/></g><g transform="translate(-6,-14) scale(1,1)"><path fill="none" stroke="#000000" d="M 1576 537 L 1296 537 L 1296 760" stroke-miterlimit="10"/></g><g transform="translate(-6,-14) scale(1,1)"><path fill="none" stroke="#000000" d="M 1291.7904822439841 749.8373251423759 L 1296 760 L 1300.2095177560159 749.8373251423759" stroke-miterlimit="10"/></g><g transform="translate(-6,-14) scale(1,1)"><path fill="none" stroke="#000000" d="M 1606 536 L 2272 536 L 2272 696" stroke-miterlimit="10"/></g><g transform="translate(-6,-14) scale(1,1)"><path fill="none" stroke="#000000" d="M 2267.790482243984 685.8373251423759 L 2272 696 L 2276.209517756016 685.8373251423759" stroke-miterlimit="10"/></g><g transform="translate(-6,-14) scale(1,1)"><path fill="none" stroke="#000000" d="M 1606 537 L 1712 537 L 1712 632" stroke-miterlimit="10"/></g><g transform="translate(-6,-14) scale(1,1)"><path fill="none" stroke="#000000" d="M 1707.7904822439841 621.8373251423759 L 1712 632 L 1716.2095177560159 621.8373251423759" stroke-miterlimit="10"/></g><g transform="translate(-6,-14) scale(1,1)"><path fill="none" stroke="#000000" d="M 1496 618 L 1496 760" stroke-miterlimit="10"/></g><g transform="translate(-6,-14) scale(1,1)"><path fill="none" stroke="#000000" d="M 1491.7904822439841 749.8373251423759 L 1496 760 L 1500.2095177560159 749.8373251423759" stroke-miterlimit="10"/></g><g transform="translate(-6,-14) scale(1,1)"><g><path fill="none" stroke="none"/><text fill="#000000" stroke="none" font-family="Arial" font-size="13px" font-style="normal" font-weight="normal" text-decoration="none" x="1310.5" y="643.5"> [AlllowedWasteToFoundation]</text></g></g><g transform="translate(-6,-14) scale(1,1)"><path fill="none" stroke="#000000" d="M 1992 682 L 1992 760" stroke-miterlimit="10"/></g><g transform="translate(-6,-14) scale(1,1)"><path fill="none" stroke="#000000" d="M 1987.7904822439841 749.8373251423759 L 1992 760 L 1996.2095177560159 749.8373251423759" stroke-miterlimit="10"/></g><g transform="translate(-6,-14) scale(1,1)"><g><path fill="none" stroke="none"/><text fill="#000000" stroke="none" font-family="Arial" font-size="13px" font-style="normal" font-weight="normal" text-decoration="none" x="1820.5" y="707.5"> [allowedTableauToTableau]</text></g></g><g transform="translate(-6,-14) scale(1,1)"><path fill="none" stroke="#000000" d="M 2272 714 L 2272 752" stroke-miterlimit="10"/></g><g transform="translate(-6,-14) scale(1,1)"><path fill="none" stroke="#000000" d="M 2267.790482243984 741.8373251423759 L 2272 752 L 2276.209517756016 741.8373251423759" stroke-miterlimit="10"/></g><g transform="translate(-6,-14) scale(1,1)"><g><path fill="none" stroke="none"/><text fill="#000000" stroke="none" font-family="Arial" font-size="13px" font-style="normal" font-weight="normal" text-decoration="none" x="2085.5" y="739.5"> [allowedFoundationToTableau]</text></g></g><g transform="translate(-6,-14) scale(1,1)"><path fill="none" stroke="#000000" d="M 1712 650 L 1712 760" stroke-miterlimit="10"/></g><g transform="translate(-6,-14) scale(1,1)"><path fill="none" stroke="#000000" d="M 1707.7904822439841 749.8373251423759 L 1712 760 L 1716.2095177560159 749.8373251423759" stroke-miterlimit="10"/></g><g transform="translate(-6,-14) scale(1,1)"><g><path fill="none" stroke="none"/><text fill="#000000" stroke="none" font-family="Arial" font-size="13px" font-style="normal" font-weight="normal" text-decoration="none" x="1519.5" y="683.5"> [AllowedTableauToFoundation]</text></g></g><g transform="translate(-6,-14) scale(1,1)"><path fill="none" stroke="#000000" d="M 1150 801 L 1218 903" stroke-miterlimit="10"/></g><g transform="translate(-6,-14) scale(1,1)"><path fill="none" stroke="#000000" d="M 1208.8602317743891 896.8791637187297 L 1218 903 L 1215.8652927502162 892.2091230681783" stroke-miterlimit="10"/></g><g transform="translate(-6,-14) scale(1,1)"><path fill="#C0C0C0" stroke="none" d="M 961 847 L 1015.76171875 847 Q 1025.76171875 847 1025.76171875 857 L 1025.76171875 877 Q 1025.76171875 887 1015.76171875 887 L 961 887 Q 951 887 951 877 L 951 857 Q 951 847 961 847 Z" opacity="0.2"/></g><g transform="translate(-6,-14) scale(1,1)"><path fill="#ffffff" stroke="none" d="M 954 840 L 1008.76171875 840 Q 1018.76171875 840 1018.76171875 850 L 1018.76171875 870 Q 1018.76171875 880 1008.76171875 880 L 954 880 Q 944 880 944 870 L 944 850 Q 944 840 954 840 Z"/></g><g transform="translate(-6,-14) scale(1,1)"><path fill="none" stroke="#000000" d="M 954 840 L 1008.76171875 840 Q 1018.76171875 840 1018.76171875 850 L 1018.76171875 870 Q 1018.76171875 880 1008.76171875 880 L 954 880 Q 944 880 944 870 L 944 850 Q 944 840 954 840 Z" stroke-miterlimit="10"/></g><g transform="translate(-6,-14) scale(1,1)"><g><path fill="none" stroke="none"/><text fill="#000000" stroke="none" font-family="Arial" font-size="13px" font-style="normal" font-weight="bold" text-decoration="none" x="949.594970703125" y="859.5">GameOver</text></g></g><g transform="translate(-6,-14) scale(1,1)"><path fill="#C0C0C0" stroke="none" d="M 1593 1295 L 1637 1295 Q 1647 1295 1647 1305 L 1647 1325 Q 1647 1335 1637 1335 L 1593 1335 Q 1583 1335 1583 1325 L 1583 1305 Q 1583 1295 1593 1295 Z" opacity="0.2"/></g><g transform="translate(-6,-14) scale(1,1)"><path fill="#ffffff" stroke="none" d="M 1586 1288 L 1630 1288 Q 1640 1288 1640 1298 L 1640 1318 Q 1640 1328 1630 1328 L 1586 1328 Q 1576 1328 1576 1318 L 1576 1298 Q 1576 1288 1586 1288 Z"/></g><g transform="translate(-6,-14) scale(1,1)"><path fill="none" stroke="#000000" d="M 1586 1288 L 1630 1288 Q 1640 1288 1640 1298 L 1640 1318 Q 1640 1328 1630 1328 L 1586 1328 Q 1576 1328 1576 1318 L 1576 1298 Q 1576 1288 1586 1288 Z" stroke-miterlimit="10"/></g><g transform="translate(-6,-14) scale(1,1)"><g><path fill="none" stroke="none"/><text fill="#000000" stroke="none" font-family="Arial" font-size="13px" font-style="normal" font-weight="bold" text-decoration="none" x="1596.805908203125" y="1307.5">Win</text></g></g><g transform="translate(-6,-14) scale(1,1)"><path fill="#C0C0C0" stroke="none" d="M 1599 1599 C 1599 1590.1634432 1606.1634432 1583 1615 1583 C 1623.8365568 1583 1631 1590.1634432 1631 1599 C 1631 1607.8365568 1623.8365568 1615 1615 1615 C 1606.1634432 1615 1599 1607.8365568 1599 1599 Z" opacity="0.2"/></g><g transform="translate(-6,-14) scale(1,1)"><path fill="none" stroke="#000000" d="M 1592 1592 C 1592 1583.1634432 1599.1634432 1576 1608 1576 C 1616.8365568 1576 1624 1583.1634432 1624 1592 C 1624 1600.8365568 1616.8365568 1608 1608 1608 C 1599.1634432 1608 1592 1600.8365568 1592 1592 Z" stroke-miterlimit="10"/></g><g transform="translate(-6,-14) scale(1,1)"><path fill="#000000" stroke="none" d="M 1597 1592 C 1597 1585.9248672 1601.9248672 1581 1608 1581 C 1614.0751328 1581 1619 1585.9248672 1619 1592 C 1619 1598.0751328 1614.0751328 1603 1608 1603 C 1601.9248672 1603 1597 1598.0751328 1597 1592 Z"/></g><g transform="translate(-6,-14) scale(1,1)"><path fill="#C0C0C0" stroke="none" d="M 449 607 L 497.9599609375 607 Q 507.9599609375 607 507.9599609375 617 L 507.9599609375 637 Q 507.9599609375 647 497.9599609375 647 L 449 647 Q 439 647 439 637 L 439 617 Q 439 607 449 607 Z" opacity="0.2"/></g><g transform="translate(-6,-14) scale(1,1)"><path fill="#ffffff" stroke="none" d="M 442 600 L 490.9599609375 600 Q 500.9599609375 600 500.9599609375 610 L 500.9599609375 630 Q 500.9599609375 640 490.9599609375 640 L 442 640 Q 432 640 432 630 L 432 610 Q 432 600 442 600 Z"/></g><g transform="translate(-6,-14) scale(1,1)"><path fill="none" stroke="#000000" d="M 442 600 L 490.9599609375 600 Q 500.9599609375 600 500.9599609375 610 L 500.9599609375 630 Q 500.9599609375 640 490.9599609375 640 L 442 640 Q 432 640 432 630 L 432 610 Q 432 600 442 600 Z" stroke-miterlimit="10"/></g><g transform="translate(-6,-14) scale(1,1)"><g><path fill="none" stroke="none"/><text fill="#000000" stroke="none" font-family="Arial" font-size="13px" font-style="normal" font-weight="bold" text-decoration="none" x="438.66455078125" y="619.5">exitMatch</text></g></g><g transform="translate(-6,-14) scale(1,1)"><path fill="#C0C0C0" stroke="none" d="M 1591 1459.5 L 1615.5 1447 L 1639 1459.5 L 1615.5 1471 L 1591 1459.5" opacity="0.2"/></g><g transform="translate(-6,-14) scale(1,1)"><path fill="#ffffff" stroke="none" d="M 1584 1452 L 1608 1440 L 1632 1452 L 1608 1464 L 1584 1452"/></g><g transform="translate(-6,-14) scale(1,1)"><path fill="none" stroke="#000000" d="M 1584 1452 L 1608 1440 L 1632 1452 L 1608 1464 L 1584 1452 L 1584 1452" stroke-miterlimit="10"/></g><g transform="translate(-6,-14) scale(1,1)"><path fill="none" stroke="#000000" d="M 1608 1328 L 1608 1440" stroke-miterlimit="10"/></g><g transform="translate(-6,-14) scale(1,1)"><path fill="none" stroke="#000000" d="M 1603.7904822439841 1429.837325142376 L 1608 1440 L 1612.2095177560159 1429.837325142376" stroke-miterlimit="10"/></g><g transform="translate(-6,-14) scale(1,1)"><path fill="#C0C0C0" stroke="none" d="M 1785 1495 L 1844.79541015625 1495 Q 1854.79541015625 1495 1854.79541015625 1505 L 1854.79541015625 1525 Q 1854.79541015625 1535 1844.79541015625 1535 L 1785 1535 Q 1775 1535 1775 1525 L 1775 1505 Q 1775 1495 1785 1495 Z" opacity="0.2"/></g><g transform="translate(-6,-14) scale(1,1)"><path fill="#ffffff" stroke="none" d="M 1778 1488 L 1837.79541015625 1488 Q 1847.79541015625 1488 1847.79541015625 1498 L 1847.79541015625 1518 Q 1847.79541015625 1528 1837.79541015625 1528 L 1778 1528 Q 1768 1528 1768 1518 L 1768 1498 Q 1768 1488 1778 1488 Z"/></g><g transform="translate(-6,-14) scale(1,1)"><path fill="none" stroke="#000000" d="M 1778 1488 L 1837.79541015625 1488 Q 1847.79541015625 1488 1847.79541015625 1498 L 1847.79541015625 1518 Q 1847.79541015625 1528 1837.79541015625 1528 L 1778 1528 Q 1768 1528 1768 1518 L 1768 1498 Q 1768 1488 1778 1488 Z" stroke-miterlimit="10"/></g><g transform="translate(-6,-14) scale(1,1)"><g><path fill="none" stroke="none"/><text fill="#000000" stroke="none" font-family="Arial" font-size="13px" font-style="normal" font-weight="bold" text-decoration="none" x="1774.658203125" y="1507.5">ShowScore</text></g></g><g transform="translate(-6,-14) scale(1,1)"><path fill="none" stroke="#000000" d="M 1633 1459 L 1767 1497" stroke-miterlimit="10"/></g><g transform="translate(-6,-14) scale(1,1)"><path fill="none" stroke="#000000" d="M 1756.0743991668942 1498.2772025820664 L 1767 1497 L 1758.3713149556454 1490.1775521691015" stroke-miterlimit="10"/></g><g transform="translate(-6,-14) scale(1,1)"><g><path fill="none" stroke="none"/><text fill="#000000" stroke="none" font-family="Arial" font-size="13px" font-style="normal" font-weight="normal" text-decoration="none" x="1712.5" y="1469.5"> [scoreInTop10]</text></g></g><g transform="translate(-6,-14) scale(1,1)"><path fill="none" stroke="#000000" d="M 1767 1525 L 1625 1585" stroke-miterlimit="10"/></g><g transform="translate(-6,-14) scale(1,1)"><path fill="none" stroke="#000000" d="M 1632.7228948361699 1577.1669357624578 L 1625 1585 L 1635.999724148882 1584.9220984692104" stroke-miterlimit="10"/></g><g transform="translate(-6,-14) scale(1,1)"><path fill="none" stroke="#000000" d="M 1608 1464 L 1608 1576" stroke-miterlimit="10"/></g><g transform="translate(-6,-14) scale(1,1)"><path fill="none" stroke="#000000" d="M 1603.7904822439841 1565.837325142376 L 1608 1576 L 1612.2095177560159 1565.837325142376" stroke-miterlimit="10"/></g><g transform="translate(-6,-14) scale(1,1)"><path fill="none" stroke="#000000" d="M 1294 801 L 1243 903" stroke-miterlimit="10"/></g><g transform="translate(-6,-14) scale(1,1)"><path fill="none" stroke="#000000" d="M 1243.7797792209974 892.0276737030609 L 1243 903 L 1251.3099935049527 895.7927808450386" stroke-miterlimit="10"/></g><g transform="translate(-6,-14) scale(1,1)"><path fill="none" stroke="#000000" d="M 1507 801 L 1588 911" stroke-miterlimit="10"/></g><g transform="translate(-6,-14) scale(1,1)"><path fill="none" stroke="#000000" d="M 1578.5843778248584 905.3126404144822 L 1588 911 L 1585.363720240833 900.320579180901" stroke-miterlimit="10"/></g><g transform="translate(-6,-14) scale(1,1)"><path fill="none" stroke="#000000" d="M 1697 801 L 1619 911" stroke-miterlimit="10"/></g><g transform="translate(-6,-14) scale(1,1)"><path fill="none" stroke="#000000" d="M 1621.4445415029259 900.2750656486637 L 1619 911 L 1628.3122256812212 905.1448780660005" stroke-miterlimit="10"/></g><g transform="translate(-6,-14) scale(1,1)"><path fill="none" stroke="#000000" d="M 2275 793 L 2277 895" stroke-miterlimit="10"/></g><g transform="translate(-6,-14) scale(1,1)"><path fill="none" stroke="#000000" d="M 2272.5920613826893 884.9218018899201 L 2277 895 L 2281.0094789384243 884.7567544868664" stroke-miterlimit="10"/></g><g transform="translate(-6,-14) scale(1,1)"><path fill="none" stroke="#000000" d="M 1576 537 L 466 537 L 466 600" stroke-miterlimit="10"/></g><g transform="translate(-6,-14) scale(1,1)"><path fill="none" stroke="#000000" d="M 461.790482243984 589.8373251423759 L 466 600 L 470.209517756016 589.8373251423759" stroke-miterlimit="10"/></g><g transform="translate(-6,-14) scale(1,1)"><path fill="none" stroke="#000000" d="M 981 880 L 981 1448 L 1584 1448" stroke-miterlimit="10"/></g><g transform="translate(-6,-14) scale(1,1)"><path fill="none" stroke="#000000" d="M 1573.837325142376 1452.2095177560159 L 1584 1448 L 1573.837325142376 1443.7904822439841" stroke-miterlimit="10"/></g><g transform="translate(-6,-14) scale(1,1)"><path fill="#C0C0C0" stroke="none" d="M 1591 1083.5 L 1611.5 1071 L 1631 1083.5 L 1611.5 1095 L 1591 1083.5" opacity="0.2"/></g><g transform="translate(-6,-14) scale(1,1)"><path fill="#ffffff" stroke="none" d="M 1584 1076 L 1604 1064 L 1624 1076 L 1604 1088 L 1584 1076"/></g><g transform="translate(-6,-14) scale(1,1)"><path fill="none" stroke="#000000" d="M 1584 1076 L 1604 1064 L 1624 1076 L 1604 1088 L 1584 1076 L 1584 1076" stroke-miterlimit="10"/></g><g transform="translate(-6,-14) scale(1,1)"><path fill="none" stroke="#000000" d="M 1604 1088 L 1604 1288" stroke-miterlimit="10"/></g><g transform="translate(-6,-14) scale(1,1)"><path fill="none" stroke="#000000" d="M 1599.7904822439841 1277.837325142376 L 1604 1288 L 1608.2095177560159 1277.837325142376" stroke-miterlimit="10"/></g><g transform="translate(-6,-14) scale(1,1)"><g><path fill="none" stroke="none"/><text fill="#000000" stroke="none" font-family="Arial" font-size="13px" font-style="normal" font-weight="normal" text-decoration="none" x="1534.5" y="1163.5"> [hasWon]</text></g></g><g transform="translate(-6,-14) scale(1,1)"><path fill="none" stroke="#000000" d="M 1604 953 L 1604 1063" stroke-miterlimit="10"/></g><g transform="translate(-6,-14) scale(1,1)"><path fill="none" stroke="#000000" d="M 1599.7904822439841 1052.837325142376 L 1604 1063 L 1608.2095177560159 1052.837325142376" stroke-miterlimit="10"/></g><g transform="translate(-6,-14) scale(1,1)"><path fill="none" stroke="#000000" d="M 2277 936 L 2277 1080 L 2440 1080 L 2440 432 L 1640 432" stroke-miterlimit="10"/></g><g transform="translate(-6,-14) scale(1,1)"><path fill="none" stroke="#000000" d="M 1650.162674857624 427.790482243984 L 1640 432 L 1650.162674857624 436.209517756016" stroke-miterlimit="10"/></g><g transform="translate(-6,-14) scale(1,1)"><path fill="none" stroke="#000000" d="M 1992 800 L 1992 1080 L 2440 1080 L 2440 432 L 1640 432" stroke-miterlimit="10"/></g><g transform="translate(-6,-14) scale(1,1)"><path fill="none" stroke="#000000" d="M 1650.162674857624 427.790482243984 L 1640 432 L 1650.162674857624 436.209517756016" stroke-miterlimit="10"/></g><g transform="translate(-6,-14) scale(1,1)"><path fill="none" stroke="#000000" d="M 1624 1080 L 2440 1080 L 2440 432 L 1640 432" stroke-miterlimit="10"/></g><g transform="translate(-6,-14) scale(1,1)"><path fill="none" stroke="#000000" d="M 1650.162674857624 427.790482243984 L 1640 432 L 1650.162674857624 436.209517756016" stroke-miterlimit="10"/></g><g transform="translate(-6,-14) scale(1,1)"><path fill="none" stroke="#000000" d="M 1168 576 L 2440 576 L 2440 432 L 1640 432" stroke-miterlimit="10"/></g><g transform="translate(-6,-14) scale(1,1)"><path fill="none" stroke="#000000" d="M 1650.162674857624 427.790482243984 L 1640 432 L 1650.162674857624 436.209517756016" stroke-miterlimit="10"/></g><g transform="translate(-6,-14) scale(1,1)"><path fill="none" stroke="#000000" d="M 1512 608 L 2440 608 L 2440 432 L 1640 432" stroke-miterlimit="10"/></g><g transform="translate(-6,-14) scale(1,1)"><path fill="none" stroke="#000000" d="M 1650.162674857624 427.790482243984 L 1640 432 L 1650.162674857624 436.209517756016" stroke-miterlimit="10"/></g><g transform="translate(-6,-14) scale(1,1)"><path fill="none" stroke="#000000" d="M 1728 641 L 2440 641 L 2440 432 L 1640 432" stroke-miterlimit="10"/></g><g transform="translate(-6,-14) scale(1,1)"><path fill="none" stroke="#000000" d="M 1650.162674857624 427.790482243984 L 1640 432 L 1650.162674857624 436.209517756016" stroke-miterlimit="10"/></g><g transform="translate(-6,-14) scale(1,1)"><path fill="none" stroke="#000000" d="M 2008 673 L 2440 673 L 2440 432 L 1640 432" stroke-miterlimit="10"/></g><g transform="translate(-6,-14) scale(1,1)"><path fill="none" stroke="#000000" d="M 1650.162674857624 427.790482243984 L 1640 432 L 1650.162674857624 436.209517756016" stroke-miterlimit="10"/></g><g transform="translate(-6,-14) scale(1,1)"><path fill="none" stroke="#000000" d="M 2288 705 L 2440 705 L 2440 432 L 1640 432" stroke-miterlimit="10"/></g><g transform="translate(-6,-14) scale(1,1)"><path fill="none" stroke="#000000" d="M 1650.162674857624 427.790482243984 L 1640 432 L 1650.162674857624 436.209517756016" stroke-miterlimit="10"/></g><g transform="translate(-6,-14) scale(1,1)"><rect fill="#ffffff" stroke="none" x="784" y="800" width="231.64990234375" height="22"/></g><g transform="translate(-6,-14) scale(1,1)"><path fill="none" stroke="#000000" d="M 784 800 L 1015.64990234375 800 L 1015.64990234375 822 L 784 822 L 784 800 Z Z" stroke-miterlimit="10"/></g><g transform="translate(-6,-14) scale(1,1)"><path fill="none" stroke="#000000" d="M 816.39453125 800 L 816.39453125 822" stroke-miterlimit="10"/></g><g transform="translate(-6,-14) scale(1,1)"><g><path fill="none" stroke="none"/><text fill="#000000" stroke="none" font-family="Arial" font-size="13px" font-style="normal" font-weight="normal" text-decoration="none" x="820.89453125" y="817.5">RecycleWaste (Activity Diagram)</text></g></g><g transform="translate(-6,-14) scale(1,1)"><g><path fill="none" stroke="none"/><text fill="#000000" stroke="none" font-family="Arial" font-size="13px" font-style="normal" font-weight="bold" text-decoration="none" x="790.444091796875" y="817.5">link</text></g></g><g transform="translate(-6,-14) scale(1,1)"><path fill="none" stroke="#000000" d="M 836 904 L 836 1136 L 56 1136 L 56 432 L 1544 432" stroke-miterlimit="10"/></g><g transform="translate(-6,-14) scale(1,1)"><path fill="none" stroke="#000000" d="M 1533.837325142376 436.209517756016 L 1544 432 L 1533.837325142376 427.790482243984" stroke-miterlimit="10"/></g><g transform="translate(-6,-14) scale(1,1)"><path fill="#C0C0C0" stroke="none" d="M 1481 223 L 1717 223 Q 1727 223 1727 233 L 1727 317 Q 1727 327 1717 327 L 1481 327 Q 1471 327 1471 317 L 1471 233 Q 1471 223 1481 223 Z" opacity="0.2"/></g><g transform="translate(-6,-14) scale(1,1)"><path fill="#ffffff" stroke="none" d="M 1474 216 L 1710 216 Q 1720 216 1720 226 L 1720 310 Q 1720 320 1710 320 L 1474 320 Q 1464 320 1464 310 L 1464 226 Q 1464 216 1474 216 Z"/></g><g transform="translate(-6,-14) scale(1,1)"><path fill="none" stroke="#000000" d="M 1474 216 L 1710 216 Q 1720 216 1720 226 L 1720 310 Q 1720 320 1710 320 L 1474 320 Q 1464 320 1464 310 L 1464 226 Q 1464 216 1474 216 Z" stroke-miterlimit="10"/></g><g transform="translate(-6,-14) scale(1,1)"><g><path fill="none" stroke="none"/><text fill="#000000" stroke="none" font-family="Arial" font-size="13px" font-style="normal" font-weight="bold" text-decoration="none" x="1557.687744140625" y="235.5">StartActivity</text></g></g><g transform="translate(-6,-14) scale(1,1)"><path fill="none" stroke="#000000" d="M 1593 147 L 1593 216" stroke-miterlimit="10"/></g><g transform="translate(-6,-14) scale(1,1)"><path fill="none" stroke="#000000" d="M 1588.7904822439841 205.83732514237585 L 1593 216 L 1597.2095177560159 205.83732514237585" stroke-miterlimit="10"/></g><g transform="translate(-6,-14) scale(1,1)"><path fill="none" stroke="#000000" d="M 1592 321 L 1592 407" stroke-miterlimit="10"/></g><g transform="translate(-6,-14) scale(1,1)"><path fill="none" stroke="#000000" d="M 1587.7904822439841 396.83732514237585 L 1592 407 L 1596.2095177560159 396.83732514237585" stroke-miterlimit="10"/></g><g transform="translate(-6,-14) scale(1,1)"><path fill="#C0C0C0" stroke="none" d="M 537 767 L 749 767 Q 759 767 759 777 L 759 901 Q 759 911 749 911 L 537 911 Q 527 911 527 901 L 527 777 Q 527 767 537 767 Z" opacity="0.2"/></g><g transform="translate(-6,-14) scale(1,1)"><path fill="#ffffff" stroke="none" d="M 530 760 L 742 760 Q 752 760 752 770 L 752 894 Q 752 904 742 904 L 530 904 Q 520 904 520 894 L 520 770 Q 520 760 530 760 Z"/></g><g transform="translate(-6,-14) scale(1,1)"><path fill="none" stroke="#000000" d="M 530 760 L 742 760 Q 752 760 752 770 L 752 894 Q 752 904 742 904 L 530 904 Q 520 904 520 894 L 520 770 Q 520 760 530 760 Z" stroke-miterlimit="10"/></g><g transform="translate(-6,-14) scale(1,1)"><g><path fill="none" stroke="none"/><text fill="#000000" stroke="none" font-family="Arial" font-size="13px" font-style="normal" font-weight="bold" text-decoration="none" x="621.1845703125" y="779.5">Save</text></g></g><g transform="translate(-6,-14) scale(1,1)"><rect fill="#ffffff" stroke="none" x="528" y="824" width="220.39453125" height="22"/></g><g transform="translate(-6,-14) scale(1,1)"><path fill="none" stroke="#000000" d="M 528 824 L 748.39453125 824 L 748.39453125 846 L 528 846 L 528 824 Z Z" stroke-miterlimit="10"/></g><g transform="translate(-6,-14) scale(1,1)"><path fill="none" stroke="#000000" d="M 560.39453125 824 L 560.39453125 846" stroke-miterlimit="10"/></g><g transform="translate(-6,-14) scale(1,1)"><g><path fill="none" stroke="none"/><text fill="#000000" stroke="none" font-family="Arial" font-size="13px" font-style="normal" font-weight="normal" text-decoration="none" x="565.405029296875" y="841.5">SaveActivity (Activity Diagram)</text></g></g><g transform="translate(-6,-14) scale(1,1)"><g><path fill="none" stroke="none"/><text fill="#000000" stroke="none" font-family="Arial" font-size="13px" font-style="normal" font-weight="bold" text-decoration="none" x="534.444091796875" y="841.5">link</text></g></g><g transform="translate(-6,-14) scale(1,1)"><path fill="none" stroke="#000000" d="M 1576 537 L 640 537 L 640 760" stroke-miterlimit="10"/></g><g transform="translate(-6,-14) scale(1,1)"><path fill="none" stroke="#000000" d="M 635.790482243984 749.8373251423759 L 640 760 L 644.209517756016 749.8373251423759" stroke-miterlimit="10"/></g><g transform="translate(-6,-14) scale(1,1)"><path fill="none" stroke="#000000" d="M 579 904 L 579 1136 L 56 1136 L 56 432 L 1544 432" stroke-miterlimit="10"/></g><g transform="translate(-6,-14) scale(1,1)"><path fill="none" stroke="#000000" d="M 1533.837325142376 436.209517756016 L 1544 432 L 1533.837325142376 427.790482243984" stroke-miterlimit="10"/></g><g transform="translate(-6,-14) scale(1,1)"><path fill="#C0C0C0" stroke="none" d="M 447 715.5 L 467.5 703 L 487 715.5 L 467.5 727 L 447 715.5" opacity="0.2"/></g><g transform="translate(-6,-14) scale(1,1)"><path fill="#ffffff" stroke="none" d="M 440 708 L 460 696 L 480 708 L 460 720 L 440 708"/></g><g transform="translate(-6,-14) scale(1,1)"><path fill="none" stroke="#000000" d="M 440 708 L 460 696 L 480 708 L 460 720 L 440 708 L 440 708" stroke-miterlimit="10"/></g><g transform="translate(-6,-14) scale(1,1)"><path fill="none" stroke="#000000" d="M 459 640 L 459 696" stroke-miterlimit="10"/></g><g transform="translate(-6,-14) scale(1,1)"><path fill="none" stroke="#000000" d="M 454.790482243984 685.8373251423759 L 459 696 L 463.209517756016 685.8373251423759" stroke-miterlimit="10"/></g><g transform="translate(-6,-14) scale(1,1)"><path fill="none" stroke="#000000" d="M 478 721 L 532 759" stroke-miterlimit="10"/></g><g transform="translate(-6,-14) scale(1,1)"><path fill="none" stroke="#000000" d="M 521.2663495524063 756.5940182733711 L 532 759 L 526.1114489759307 749.7088769873103" stroke-miterlimit="10"/></g><g transform="translate(-6,-14) scale(1,1)"><g><path fill="none" stroke="none"/><text fill="#000000" stroke="none" font-family="Arial" font-size="13px" font-style="normal" font-weight="normal" text-decoration="none" x="502.5" y="724.5"> [save]</text></g></g><g transform="translate(-6,-14) scale(1,1)"><path fill="none" stroke="#000000" d="M 460 720 L 460 1448 L 464 1448 L 464 1452 L 1584 1452" stroke-miterlimit="10"/></g><g transform="translate(-6,-14) scale(1,1)"><path fill="none" stroke="#000000" d="M 1573.837325142376 1456.2095177560159 L 1584 1452 L 1573.837325142376 1447.7904822439841" stroke-miterlimit="10"/></g><g transform="translate(-6,-14) scale(1,1)"><rect fill="#ffffff" stroke="none" x="1480" y="253" width="219.39453125" height="22"/></g><g transform="translate(-6,-14) scale(1,1)"><path fill="none" stroke="#000000" d="M 1480 253 L 1699.39453125 253 L 1699.39453125 275 L 1480 275 L 1480 253 Z Z" stroke-miterlimit="10"/></g><g transform="translate(-6,-14) scale(1,1)"><path fill="none" stroke="#000000" d="M 1512.39453125 253 L 1512.39453125 275" stroke-miterlimit="10"/></g><g transform="translate(-6,-14) scale(1,1)"><g><path fill="none" stroke="none"/><text fill="#000000" stroke="none" font-family="Arial" font-size="13px" font-style="normal" font-weight="normal" text-decoration="none" x="1517.99365234375" y="270.5">StartActivity (Activity Diagram)</text></g></g><g transform="translate(-6,-14) scale(1,1)"><g><path fill="none" stroke="none"/><text fill="#000000" stroke="none" font-family="Arial" font-size="13px" font-style="normal" font-weight="bold" text-decoration="none" x="1486.444091796875" y="270.5">link</text></g></g><g transform="translate(-6,-14) scale(1,1)"><path fill="#C0C0C0" stroke="none" d="M 281 607 L 367.5 607 Q 377.5 607 377.5 617 L 377.5 637 Q 377.5 647 367.5 647 L 281 647 Q 271 647 271 637 L 271 617 Q 271 607 281 607 Z" opacity="0.2"/></g><g transform="translate(-6,-14) scale(1,1)"><path fill="#ffffff" stroke="none" d="M 274 600 L 360.5 600 Q 370.5 600 370.5 610 L 370.5 630 Q 370.5 640 360.5 640 L 274 640 Q 264 640 264 630 L 264 610 Q 264 600 274 600 Z"/></g><g transform="translate(-6,-14) scale(1,1)"><path fill="none" stroke="#000000" d="M 274 600 L 360.5 600 Q 370.5 600 370.5 610 L 370.5 630 Q 370.5 640 360.5 640 L 274 640 Q 264 640 264 630 L 264 610 Q 264 600 274 600 Z" stroke-miterlimit="10"/></g><g transform="translate(-6,-14) scale(1,1)"><g><path fill="none" stroke="none"/><text fill="#000000" stroke="none" font-family="Arial" font-size="13px" font-style="normal" font-weight="bold" text-decoration="none" x="271.365966796875" y="619.5">UndoMovement</text></g></g><g transform="translate(-6,-14) scale(1,1)"><path fill="#C0C0C0" stroke="none" d="M 121 607 L 206.7890625 607 Q 216.7890625 607 216.7890625 617 L 216.7890625 637 Q 216.7890625 647 206.7890625 647 L 121 647 Q 111 647 111 637 L 111 617 Q 111 607 121 607 Z" opacity="0.2"/></g><g transform="translate(-6,-14) scale(1,1)"><path fill="#ffffff" stroke="none" d="M 114 600 L 199.7890625 600 Q 209.7890625 600 209.7890625 610 L 209.7890625 630 Q 209.7890625 640 199.7890625 640 L 114 640 Q 104 640 104 630 L 104 610 Q 104 600 114 600 Z"/></g><g transform="translate(-6,-14) scale(1,1)"><path fill="none" stroke="#000000" d="M 114 600 L 199.7890625 600 Q 209.7890625 600 209.7890625 610 L 209.7890625 630 Q 209.7890625 640 199.7890625 640 L 114 640 Q 104 640 104 630 L 104 610 Q 104 600 114 600 Z" stroke-miterlimit="10"/></g><g transform="translate(-6,-14) scale(1,1)"><g><path fill="none" stroke="none"/><text fill="#000000" stroke="none" font-family="Arial" font-size="13px" font-style="normal" font-weight="bold" text-decoration="none" x="111.010498046875" y="619.5">RedoMovement</text></g></g><g transform="translate(-6,-14) scale(1,1)"><path fill="none" stroke="#000000" d="M 1576 537 L 312 537 L 312 600" stroke-miterlimit="10"/></g><g transform="translate(-6,-14) scale(1,1)"><path fill="none" stroke="#000000" d="M 307.790482243984 589.8373251423759 L 312 600 L 316.209517756016 589.8373251423759" stroke-miterlimit="10"/></g><g transform="translate(-6,-14) scale(1,1)"><path fill="none" stroke="#000000" d="M 1576 537 L 152 537 L 152 600" stroke-miterlimit="10"/></g><g transform="translate(-6,-14) scale(1,1)"><path fill="none" stroke="#000000" d="M 147.790482243984 589.8373251423759 L 152 600 L 156.209517756016 589.8373251423759" stroke-miterlimit="10"/></g><g transform="translate(-6,-14) scale(1,1)"><path fill="none" stroke="#000000" d="M 155 640 L 155 720 L 56 720 L 56 432 L 1544 432" stroke-miterlimit="10"/></g><g transform="translate(-6,-14) scale(1,1)"><path fill="none" stroke="#000000" d="M 1533.837325142376 436.209517756016 L 1544 432 L 1533.837325142376 427.790482243984" stroke-miterlimit="10"/></g><g transform="translate(-6,-14) scale(1,1)"><path fill="none" stroke="#000000" d="M 320 640 L 320 720 L 56 720 L 56 432 L 1544 432" stroke-miterlimit="10"/></g><g transform="translate(-6,-14) scale(1,1)"><path fill="none" stroke="#000000" d="M 1533.837325142376 436.209517756016 L 1544 432 L 1533.837325142376 427.790482243984" stroke-miterlimit="10"/></g></g></svg>