<svg version="1.1" xmlns="http://www.w3.org/2000/svg" xmlns:xlink="http://www.w3.org/1999/xlink" width="786.67724609375" height="647"><defs/><g><g transform="translate(-8,-6) scale(1,1)"><path fill="none" stroke="#000000" d="M 178.5 248 L 217.5 248 L 217.5 287 L 178.5 287 L 178.5 248 Z Z" stroke-miterlimit="10"/></g><g transform="translate(-8,-6) scale(1,1)"><path fill="none" stroke="#000000" d="M 178.5 248 L 217.5 287" stroke-miterlimit="10"/></g><g transform="translate(-8,-6) scale(1,1)"><path fill="none" stroke="#000000" d="M 217.5 248 L 178.5 287" stroke-miterlimit="10"/></g><g transform="translate(-8,-6) scale(1,1)"><path fill="none" stroke="#000000" d="M 160 327 L 236 327" stroke-miterlimit="10"/></g><g transform="translate(-8,-6) scale(1,1)"><path fill="none" stroke="#000000" d="M 160 337 L 236 337" stroke-miterlimit="10"/></g><g transform="translate(-8,-6) scale(1,1)"><g><path fill="none" stroke="none"/><text fill="#000000" stroke="none" font-family="Arial" font-size="13px" font-style="normal" font-weight="bold" text-decoration="none" x="166.2109375" y="306.5">GameView</text></g></g><g transform="translate(-8,-6) scale(1,1)"><g><path fill="none" stroke="none"/><text fill="#000000" stroke="none" font-family="Arial" font-size="13px" font-style="normal" font-weight="normal" text-decoration="none" x="164.7763671875" y="321.5">(from View)</text></g></g><g transform="translate(-8,-6) scale(1,1)"><path fill="none" stroke="#000000" d="M 283.5 363 L 322.5 363 L 322.5 402 L 283.5 402 L 283.5 363 Z Z" stroke-miterlimit="10"/></g><g transform="translate(-8,-6) scale(1,1)"><path fill="none" stroke="#000000" d="M 283.5 363 L 322.5 402" stroke-miterlimit="10"/></g><g transform="translate(-8,-6) scale(1,1)"><path fill="none" stroke="#000000" d="M 322.5 363 L 283.5 402" stroke-miterlimit="10"/></g><g transform="translate(-8,-6) scale(1,1)"><path fill="none" stroke="#000000" d="M 232 442 L 374 442" stroke-miterlimit="10"/></g><g transform="translate(-8,-6) scale(1,1)"><path fill="none" stroke="#000000" d="M 232 452 L 374 452" stroke-miterlimit="10"/></g><g transform="translate(-8,-6) scale(1,1)"><g><path fill="none" stroke="none"/><text fill="#000000" stroke="none" font-family="Arial" font-size="13px" font-style="normal" font-weight="bold" text-decoration="none" x="240.86279296875" y="421.5">ShowGameController</text></g></g><g transform="translate(-8,-6) scale(1,1)"><g><path fill="none" stroke="none"/><text fill="#000000" stroke="none" font-family="Arial" font-size="13px" font-style="normal" font-weight="normal" text-decoration="none" x="255.687744140625" y="436.5">(from Controller)</text></g></g><g transform="translate(-8,-6) scale(1,1)"><path fill="none" stroke="#000000" d="M 237 340 L 257 362" stroke-miterlimit="10"/></g><g transform="translate(-8,-6) scale(1,1)"><path fill="none" stroke="#000000" d="M 247.04905423169788 357.31185769026683 L 257 362 L 253.27863598639388 351.6486015496341" stroke-miterlimit="10"/></g><g transform="translate(-8,-6) scale(1,1)"><path fill="none" stroke="#000000" d="M 237 340 L 257 362" stroke-miterlimit="10"/></g><g transform="translate(-8,-6) scale(1,1)"><path fill="none" stroke="#000000" d="M 247.04905423169788 357.31185769026683 L 257 362 L 253.27863598639388 351.6486015496341" stroke-miterlimit="10"/></g><g transform="translate(-8,-6) scale(1,1)"><path fill="none" stroke="#000000" d="M 372.568603515625 152 L 411.568603515625 152 L 411.568603515625 191 L 372.568603515625 191 L 372.568603515625 152 Z Z" stroke-miterlimit="10"/></g><g transform="translate(-8,-6) scale(1,1)"><path fill="none" stroke="#000000" d="M 372.568603515625 152 L 411.568603515625 191" stroke-miterlimit="10"/></g><g transform="translate(-8,-6) scale(1,1)"><path fill="none" stroke="#000000" d="M 411.568603515625 152 L 372.568603515625 191" stroke-miterlimit="10"/></g><g transform="translate(-8,-6) scale(1,1)"><path fill="none" stroke="#000000" d="M 272 231 L 512.13720703125 231" stroke-miterlimit="10"/></g><g transform="translate(-8,-6) scale(1,1)"><path fill="none" stroke="#000000" d="M 272 241 L 512.13720703125 241" stroke-miterlimit="10"/></g><g transform="translate(-8,-6) scale(1,1)"><g><path fill="none" stroke="none"/><text fill="#000000" stroke="none" font-family="Arial" font-size="13px" font-style="normal" font-weight="bold" text-decoration="none" x="283.33642578125" y="210.5">MoveFromWasteToTableauController</text></g></g><g transform="translate(-8,-6) scale(1,1)"><g><path fill="none" stroke="none"/><text fill="#000000" stroke="none" font-family="Arial" font-size="13px" font-style="normal" font-weight="normal" text-decoration="none" x="344.75634765625" y="225.5">(from Controller)</text></g></g><g transform="translate(-8,-6) scale(1,1)"><path fill="none" stroke="#000000" d="M 565.838623046875 312 L 604.838623046875 312 L 604.838623046875 351 L 565.838623046875 351 L 565.838623046875 312 Z Z" stroke-miterlimit="10"/></g><g transform="translate(-8,-6) scale(1,1)"><path fill="none" stroke="#000000" d="M 565.838623046875 312 L 604.838623046875 351" stroke-miterlimit="10"/></g><g transform="translate(-8,-6) scale(1,1)"><path fill="none" stroke="#000000" d="M 604.838623046875 312 L 565.838623046875 351" stroke-miterlimit="10"/></g><g transform="translate(-8,-6) scale(1,1)"><path fill="none" stroke="#000000" d="M 544 391 L 626.67724609375 391" stroke-miterlimit="10"/></g><g transform="translate(-8,-6) scale(1,1)"><path fill="none" stroke="#000000" d="M 544 401 L 626.67724609375 401" stroke-miterlimit="10"/></g><g transform="translate(-8,-6) scale(1,1)"><g><path fill="none" stroke="none"/><text fill="#000000" stroke="none" font-family="Arial" font-size="13px" font-style="normal" font-weight="bold" text-decoration="none" x="551.3818359375" y="370.5">GameEntity</text></g></g><g transform="translate(-8,-6) scale(1,1)"><g><path fill="none" stroke="none"/><text fill="#000000" stroke="none" font-family="Arial" font-size="13px" font-style="normal" font-weight="normal" text-decoration="none" x="548.5" y="385.5">(from Model)</text></g></g><g transform="translate(-8,-6) scale(1,1)"><path fill="none" stroke="#000000" d="M 652 200 L 691 200 L 691 239 L 652 239 L 652 200 Z Z" stroke-miterlimit="10"/></g><g transform="translate(-8,-6) scale(1,1)"><path fill="none" stroke="#000000" d="M 652 200 L 691 239" stroke-miterlimit="10"/></g><g transform="translate(-8,-6) scale(1,1)"><path fill="none" stroke="#000000" d="M 691 200 L 652 239" stroke-miterlimit="10"/></g><g transform="translate(-8,-6) scale(1,1)"><path fill="none" stroke="#000000" d="M 624 279 L 719 279" stroke-miterlimit="10"/></g><g transform="translate(-8,-6) scale(1,1)"><path fill="none" stroke="#000000" d="M 624 289 L 719 289" stroke-miterlimit="10"/></g><g transform="translate(-8,-6) scale(1,1)"><g><path fill="none" stroke="none"/><text fill="#000000" stroke="none" font-family="Arial" font-size="13px" font-style="normal" font-weight="bold" text-decoration="none" x="632.119140625" y="258.5">SessionEntity</text></g></g><g transform="translate(-8,-6) scale(1,1)"><g><path fill="none" stroke="none"/><text fill="#000000" stroke="none" font-family="Arial" font-size="13px" font-style="normal" font-weight="normal" text-decoration="none" x="634.661376953125" y="273.5">(from Model)</text></g></g><g transform="translate(-8,-6) scale(1,1)"><path fill="none" stroke="#000000" d="M 632 300 L 623 311" stroke-miterlimit="10"/></g><g transform="translate(-8,-6) scale(1,1)"><path fill="none" stroke="#000000" d="M 626.1774027765504 300.46889789264344 L 623 311 L 632.6933767633395 305.80014933638" stroke-miterlimit="10"/></g><g transform="translate(-8,-6) scale(1,1)"><path fill="none" stroke="#000000" d="M 513 222 L 623 241" stroke-miterlimit="10"/></g><g transform="translate(-8,-6) scale(1,1)"><path fill="none" stroke="#000000" d="M 612.2691264039329 243.41833659055757 L 623 241 L 613.7021043097905 235.1221487145401" stroke-miterlimit="10"/></g><g transform="translate(-8,-6) scale(1,1)"><path fill="none" stroke="#000000" d="M 454 252 L 543 326" stroke-miterlimit="10"/></g><g transform="translate(-8,-6) scale(1,1)"><path fill="none" stroke="#000000" d="M 532.4943361177576 322.7394745218986 L 543 326 L 537.8769135037968 316.26583415220284" stroke-miterlimit="10"/></g><g transform="translate(-8,-6) scale(1,1)"><path fill="none" stroke="#000000" d="M 237 278 L 289 252" stroke-miterlimit="10"/></g><g transform="translate(-8,-6) scale(1,1)"><path fill="none" stroke="#000000" d="M 281.7927808450386 260.3099935049528 L 289 252 L 278.02767370306094 252.77977922099748" stroke-miterlimit="10"/></g><g transform="translate(-8,-6) scale(1,1)"><path fill="none" stroke="#000000" d="M 451.6181640625 440 L 490.6181640625 440 L 490.6181640625 479 L 451.6181640625 479 L 451.6181640625 440 Z Z" stroke-miterlimit="10"/></g><g transform="translate(-8,-6) scale(1,1)"><path fill="none" stroke="#000000" d="M 451.6181640625 440 L 490.6181640625 479" stroke-miterlimit="10"/></g><g transform="translate(-8,-6) scale(1,1)"><path fill="none" stroke="#000000" d="M 490.6181640625 440 L 451.6181640625 479" stroke-miterlimit="10"/></g><g transform="translate(-8,-6) scale(1,1)"><path fill="none" stroke="#000000" d="M 424 519 L 518.236328125 519" stroke-miterlimit="10"/></g><g transform="translate(-8,-6) scale(1,1)"><path fill="none" stroke="#000000" d="M 424 529 L 518.236328125 529" stroke-miterlimit="10"/></g><g transform="translate(-8,-6) scale(1,1)"><g><path fill="none" stroke="none"/><text fill="#000000" stroke="none" font-family="Arial" font-size="13px" font-style="normal" font-weight="bold" text-decoration="none" x="431.372314453125" y="498.5">TableauEntity</text></g></g><g transform="translate(-8,-6) scale(1,1)"><g><path fill="none" stroke="none"/><text fill="#000000" stroke="none" font-family="Arial" font-size="13px" font-style="normal" font-weight="normal" text-decoration="none" x="434.279541015625" y="513.5">(from Model)</text></g></g><g transform="translate(-8,-6) scale(1,1)"><path fill="none" stroke="#000000" d="M 543 408 L 516 439" stroke-miterlimit="10"/></g><g transform="translate(-8,-6) scale(1,1)"><path fill="none" stroke="#000000" d="M 519.5003292948251 428.57178371782646 L 516 439 L 525.8489690295617 434.10124413195183" stroke-miterlimit="10"/></g><g transform="translate(-8,-6) scale(1,1)"><path fill="none" stroke="#000000" d="M 558.5 544 L 597.5 544 L 597.5 583 L 558.5 583 L 558.5 544 Z Z" stroke-miterlimit="10"/></g><g transform="translate(-8,-6) scale(1,1)"><path fill="none" stroke="#000000" d="M 558.5 544 L 597.5 583" stroke-miterlimit="10"/></g><g transform="translate(-8,-6) scale(1,1)"><path fill="none" stroke="#000000" d="M 597.5 544 L 558.5 583" stroke-miterlimit="10"/></g><g transform="translate(-8,-6) scale(1,1)"><path fill="none" stroke="#000000" d="M 520 623 L 636 623" stroke-miterlimit="10"/></g><g transform="translate(-8,-6) scale(1,1)"><path fill="none" stroke="#000000" d="M 520 633 L 636 633" stroke-miterlimit="10"/></g><g transform="translate(-8,-6) scale(1,1)"><g><path fill="none" stroke="none"/><text fill="#000000" stroke="none" font-family="Arial" font-size="13px" font-style="normal" font-weight="bold" text-decoration="none" x="529.21826171875" y="602.5">FoundationEntity</text></g></g><g transform="translate(-8,-6) scale(1,1)"><g><path fill="none" stroke="none"/><text fill="#000000" stroke="none" font-family="Arial" font-size="13px" font-style="normal" font-weight="normal" text-decoration="none" x="541.161376953125" y="617.5">(from Model)</text></g></g><g transform="translate(-8,-6) scale(1,1)"><path fill="none" stroke="#000000" d="M 583 412 L 580 543" stroke-miterlimit="10"/></g><g transform="translate(-8,-6) scale(1,1)"><path fill="none" stroke="#000000" d="M 576.0242576483633 532.7436130750931 L 580 543 L 584.4410863679819 532.9363648778324" stroke-miterlimit="10"/></g><g transform="translate(-8,-6) scale(1,1)"><path fill="none" stroke="#000000" d="M 693.838623046875 464 L 732.838623046875 464 L 732.838623046875 503 L 693.838623046875 503 L 693.838623046875 464 Z Z" stroke-miterlimit="10"/></g><g transform="translate(-8,-6) scale(1,1)"><path fill="none" stroke="#000000" d="M 693.838623046875 464 L 732.838623046875 503" stroke-miterlimit="10"/></g><g transform="translate(-8,-6) scale(1,1)"><path fill="none" stroke="#000000" d="M 732.838623046875 464 L 693.838623046875 503" stroke-miterlimit="10"/></g><g transform="translate(-8,-6) scale(1,1)"><path fill="none" stroke="#000000" d="M 672 543 L 754.67724609375 543" stroke-miterlimit="10"/></g><g transform="translate(-8,-6) scale(1,1)"><path fill="none" stroke="#000000" d="M 672 553 L 754.67724609375 553" stroke-miterlimit="10"/></g><g transform="translate(-8,-6) scale(1,1)"><g><path fill="none" stroke="none"/><text fill="#000000" stroke="none" font-family="Arial" font-size="13px" font-style="normal" font-weight="bold" text-decoration="none" x="682.99365234375" y="522.5">CardEntity</text></g></g><g transform="translate(-8,-6) scale(1,1)"><g><path fill="none" stroke="none"/><text fill="#000000" stroke="none" font-family="Arial" font-size="13px" font-style="normal" font-weight="normal" text-decoration="none" x="676.5" y="537.5">(from Model)</text></g></g><g transform="translate(-8,-6) scale(1,1)"><path fill="none" stroke="#000000" d="M 628 412 L 671 463" stroke-miterlimit="10"/></g><g transform="translate(-8,-6) scale(1,1)"><path fill="none" stroke="#000000" d="M 661.230897415759 457.94385179226543 L 671 463 L 667.6674380009496 452.5169646322029" stroke-miterlimit="10"/></g><g transform="translate(-8,-6) scale(1,1)"><path fill="none" stroke="#000000" d="M 723.838623046875 356 L 762.838623046875 356 L 762.838623046875 395 L 723.838623046875 395 L 723.838623046875 356 Z Z" stroke-miterlimit="10"/></g><g transform="translate(-8,-6) scale(1,1)"><path fill="none" stroke="#000000" d="M 723.838623046875 356 L 762.838623046875 395" stroke-miterlimit="10"/></g><g transform="translate(-8,-6) scale(1,1)"><path fill="none" stroke="#000000" d="M 762.838623046875 356 L 723.838623046875 395" stroke-miterlimit="10"/></g><g transform="translate(-8,-6) scale(1,1)"><path fill="none" stroke="#000000" d="M 702 435 L 784.67724609375 435" stroke-miterlimit="10"/></g><g transform="translate(-8,-6) scale(1,1)"><path fill="none" stroke="#000000" d="M 702 445 L 784.67724609375 445" stroke-miterlimit="10"/></g><g transform="translate(-8,-6) scale(1,1)"><g><path fill="none" stroke="none"/><text fill="#000000" stroke="none" font-family="Arial" font-size="13px" font-style="normal" font-weight="bold" text-decoration="none" x="709.7373046875" y="414.5">BoardEntity</text></g></g><g transform="translate(-8,-6) scale(1,1)"><g><path fill="none" stroke="none"/><text fill="#000000" stroke="none" font-family="Arial" font-size="13px" font-style="normal" font-weight="normal" text-decoration="none" x="706.5" y="429.5">(from Model)</text></g></g><g transform="translate(-8,-6) scale(1,1)"><path fill="none" stroke="#000000" d="M 628 373 L 701 393" stroke-miterlimit="10"/></g><g transform="translate(-8,-6) scale(1,1)"><path fill="none" stroke="#000000" d="M 690.0862214737446 394.37456839766037 L 701 393 L 692.3108265605264 386.25475983090706" stroke-miterlimit="10"/></g><g transform="translate(-8,-6) scale(1,1)"><rect fill="#ffffff" stroke="none" x="18" y="16" width="185" height="22"/></g><g transform="translate(-8,-6) scale(1,1)"><path fill="none" stroke="#000000" d="M 18 16 L 203 16 L 203 38 L 18 38 L 18 16 Z Z" stroke-miterlimit="10"/></g><g transform="translate(-8,-6) scale(1,1)"><path fill="none" stroke="#000000" d="M 50.39453125 16 L 50.39453125 38" stroke-miterlimit="10"/></g><g transform="translate(-8,-6) scale(1,1)"><g><path fill="none" stroke="none"/><text fill="#000000" stroke="none" font-family="Arial" font-size="13px" font-style="normal" font-weight="normal" text-decoration="none" x="55.806884765625" y="33.5">IndexUseCasesAnalysis</text></g></g><g transform="translate(-8,-6) scale(1,1)"><g><path fill="none" stroke="none"/><text fill="#000000" stroke="none" font-family="Arial" font-size="13px" font-style="normal" font-weight="bold" text-decoration="none" x="24.444091796875" y="33.5">link</text></g></g><g transform="translate(-8,-6) scale(1,1)"><rect fill="#ffffff" stroke="none" x="216" y="16" width="153" height="22"/></g><g transform="translate(-8,-6) scale(1,1)"><path fill="none" stroke="#000000" d="M 216 16 L 369 16 L 369 38 L 216 38 L 216 16 Z Z" stroke-miterlimit="10"/></g><g transform="translate(-8,-6) scale(1,1)"><path fill="none" stroke="#000000" d="M 248.39453125 16 L 248.39453125 38" stroke-miterlimit="10"/></g><g transform="translate(-8,-6) scale(1,1)"><g><path fill="none" stroke="none"/><text fill="#000000" stroke="none" font-family="Arial" font-size="13px" font-style="normal" font-weight="normal" text-decoration="none" x="253.701416015625" y="33.5">IndexAnalysisView</text></g></g><g transform="translate(-8,-6) scale(1,1)"><g><path fill="none" stroke="none"/><text fill="#000000" stroke="none" font-family="Arial" font-size="13px" font-style="normal" font-weight="bold" text-decoration="none" x="222.444091796875" y="33.5">link</text></g></g><g transform="translate(-8,-6) scale(1,1)"><rect fill="#ffffff" stroke="none" x="384" y="16" width="143.4453125" height="22"/></g><g transform="translate(-8,-6) scale(1,1)"><path fill="none" stroke="#000000" d="M 384 16 L 527.4453125 16 L 527.4453125 38 L 384 38 L 384 16 Z Z" stroke-miterlimit="10"/></g><g transform="translate(-8,-6) scale(1,1)"><path fill="none" stroke="#000000" d="M 416.39453125 16 L 416.39453125 38" stroke-miterlimit="10"/></g><g transform="translate(-8,-6) scale(1,1)"><g><path fill="none" stroke="none"/><text fill="#000000" stroke="none" font-family="Arial" font-size="13px" font-style="normal" font-weight="normal" text-decoration="none" x="437.87451171875" y="33.5">designView</text></g></g><g transform="translate(-8,-6) scale(1,1)"><g><path fill="none" stroke="none"/><text fill="#000000" stroke="none" font-family="Arial" font-size="13px" font-style="normal" font-weight="bold" text-decoration="none" x="390.444091796875" y="33.5">link</text></g></g><g transform="translate(-8,-6) scale(1,1)"><rect fill="#ffffff" stroke="none" x="544" y="16" width="103.39453125" height="22"/></g><g transform="translate(-8,-6) scale(1,1)"><path fill="none" stroke="#000000" d="M 544 16 L 647.39453125 16 L 647.39453125 38 L 544 38 L 544 16 Z Z" stroke-miterlimit="10"/></g><g transform="translate(-8,-6) scale(1,1)"><path fill="none" stroke="#000000" d="M 576.39453125 16 L 576.39453125 38" stroke-miterlimit="10"/></g><g transform="translate(-8,-6) scale(1,1)"><g><path fill="none" stroke="none"/><text fill="#000000" stroke="none" font-family="Arial" font-size="13px" font-style="normal" font-weight="normal" text-decoration="none" x="582.3095703125" y="33.5">4+1 views</text></g></g><g transform="translate(-8,-6) scale(1,1)"><g><path fill="none" stroke="none"/><text fill="#000000" stroke="none" font-family="Arial" font-size="13px" font-style="normal" font-weight="bold" text-decoration="none" x="550.444091796875" y="33.5">link</text></g></g></g></svg>