<svg version="1.1" xmlns="http://www.w3.org/2000/svg" xmlns:xlink="http://www.w3.org/1999/xlink" width="796" height="652"><defs/><g><g transform="translate(2,-6) scale(1,1)"><rect fill="#ffffff" stroke="none" x="280" y="16" width="103.39453125" height="22"/></g><g transform="translate(2,-6) scale(1,1)"><path fill="none" stroke="#000000" d="M 280 16 L 383.39453125 16 L 383.39453125 38 L 280 38 L 280 16 Z Z" stroke-miterlimit="10"/></g><g transform="translate(2,-6) scale(1,1)"><path fill="none" stroke="#000000" d="M 312.39453125 16 L 312.39453125 38" stroke-miterlimit="10"/></g><g transform="translate(2,-6) scale(1,1)"><g><path fill="none" stroke="none"/><text fill="#000000" stroke="none" font-family="Arial" font-size="13px" font-style="normal" font-weight="normal" text-decoration="none" x="318.3095703125" y="33.5">4+1 views</text></g></g><g transform="translate(2,-6) scale(1,1)"><g><path fill="none" stroke="none"/><text fill="#000000" stroke="none" font-family="Arial" font-size="13px" font-style="normal" font-weight="bold" text-decoration="none" x="286.444091796875" y="33.5">link</text></g></g><g transform="translate(2,-6) scale(1,1)"><rect fill="#ffffff" stroke="none" x="136" y="16" width="124.0380859375" height="22"/></g><g transform="translate(2,-6) scale(1,1)"><path fill="none" stroke="#000000" d="M 136 16 L 260.0380859375 16 L 260.0380859375 38 L 136 38 L 136 16 Z Z" stroke-miterlimit="10"/></g><g transform="translate(2,-6) scale(1,1)"><path fill="none" stroke="#000000" d="M 168.39453125 16 L 168.39453125 38" stroke-miterlimit="10"/></g><g transform="translate(2,-6) scale(1,1)"><g><path fill="none" stroke="none"/><text fill="#000000" stroke="none" font-family="Arial" font-size="13px" font-style="normal" font-weight="normal" text-decoration="none" x="172.89453125" y="33.5">UseCaseView</text></g></g><g transform="translate(2,-6) scale(1,1)"><g><path fill="none" stroke="none"/><text fill="#000000" stroke="none" font-family="Arial" font-size="13px" font-style="normal" font-weight="bold" text-decoration="none" x="142.444091796875" y="33.5">link</text></g></g><g transform="translate(2,-6) scale(1,1)"><rect fill="#C0C0C0" stroke="none" x="295" y="199" width="168" height="72" opacity="0.2"/></g><g transform="translate(2,-6) scale(1,1)"><rect fill="#ffffff" stroke="none" x="288" y="192" width="168" height="72"/></g><g transform="translate(2,-6) scale(1,1)"><path fill="none" stroke="#000000" d="M 288 192 L 456 192 L 456 264 L 288 264 L 288 192 Z Z" stroke-miterlimit="10"/></g><g transform="translate(2,-6) scale(1,1)"><path fill="#ffffff" stroke="none" d="M 429.4 197 L 442.84 197 L 448.59999999999997 202.76 L 448.59999999999997 221 L 429.4 221"/></g><g transform="translate(2,-6) scale(1,1)"><path fill="none" stroke="#000000" d="M 429.4 197 L 442.84 197 L 448.59999999999997 202.76 L 448.59999999999997 221 L 429.4 221 L 429.4 197" stroke-miterlimit="10"/></g><g transform="translate(2,-6) scale(1,1)"><path fill="none" stroke="#000000" d="M 442.84 197 L 442.84 202.76 L 448.59999999999997 202.76 L 442.84 197" stroke-miterlimit="10"/></g><g transform="translate(2,-6) scale(1,1)"><g><path fill="none" stroke="none"/><text fill="#000000" stroke="none" font-family="Arial" font-size="13px" font-style="normal" font-weight="normal" text-decoration="none" x="333.263671875" y="209.5">«artifact»</text></g></g><g transform="translate(2,-6) scale(1,1)"><g><path fill="none" stroke="none"/><text fill="#000000" stroke="none" font-family="Arial" font-size="13px" font-style="normal" font-weight="bold" text-decoration="none" x="329.655029296875" y="224.5">home.html</text><path fill="none" stroke="#000000" d="M 392.86181640625 224.5 L 327.13818359375 224.5" stroke-miterlimit="10"/></g></g><g transform="translate(2,-6) scale(1,1)"><rect fill="#C0C0C0" stroke="none" x="55" y="343" width="160" height="72" opacity="0.2"/></g><g transform="translate(2,-6) scale(1,1)"><rect fill="#ffffff" stroke="none" x="48" y="336" width="160" height="72"/></g><g transform="translate(2,-6) scale(1,1)"><path fill="none" stroke="#000000" d="M 48 336 L 208 336 L 208 408 L 48 408 L 48 336 Z Z" stroke-miterlimit="10"/></g><g transform="translate(2,-6) scale(1,1)"><path fill="#ffffff" stroke="none" d="M 181.4 341 L 194.84 341 L 200.6 346.76 L 200.6 365 L 181.4 365"/></g><g transform="translate(2,-6) scale(1,1)"><path fill="none" stroke="#000000" d="M 181.4 341 L 194.84 341 L 200.6 346.76 L 200.6 365 L 181.4 365 L 181.4 341" stroke-miterlimit="10"/></g><g transform="translate(2,-6) scale(1,1)"><path fill="none" stroke="#000000" d="M 194.84 341 L 194.84 346.76 L 200.6 346.76 L 194.84 341" stroke-miterlimit="10"/></g><g transform="translate(2,-6) scale(1,1)"><g><path fill="none" stroke="none"/><text fill="#000000" stroke="none" font-family="Arial" font-size="13px" font-style="normal" font-weight="normal" text-decoration="none" x="89.263671875" y="353.5">«artifact»</text></g></g><g transform="translate(2,-6) scale(1,1)"><g><path fill="none" stroke="none"/><text fill="#000000" stroke="none" font-family="Arial" font-size="13px" font-style="normal" font-weight="bold" text-decoration="none" x="71.201416015625" y="368.5">load-game.html</text><path fill="none" stroke="#000000" d="M 164.03271484375 368.5 L 67.96728515625 368.5" stroke-miterlimit="10"/></g></g><g transform="translate(2,-6) scale(1,1)"><rect fill="#C0C0C0" stroke="none" x="519" y="335" width="160" height="72" opacity="0.2"/></g><g transform="translate(2,-6) scale(1,1)"><rect fill="#ffffff" stroke="none" x="512" y="328" width="160" height="72"/></g><g transform="translate(2,-6) scale(1,1)"><path fill="none" stroke="#000000" d="M 512 328 L 672 328 L 672 400 L 512 400 L 512 328 Z Z" stroke-miterlimit="10"/></g><g transform="translate(2,-6) scale(1,1)"><path fill="#ffffff" stroke="none" d="M 645.4 333 L 658.84 333 L 664.6 338.76 L 664.6 357 L 645.4 357"/></g><g transform="translate(2,-6) scale(1,1)"><path fill="none" stroke="#000000" d="M 645.4 333 L 658.84 333 L 664.6 338.76 L 664.6 357 L 645.4 357 L 645.4 333" stroke-miterlimit="10"/></g><g transform="translate(2,-6) scale(1,1)"><path fill="none" stroke="#000000" d="M 658.84 333 L 658.84 338.76 L 664.6 338.76 L 658.84 333" stroke-miterlimit="10"/></g><g transform="translate(2,-6) scale(1,1)"><g><path fill="none" stroke="none"/><text fill="#000000" stroke="none" font-family="Arial" font-size="13px" font-style="normal" font-weight="normal" text-decoration="none" x="553.263671875" y="345.5">«artifact»</text></g></g><g transform="translate(2,-6) scale(1,1)"><g><path fill="none" stroke="none"/><text fill="#000000" stroke="none" font-family="Arial" font-size="13px" font-style="normal" font-weight="bold" text-decoration="none" x="533.760498046875" y="360.5">save-game.html</text><path fill="none" stroke="#000000" d="M 629.130859375 360.5 L 530.869140625 360.5" stroke-miterlimit="10"/></g></g><g transform="translate(2,-6) scale(1,1)"><path fill="none" stroke="#000000" d="M 309 265 L 191 335" stroke-miterlimit="10" stroke-dasharray="3"/></g><g transform="translate(2,-6) scale(1,1)"><path fill="none" stroke="#000000" d="M 197.59275179385247 326.1945685066173 L 191 335 L 201.88815982035732 333.4353991798684" stroke-miterlimit="10"/></g><g transform="translate(2,-6) scale(1,1)"><g><path fill="none" stroke="none"/><text fill="#000000" stroke="none" font-family="Arial" font-size="13px" font-style="normal" font-weight="normal" text-decoration="none" x="244.2958984375" y="318.5">load</text></g></g><g transform="translate(2,-6) scale(1,1)"><g><path fill="none" stroke="none"/><text fill="#000000" stroke="none" font-family="Arial" font-size="13px" font-style="normal" font-weight="normal" text-decoration="none" x="224.516845703125" y="331.5">«link»</text></g></g><g transform="translate(2,-6) scale(1,1)"><path fill="none" stroke="#000000" d="M 128 336 L 128 232 L 288 232" stroke-miterlimit="10" stroke-dasharray="3"/></g><g transform="translate(2,-6) scale(1,1)"><path fill="none" stroke="#000000" d="M 277.83732514237585 236.209517756016 L 288 232 L 277.83732514237585 227.790482243984" stroke-miterlimit="10"/></g><g transform="translate(2,-6) scale(1,1)"><g><path fill="none" stroke="none"/><text fill="#000000" stroke="none" font-family="Arial" font-size="13px" font-style="normal" font-weight="normal" text-decoration="none" x="115.73681640625" y="223.5">load</text></g></g><g transform="translate(2,-6) scale(1,1)"><g><path fill="none" stroke="none"/><text fill="#000000" stroke="none" font-family="Arial" font-size="13px" font-style="normal" font-weight="normal" text-decoration="none" x="108.7109375" y="208.5">«flow»</text></g></g><g transform="translate(2,-6) scale(1,1)"><path fill="none" stroke="#000000" d="M 584 328 L 584 224 L 456 224" stroke-miterlimit="10" stroke-dasharray="3"/></g><g transform="translate(2,-6) scale(1,1)"><path fill="none" stroke="#000000" d="M 466.16267485762415 219.790482243984 L 456 224 L 466.16267485762415 228.209517756016" stroke-miterlimit="10"/></g><g transform="translate(2,-6) scale(1,1)"><g><path fill="none" stroke="none"/><text fill="#000000" stroke="none" font-family="Arial" font-size="13px" font-style="normal" font-weight="normal" text-decoration="none" x="587.2958984375" y="283.5">exit</text></g></g><g transform="translate(2,-6) scale(1,1)"><g><path fill="none" stroke="none"/><text fill="#000000" stroke="none" font-family="Arial" font-size="13px" font-style="normal" font-weight="normal" text-decoration="none" x="574.7109375" y="299.5">«flow»</text></g></g><g transform="translate(2,-6) scale(1,1)"><rect fill="#C0C0C0" stroke="none" x="175" y="567" width="160" height="88" opacity="0.2"/></g><g transform="translate(2,-6) scale(1,1)"><rect fill="#ffffff" stroke="none" x="168" y="560" width="160" height="88"/></g><g transform="translate(2,-6) scale(1,1)"><path fill="none" stroke="#000000" d="M 168 560 L 328 560 L 328 648 L 168 648 L 168 560 Z Z" stroke-miterlimit="10"/></g><g transform="translate(2,-6) scale(1,1)"><path fill="#ffffff" stroke="none" d="M 301.4 565 L 314.84 565 L 320.59999999999997 570.76 L 320.59999999999997 589 L 301.4 589"/></g><g transform="translate(2,-6) scale(1,1)"><path fill="none" stroke="#000000" d="M 301.4 565 L 314.84 565 L 320.59999999999997 570.76 L 320.59999999999997 589 L 301.4 589 L 301.4 565" stroke-miterlimit="10"/></g><g transform="translate(2,-6) scale(1,1)"><path fill="none" stroke="#000000" d="M 314.84 565 L 314.84 570.76 L 320.59999999999997 570.76 L 314.84 565" stroke-miterlimit="10"/></g><g transform="translate(2,-6) scale(1,1)"><g><path fill="none" stroke="none"/><text fill="#000000" stroke="none" font-family="Arial" font-size="13px" font-style="normal" font-weight="normal" text-decoration="none" x="209.263671875" y="577.5">«artifact»</text></g></g><g transform="translate(2,-6) scale(1,1)"><g><path fill="none" stroke="none"/><text fill="#000000" stroke="none" font-family="Arial" font-size="13px" font-style="normal" font-weight="bold" text-decoration="none" x="206.02001953125" y="592.5">score.html</text><path fill="none" stroke="#000000" d="M 268.871337890625 592.5 L 203.128662109375 592.5" stroke-miterlimit="10"/></g></g><g transform="translate(2,-6) scale(1,1)"><rect fill="#C0C0C0" stroke="none" x="295" y="415" width="156.4326171875" height="96" opacity="0.2"/></g><g transform="translate(2,-6) scale(1,1)"><rect fill="#ffffff" stroke="none" x="288" y="408" width="156.4326171875" height="96"/></g><g transform="translate(2,-6) scale(1,1)"><path fill="none" stroke="#000000" d="M 288 408 L 444.4326171875 408 L 444.4326171875 504 L 288 504 L 288 408 Z Z" stroke-miterlimit="10"/></g><g transform="translate(2,-6) scale(1,1)"><path fill="#ffffff" stroke="none" d="M 417.8326171875 413 L 431.2726171875 413 L 437.03261718749997 418.76 L 437.03261718749997 437 L 417.8326171875 437"/></g><g transform="translate(2,-6) scale(1,1)"><path fill="none" stroke="#000000" d="M 417.8326171875 413 L 431.2726171875 413 L 437.03261718749997 418.76 L 437.03261718749997 437 L 417.8326171875 437 L 417.8326171875 413" stroke-miterlimit="10"/></g><g transform="translate(2,-6) scale(1,1)"><path fill="none" stroke="#000000" d="M 431.2726171875 413 L 431.2726171875 418.76 L 437.03261718749997 418.76 L 431.2726171875 413" stroke-miterlimit="10"/></g><g transform="translate(2,-6) scale(1,1)"><g><path fill="none" stroke="none"/><text fill="#000000" stroke="none" font-family="Arial" font-size="13px" font-style="normal" font-weight="normal" text-decoration="none" x="327.47998046875" y="425.5">«artifact»</text></g></g><g transform="translate(2,-6) scale(1,1)"><g><path fill="none" stroke="none"/><text fill="#000000" stroke="none" font-family="Arial" font-size="13px" font-style="normal" font-weight="bold" text-decoration="none" x="301.11181640625" y="440.5">game-canvas.html</text><path fill="none" stroke="#000000" d="M 410.9326171875 440.5 L 297.5 440.5" stroke-miterlimit="10"/></g></g><g transform="translate(2,-6) scale(1,1)"><rect fill="#C0C0C0" stroke="none" x="407" y="567" width="152" height="88" opacity="0.2"/></g><g transform="translate(2,-6) scale(1,1)"><rect fill="#ffffff" stroke="none" x="400" y="560" width="152" height="88"/></g><g transform="translate(2,-6) scale(1,1)"><path fill="none" stroke="#000000" d="M 400 560 L 552 560 L 552 648 L 400 648 L 400 560 Z Z" stroke-miterlimit="10"/></g><g transform="translate(2,-6) scale(1,1)"><path fill="#ffffff" stroke="none" d="M 525.4 565 L 538.84 565 L 544.6 570.76 L 544.6 589 L 525.4 589"/></g><g transform="translate(2,-6) scale(1,1)"><path fill="none" stroke="#000000" d="M 525.4 565 L 538.84 565 L 544.6 570.76 L 544.6 589 L 525.4 589 L 525.4 565" stroke-miterlimit="10"/></g><g transform="translate(2,-6) scale(1,1)"><path fill="none" stroke="#000000" d="M 538.84 565 L 538.84 570.76 L 544.6 570.76 L 538.84 565" stroke-miterlimit="10"/></g><g transform="translate(2,-6) scale(1,1)"><g><path fill="none" stroke="none"/><text fill="#000000" stroke="none" font-family="Arial" font-size="13px" font-style="normal" font-weight="normal" text-decoration="none" x="437.263671875" y="577.5">«artifact»</text></g></g><g transform="translate(2,-6) scale(1,1)"><g><path fill="none" stroke="none"/><text fill="#000000" stroke="none" font-family="Arial" font-size="13px" font-style="normal" font-weight="bold" text-decoration="none" x="418.845947265625" y="592.5">game-over.html</text><path fill="none" stroke="#000000" d="M 512.40087890625 592.5 L 415.59912109375 592.5" stroke-miterlimit="10"/></g></g><g transform="translate(2,-6) scale(1,1)"><path fill="none" stroke="#000000" d="M 320 264 L 320 408" stroke-miterlimit="10" stroke-dasharray="3"/></g><g transform="translate(2,-6) scale(1,1)"><path fill="none" stroke="#000000" d="M 315.790482243984 397.83732514237585 L 320 408 L 324.209517756016 397.83732514237585" stroke-miterlimit="10"/></g><g transform="translate(2,-6) scale(1,1)"><g><path fill="none" stroke="none"/><text fill="#000000" stroke="none" font-family="Arial" font-size="13px" font-style="normal" font-weight="normal" text-decoration="none" x="270.5" y="348.5">start new game</text></g></g><g transform="translate(2,-6) scale(1,1)"><g><path fill="none" stroke="none"/><text fill="#000000" stroke="none" font-family="Arial" font-size="13px" font-style="normal" font-weight="normal" text-decoration="none" x="297.305908203125" y="372.5">«link»</text></g></g><g transform="translate(2,-6) scale(1,1)"><path fill="none" stroke="#000000" d="M 284 559 L 327 505" stroke-miterlimit="10" stroke-dasharray="3"/></g><g transform="translate(2,-6) scale(1,1)"><path fill="#FFFFFF" stroke="none" d="M 320.92483963084373 526.144560210348 L 327 505 L 307.7527509962295 515.6556748161182"/></g><g transform="translate(2,-6) scale(1,1)"><path fill="none" stroke="#000000" d="M 320.92483963084373 526.144560210348 L 327 505 L 307.7527509962295 515.6556748161182 L 320.92483963084373 526.144560210348" stroke-miterlimit="10"/></g><g transform="translate(2,-6) scale(1,1)"><path fill="none" stroke="#000000" d="M 443 559 L 402 505" stroke-miterlimit="10" stroke-dasharray="3"/></g><g transform="translate(2,-6) scale(1,1)"><path fill="#FFFFFF" stroke="none" d="M 420.99623660370906 516.0969813416039 L 402 505 L 407.58561696215816 526.2791184768555"/></g><g transform="translate(2,-6) scale(1,1)"><path fill="none" stroke="#000000" d="M 420.99623660370906 516.0969813416039 L 402 505 L 407.58561696215816 526.2791184768555 L 420.99623660370906 516.0969813416039" stroke-miterlimit="10"/></g><g transform="translate(2,-6) scale(1,1)"><path fill="none" stroke="#000000" d="M 445 424 L 511 397" stroke-miterlimit="10" stroke-dasharray="3"/></g><g transform="translate(2,-6) scale(1,1)"><path fill="none" stroke="#000000" d="M 503.18782890568934 404.7440288476488 L 511 397 L 500.0001055315467 396.9518161553001" stroke-miterlimit="10"/></g><g transform="translate(2,-6) scale(1,1)"><g><path fill="none" stroke="none"/><text fill="#000000" stroke="none" font-family="Arial" font-size="13px" font-style="normal" font-weight="normal" text-decoration="none" x="458.2958984375" y="402.5">save</text></g></g><g transform="translate(2,-6) scale(1,1)"><g><path fill="none" stroke="none"/><text fill="#000000" stroke="none" font-family="Arial" font-size="13px" font-style="normal" font-weight="normal" text-decoration="none" x="448.5" y="388.5">«flow»</text></g></g><g transform="translate(2,-6) scale(1,1)"><path fill="none" stroke="#000000" d="M 424 408 L 424 264" stroke-miterlimit="10" stroke-dasharray="3"/></g><g transform="translate(2,-6) scale(1,1)"><path fill="none" stroke="#000000" d="M 428.209517756016 274.16267485762415 L 424 264 L 419.790482243984 274.16267485762415" stroke-miterlimit="10"/></g><g transform="translate(2,-6) scale(1,1)"><g><path fill="none" stroke="none"/><text fill="#000000" stroke="none" font-family="Arial" font-size="13px" font-style="normal" font-weight="normal" text-decoration="none" x="427.2958984375" y="363.5">exit</text></g></g><g transform="translate(2,-6) scale(1,1)"><g><path fill="none" stroke="none"/><text fill="#000000" stroke="none" font-family="Arial" font-size="13px" font-style="normal" font-weight="normal" text-decoration="none" x="415.5" y="346.5">«flow»</text></g></g><g transform="translate(2,-6) scale(1,1)"><path fill="none" stroke="#000000" d="M 209 401 L 287 428" stroke-miterlimit="10" stroke-dasharray="3"/></g><g transform="translate(2,-6) scale(1,1)"><path fill="none" stroke="#000000" d="M 276.0194360637971 428.65361735209586 L 287 428 L 278.7733915174903 420.6977460414267" stroke-miterlimit="10"/></g><g transform="translate(2,-6) scale(1,1)"><g><path fill="none" stroke="none"/><text fill="#000000" stroke="none" font-family="Arial" font-size="13px" font-style="normal" font-weight="normal" text-decoration="none" x="226.2958984375" y="404.5">start</text></g></g><g transform="translate(2,-6) scale(1,1)"><g><path fill="none" stroke="none"/><text fill="#000000" stroke="none" font-family="Arial" font-size="13px" font-style="normal" font-weight="normal" text-decoration="none" x="223.5" y="419.5">«flow»</text></g></g><g transform="translate(2,-6) scale(1,1)"><path fill="none" stroke="#000000" d="M 376 264 L 376 408" stroke-miterlimit="10" stroke-dasharray="3"/></g><g transform="translate(2,-6) scale(1,1)"><path fill="none" stroke="#000000" d="M 371.790482243984 397.83732514237585 L 376 408 L 380.209517756016 397.83732514237585" stroke-miterlimit="10"/></g><g transform="translate(2,-6) scale(1,1)"><g><path fill="none" stroke="none"/><text fill="#000000" stroke="none" font-family="Arial" font-size="13px" font-style="normal" font-weight="normal" text-decoration="none" x="372.2958984375" y="347.5">demo</text></g></g><g transform="translate(2,-6) scale(1,1)"><g><path fill="none" stroke="none"/><text fill="#000000" stroke="none" font-family="Arial" font-size="13px" font-style="normal" font-weight="normal" text-decoration="none" x="367.5" y="363.5">«link»</text></g></g><g transform="translate(2,-6) scale(1,1)"><rect fill="#ffffff" stroke="none" x="136" y="80" width="458.59130859375" height="22"/></g><g transform="translate(2,-6) scale(1,1)"><path fill="none" stroke="#000000" d="M 136 80 L 594.59130859375 80 L 594.59130859375 102 L 136 102 L 136 80 Z Z" stroke-miterlimit="10"/></g><g transform="translate(2,-6) scale(1,1)"><path fill="none" stroke="#000000" d="M 168.39453125 80 L 168.39453125 102" stroke-miterlimit="10"/></g><g transform="translate(2,-6) scale(1,1)"><g><path fill="none" stroke="none"/><text fill="#000000" stroke="none" font-family="Arial" font-size="13px" font-style="normal" font-weight="normal" text-decoration="none" x="172.89453125" y="97.5">https://github.com/MarcoCaballero/klondike-rup/tree/master/uiprototypes</text></g></g><g transform="translate(2,-6) scale(1,1)"><g><path fill="none" stroke="none"/><text fill="#000000" stroke="none" font-family="Arial" font-size="13px" font-style="normal" font-weight="bold" text-decoration="none" x="142.444091796875" y="97.5">link</text></g></g><g transform="translate(2,-6) scale(1,1)"><path fill="none" stroke="#000000" d="M 366 192 L 366 102" stroke-miterlimit="10" stroke-dasharray="3"/></g><g transform="translate(2,-6) scale(1,1)"><path fill="#ffffff" stroke="none" d="M 632 120 L 773 120 L 783 130 L 783 167 L 632 167 L 632 120"/></g><g transform="translate(2,-6) scale(1,1)"><path fill="none" stroke="#000000" d="M 632 120 L 773 120 L 783 130 L 783 167 L 632 167 L 632 120 L 632 120" stroke-miterlimit="10"/></g><g transform="translate(2,-6) scale(1,1)"><path fill="none" stroke="#000000" d="M 773 120 L 773 130 L 783 130 L 773 120" stroke-miterlimit="10"/></g><g transform="translate(2,-6) scale(1,1)"><g><path fill="none" stroke="none"/><text fill="#000000" stroke="none" font-family="Arial" font-size="13px" font-style="normal" font-weight="normal" text-decoration="none" x="637" y="138">interface images</text></g></g><g transform="translate(2,-6) scale(1,1)"><path fill="none" stroke="#000000" d="M 366 147 L 366 148 L 632 148" stroke-miterlimit="10" stroke-dasharray="3"/></g><g transform="translate(2,-6) scale(1,1)"><rect fill="#ffffff" stroke="none" x="8" y="16" width="111.0380859375" height="22"/></g><g transform="translate(2,-6) scale(1,1)"><path fill="none" stroke="#000000" d="M 8 16 L 119.0380859375 16 L 119.0380859375 38 L 8 38 L 8 16 Z Z" stroke-miterlimit="10"/></g><g transform="translate(2,-6) scale(1,1)"><path fill="none" stroke="#000000" d="M 40.39453125 16 L 40.39453125 38" stroke-miterlimit="10"/></g><g transform="translate(2,-6) scale(1,1)"><g><path fill="none" stroke="none"/><text fill="#000000" stroke="none" font-family="Arial" font-size="13px" font-style="normal" font-weight="normal" text-decoration="none" x="44.89453125" y="33.5">UIPrototype</text></g></g><g transform="translate(2,-6) scale(1,1)"><g><path fill="none" stroke="none"/><text fill="#000000" stroke="none" font-family="Arial" font-size="13px" font-style="normal" font-weight="bold" text-decoration="none" x="14.444091796875" y="33.5">link</text></g></g></g></svg>