<svg version="1.1" xmlns="http://www.w3.org/2000/svg" xmlns:xlink="http://www.w3.org/1999/xlink" width="1071.91357421875" height="930"><defs/><g><g transform="translate(-22,-22) scale(1,1)"><rect fill="#ffffff" stroke="none" x="32" y="32" width="103.39453125" height="22"/></g><g transform="translate(-22,-22) scale(1,1)"><path fill="none" stroke="#000000" d="M 32 32 L 135.39453125 32 L 135.39453125 54 L 32 54 L 32 32 Z Z" stroke-miterlimit="10"/></g><g transform="translate(-22,-22) scale(1,1)"><path fill="none" stroke="#000000" d="M 64.39453125 32 L 64.39453125 54" stroke-miterlimit="10"/></g><g transform="translate(-22,-22) scale(1,1)"><g><path fill="none" stroke="none"/><text fill="#000000" stroke="none" font-family="Arial" font-size="13px" font-style="normal" font-weight="normal" text-decoration="none" x="70.3095703125" y="49.5">4+1 views</text></g></g><g transform="translate(-22,-22) scale(1,1)"><g><path fill="none" stroke="none"/><text fill="#000000" stroke="none" font-family="Arial" font-size="13px" font-style="normal" font-weight="bold" text-decoration="none" x="38.444091796875" y="49.5">link</text></g></g><g transform="translate(-22,-22) scale(1,1)"><rect fill="#ffffff" stroke="none" x="160" y="32" width="120.43896484375" height="22"/></g><g transform="translate(-22,-22) scale(1,1)"><path fill="none" stroke="#000000" d="M 160 32 L 280.43896484375 32 L 280.43896484375 54 L 160 54 L 160 32 Z Z" stroke-miterlimit="10"/></g><g transform="translate(-22,-22) scale(1,1)"><path fill="none" stroke="#000000" d="M 192.39453125 32 L 192.39453125 54" stroke-miterlimit="10"/></g><g transform="translate(-22,-22) scale(1,1)"><g><path fill="none" stroke="none"/><text fill="#000000" stroke="none" font-family="Arial" font-size="13px" font-style="normal" font-weight="normal" text-decoration="none" x="196.89453125" y="49.5">domainModel</text></g></g><g transform="translate(-22,-22) scale(1,1)"><g><path fill="none" stroke="none"/><text fill="#000000" stroke="none" font-family="Arial" font-size="13px" font-style="normal" font-weight="bold" text-decoration="none" x="166.444091796875" y="49.5">link</text></g></g><g transform="translate(-22,-22) scale(1,1)"><rect fill="#ffffff" stroke="none" x="312" y="32" width="181.814453125" height="22"/></g><g transform="translate(-22,-22) scale(1,1)"><path fill="none" stroke="#000000" d="M 312 32 L 493.814453125 32 L 493.814453125 54 L 312 54 L 312 32 Z Z" stroke-miterlimit="10"/></g><g transform="translate(-22,-22) scale(1,1)"><path fill="none" stroke="#000000" d="M 344.39453125 32 L 344.39453125 54" stroke-miterlimit="10"/></g><g transform="translate(-22,-22) scale(1,1)"><g><path fill="none" stroke="none"/><text fill="#000000" stroke="none" font-family="Arial" font-size="13px" font-style="normal" font-weight="normal" text-decoration="none" x="348.89453125" y="49.5">Game (Activity diagram)</text></g></g><g transform="translate(-22,-22) scale(1,1)"><g><path fill="none" stroke="none"/><text fill="#000000" stroke="none" font-family="Arial" font-size="13px" font-style="normal" font-weight="bold" text-decoration="none" x="318.444091796875" y="49.5">link</text></g></g><g transform="translate(-22,-22) scale(1,1)"><path fill="#C0C0C0" stroke="none" d="M 775 152.5 C 775 147.2532944 779.2532944 143 784.5 143 C 789.7467056 143 794 147.2532944 794 152.5 C 794 157.7467056 789.7467056 162 784.5 162 C 779.2532944 162 775 157.7467056 775 152.5 Z" opacity="0.2"/></g><g transform="translate(-22,-22) scale(1,1)"><path fill="#000000" stroke="none" d="M 768 145.5 C 768 140.2532944 772.2532944 136 777.5 136 C 782.7467056 136 787 140.2532944 787 145.5 C 787 150.7467056 782.7467056 155 777.5 155 C 772.2532944 155 768 150.7467056 768 145.5 Z"/></g><g transform="translate(-22,-22) scale(1,1)"><path fill="#C0C0C0" stroke="none" d="M 985 631 L 1080.91357421875 631 Q 1090.91357421875 631 1090.91357421875 641 L 1090.91357421875 661 Q 1090.91357421875 671 1080.91357421875 671 L 985 671 Q 975 671 975 661 L 975 641 Q 975 631 985 631 Z" opacity="0.2"/></g><g transform="translate(-22,-22) scale(1,1)"><path fill="#ffffff" stroke="none" d="M 978 624 L 1073.91357421875 624 Q 1083.91357421875 624 1083.91357421875 634 L 1083.91357421875 654 Q 1083.91357421875 664 1073.91357421875 664 L 978 664 Q 968 664 968 654 L 968 634 Q 968 624 978 624 Z"/></g><g transform="translate(-22,-22) scale(1,1)"><path fill="none" stroke="#000000" d="M 978 624 L 1073.91357421875 624 Q 1083.91357421875 624 1083.91357421875 634 L 1083.91357421875 654 Q 1083.91357421875 664 1073.91357421875 664 L 978 664 Q 968 664 968 654 L 968 634 Q 968 624 978 624 Z" stroke-miterlimit="10"/></g><g transform="translate(-22,-22) scale(1,1)"><g><path fill="none" stroke="none"/><text fill="#000000" stroke="none" font-family="Arial" font-size="13px" font-style="normal" font-weight="bold" text-decoration="none" x="975.365966796875" y="643.5">LoadSavedMatch</text></g></g><g transform="translate(-22,-22) scale(1,1)"><path fill="#C0C0C0" stroke="none" d="M 769 623 L 850.47900390625 623 Q 860.47900390625 623 860.47900390625 633 L 860.47900390625 653 Q 860.47900390625 663 850.47900390625 663 L 769 663 Q 759 663 759 653 L 759 633 Q 759 623 769 623 Z" opacity="0.2"/></g><g transform="translate(-22,-22) scale(1,1)"><path fill="#ffffff" stroke="none" d="M 762 616 L 843.47900390625 616 Q 853.47900390625 616 853.47900390625 626 L 853.47900390625 646 Q 853.47900390625 656 843.47900390625 656 L 762 656 Q 752 656 752 646 L 752 626 Q 752 616 762 616 Z"/></g><g transform="translate(-22,-22) scale(1,1)"><path fill="none" stroke="#000000" d="M 762 616 L 843.47900390625 616 Q 853.47900390625 616 853.47900390625 626 L 853.47900390625 646 Q 853.47900390625 656 843.47900390625 656 L 762 656 Q 752 656 752 646 L 752 626 Q 752 616 762 616 Z" stroke-miterlimit="10"/></g><g transform="translate(-22,-22) scale(1,1)"><g><path fill="none" stroke="none"/><text fill="#000000" stroke="none" font-family="Arial" font-size="13px" font-style="normal" font-weight="bold" text-decoration="none" x="758.30908203125" y="635.5">StartNewGame</text></g></g><g transform="translate(-22,-22) scale(1,1)"><path fill="#C0C0C0" stroke="none" d="M 895 576.5 L 911.5 567 L 927 576.5 L 911.5 585 L 895 576.5" opacity="0.2"/></g><g transform="translate(-22,-22) scale(1,1)"><path fill="#ffffff" stroke="none" d="M 888 569 L 904 560 L 920 569 L 904 578 L 888 569"/></g><g transform="translate(-22,-22) scale(1,1)"><path fill="none" stroke="#000000" d="M 888 569 L 904 560 L 920 569 L 904 578 L 888 569 L 888 569" stroke-miterlimit="10"/></g><g transform="translate(-22,-22) scale(1,1)"><path fill="none" stroke="#000000" d="M 920 579 L 991 623" stroke-miterlimit="10"/></g><g transform="translate(-22,-22) scale(1,1)"><path fill="none" stroke="#000000" d="M 980.1441919072688 621.2247730697759 L 991 623 L 984.5790594828765 614.0685094818635" stroke-miterlimit="10"/></g><g transform="translate(-22,-22) scale(1,1)"><path fill="none" stroke="#000000" d="M 889 579 L 834 615" stroke-miterlimit="10"/></g><g transform="translate(-22,-22) scale(1,1)"><path fill="none" stroke="#000000" d="M 840.1977444489556 605.9122079829344 L 834 615 L 844.8085064891978 612.9564277666378" stroke-miterlimit="10"/></g><g transform="translate(-22,-22) scale(1,1)"><path fill="#C0C0C0" stroke="none" d="M 753 239 L 819.33349609375 239 Q 829.33349609375 239 829.33349609375 249 L 829.33349609375 269 Q 829.33349609375 279 819.33349609375 279 L 753 279 Q 743 279 743 269 L 743 249 Q 743 239 753 239 Z" opacity="0.2"/></g><g transform="translate(-22,-22) scale(1,1)"><path fill="#ffffff" stroke="none" d="M 746 232 L 812.33349609375 232 Q 822.33349609375 232 822.33349609375 242 L 822.33349609375 262 Q 822.33349609375 272 812.33349609375 272 L 746 272 Q 736 272 736 262 L 736 242 Q 736 232 746 232 Z"/></g><g transform="translate(-22,-22) scale(1,1)"><path fill="none" stroke="#000000" d="M 746 232 L 812.33349609375 232 Q 822.33349609375 232 822.33349609375 242 L 822.33349609375 262 Q 822.33349609375 272 812.33349609375 272 L 746 272 Q 736 272 736 262 L 736 242 Q 736 232 746 232 Z" stroke-miterlimit="10"/></g><g transform="translate(-22,-22) scale(1,1)"><g><path fill="none" stroke="none"/><text fill="#000000" stroke="none" font-family="Arial" font-size="13px" font-style="normal" font-weight="bold" text-decoration="none" x="742.67724609375" y="251.5">SelectPlayer</text></g></g><g transform="translate(-22,-22) scale(1,1)"><path fill="none" stroke="#000000" d="M 777 155 L 777 232" stroke-miterlimit="10"/></g><g transform="translate(-22,-22) scale(1,1)"><path fill="none" stroke="#000000" d="M 772.790482243984 221.83732514237585 L 777 232 L 781.209517756016 221.83732514237585" stroke-miterlimit="10"/></g><g transform="translate(-22,-22) scale(1,1)"><path fill="#C0C0C0" stroke="none" d="M 767 352.5 L 783.5 343 L 799 352.5 L 783.5 361 L 767 352.5" opacity="0.2"/></g><g transform="translate(-22,-22) scale(1,1)"><path fill="#ffffff" stroke="none" d="M 760 345 L 776 336 L 792 345 L 776 354 L 760 345"/></g><g transform="translate(-22,-22) scale(1,1)"><path fill="none" stroke="#000000" d="M 760 345 L 776 336 L 792 345 L 776 354 L 760 345 L 760 345" stroke-miterlimit="10"/></g><g transform="translate(-22,-22) scale(1,1)"><path fill="none" stroke="#000000" d="M 778 272 L 778 336" stroke-miterlimit="10"/></g><g transform="translate(-22,-22) scale(1,1)"><path fill="none" stroke="#000000" d="M 773.790482243984 325.83732514237585 L 778 336 L 782.209517756016 325.83732514237585" stroke-miterlimit="10"/></g><g transform="translate(-22,-22) scale(1,1)"><path fill="#C0C0C0" stroke="none" d="M 561 679 L 625.130859375 679 Q 635.130859375 679 635.130859375 689 L 635.130859375 709 Q 635.130859375 719 625.130859375 719 L 561 719 Q 551 719 551 709 L 551 689 Q 551 679 561 679 Z" opacity="0.2"/></g><g transform="translate(-22,-22) scale(1,1)"><path fill="#ffffff" stroke="none" d="M 554 672 L 618.130859375 672 Q 628.130859375 672 628.130859375 682 L 628.130859375 702 Q 628.130859375 712 618.130859375 712 L 554 712 Q 544 712 544 702 L 544 682 Q 544 672 554 672 Z"/></g><g transform="translate(-22,-22) scale(1,1)"><path fill="none" stroke="#000000" d="M 554 672 L 618.130859375 672 Q 628.130859375 672 628.130859375 682 L 628.130859375 702 Q 628.130859375 712 618.130859375 712 L 554 712 Q 544 712 544 702 L 544 682 Q 544 672 554 672 Z" stroke-miterlimit="10"/></g><g transform="translate(-22,-22) scale(1,1)"><g><path fill="none" stroke="none"/><text fill="#000000" stroke="none" font-family="Arial" font-size="13px" font-style="normal" font-weight="bold" text-decoration="none" x="551.02001953125" y="691.5">ShuffleDeck</text></g></g><g transform="translate(-22,-22) scale(1,1)"><path fill="#C0C0C0" stroke="none" d="M 569 783 L 622.30810546875 783 Q 632.30810546875 783 632.30810546875 793 L 632.30810546875 813 Q 632.30810546875 823 622.30810546875 823 L 569 823 Q 559 823 559 813 L 559 793 Q 559 783 569 783 Z" opacity="0.2"/></g><g transform="translate(-22,-22) scale(1,1)"><path fill="#ffffff" stroke="none" d="M 562 776 L 615.30810546875 776 Q 625.30810546875 776 625.30810546875 786 L 625.30810546875 806 Q 625.30810546875 816 615.30810546875 816 L 562 816 Q 552 816 552 806 L 552 786 Q 552 776 562 776 Z"/></g><g transform="translate(-22,-22) scale(1,1)"><path fill="none" stroke="#000000" d="M 562 776 L 615.30810546875 776 Q 625.30810546875 776 625.30810546875 786 L 625.30810546875 806 Q 625.30810546875 816 615.30810546875 816 L 562 816 Q 552 816 552 806 L 552 786 Q 552 776 562 776 Z" stroke-miterlimit="10"/></g><g transform="translate(-22,-22) scale(1,1)"><g><path fill="none" stroke="none"/><text fill="#000000" stroke="none" font-family="Arial" font-size="13px" font-style="normal" font-weight="bold" text-decoration="none" x="557.947265625" y="795.5">DealCards</text></g></g><g transform="translate(-22,-22) scale(1,1)"><path fill="none" stroke="#000000" d="M 586 713 L 588 775" stroke-miterlimit="10"/></g><g transform="translate(-22,-22) scale(1,1)"><path fill="none" stroke="#000000" d="M 583.4650129238797 764.9783288709207 L 588 775 L 591.8796715000755 764.7068882716885" stroke-miterlimit="10"/></g><g transform="translate(-22,-22) scale(1,1)"><path fill="#C0C0C0" stroke="none" d="M 881 479 L 945.86083984375 479 Q 955.86083984375 479 955.86083984375 489 L 955.86083984375 509 Q 955.86083984375 519 945.86083984375 519 L 881 519 Q 871 519 871 509 L 871 489 Q 871 479 881 479 Z" opacity="0.2"/></g><g transform="translate(-22,-22) scale(1,1)"><path fill="#ffffff" stroke="none" d="M 874 472 L 938.86083984375 472 Q 948.86083984375 472 948.86083984375 482 L 948.86083984375 502 Q 948.86083984375 512 938.86083984375 512 L 874 512 Q 864 512 864 502 L 864 482 Q 864 472 874 472 Z"/></g><g transform="translate(-22,-22) scale(1,1)"><path fill="none" stroke="#000000" d="M 874 472 L 938.86083984375 472 Q 948.86083984375 472 948.86083984375 482 L 948.86083984375 502 Q 948.86083984375 512 938.86083984375 512 L 874 512 Q 864 512 864 502 L 864 482 Q 864 472 874 472 Z" stroke-miterlimit="10"/></g><g transform="translate(-22,-22) scale(1,1)"><g><path fill="none" stroke="none"/><text fill="#000000" stroke="none" font-family="Arial" font-size="13px" font-style="normal" font-weight="bold" text-decoration="none" x="870.66455078125" y="491.5">SelectMatch</text></g></g><g transform="translate(-22,-22) scale(1,1)"><path fill="none" stroke="#000000" d="M 904 410 L 904 472" stroke-miterlimit="10"/></g><g transform="translate(-22,-22) scale(1,1)"><path fill="none" stroke="#000000" d="M 899.790482243984 461.83732514237585 L 904 472 L 908.209517756016 461.83732514237585" stroke-miterlimit="10"/></g><g transform="translate(-22,-22) scale(1,1)"><g><path fill="none" stroke="none"/><text fill="#000000" stroke="none" font-family="Arial" font-size="13px" font-style="normal" font-weight="normal" text-decoration="none" x="916.5" y="449.5"> [existsSavedMatch]</text></g></g><g transform="translate(-22,-22) scale(1,1)"><path fill="none" stroke="#000000" d="M 905 512 L 905 560" stroke-miterlimit="10"/></g><g transform="translate(-22,-22) scale(1,1)"><path fill="none" stroke="#000000" d="M 900.790482243984 549.8373251423759 L 905 560 L 909.209517756016 549.8373251423759" stroke-miterlimit="10"/></g><g transform="translate(-22,-22) scale(1,1)"><path fill="#C0C0C0" stroke="none" d="M 895 408.5 L 911.5 399 L 927 408.5 L 911.5 417 L 895 408.5" opacity="0.2"/></g><g transform="translate(-22,-22) scale(1,1)"><path fill="#ffffff" stroke="none" d="M 888 401 L 904 392 L 920 401 L 904 410 L 888 401"/></g><g transform="translate(-22,-22) scale(1,1)"><path fill="none" stroke="#000000" d="M 888 401 L 904 392 L 920 401 L 904 410 L 888 401 L 888 401" stroke-miterlimit="10"/></g><g transform="translate(-22,-22) scale(1,1)"><path fill="none" stroke="#000000" d="M 793 352 L 887 394" stroke-miterlimit="10"/></g><g transform="translate(-22,-22) scale(1,1)"><path fill="none" stroke="#000000" d="M 876.0041583966533 393.6975641652981 L 887 394 L 879.438620267012 386.0109114078289" stroke-miterlimit="10"/></g><g transform="translate(-22,-22) scale(1,1)"><g><path fill="none" stroke="none"/><text fill="#000000" stroke="none" font-family="Arial" font-size="13px" font-style="normal" font-weight="normal" text-decoration="none" x="830.5" y="365.5"> [player]</text></g></g><g transform="translate(-22,-22) scale(1,1)"><path fill="none" stroke="#000000" d="M 888 400 L 808 400 L 808 616" stroke-miterlimit="10"/></g><g transform="translate(-22,-22) scale(1,1)"><path fill="none" stroke="#000000" d="M 803.790482243984 605.8373251423759 L 808 616 L 812.209517756016 605.8373251423759" stroke-miterlimit="10"/></g><g transform="translate(-22,-22) scale(1,1)"><path fill="none" stroke="#000000" d="M 751 649 L 629 681" stroke-miterlimit="10"/></g><g transform="translate(-22,-22) scale(1,1)"><path fill="none" stroke="#000000" d="M 637.7621402524951 674.3498196869856 L 629 681 L 639.8981563856927 682.4933811948011" stroke-miterlimit="10"/></g><g transform="translate(-22,-22) scale(1,1)"><path fill="none" stroke="#000000" d="M 771 355 L 597 671" stroke-miterlimit="10"/></g><g transform="translate(-22,-22) scale(1,1)"><path fill="none" stroke="#000000" d="M 598.2144483082304 660.0672457584268 L 597 671 L 605.5893692954127 664.1281199728879" stroke-miterlimit="10"/></g><g transform="translate(-22,-22) scale(1,1)"><g><path fill="none" stroke="none"/><text fill="#000000" stroke="none" font-family="Arial" font-size="13px" font-style="normal" font-weight="normal" text-decoration="none" x="612.5" y="515.5"> [demo]</text></g></g><g transform="translate(-22,-22) scale(1,1)"><path fill="#C0C0C0" stroke="none" d="M 799 891.5 C 799 884.59644 804.59644 879 811.5 879 C 818.40356 879 824 884.59644 824 891.5 C 824 898.40356 818.40356 904 811.5 904 C 804.59644 904 799 898.40356 799 891.5 Z" opacity="0.2"/></g><g transform="translate(-22,-22) scale(1,1)"><path fill="none" stroke="#000000" d="M 792 884.5 C 792 877.59644 797.59644 872 804.5 872 C 811.40356 872 817 877.59644 817 884.5 C 817 891.40356 811.40356 897 804.5 897 C 797.59644 897 792 891.40356 792 884.5 Z" stroke-miterlimit="10"/></g><g transform="translate(-22,-22) scale(1,1)"><path fill="#000000" stroke="none" d="M 797 884.5 C 797 880.357864 800.357864 877 804.5 877 C 808.642136 877 812 880.357864 812 884.5 C 812 888.642136 808.642136 892 804.5 892 C 800.357864 892 797 888.642136 797 884.5 Z"/></g><g transform="translate(-22,-22) scale(1,1)"><path fill="none" stroke="#000000" d="M 626 812 L 791 879" stroke-miterlimit="10"/></g><g transform="translate(-22,-22) scale(1,1)"><path fill="none" stroke="#000000" d="M 780.0002678833779 879.0767682392068 L 791 879 L 783.1677314865782 871.2762981716238" stroke-miterlimit="10"/></g><g transform="translate(-22,-22) scale(1,1)"><path fill="none" stroke="#000000" d="M 1006 665 L 816 871" stroke-miterlimit="10"/></g><g transform="translate(-22,-22) scale(1,1)"><path fill="none" stroke="#000000" d="M 819.7958075916197 860.6756673471162 L 816 871 L 825.9844469181935 866.3836356580338" stroke-miterlimit="10"/></g><g transform="translate(-22,-22) scale(1,1)"><rect fill="#ffffff" stroke="none" x="728" y="920" width="181.814453125" height="22"/></g><g transform="translate(-22,-22) scale(1,1)"><path fill="none" stroke="#000000" d="M 728 920 L 909.814453125 920 L 909.814453125 942 L 728 942 L 728 920 Z Z" stroke-miterlimit="10"/></g><g transform="translate(-22,-22) scale(1,1)"><path fill="none" stroke="#000000" d="M 760.39453125 920 L 760.39453125 942" stroke-miterlimit="10"/></g><g transform="translate(-22,-22) scale(1,1)"><g><path fill="none" stroke="none"/><text fill="#000000" stroke="none" font-family="Arial" font-size="13px" font-style="normal" font-weight="normal" text-decoration="none" x="764.89453125" y="937.5">Game (Activity diagram)</text></g></g><g transform="translate(-22,-22) scale(1,1)"><g><path fill="none" stroke="none"/><text fill="#000000" stroke="none" font-family="Arial" font-size="13px" font-style="normal" font-weight="bold" text-decoration="none" x="734.444091796875" y="937.5">link</text></g></g></g></svg>