<svg version="1.1" xmlns="http://www.w3.org/2000/svg" xmlns:xlink="http://www.w3.org/1999/xlink" width="1404" height="724"><defs/><g><g transform="translate(-6,2) scale(1,1)"><rect fill="#C0C0C0" stroke="none" x="407" y="47" width="71.736328125" height="39" opacity="0.2"/></g><g transform="translate(-6,2) scale(1,1)"><rect fill="#ffffff" stroke="none" x="400" y="40" width="71.736328125" height="39"/></g><g transform="translate(-6,2) scale(1,1)"><path fill="none" stroke="#000000" d="M 400 40 L 471.736328125 40 L 471.736328125 79 L 400 79 L 400 40 Z Z" stroke-miterlimit="10"/></g><g transform="translate(-6,2) scale(1,1)"><g><path fill="none" stroke="none"/><text fill="#000000" stroke="none" font-family="Arial" font-size="13px" font-style="normal" font-weight="bold" text-decoration="none" x="417.444091796875" y="59.5">Player</text></g></g><g transform="translate(-6,2) scale(1,1)"><path fill="none" stroke="#000000" d="M 436.5 80 L 436.5 712" stroke-miterlimit="10" stroke-dasharray="3"/></g><g transform="translate(-6,2) scale(1,1)"><rect fill="#C0C0C0" stroke="none" x="591" y="47" width="73.89453125" height="39" opacity="0.2"/></g><g transform="translate(-6,2) scale(1,1)"><rect fill="#ffffff" stroke="none" x="584" y="40" width="73.89453125" height="39"/></g><g transform="translate(-6,2) scale(1,1)"><path fill="none" stroke="#000000" d="M 584 40 L 657.89453125 40 L 657.89453125 79 L 584 79 L 584 40 Z Z" stroke-miterlimit="10"/></g><g transform="translate(-6,2) scale(1,1)"><g><path fill="none" stroke="none"/><text fill="#000000" stroke="none" font-family="Arial" font-size="13px" font-style="normal" font-weight="bold" text-decoration="none" x="603.246826171875" y="59.5">Game</text></g></g><g transform="translate(-6,2) scale(1,1)"><path fill="none" stroke="#000000" d="M 621.5 80 L 621.5 712" stroke-miterlimit="10" stroke-dasharray="3"/></g><g transform="translate(-6,2) scale(1,1)"><rect fill="#C0C0C0" stroke="none" x="767" y="47" width="71.736328125" height="39" opacity="0.2"/></g><g transform="translate(-6,2) scale(1,1)"><rect fill="#ffffff" stroke="none" x="760" y="40" width="71.736328125" height="39"/></g><g transform="translate(-6,2) scale(1,1)"><path fill="none" stroke="#000000" d="M 760 40 L 831.736328125 40 L 831.736328125 79 L 760 79 L 760 40 Z Z" stroke-miterlimit="10"/></g><g transform="translate(-6,2) scale(1,1)"><g><path fill="none" stroke="none"/><text fill="#000000" stroke="none" font-family="Arial" font-size="13px" font-style="normal" font-weight="normal" text-decoration="none" x="770.21728515625" y="57.5">«Waste»</text></g></g><g transform="translate(-6,2) scale(1,1)"><g><path fill="none" stroke="none"/><text fill="#000000" stroke="none" font-family="Arial" font-size="13px" font-style="normal" font-weight="bold" text-decoration="none" x="778.529541015625" y="72.5">Origin</text></g></g><g transform="translate(-6,2) scale(1,1)"><path fill="none" stroke="#000000" d="M 796.5 80 L 796.5 696" stroke-miterlimit="10" stroke-dasharray="3"/></g><g transform="translate(-6,2) scale(1,1)"><rect fill="#C0C0C0" stroke="none" x="967" y="47" width="80.43896484375" height="39" opacity="0.2"/></g><g transform="translate(-6,2) scale(1,1)"><rect fill="#ffffff" stroke="none" x="960" y="40" width="80.43896484375" height="39"/></g><g transform="translate(-6,2) scale(1,1)"><path fill="none" stroke="#000000" d="M 960 40 L 1040.43896484375 40 L 1040.43896484375 79 L 960 79 L 960 40 Z Z" stroke-miterlimit="10"/></g><g transform="translate(-6,2) scale(1,1)"><g><path fill="none" stroke="none"/><text fill="#000000" stroke="none" font-family="Arial" font-size="13px" font-style="normal" font-weight="normal" text-decoration="none" x="969.5" y="57.5">«Tableau»</text></g></g><g transform="translate(-6,2) scale(1,1)"><g><path fill="none" stroke="none"/><text fill="#000000" stroke="none" font-family="Arial" font-size="13px" font-style="normal" font-weight="bold" text-decoration="none" x="981.43359375" y="72.5">Target</text></g></g><g transform="translate(-6,2) scale(1,1)"><path fill="none" stroke="#000000" d="M 1001.5 80 L 1001.5 696" stroke-miterlimit="10" stroke-dasharray="3"/></g><g transform="translate(-6,2) scale(1,1)"><path fill="none" stroke="#000000" d="M 296 312 L 1119 312 L 1119 624 L 296 624 L 296 312" stroke-miterlimit="10"/></g><g transform="translate(-6,2) scale(1,1)"><path fill="#ffffff" stroke="none" d="M 296 312 L 296 334 L 437.0234375 334 L 448.0234375 323 L 448.0234375 312 L 296 312"/></g><g transform="translate(-6,2) scale(1,1)"><path fill="none" stroke="#000000" d="M 296 312 L 296 334 L 437.0234375 334 L 448.0234375 323 L 448.0234375 312 L 296 312 L 296 312" stroke-miterlimit="10"/></g><g transform="translate(-6,2) scale(1,1)"><g><path fill="none" stroke="none"/><text fill="#000000" stroke="none" font-family="Arial" font-size="13px" font-style="normal" font-weight="normal" text-decoration="none" x="327.9599609375" y="329.5">AllowedResponse</text></g></g><g transform="translate(-6,2) scale(1,1)"><g><path fill="none" stroke="none"/><text fill="#000000" stroke="none" font-family="Arial" font-size="13px" font-style="normal" font-weight="bold" text-decoration="none" x="301" y="329.5">seq</text></g></g><g transform="translate(-6,2) scale(1,1)"><path fill="none" stroke="#000000" d="M 296 473 L 1119 473" stroke-miterlimit="10" stroke-dasharray="10,3"/></g><g transform="translate(-6,2) scale(1,1)"><g><path fill="none" stroke="none"/><text fill="#000000" stroke="none" font-family="Arial" font-size="13px" font-style="normal" font-weight="normal" text-decoration="none" x="315.5" y="500.5">[notAllowed]</text></g></g><g transform="translate(-6,2) scale(1,1)"><rect fill="#ffffff" stroke="none" x="152" y="8" width="103.39453125" height="22"/></g><g transform="translate(-6,2) scale(1,1)"><path fill="none" stroke="#000000" d="M 152 8 L 255.39453125 8 L 255.39453125 30 L 152 30 L 152 8 Z Z" stroke-miterlimit="10"/></g><g transform="translate(-6,2) scale(1,1)"><path fill="none" stroke="#000000" d="M 184.39453125 8 L 184.39453125 30" stroke-miterlimit="10"/></g><g transform="translate(-6,2) scale(1,1)"><g><path fill="none" stroke="none"/><text fill="#000000" stroke="none" font-family="Arial" font-size="13px" font-style="normal" font-weight="normal" text-decoration="none" x="190.3095703125" y="25.5">4+1 views</text></g></g><g transform="translate(-6,2) scale(1,1)"><g><path fill="none" stroke="none"/><text fill="#000000" stroke="none" font-family="Arial" font-size="13px" font-style="normal" font-weight="bold" text-decoration="none" x="158.444091796875" y="25.5">link</text></g></g><g transform="translate(-6,2) scale(1,1)"><rect fill="#ffffff" stroke="none" x="16" y="8" width="120.43896484375" height="22"/></g><g transform="translate(-6,2) scale(1,1)"><path fill="none" stroke="#000000" d="M 16 8 L 136.43896484375 8 L 136.43896484375 30 L 16 30 L 16 8 Z Z" stroke-miterlimit="10"/></g><g transform="translate(-6,2) scale(1,1)"><path fill="none" stroke="#000000" d="M 48.39453125 8 L 48.39453125 30" stroke-miterlimit="10"/></g><g transform="translate(-6,2) scale(1,1)"><g><path fill="none" stroke="none"/><text fill="#000000" stroke="none" font-family="Arial" font-size="13px" font-style="normal" font-weight="normal" text-decoration="none" x="52.89453125" y="25.5">domainModel</text></g></g><g transform="translate(-6,2) scale(1,1)"><g><path fill="none" stroke="none"/><text fill="#000000" stroke="none" font-family="Arial" font-size="13px" font-style="normal" font-weight="bold" text-decoration="none" x="22.444091796875" y="25.5">link</text></g></g><g transform="translate(-6,2) scale(1,1)"><path fill="#ffffff" stroke="none" d="M 1120 256 L 1389 256 L 1399 266 L 1399 303 L 1120 303 L 1120 256"/></g><g transform="translate(-6,2) scale(1,1)"><path fill="none" stroke="#000000" d="M 1120 256 L 1389 256 L 1399 266 L 1399 303 L 1120 303 L 1120 256 L 1120 256" stroke-miterlimit="10"/></g><g transform="translate(-6,2) scale(1,1)"><path fill="none" stroke="#000000" d="M 1389 256 L 1389 266 L 1399 266 L 1389 256" stroke-miterlimit="10"/></g><g transform="translate(-6,2) scale(1,1)"><g><path fill="none" stroke="none"/><text fill="#000000" stroke="none" font-family="Arial" font-size="13px" font-style="normal" font-weight="normal" text-decoration="none" x="1125" y="274">card.color != target.top.color &amp;&amp;</text><text fill="#000000" stroke="none" font-family="Arial" font-size="13px" font-style="normal" font-weight="normal" text-decoration="none" x="1125" y="287">target.top.value - card.value == 1</text></g></g><g transform="translate(-6,2) scale(1,1)"><path fill="none" stroke="#000000" d="M 810 280 L 1119 280" stroke-miterlimit="10" stroke-dasharray="3"/></g><g transform="translate(-6,2) scale(1,1)"><path fill="none" stroke="#000000" d="M 436 136 L 614 136" stroke-miterlimit="10"/></g><g transform="translate(-6,2) scale(1,1)"><path fill="#000000" stroke="none" d="M 603.8373251423759 140.209517756016 L 614 136 L 603.8373251423758 131.790482243984"/></g><g transform="translate(-6,2) scale(1,1)"><path fill="none" stroke="#000000" d="M 603.8373251423759 140.209517756016 L 614 136 L 603.8373251423758 131.790482243984 L 603.8373251423759 140.209517756016" stroke-miterlimit="10"/></g><g transform="translate(-6,2) scale(1,1)"><g><path fill="none" stroke="none"/><text fill="#000000" stroke="none" font-family="Arial" font-size="13px" font-style="normal" font-weight="normal" text-decoration="none" x="485.50634765625" y="132.5">1 : MoveCard</text></g></g><g transform="translate(-6,2) scale(1,1)"><rect fill="#ffffff" stroke="none" x="614" y="136" width="13" height="400"/></g><g transform="translate(-6,2) scale(1,1)"><path fill="none" stroke="#000000" d="M 614 136 L 627 136 L 627 536 L 614 536 L 614 136 Z Z" stroke-miterlimit="10"/></g><g transform="translate(-6,2) scale(1,1)"><path fill="none" stroke="#000000" d="M 627 176 L 789 176" stroke-miterlimit="10"/></g><g transform="translate(-6,2) scale(1,1)"><path fill="#000000" stroke="none" d="M 778.8373251423759 180.209517756016 L 789 176 L 778.8373251423758 171.790482243984"/></g><g transform="translate(-6,2) scale(1,1)"><path fill="none" stroke="#000000" d="M 778.8373251423759 180.209517756016 L 789 176 L 778.8373251423758 171.790482243984 L 778.8373251423759 180.209517756016" stroke-miterlimit="10"/></g><g transform="translate(-6,2) scale(1,1)"><g><path fill="none" stroke="none"/><text fill="#000000" stroke="none" font-family="Arial" font-size="13px" font-style="normal" font-weight="normal" text-decoration="none" x="663.5" y="172.5">2 : GetTopCard</text></g></g><g transform="translate(-6,2) scale(1,1)"><rect fill="#ffffff" stroke="none" x="789" y="176" width="13" height="28"/></g><g transform="translate(-6,2) scale(1,1)"><path fill="none" stroke="#000000" d="M 789 176 L 802 176 L 802 204 L 789 204 L 789 176 Z Z" stroke-miterlimit="10"/></g><g transform="translate(-6,2) scale(1,1)"><path fill="none" stroke="#000000" d="M 796 204 L 627 204" stroke-miterlimit="10" stroke-dasharray="3"/></g><g transform="translate(-6,2) scale(1,1)"><path fill="none" stroke="#000000" d="M 637.1626748576241 199.790482243984 L 627 204 L 637.1626748576241 208.209517756016" stroke-miterlimit="10"/></g><g transform="translate(-6,2) scale(1,1)"><g><path fill="none" stroke="none"/><text fill="#000000" stroke="none" font-family="Arial" font-size="13px" font-style="normal" font-weight="normal" text-decoration="none" x="688.5" y="220.5">3 : card</text></g></g><g transform="translate(-6,2) scale(1,1)"><path fill="none" stroke="#000000" d="M 627 244 L 994 244" stroke-miterlimit="10"/></g><g transform="translate(-6,2) scale(1,1)"><path fill="#000000" stroke="none" d="M 983.8373251423759 248.209517756016 L 994 244 L 983.8373251423758 239.790482243984"/></g><g transform="translate(-6,2) scale(1,1)"><path fill="none" stroke="#000000" d="M 983.8373251423759 248.209517756016 L 994 244 L 983.8373251423758 239.790482243984 L 983.8373251423759 248.209517756016" stroke-miterlimit="10"/></g><g transform="translate(-6,2) scale(1,1)"><g><path fill="none" stroke="none"/><text fill="#000000" stroke="none" font-family="Arial" font-size="13px" font-style="normal" font-weight="normal" text-decoration="none" x="731.5" y="240.5">4 : allowedMoveCard(card)</text></g></g><g transform="translate(-6,2) scale(1,1)"><rect fill="#ffffff" stroke="none" x="994" y="244" width="13" height="44"/></g><g transform="translate(-6,2) scale(1,1)"><path fill="none" stroke="#000000" d="M 994 244 L 1007 244 L 1007 288 L 994 288 L 994 244 Z Z" stroke-miterlimit="10"/></g><g transform="translate(-6,2) scale(1,1)"><path fill="none" stroke="#000000" d="M 994 280 L 627 280" stroke-miterlimit="10" stroke-dasharray="3"/></g><g transform="translate(-6,2) scale(1,1)"><path fill="none" stroke="#000000" d="M 637.1626748576241 275.790482243984 L 627 280 L 637.1626748576241 284.209517756016" stroke-miterlimit="10"/></g><g transform="translate(-6,2) scale(1,1)"><g><path fill="none" stroke="none"/><text fill="#000000" stroke="none" font-family="Arial" font-size="13px" font-style="normal" font-weight="normal" text-decoration="none" x="739.5" y="292.5">5 : allowedResponse</text></g></g><g transform="translate(-6,2) scale(1,1)"><path fill="none" stroke="#000000" d="M 627 336 L 789 336" stroke-miterlimit="10"/></g><g transform="translate(-6,2) scale(1,1)"><path fill="#000000" stroke="none" d="M 778.8373251423759 340.209517756016 L 789 336 L 778.8373251423758 331.790482243984"/></g><g transform="translate(-6,2) scale(1,1)"><path fill="none" stroke="#000000" d="M 778.8373251423759 340.209517756016 L 789 336 L 778.8373251423758 331.790482243984 L 778.8373251423759 340.209517756016" stroke-miterlimit="10"/></g><g transform="translate(-6,2) scale(1,1)"><g><path fill="none" stroke="none"/><text fill="#000000" stroke="none" font-family="Arial" font-size="13px" font-style="normal" font-weight="normal" text-decoration="none" x="646.5" y="332.5">6 : removeCard(card)</text></g></g><g transform="translate(-6,2) scale(1,1)"><rect fill="#ffffff" stroke="none" x="789" y="336" width="13" height="28"/></g><g transform="translate(-6,2) scale(1,1)"><path fill="none" stroke="#000000" d="M 789 336 L 802 336 L 802 364 L 789 364 L 789 336 Z Z" stroke-miterlimit="10"/></g><g transform="translate(-6,2) scale(1,1)"><path fill="none" stroke="#000000" d="M 627 384 L 994 384" stroke-miterlimit="10"/></g><g transform="translate(-6,2) scale(1,1)"><path fill="#000000" stroke="none" d="M 983.8373251423759 388.209517756016 L 994 384 L 983.8373251423758 379.790482243984"/></g><g transform="translate(-6,2) scale(1,1)"><path fill="none" stroke="#000000" d="M 983.8373251423759 388.209517756016 L 994 384 L 983.8373251423758 379.790482243984 L 983.8373251423759 388.209517756016" stroke-miterlimit="10"/></g><g transform="translate(-6,2) scale(1,1)"><g><path fill="none" stroke="none"/><text fill="#000000" stroke="none" font-family="Arial" font-size="13px" font-style="normal" font-weight="normal" text-decoration="none" x="754.5" y="380.5">7 : MoveCard(card)</text></g></g><g transform="translate(-6,2) scale(1,1)"><rect fill="#ffffff" stroke="none" x="994" y="384" width="13" height="28"/></g><g transform="translate(-6,2) scale(1,1)"><path fill="none" stroke="#000000" d="M 994 384 L 1007 384 L 1007 412 L 994 412 L 994 384 Z Z" stroke-miterlimit="10"/></g><g transform="translate(-6,2) scale(1,1)"><path fill="none" stroke="#000000" d="M 614 411 L 442 411" stroke-miterlimit="10"/></g><g transform="translate(-6,2) scale(1,1)"><path fill="#000000" stroke="none" d="M 452.16267485762415 406.790482243984 L 442 411 L 452.16267485762415 415.209517756016"/></g><g transform="translate(-6,2) scale(1,1)"><path fill="none" stroke="#000000" d="M 452.16267485762415 406.790482243984 L 442 411 L 452.16267485762415 415.209517756016 L 452.16267485762415 406.790482243984" stroke-miterlimit="10"/></g><g transform="translate(-6,2) scale(1,1)"><g><path fill="none" stroke="none"/><text fill="#000000" stroke="none" font-family="Arial" font-size="13px" font-style="normal" font-weight="normal" text-decoration="none" x="503.029541015625" y="427.5">8 : done</text></g></g><g transform="translate(-6,2) scale(1,1)"><rect fill="#ffffff" stroke="none" x="429" y="411" width="13" height="28"/></g><g transform="translate(-6,2) scale(1,1)"><path fill="none" stroke="#000000" d="M 429 411 L 442 411 L 442 439 L 429 439 L 429 411 Z Z" stroke-miterlimit="10"/></g><g transform="translate(-6,2) scale(1,1)"><path fill="none" stroke="#000000" d="M 614 497 L 442 497" stroke-miterlimit="10"/></g><g transform="translate(-6,2) scale(1,1)"><path fill="#000000" stroke="none" d="M 452.16267485762415 492.790482243984 L 442 497 L 452.16267485762415 501.209517756016"/></g><g transform="translate(-6,2) scale(1,1)"><path fill="none" stroke="#000000" d="M 452.16267485762415 492.790482243984 L 442 497 L 452.16267485762415 501.209517756016 L 452.16267485762415 492.790482243984" stroke-miterlimit="10"/></g><g transform="translate(-6,2) scale(1,1)"><g><path fill="none" stroke="none"/><text fill="#000000" stroke="none" font-family="Arial" font-size="13px" font-style="normal" font-weight="normal" text-decoration="none" x="480.114990234375" y="513.5">9 : InvalidOption</text></g></g><g transform="translate(-6,2) scale(1,1)"><rect fill="#ffffff" stroke="none" x="429" y="497" width="13" height="28"/></g><g transform="translate(-6,2) scale(1,1)"><path fill="none" stroke="#000000" d="M 429 497 L 442 497 L 442 525 L 429 525 L 429 497 Z Z" stroke-miterlimit="10"/></g></g></svg>