<svg version="1.1" xmlns="http://www.w3.org/2000/svg" xmlns:xlink="http://www.w3.org/1999/xlink" width="317" height="128"><defs/><g><g transform="translate(-6,2) scale(1,1)"><rect fill="#ffffff" stroke="none" x="16" y="8" width="103.814453125" height="22"/></g><g transform="translate(-6,2) scale(1,1)"><path fill="none" stroke="#000000" d="M 16 8 L 119.814453125 8 L 119.814453125 30 L 16 30 L 16 8 Z Z" stroke-miterlimit="10"/></g><g transform="translate(-6,2) scale(1,1)"><path fill="none" stroke="#000000" d="M 48.39453125 8 L 48.39453125 30" stroke-miterlimit="10"/></g><g transform="translate(-6,2) scale(1,1)"><g><path fill="none" stroke="none"/><text fill="#000000" stroke="none" font-family="Arial" font-size="13px" font-style="normal" font-weight="normal" text-decoration="none" x="54.3095703125" y="25.5">4+1 views</text></g></g><g transform="translate(-6,2) scale(1,1)"><g><path fill="none" stroke="none"/><text fill="#000000" stroke="none" font-family="Arial" font-size="13px" font-style="normal" font-weight="bold" text-decoration="none" x="22.444091796875" y="25.5">link</text></g></g><g transform="translate(-6,2) scale(1,1)"><rect fill="#C0C0C0" stroke="none" x="66" y="84" width="36.8388671875" height="15" opacity="0.2"/></g><g transform="translate(-6,2) scale(1,1)"><rect fill="#C0C0C0" stroke="none" x="66" y="98" width="92.09716796875" height="25" opacity="0.2"/></g><g transform="translate(-6,2) scale(1,1)"><rect fill="#ffffff" stroke="none" x="59" y="92" width="92.09716796875" height="24"/></g><g transform="translate(-6,2) scale(1,1)"><path fill="none" stroke="#000000" d="M 59 92 L 151.09716796875 92 L 151.09716796875 116 L 59 116 L 59 92 Z Z" stroke-miterlimit="10"/></g><g transform="translate(-6,2) scale(1,1)"><rect fill="#ffffff" stroke="none" x="59" y="77" width="36.8388671875" height="15"/></g><g transform="translate(-6,2) scale(1,1)"><path fill="none" stroke="#000000" d="M 59 77 L 95.8388671875 77 L 95.8388671875 92 L 59 92 L 59 77 Z Z" stroke-miterlimit="10"/></g><g transform="translate(-6,2) scale(1,1)"><rect fill="#ffffff" stroke="none" x="59" y="91" width="92.09716796875" height="25"/></g><g transform="translate(-6,2) scale(1,1)"><path fill="none" stroke="#000000" d="M 59 91 L 151.09716796875 91 L 151.09716796875 116 L 59 116 L 59 91 Z Z" stroke-miterlimit="10"/></g><g transform="translate(-6,2) scale(1,1)"><g><path fill="none" stroke="none"/><text fill="#000000" stroke="none" font-family="Arial" font-size="13px" font-style="normal" font-weight="bold" text-decoration="none" x="66.75634765625" y="111.5">AnalysisView</text></g></g><g transform="translate(-6,2) scale(1,1)"><rect fill="#ffffff" stroke="none" x="160" y="92" width="153" height="22"/></g><g transform="translate(-6,2) scale(1,1)"><path fill="none" stroke="#000000" d="M 160 92 L 313 92 L 313 114 L 160 114 L 160 92 Z Z" stroke-miterlimit="10"/></g><g transform="translate(-6,2) scale(1,1)"><path fill="none" stroke="#000000" d="M 192.39453125 92 L 192.39453125 114" stroke-miterlimit="10"/></g><g transform="translate(-6,2) scale(1,1)"><g><path fill="none" stroke="none"/><text fill="#000000" stroke="none" font-family="Arial" font-size="13px" font-style="normal" font-weight="normal" text-decoration="none" x="197.701416015625" y="109.5">IndexAnalysisView</text></g></g><g transform="translate(-6,2) scale(1,1)"><g><path fill="none" stroke="none"/><text fill="#000000" stroke="none" font-family="Arial" font-size="13px" font-style="normal" font-weight="bold" text-decoration="none" x="166.444091796875" y="109.5">link</text></g></g></g></svg>