<svg version="1.1" xmlns="http://www.w3.org/2000/svg" xmlns:xlink="http://www.w3.org/1999/xlink" width="643.72802734375" height="428"><defs/><g><g transform="translate(-22,-14) scale(1,1)"><rect fill="#C0C0C0" stroke="none" x="223" y="31" width="57.60000000000002" height="15" opacity="0.2"/></g><g transform="translate(-22,-14) scale(1,1)"><rect fill="#C0C0C0" stroke="none" x="223" y="45" width="144" height="25" opacity="0.2"/></g><g transform="translate(-22,-14) scale(1,1)"><rect fill="#ffffff" stroke="none" x="216" y="39" width="144" height="24"/></g><g transform="translate(-22,-14) scale(1,1)"><path fill="none" stroke="#000000" d="M 216 39 L 360 39 L 360 63 L 216 63 L 216 39 Z Z" stroke-miterlimit="10"/></g><g transform="translate(-22,-14) scale(1,1)"><rect fill="#ffffff" stroke="none" x="216" y="24" width="57.60000000000002" height="15"/></g><g transform="translate(-22,-14) scale(1,1)"><path fill="none" stroke="#000000" d="M 216 24 L 273.6 24 L 273.6 39 L 216 39 L 216 24 Z Z" stroke-miterlimit="10"/></g><g transform="translate(-22,-14) scale(1,1)"><rect fill="#ffffff" stroke="none" x="216" y="38" width="144" height="25"/></g><g transform="translate(-22,-14) scale(1,1)"><path fill="none" stroke="#000000" d="M 216 38 L 360 38 L 360 63 L 216 63 L 216 38 Z Z" stroke-miterlimit="10"/></g><g transform="translate(-22,-14) scale(1,1)"><path fill="none" stroke="#000000" d="M 264.6 27 L 258.6 34 L 270.6 34 L 264.6 27" stroke-miterlimit="10"/></g><g transform="translate(-22,-14) scale(1,1)"><g><path fill="none" stroke="none"/><text fill="#000000" stroke="none" font-family="Arial" font-size="13px" font-style="normal" font-weight="bold" text-decoration="none" x="247.898681640625" y="58.5">DomainModel</text></g></g><g transform="translate(-22,-14) scale(1,1)"><rect fill="#C0C0C0" stroke="none" x="423" y="199" width="58.611328125" height="15" opacity="0.2"/></g><g transform="translate(-22,-14) scale(1,1)"><rect fill="#C0C0C0" stroke="none" x="423" y="213" width="146.5283203125" height="25" opacity="0.2"/></g><g transform="translate(-22,-14) scale(1,1)"><rect fill="#ffffff" stroke="none" x="416" y="207" width="146.5283203125" height="24"/></g><g transform="translate(-22,-14) scale(1,1)"><path fill="none" stroke="#000000" d="M 416 207 L 562.5283203125 207 L 562.5283203125 231 L 416 231 L 416 207 Z Z" stroke-miterlimit="10"/></g><g transform="translate(-22,-14) scale(1,1)"><rect fill="#ffffff" stroke="none" x="416" y="192" width="58.611328125" height="15"/></g><g transform="translate(-22,-14) scale(1,1)"><path fill="none" stroke="#000000" d="M 416 192 L 474.611328125 192 L 474.611328125 207 L 416 207 L 416 192 Z Z" stroke-miterlimit="10"/></g><g transform="translate(-22,-14) scale(1,1)"><rect fill="#ffffff" stroke="none" x="416" y="206" width="146.5283203125" height="25"/></g><g transform="translate(-22,-14) scale(1,1)"><path fill="none" stroke="#000000" d="M 416 206 L 562.5283203125 206 L 562.5283203125 231 L 416 231 L 416 206 Z Z" stroke-miterlimit="10"/></g><g transform="translate(-22,-14) scale(1,1)"><path fill="none" stroke="#000000" d="M 465.611328125 195 L 459.611328125 202 L 471.611328125 202 L 465.611328125 195" stroke-miterlimit="10"/></g><g transform="translate(-22,-14) scale(1,1)"><g><path fill="none" stroke="none"/><text fill="#000000" stroke="none" font-family="Arial" font-size="13px" font-style="normal" font-weight="bold" text-decoration="none" x="430.735595703125" y="226.5">ImplementationView</text></g></g><g transform="translate(-22,-14) scale(1,1)"><rect fill="#C0C0C0" stroke="none" x="39" y="375" width="54.400000000000006" height="15" opacity="0.2"/></g><g transform="translate(-22,-14) scale(1,1)"><rect fill="#C0C0C0" stroke="none" x="39" y="389" width="136" height="25" opacity="0.2"/></g><g transform="translate(-22,-14) scale(1,1)"><rect fill="#ffffff" stroke="none" x="32" y="383" width="136" height="24"/></g><g transform="translate(-22,-14) scale(1,1)"><path fill="none" stroke="#000000" d="M 32 383 L 168 383 L 168 407 L 32 407 L 32 383 Z Z" stroke-miterlimit="10"/></g><g transform="translate(-22,-14) scale(1,1)"><rect fill="#ffffff" stroke="none" x="32" y="368" width="54.400000000000006" height="15"/></g><g transform="translate(-22,-14) scale(1,1)"><path fill="none" stroke="#000000" d="M 32 368 L 86.4 368 L 86.4 383 L 32 383 L 32 368 Z Z" stroke-miterlimit="10"/></g><g transform="translate(-22,-14) scale(1,1)"><rect fill="#ffffff" stroke="none" x="32" y="382" width="136" height="25"/></g><g transform="translate(-22,-14) scale(1,1)"><path fill="none" stroke="#000000" d="M 32 382 L 168 382 L 168 407 L 32 407 L 32 382 Z Z" stroke-miterlimit="10"/></g><g transform="translate(-22,-14) scale(1,1)"><path fill="none" stroke="#000000" d="M 77.4 371 L 71.4 378 L 83.4 378 L 77.4 371" stroke-miterlimit="10"/></g><g transform="translate(-22,-14) scale(1,1)"><g><path fill="none" stroke="none"/><text fill="#000000" stroke="none" font-family="Arial" font-size="13px" font-style="normal" font-weight="bold" text-decoration="none" x="62.431396484375" y="402.5">ProcessView</text></g></g><g transform="translate(-22,-14) scale(1,1)"><rect fill="#C0C0C0" stroke="none" x="423" y="375" width="54.39999999999998" height="15" opacity="0.2"/></g><g transform="translate(-22,-14) scale(1,1)"><rect fill="#C0C0C0" stroke="none" x="423" y="389" width="136" height="25" opacity="0.2"/></g><g transform="translate(-22,-14) scale(1,1)"><rect fill="#ffffff" stroke="none" x="416" y="383" width="136" height="24"/></g><g transform="translate(-22,-14) scale(1,1)"><path fill="none" stroke="#000000" d="M 416 383 L 552 383 L 552 407 L 416 407 L 416 383 Z Z" stroke-miterlimit="10"/></g><g transform="translate(-22,-14) scale(1,1)"><rect fill="#ffffff" stroke="none" x="416" y="368" width="54.39999999999998" height="15"/></g><g transform="translate(-22,-14) scale(1,1)"><path fill="none" stroke="#000000" d="M 416 368 L 470.4 368 L 470.4 383 L 416 383 L 416 368 Z Z" stroke-miterlimit="10"/></g><g transform="translate(-22,-14) scale(1,1)"><rect fill="#ffffff" stroke="none" x="416" y="382" width="136" height="25"/></g><g transform="translate(-22,-14) scale(1,1)"><path fill="none" stroke="#000000" d="M 416 382 L 552 382 L 552 407 L 416 407 L 416 382 Z Z" stroke-miterlimit="10"/></g><g transform="translate(-22,-14) scale(1,1)"><path fill="none" stroke="#000000" d="M 461.4 371 L 455.4 378 L 467.4 378 L 461.4 371" stroke-miterlimit="10"/></g><g transform="translate(-22,-14) scale(1,1)"><g><path fill="none" stroke="none"/><text fill="#000000" stroke="none" font-family="Arial" font-size="13px" font-style="normal" font-weight="bold" text-decoration="none" x="449.67822265625" y="402.5">DeployView</text></g></g><g transform="translate(-22,-14) scale(1,1)"><rect fill="#C0C0C0" stroke="none" x="223" y="287" width="57.60000000000002" height="15" opacity="0.2"/></g><g transform="translate(-22,-14) scale(1,1)"><rect fill="#C0C0C0" stroke="none" x="223" y="301" width="144" height="25" opacity="0.2"/></g><g transform="translate(-22,-14) scale(1,1)"><rect fill="#ffffff" stroke="none" x="216" y="295" width="144" height="24"/></g><g transform="translate(-22,-14) scale(1,1)"><path fill="none" stroke="#000000" d="M 216 295 L 360 295 L 360 319 L 216 319 L 216 295 Z Z" stroke-miterlimit="10"/></g><g transform="translate(-22,-14) scale(1,1)"><rect fill="#ffffff" stroke="none" x="216" y="280" width="57.60000000000002" height="15"/></g><g transform="translate(-22,-14) scale(1,1)"><path fill="none" stroke="#000000" d="M 216 280 L 273.6 280 L 273.6 295 L 216 295 L 216 280 Z Z" stroke-miterlimit="10"/></g><g transform="translate(-22,-14) scale(1,1)"><rect fill="#ffffff" stroke="none" x="216" y="294" width="144" height="25"/></g><g transform="translate(-22,-14) scale(1,1)"><path fill="none" stroke="#000000" d="M 216 294 L 360 294 L 360 319 L 216 319 L 216 294 Z Z" stroke-miterlimit="10"/></g><g transform="translate(-22,-14) scale(1,1)"><path fill="none" stroke="#000000" d="M 264.6 283 L 258.6 290 L 270.6 290 L 264.6 283" stroke-miterlimit="10"/></g><g transform="translate(-22,-14) scale(1,1)"><g><path fill="none" stroke="none"/><text fill="#000000" stroke="none" font-family="Arial" font-size="13px" font-style="normal" font-weight="bold" text-decoration="none" x="247.17822265625" y="314.5">UseCaseView</text></g></g><g transform="translate(-22,-14) scale(1,1)"><rect fill="#C0C0C0" stroke="none" x="39" y="199" width="54.400000000000006" height="15" opacity="0.2"/></g><g transform="translate(-22,-14) scale(1,1)"><rect fill="#C0C0C0" stroke="none" x="39" y="213" width="136" height="25" opacity="0.2"/></g><g transform="translate(-22,-14) scale(1,1)"><rect fill="#ffffff" stroke="none" x="32" y="207" width="136" height="24"/></g><g transform="translate(-22,-14) scale(1,1)"><path fill="none" stroke="#000000" d="M 32 207 L 168 207 L 168 231 L 32 231 L 32 207 Z Z" stroke-miterlimit="10"/></g><g transform="translate(-22,-14) scale(1,1)"><rect fill="#ffffff" stroke="none" x="32" y="192" width="54.400000000000006" height="15"/></g><g transform="translate(-22,-14) scale(1,1)"><path fill="none" stroke="#000000" d="M 32 192 L 86.4 192 L 86.4 207 L 32 207 L 32 192 Z Z" stroke-miterlimit="10"/></g><g transform="translate(-22,-14) scale(1,1)"><rect fill="#ffffff" stroke="none" x="32" y="206" width="136" height="25"/></g><g transform="translate(-22,-14) scale(1,1)"><path fill="none" stroke="#000000" d="M 32 206 L 168 206 L 168 231 L 32 231 L 32 206 Z Z" stroke-miterlimit="10"/></g><g transform="translate(-22,-14) scale(1,1)"><path fill="none" stroke="#000000" d="M 77.4 195 L 71.4 202 L 83.4 202 L 77.4 195" stroke-miterlimit="10"/></g><g transform="translate(-22,-14) scale(1,1)"><g><path fill="none" stroke="none"/><text fill="#000000" stroke="none" font-family="Arial" font-size="13px" font-style="normal" font-weight="bold" text-decoration="none" x="65.67822265625" y="226.5">DesignView</text></g></g><g transform="translate(-22,-14) scale(1,1)"><path fill="none" stroke="#000000" d="M 100 367 L 100 232" stroke-miterlimit="10" stroke-dasharray="3"/></g><g transform="translate(-22,-14) scale(1,1)"><path fill="none" stroke="#000000" d="M 104.20951775601598 242.16267485762415 L 100 232 L 95.79048224398402 242.16267485762415" stroke-miterlimit="10"/></g><g transform="translate(-22,-14) scale(1,1)"><path fill="none" stroke="#000000" d="M 169 387 L 415 387" stroke-miterlimit="10" stroke-dasharray="3"/></g><g transform="translate(-22,-14) scale(1,1)"><path fill="none" stroke="#000000" d="M 404.83732514237585 391.209517756016 L 415 387 L 404.83732514237585 382.790482243984" stroke-miterlimit="10"/></g><g transform="translate(-22,-14) scale(1,1)"><path fill="none" stroke="#000000" d="M 415 211 L 169 211" stroke-miterlimit="10" stroke-dasharray="3"/></g><g transform="translate(-22,-14) scale(1,1)"><path fill="none" stroke="#000000" d="M 179.16267485762415 206.790482243984 L 169 211 L 179.16267485762415 215.209517756016" stroke-miterlimit="10"/></g><g transform="translate(-22,-14) scale(1,1)"><path fill="none" stroke="#000000" d="M 485 367 L 488 232" stroke-miterlimit="10" stroke-dasharray="3"/></g><g transform="translate(-22,-14) scale(1,1)"><path fill="none" stroke="#000000" d="M 491.98269727628934 242.25368823426172 L 488 232 L 483.56573976885824 242.0666447340966" stroke-miterlimit="10"/></g><g transform="translate(-22,-14) scale(1,1)"><path fill="none" stroke="#000000" d="M 441 232 L 334 279" stroke-miterlimit="10" stroke-dasharray="3"/></g><g transform="translate(-22,-14) scale(1,1)"><path fill="none" stroke="#000000" d="M 341.61169088183925 271.05883119941876 L 334 279 L 344.9975325482824 278.7670239294063" stroke-miterlimit="10"/></g><g transform="translate(-22,-14) scale(1,1)"><path fill="none" stroke="#000000" d="M 145 232 L 245 279" stroke-miterlimit="10" stroke-dasharray="3"/></g><g transform="translate(-22,-14) scale(1,1)"><path fill="none" stroke="#000000" d="M 234.01197310987135 278.48690638104756 L 245 279 L 237.5931036514747 270.8674796967851" stroke-miterlimit="10"/></g><g transform="translate(-22,-14) scale(1,1)"><path fill="none" stroke="#000000" d="M 143 367 L 243 320" stroke-miterlimit="10" stroke-dasharray="3"/></g><g transform="translate(-22,-14) scale(1,1)"><path fill="none" stroke="#000000" d="M 235.5931036514747 328.1325203032149 L 243 320 L 232.01197310987135 320.51309361895244" stroke-miterlimit="10"/></g><g transform="translate(-22,-14) scale(1,1)"><path fill="none" stroke="#000000" d="M 439 367 L 335 320" stroke-miterlimit="10" stroke-dasharray="3"/></g><g transform="translate(-22,-14) scale(1,1)"><path fill="none" stroke="#000000" d="M 345.99445510042545 320.34922348822533 L 335 320 L 342.52731546028815 328.0211920536356" stroke-miterlimit="10"/></g><g transform="translate(-22,-14) scale(1,1)"><rect fill="#ffffff" stroke="none" x="299" y="64" width="120.43896484375" height="22"/></g><g transform="translate(-22,-14) scale(1,1)"><path fill="none" stroke="#000000" d="M 299 64 L 419.43896484375 64 L 419.43896484375 86 L 299 86 L 299 64 Z Z" stroke-miterlimit="10"/></g><g transform="translate(-22,-14) scale(1,1)"><path fill="none" stroke="#000000" d="M 331.39453125 64 L 331.39453125 86" stroke-miterlimit="10"/></g><g transform="translate(-22,-14) scale(1,1)"><g><path fill="none" stroke="none"/><text fill="#000000" stroke="none" font-family="Arial" font-size="13px" font-style="normal" font-weight="normal" text-decoration="none" x="335.89453125" y="81.5">domainModel</text></g></g><g transform="translate(-22,-14) scale(1,1)"><g><path fill="none" stroke="none"/><text fill="#000000" stroke="none" font-family="Arial" font-size="13px" font-style="normal" font-weight="bold" text-decoration="none" x="305.444091796875" y="81.5">link</text></g></g><g transform="translate(-22,-14) scale(1,1)"><rect fill="#ffffff" stroke="none" x="497" y="232" width="158.72802734375" height="22"/></g><g transform="translate(-22,-14) scale(1,1)"><path fill="none" stroke="#000000" d="M 497 232 L 655.72802734375 232 L 655.72802734375 254 L 497 254 L 497 232 Z Z" stroke-miterlimit="10"/></g><g transform="translate(-22,-14) scale(1,1)"><path fill="none" stroke="#000000" d="M 529.39453125 232 L 529.39453125 254" stroke-miterlimit="10"/></g><g transform="translate(-22,-14) scale(1,1)"><g><path fill="none" stroke="none"/><text fill="#000000" stroke="none" font-family="Arial" font-size="13px" font-style="normal" font-weight="normal" text-decoration="none" x="533.89453125" y="249.5">implementationView</text></g></g><g transform="translate(-22,-14) scale(1,1)"><g><path fill="none" stroke="none"/><text fill="#000000" stroke="none" font-family="Arial" font-size="13px" font-style="normal" font-weight="bold" text-decoration="none" x="503.444091796875" y="249.5">link</text></g></g><g transform="translate(-22,-14) scale(1,1)"><rect fill="#ffffff" stroke="none" x="104" y="408" width="116.0908203125" height="22"/></g><g transform="translate(-22,-14) scale(1,1)"><path fill="none" stroke="#000000" d="M 104 408 L 220.0908203125 408 L 220.0908203125 430 L 104 430 L 104 408 Z Z" stroke-miterlimit="10"/></g><g transform="translate(-22,-14) scale(1,1)"><path fill="none" stroke="#000000" d="M 136.39453125 408 L 136.39453125 430" stroke-miterlimit="10"/></g><g transform="translate(-22,-14) scale(1,1)"><g><path fill="none" stroke="none"/><text fill="#000000" stroke="none" font-family="Arial" font-size="13px" font-style="normal" font-weight="normal" text-decoration="none" x="140.89453125" y="425.5">processView</text></g></g><g transform="translate(-22,-14) scale(1,1)"><g><path fill="none" stroke="none"/><text fill="#000000" stroke="none" font-family="Arial" font-size="13px" font-style="normal" font-weight="bold" text-decoration="none" x="110.444091796875" y="425.5">link</text></g></g><g transform="translate(-22,-14) scale(1,1)"><rect fill="#ffffff" stroke="none" x="224" y="320" width="144.9853515625" height="22"/></g><g transform="translate(-22,-14) scale(1,1)"><path fill="none" stroke="#000000" d="M 224 320 L 368.9853515625 320 L 368.9853515625 342 L 224 342 L 224 320 Z Z" stroke-miterlimit="10"/></g><g transform="translate(-22,-14) scale(1,1)"><path fill="none" stroke="#000000" d="M 256.39453125 320 L 256.39453125 342" stroke-miterlimit="10"/></g><g transform="translate(-22,-14) scale(1,1)"><g><path fill="none" stroke="none"/><text fill="#000000" stroke="none" font-family="Arial" font-size="13px" font-style="normal" font-weight="normal" text-decoration="none" x="271.3681640625" y="337.5">UseCaseView</text></g></g><g transform="translate(-22,-14) scale(1,1)"><g><path fill="none" stroke="none"/><text fill="#000000" stroke="none" font-family="Arial" font-size="13px" font-style="normal" font-weight="bold" text-decoration="none" x="230.444091796875" y="337.5">link</text></g></g><g transform="translate(-22,-14) scale(1,1)"><rect fill="#ffffff" stroke="none" x="488" y="410" width="108.8798828125" height="22"/></g><g transform="translate(-22,-14) scale(1,1)"><path fill="none" stroke="#000000" d="M 488 410 L 596.8798828125 410 L 596.8798828125 432 L 488 432 L 488 410 Z Z" stroke-miterlimit="10"/></g><g transform="translate(-22,-14) scale(1,1)"><path fill="none" stroke="#000000" d="M 520.39453125 410 L 520.39453125 432" stroke-miterlimit="10"/></g><g transform="translate(-22,-14) scale(1,1)"><g><path fill="none" stroke="none"/><text fill="#000000" stroke="none" font-family="Arial" font-size="13px" font-style="normal" font-weight="normal" text-decoration="none" x="524.89453125" y="427.5">deployView</text></g></g><g transform="translate(-22,-14) scale(1,1)"><g><path fill="none" stroke="none"/><text fill="#000000" stroke="none" font-family="Arial" font-size="13px" font-style="normal" font-weight="bold" text-decoration="none" x="494.444091796875" y="427.5">link</text></g></g><g transform="translate(-22,-14) scale(1,1)"><rect fill="#ffffff" stroke="none" x="104" y="232" width="108.8798828125" height="22"/></g><g transform="translate(-22,-14) scale(1,1)"><path fill="none" stroke="#000000" d="M 104 232 L 212.8798828125 232 L 212.8798828125 254 L 104 254 L 104 232 Z Z" stroke-miterlimit="10"/></g><g transform="translate(-22,-14) scale(1,1)"><path fill="none" stroke="#000000" d="M 136.39453125 232 L 136.39453125 254" stroke-miterlimit="10"/></g><g transform="translate(-22,-14) scale(1,1)"><g><path fill="none" stroke="none"/><text fill="#000000" stroke="none" font-family="Arial" font-size="13px" font-style="normal" font-weight="normal" text-decoration="none" x="140.89453125" y="249.5">designView</text></g></g><g transform="translate(-22,-14) scale(1,1)"><g><path fill="none" stroke="none"/><text fill="#000000" stroke="none" font-family="Arial" font-size="13px" font-style="normal" font-weight="bold" text-decoration="none" x="110.444091796875" y="249.5">link</text></g></g></g></svg>