<svg version="1.1" xmlns="http://www.w3.org/2000/svg" xmlns:xlink="http://www.w3.org/1999/xlink" width="256.0380859375" height="42"><defs/><g><g transform="translate(-30,-6) scale(1,1)"><rect fill="#ffffff" stroke="none" x="152" y="16" width="124.0380859375" height="22"/></g><g transform="translate(-30,-6) scale(1,1)"><path fill="none" stroke="#000000" d="M 152 16 L 276.0380859375 16 L 276.0380859375 38 L 152 38 L 152 16 Z Z" stroke-miterlimit="10"/></g><g transform="translate(-30,-6) scale(1,1)"><path fill="none" stroke="#000000" d="M 184.39453125 16 L 184.39453125 38" stroke-miterlimit="10"/></g><g transform="translate(-30,-6) scale(1,1)"><g><path fill="none" stroke="none"/><text fill="#000000" stroke="none" font-family="Arial" font-size="13px" font-style="normal" font-weight="normal" text-decoration="none" x="188.89453125" y="33.5">UseCaseView</text></g></g><g transform="translate(-30,-6) scale(1,1)"><g><path fill="none" stroke="none"/><text fill="#000000" stroke="none" font-family="Arial" font-size="13px" font-style="normal" font-weight="bold" text-decoration="none" x="158.444091796875" y="33.5">link</text></g></g><g transform="translate(-30,-6) scale(1,1)"><rect fill="#ffffff" stroke="none" x="40" y="16" width="103.39453125" height="22"/></g><g transform="translate(-30,-6) scale(1,1)"><path fill="none" stroke="#000000" d="M 40 16 L 143.39453125 16 L 143.39453125 38 L 40 38 L 40 16 Z Z" stroke-miterlimit="10"/></g><g transform="translate(-30,-6) scale(1,1)"><path fill="none" stroke="#000000" d="M 72.39453125 16 L 72.39453125 38" stroke-miterlimit="10"/></g><g transform="translate(-30,-6) scale(1,1)"><g><path fill="none" stroke="none"/><text fill="#000000" stroke="none" font-family="Arial" font-size="13px" font-style="normal" font-weight="normal" text-decoration="none" x="78.3095703125" y="33.5">4+1 views</text></g></g><g transform="translate(-30,-6) scale(1,1)"><g><path fill="none" stroke="none"/><text fill="#000000" stroke="none" font-family="Arial" font-size="13px" font-style="normal" font-weight="bold" text-decoration="none" x="46.444091796875" y="33.5">link</text></g></g></g></svg>