<svg version="1.1" xmlns="http://www.w3.org/2000/svg" xmlns:xlink="http://www.w3.org/1999/xlink" width="1739" height="924"><defs/><g><g transform="translate(-6,-6) scale(1,1)"><path fill="none" stroke="#000000" d="M 248 104 L 1184 104 L 1184 920 L 248 920 L 248 104" stroke-miterlimit="10"/></g><g transform="translate(-6,-6) scale(1,1)"><path fill="#ffffff" stroke="none" d="M 248 104 L 248 126 L 370.9580078125 126 L 381.9580078125 115 L 381.9580078125 104 L 248 104"/></g><g transform="translate(-6,-6) scale(1,1)"><path fill="none" stroke="#000000" d="M 248 104 L 248 126 L 370.9580078125 126 L 381.9580078125 115 L 381.9580078125 104 L 248 104 L 248 104" stroke-miterlimit="10"/></g><g transform="translate(-6,-6) scale(1,1)"><g><path fill="none" stroke="none"/><text fill="#000000" stroke="none" font-family="Arial" font-size="13px" font-style="normal" font-weight="normal" text-decoration="none" x="308.14990234375" y="121.5">useCases</text></g></g><g transform="translate(-6,-6) scale(1,1)"><g><path fill="none" stroke="none"/><text fill="#000000" stroke="none" font-family="Arial" font-size="13px" font-style="normal" font-weight="bold" text-decoration="none" x="253" y="121.5">package</text></g></g><g transform="translate(-6,-6) scale(1,1)"><rect fill="#ffffff" stroke="none" x="160" y="16" width="103.39453125" height="22"/></g><g transform="translate(-6,-6) scale(1,1)"><path fill="none" stroke="#000000" d="M 160 16 L 263.39453125 16 L 263.39453125 38 L 160 38 L 160 16 Z Z" stroke-miterlimit="10"/></g><g transform="translate(-6,-6) scale(1,1)"><path fill="none" stroke="#000000" d="M 192.39453125 16 L 192.39453125 38" stroke-miterlimit="10"/></g><g transform="translate(-6,-6) scale(1,1)"><g><path fill="none" stroke="none"/><text fill="#000000" stroke="none" font-family="Arial" font-size="13px" font-style="normal" font-weight="normal" text-decoration="none" x="198.3095703125" y="33.5">4+1 views</text></g></g><g transform="translate(-6,-6) scale(1,1)"><g><path fill="none" stroke="none"/><text fill="#000000" stroke="none" font-family="Arial" font-size="13px" font-style="normal" font-weight="bold" text-decoration="none" x="166.444091796875" y="33.5">link</text></g></g><g transform="translate(-6,-6) scale(1,1)"><rect fill="#ffffff" stroke="none" x="16" y="16" width="124.0380859375" height="22"/></g><g transform="translate(-6,-6) scale(1,1)"><path fill="none" stroke="#000000" d="M 16 16 L 140.0380859375 16 L 140.0380859375 38 L 16 38 L 16 16 Z Z" stroke-miterlimit="10"/></g><g transform="translate(-6,-6) scale(1,1)"><path fill="none" stroke="#000000" d="M 48.39453125 16 L 48.39453125 38" stroke-miterlimit="10"/></g><g transform="translate(-6,-6) scale(1,1)"><g><path fill="none" stroke="none"/><text fill="#000000" stroke="none" font-family="Arial" font-size="13px" font-style="normal" font-weight="normal" text-decoration="none" x="52.89453125" y="33.5">UseCaseView</text></g></g><g transform="translate(-6,-6) scale(1,1)"><g><path fill="none" stroke="none"/><text fill="#000000" stroke="none" font-family="Arial" font-size="13px" font-style="normal" font-weight="bold" text-decoration="none" x="22.444091796875" y="33.5">link</text></g></g><g transform="translate(-6,-6) scale(1,1)"><path fill="#C0C0C0" stroke="none" d="M 327 250.5 C 327 235.31216799999999 375.5770992 223 435.5 223 C 495.4229008 223 544 235.31216799999999 544 250.5 C 544 265.687832 495.4229008 278 435.5 278 C 375.5770992 278 327 265.687832 327 250.5 Z" opacity="0.2"/></g><g transform="translate(-6,-6) scale(1,1)"><path fill="#ffffff" stroke="none" d="M 320 243.5 C 320 228.31216799999999 368.5770992 216 428.5 216 C 488.4229008 216 537 228.31216799999999 537 243.5 C 537 258.687832 488.4229008 271 428.5 271 C 368.5770992 271 320 258.687832 320 243.5 Z"/></g><g transform="translate(-6,-6) scale(1,1)"><path fill="none" stroke="#000000" d="M 320 243.5 C 320 228.31216799999999 368.5770992 216 428.5 216 C 488.4229008 216 537 228.31216799999999 537 243.5 C 537 258.687832 488.4229008 271 428.5 271 C 368.5770992 271 320 258.687832 320 243.5 Z" stroke-miterlimit="10"/></g><g transform="translate(-6,-6) scale(1,1)"><g><path fill="none" stroke="none"/><text fill="#000000" stroke="none" font-family="Arial" font-size="13px" font-style="normal" font-weight="bold" text-decoration="none" x="395.984130859375" y="243">SaveMatch</text></g></g><g transform="translate(-6,-6) scale(1,1)"><g><path fill="none" stroke="none"/><text fill="#000000" stroke="none" font-family="Arial" font-size="13px" font-style="normal" font-weight="normal" text-decoration="none" x="356.260498046875" y="258">(from InGameUseCases)</text></g></g><g transform="translate(-6,-6) scale(1,1)"><path fill="#C0C0C0" stroke="none" d="M 599 250.5 C 599 235.31216799999999 647.5770992 223 707.5 223 C 767.4229008 223 816 235.31216799999999 816 250.5 C 816 265.687832 767.4229008 278 707.5 278 C 647.5770992 278 599 265.687832 599 250.5 Z" opacity="0.2"/></g><g transform="translate(-6,-6) scale(1,1)"><path fill="#ffffff" stroke="none" d="M 592 243.5 C 592 228.31216799999999 640.5770992 216 700.5 216 C 760.4229008 216 809 228.31216799999999 809 243.5 C 809 258.687832 760.4229008 271 700.5 271 C 640.5770992 271 592 258.687832 592 243.5 Z"/></g><g transform="translate(-6,-6) scale(1,1)"><path fill="none" stroke="#000000" d="M 592 243.5 C 592 228.31216799999999 640.5770992 216 700.5 216 C 760.4229008 216 809 228.31216799999999 809 243.5 C 809 258.687832 760.4229008 271 700.5 271 C 640.5770992 271 592 258.687832 592 243.5 Z" stroke-miterlimit="10"/></g><g transform="translate(-6,-6) scale(1,1)"><g><path fill="none" stroke="none"/><text fill="#000000" stroke="none" font-family="Arial" font-size="13px" font-style="normal" font-weight="bold" text-decoration="none" x="654.615966796875" y="243">UndoMovement</text></g></g><g transform="translate(-6,-6) scale(1,1)"><g><path fill="none" stroke="none"/><text fill="#000000" stroke="none" font-family="Arial" font-size="13px" font-style="normal" font-weight="normal" text-decoration="none" x="628.260498046875" y="258">(from InGameUseCases)</text></g></g><g transform="translate(-6,-6) scale(1,1)"><path fill="#C0C0C0" stroke="none" d="M 823 458.5 C 823 443.312168 871.5770992 431 931.5 431 C 991.4229008 431 1040 443.312168 1040 458.5 C 1040 473.687832 991.4229008 486 931.5 486 C 871.5770992 486 823 473.687832 823 458.5 Z" opacity="0.2"/></g><g transform="translate(-6,-6) scale(1,1)"><path fill="#ffffff" stroke="none" d="M 816 451.5 C 816 436.312168 864.5770992 424 924.5 424 C 984.4229008 424 1033 436.312168 1033 451.5 C 1033 466.687832 984.4229008 479 924.5 479 C 864.5770992 479 816 466.687832 816 451.5 Z"/></g><g transform="translate(-6,-6) scale(1,1)"><path fill="none" stroke="#000000" d="M 816 451.5 C 816 436.312168 864.5770992 424 924.5 424 C 984.4229008 424 1033 436.312168 1033 451.5 C 1033 466.687832 984.4229008 479 924.5 479 C 864.5770992 479 816 466.687832 816 451.5 Z" stroke-miterlimit="10"/></g><g transform="translate(-6,-6) scale(1,1)"><g><path fill="none" stroke="none"/><text fill="#000000" stroke="none" font-family="Arial" font-size="13px" font-style="normal" font-weight="bold" text-decoration="none" x="866.3427734375" y="451">MoveStockToWaste</text></g></g><g transform="translate(-6,-6) scale(1,1)"><g><path fill="none" stroke="none"/><text fill="#000000" stroke="none" font-family="Arial" font-size="13px" font-style="normal" font-weight="normal" text-decoration="none" x="852.260498046875" y="466">(from InGameUseCases)</text></g></g><g transform="translate(-6,-6) scale(1,1)"><path fill="#C0C0C0" stroke="none" d="M 559 442.5 C 559 427.312168 611.8303936 415 677 415 C 742.1696064 415 795 427.312168 795 442.5 C 795 457.687832 742.1696064 470 677 470 C 611.8303936 470 559 457.687832 559 442.5 Z" opacity="0.2"/></g><g transform="translate(-6,-6) scale(1,1)"><path fill="#ffffff" stroke="none" d="M 552 435.5 C 552 420.312168 604.8303936 408 670 408 C 735.1696064 408 788 420.312168 788 435.5 C 788 450.687832 735.1696064 463 670 463 C 604.8303936 463 552 450.687832 552 435.5 Z"/></g><g transform="translate(-6,-6) scale(1,1)"><path fill="none" stroke="#000000" d="M 552 435.5 C 552 420.312168 604.8303936 408 670 408 C 735.1696064 408 788 420.312168 788 435.5 C 788 450.687832 735.1696064 463 670 463 C 604.8303936 463 552 450.687832 552 435.5 Z" stroke-miterlimit="10"/></g><g transform="translate(-6,-6) scale(1,1)"><g><path fill="none" stroke="none"/><text fill="#000000" stroke="none" font-family="Arial" font-size="13px" font-style="normal" font-weight="bold" text-decoration="none" x="595.57373046875" y="435">MoveWasteToFoundation</text></g></g><g transform="translate(-6,-6) scale(1,1)"><g><path fill="none" stroke="none"/><text fill="#000000" stroke="none" font-family="Arial" font-size="13px" font-style="normal" font-weight="normal" text-decoration="none" x="597.760498046875" y="450">(from InGameUseCases)</text></g></g><g transform="translate(-6,-6) scale(1,1)"><path fill="#C0C0C0" stroke="none" d="M 295 442.5 C 295 427.312168 344.4725296 415 405.5 415 C 466.5274704 415 516 427.312168 516 442.5 C 516 457.687832 466.5274704 470 405.5 470 C 344.4725296 470 295 457.687832 295 442.5 Z" opacity="0.2"/></g><g transform="translate(-6,-6) scale(1,1)"><path fill="#ffffff" stroke="none" d="M 288 435.5 C 288 420.312168 337.4725296 408 398.5 408 C 459.5274704 408 509 420.312168 509 435.5 C 509 450.687832 459.5274704 463 398.5 463 C 337.4725296 463 288 450.687832 288 435.5 Z"/></g><g transform="translate(-6,-6) scale(1,1)"><path fill="none" stroke="#000000" d="M 288 435.5 C 288 420.312168 337.4725296 408 398.5 408 C 459.5274704 408 509 420.312168 509 435.5 C 509 450.687832 459.5274704 463 398.5 463 C 337.4725296 463 288 450.687832 288 435.5 Z" stroke-miterlimit="10"/></g><g transform="translate(-6,-6) scale(1,1)"><g><path fill="none" stroke="none"/><text fill="#000000" stroke="none" font-family="Arial" font-size="13px" font-style="normal" font-weight="bold" text-decoration="none" x="328.041015625" y="435">MoveTableauToTableau</text></g></g><g transform="translate(-6,-6) scale(1,1)"><g><path fill="none" stroke="none"/><text fill="#000000" stroke="none" font-family="Arial" font-size="13px" font-style="normal" font-weight="normal" text-decoration="none" x="326.260498046875" y="450">(from InGameUseCases)</text></g></g><g transform="translate(-6,-6) scale(1,1)"><path fill="#C0C0C0" stroke="none" d="M 1207 498.5 C 1207 483.312168 1255.5770992 471 1315.5 471 C 1375.4229008 471 1424 483.312168 1424 498.5 C 1424 513.687832 1375.4229008 526 1315.5 526 C 1255.5770992 526 1207 513.687832 1207 498.5 Z" opacity="0.2"/></g><g transform="translate(-6,-6) scale(1,1)"><path fill="#ffffff" stroke="none" d="M 1200 491.5 C 1200 476.312168 1248.5770992 464 1308.5 464 C 1368.4229008 464 1417 476.312168 1417 491.5 C 1417 506.687832 1368.4229008 519 1308.5 519 C 1248.5770992 519 1200 506.687832 1200 491.5 Z"/></g><g transform="translate(-6,-6) scale(1,1)"><path fill="none" stroke="#000000" d="M 1200 491.5 C 1200 476.312168 1248.5770992 464 1308.5 464 C 1368.4229008 464 1417 476.312168 1417 491.5 C 1417 506.687832 1368.4229008 519 1308.5 519 C 1248.5770992 519 1200 506.687832 1200 491.5 Z" stroke-miterlimit="10"/></g><g transform="translate(-6,-6) scale(1,1)"><g><path fill="none" stroke="none"/><text fill="#000000" stroke="none" font-family="Arial" font-size="13px" font-style="normal" font-weight="bold" text-decoration="none" x="1271.293212890625" y="491">RecycleCard</text></g></g><g transform="translate(-6,-6) scale(1,1)"><g><path fill="none" stroke="none"/><text fill="#000000" stroke="none" font-family="Arial" font-size="13px" font-style="normal" font-weight="normal" text-decoration="none" x="1236.260498046875" y="506">(from InGameUseCases)</text></g></g><g transform="translate(-6,-6) scale(1,1)"><path fill="none" stroke="#000000" d="M 1199 480 L 1034 462" stroke-miterlimit="10" stroke-dasharray="3"/></g><g transform="translate(-6,-6) scale(1,1)"><path fill="none" stroke="#000000" d="M 1044.5592489158028 458.91742602130614 L 1034 462 L 1043.6462254764444 467.28680754875717" stroke-miterlimit="10"/></g><g transform="translate(-6,-6) scale(1,1)"><g><path fill="none" stroke="none"/><text fill="#000000" stroke="none" font-family="Arial" font-size="13px" font-style="normal" font-weight="normal" text-decoration="none" x="1084.5" y="506.5">«include»</text></g></g><g transform="translate(-6,-6) scale(1,1)"><path fill="#C0C0C0" stroke="none" d="M 31 562.5 C 31 547.312168 79.57709919999999 535 139.5 535 C 199.4229008 535 248 547.312168 248 562.5 C 248 577.687832 199.4229008 590 139.5 590 C 79.57709919999999 590 31 577.687832 31 562.5 Z" opacity="0.2"/></g><g transform="translate(-6,-6) scale(1,1)"><path fill="#ffffff" stroke="none" d="M 24 555.5 C 24 540.312168 72.57709919999999 528 132.5 528 C 192.4229008 528 241 540.312168 241 555.5 C 241 570.687832 192.4229008 583 132.5 583 C 72.57709919999999 583 24 570.687832 24 555.5 Z"/></g><g transform="translate(-6,-6) scale(1,1)"><path fill="none" stroke="#000000" d="M 24 555.5 C 24 540.312168 72.57709919999999 528 132.5 528 C 192.4229008 528 241 540.312168 241 555.5 C 241 570.687832 192.4229008 583 132.5 583 C 72.57709919999999 583 24 570.687832 24 555.5 Z" stroke-miterlimit="10"/></g><g transform="translate(-6,-6) scale(1,1)"><g><path fill="none" stroke="none"/><text fill="#000000" stroke="none" font-family="Arial" font-size="13px" font-style="normal" font-weight="bold" text-decoration="none" x="102.516845703125" y="555">MoveCard</text></g></g><g transform="translate(-6,-6) scale(1,1)"><g><path fill="none" stroke="none"/><text fill="#000000" stroke="none" font-family="Arial" font-size="13px" font-style="normal" font-weight="normal" text-decoration="none" x="60.260498046875" y="570">(from InGameUseCases)</text></g></g><g transform="translate(-6,-6) scale(1,1)"><path fill="none" stroke="#000000" d="M 551 454 L 288 497 L 207 527" stroke-miterlimit="10" stroke-dasharray="3"/></g><g transform="translate(-6,-6) scale(1,1)"><path fill="none" stroke="#000000" d="M 215.06800980561633 519.5228870694312 L 207 527 L 217.99206170113365 527.417827187328" stroke-miterlimit="10"/></g><g transform="translate(-6,-6) scale(1,1)"><g><path fill="none" stroke="none"/><text fill="#000000" stroke="none" font-family="Arial" font-size="13px" font-style="normal" font-weight="normal" text-decoration="none" x="234.5" y="535.5">«extend»</text></g></g><g transform="translate(-6,-6) scale(1,1)"><path fill="none" stroke="#000000" d="M 287 454 L 232 464 L 163 527" stroke-miterlimit="10" stroke-dasharray="3"/></g><g transform="translate(-6,-6) scale(1,1)"><path fill="none" stroke="#000000" d="M 167.6666391016781 517.0389518877435 L 163 527 L 173.3433368220489 523.2562874862449" stroke-miterlimit="10"/></g><g transform="translate(-6,-6) scale(1,1)"><g><path fill="none" stroke="none"/><text fill="#000000" stroke="none" font-family="Arial" font-size="13px" font-style="normal" font-weight="normal" text-decoration="none" x="141.5" y="487.5">«extend»</text></g></g><g transform="translate(-6,-6) scale(1,1)"><path fill="#C0C0C0" stroke="none" d="M 863 682.5 C 863 667.312168 914.7111056 655 978.5 655 C 1042.2888944000001 655 1094 667.312168 1094 682.5 C 1094 697.687832 1042.2888944000001 710 978.5 710 C 914.7111056 710 863 697.687832 863 682.5 Z" opacity="0.2"/></g><g transform="translate(-6,-6) scale(1,1)"><path fill="#ffffff" stroke="none" d="M 856 675.5 C 856 660.312168 907.7111056 648 971.5 648 C 1035.2888944000001 648 1087 660.312168 1087 675.5 C 1087 690.687832 1035.2888944000001 703 971.5 703 C 907.7111056 703 856 690.687832 856 675.5 Z"/></g><g transform="translate(-6,-6) scale(1,1)"><path fill="none" stroke="#000000" d="M 856 675.5 C 856 660.312168 907.7111056 648 971.5 648 C 1035.2888944000001 648 1087 660.312168 1087 675.5 C 1087 690.687832 1035.2888944000001 703 971.5 703 C 907.7111056 703 856 690.687832 856 675.5 Z" stroke-miterlimit="10"/></g><g transform="translate(-6,-6) scale(1,1)"><g><path fill="none" stroke="none"/><text fill="#000000" stroke="none" font-family="Arial" font-size="13px" font-style="normal" font-weight="bold" text-decoration="none" x="940.4345703125" y="675">StartDemo</text></g></g><g transform="translate(-6,-6) scale(1,1)"><g><path fill="none" stroke="none"/><text fill="#000000" stroke="none" font-family="Arial" font-size="13px" font-style="normal" font-weight="normal" text-decoration="none" x="894.20458984375" y="690">(from OutGameUseCases)</text></g></g><g transform="translate(-6,-6) scale(1,1)"><path fill="#C0C0C0" stroke="none" d="M 871 250.5 C 871 235.31216799999999 922.7111056 223 986.5 223 C 1050.2888944000001 223 1102 235.31216799999999 1102 250.5 C 1102 265.687832 1050.2888944000001 278 986.5 278 C 922.7111056 278 871 265.687832 871 250.5 Z" opacity="0.2"/></g><g transform="translate(-6,-6) scale(1,1)"><path fill="#ffffff" stroke="none" d="M 864 243.5 C 864 228.31216799999999 915.7111056 216 979.5 216 C 1043.2888944000001 216 1095 228.31216799999999 1095 243.5 C 1095 258.687832 1043.2888944000001 271 979.5 271 C 915.7111056 271 864 258.687832 864 243.5 Z"/></g><g transform="translate(-6,-6) scale(1,1)"><path fill="none" stroke="#000000" d="M 864 243.5 C 864 228.31216799999999 915.7111056 216 979.5 216 C 1043.2888944000001 216 1095 228.31216799999999 1095 243.5 C 1095 258.687832 1043.2888944000001 271 979.5 271 C 915.7111056 271 864 258.687832 864 243.5 Z" stroke-miterlimit="10"/></g><g transform="translate(-6,-6) scale(1,1)"><g><path fill="none" stroke="none"/><text fill="#000000" stroke="none" font-family="Arial" font-size="13px" font-style="normal" font-weight="bold" text-decoration="none" x="948.07275390625" y="243">StartGame</text></g></g><g transform="translate(-6,-6) scale(1,1)"><g><path fill="none" stroke="none"/><text fill="#000000" stroke="none" font-family="Arial" font-size="13px" font-style="normal" font-weight="normal" text-decoration="none" x="902.20458984375" y="258">(from OutGameUseCases)</text></g></g><g transform="translate(-6,-6) scale(1,1)"><path fill="#ffffff" stroke="none" d="M 272 136 L 1005 136 L 1015 146 L 1015 176 L 272 176 L 272 136"/></g><g transform="translate(-6,-6) scale(1,1)"><path fill="none" stroke="#000000" d="M 272 136 L 1005 136 L 1015 146 L 1015 176 L 272 176 L 272 136 L 272 136" stroke-miterlimit="10"/></g><g transform="translate(-6,-6) scale(1,1)"><path fill="none" stroke="#000000" d="M 1005 136 L 1005 146 L 1015 146 L 1005 136" stroke-miterlimit="10"/></g><g transform="translate(-6,-6) scale(1,1)"><g><path fill="none" stroke="none"/><text fill="#000000" stroke="none" font-family="Arial" font-size="15px" font-style="normal" font-weight="normal" text-decoration="none" x="277" y="156">1st Iteration (Construction Phase): Text persistance, undo and start game (try web control to drag cards)</text></g></g><g transform="translate(-6,-6) scale(1,1)"><path fill="#ffffff" stroke="none" d="M 280 296 L 1085 296 L 1095 306 L 1095 336 L 280 336 L 280 296"/></g><g transform="translate(-6,-6) scale(1,1)"><path fill="none" stroke="#000000" d="M 280 296 L 1085 296 L 1095 306 L 1095 336 L 280 336 L 280 296 L 280 296" stroke-miterlimit="10"/></g><g transform="translate(-6,-6) scale(1,1)"><path fill="none" stroke="#000000" d="M 1085 296 L 1085 306 L 1095 306 L 1085 296" stroke-miterlimit="10"/></g><g transform="translate(-6,-6) scale(1,1)"><g><path fill="none" stroke="none"/><text fill="#000000" stroke="none" font-family="Arial" font-size="15px" font-style="normal" font-weight="normal" text-decoration="none" x="285" y="316">2nd Iteration (Construction Phase): Movements from waste to Foundation, between tableaus and recycleCards single</text><text fill="#000000" stroke="none" font-family="Arial" font-size="15px" font-style="normal" font-weight="normal" text-decoration="none" x="285" y="331">and three cards</text></g></g><g transform="translate(-6,-6) scale(1,1)"><path fill="#C0C0C0" stroke="none" d="M 295 682.5 C 295 667.312168 351.4121152 655 421 655 C 490.5878848 655 547 667.312168 547 682.5 C 547 697.687832 490.5878848 710 421 710 C 351.4121152 710 295 697.687832 295 682.5 Z" opacity="0.2"/></g><g transform="translate(-6,-6) scale(1,1)"><path fill="#ffffff" stroke="none" d="M 288 675.5 C 288 660.312168 344.4121152 648 414 648 C 483.5878848 648 540 660.312168 540 675.5 C 540 690.687832 483.5878848 703 414 703 C 344.4121152 703 288 690.687832 288 675.5 Z"/></g><g transform="translate(-6,-6) scale(1,1)"><path fill="none" stroke="#000000" d="M 288 675.5 C 288 660.312168 344.4121152 648 414 648 C 483.5878848 648 540 660.312168 540 675.5 C 540 690.687832 483.5878848 703 414 703 C 344.4121152 703 288 690.687832 288 675.5 Z" stroke-miterlimit="10"/></g><g transform="translate(-6,-6) scale(1,1)"><g><path fill="none" stroke="none"/><text fill="#000000" stroke="none" font-family="Arial" font-size="13px" font-style="normal" font-weight="bold" text-decoration="none" x="334.505126953125" y="675">MoveTableauToFoundation</text></g></g><g transform="translate(-6,-6) scale(1,1)"><g><path fill="none" stroke="none"/><text fill="#000000" stroke="none" font-family="Arial" font-size="13px" font-style="normal" font-weight="normal" text-decoration="none" x="341.760498046875" y="690">(from InGameUseCases)</text></g></g><g transform="translate(-6,-6) scale(1,1)"><path fill="none" stroke="#000000" d="M 287 658 L 216 648 L 158 584" stroke-miterlimit="10" stroke-dasharray="3"/></g><g transform="translate(-6,-6) scale(1,1)"><path fill="none" stroke="#000000" d="M 167.94363130324578 588.7036365192382 L 158 584 L 161.7052358451539 594.357182403134" stroke-miterlimit="10"/></g><g transform="translate(-6,-6) scale(1,1)"><g><path fill="none" stroke="none"/><text fill="#000000" stroke="none" font-family="Arial" font-size="13px" font-style="normal" font-weight="normal" text-decoration="none" x="256.5" y="690.5">«extend»</text></g></g><g transform="translate(-6,-6) scale(1,1)"><path fill="#C0C0C0" stroke="none" d="M 591 682.5 C 591 667.312168 639.5770992 655 699.5 655 C 759.4229008 655 808 667.312168 808 682.5 C 808 697.687832 759.4229008 710 699.5 710 C 639.5770992 710 591 697.687832 591 682.5 Z" opacity="0.2"/></g><g transform="translate(-6,-6) scale(1,1)"><path fill="#ffffff" stroke="none" d="M 584 675.5 C 584 660.312168 632.5770992 648 692.5 648 C 752.4229008 648 801 660.312168 801 675.5 C 801 690.687832 752.4229008 703 692.5 703 C 632.5770992 703 584 690.687832 584 675.5 Z"/></g><g transform="translate(-6,-6) scale(1,1)"><path fill="none" stroke="#000000" d="M 584 675.5 C 584 660.312168 632.5770992 648 692.5 648 C 752.4229008 648 801 660.312168 801 675.5 C 801 690.687832 752.4229008 703 692.5 703 C 632.5770992 703 584 690.687832 584 675.5 Z" stroke-miterlimit="10"/></g><g transform="translate(-6,-6) scale(1,1)"><g><path fill="none" stroke="none"/><text fill="#000000" stroke="none" font-family="Arial" font-size="13px" font-style="normal" font-weight="bold" text-decoration="none" x="627.109619140625" y="675">MoveWasteToTableau</text></g></g><g transform="translate(-6,-6) scale(1,1)"><g><path fill="none" stroke="none"/><text fill="#000000" stroke="none" font-family="Arial" font-size="13px" font-style="normal" font-weight="normal" text-decoration="none" x="620.260498046875" y="690">(from InGameUseCases)</text></g></g><g transform="translate(-6,-6) scale(1,1)"><path fill="none" stroke="#000000" d="M 583 662 L 264 624 L 187 584" stroke-miterlimit="10" stroke-dasharray="3"/></g><g transform="translate(-6,-6) scale(1,1)"><path fill="none" stroke="#000000" d="M 197.9589576108939 584.9493408674605 L 187 584 L 194.07786787636022 592.4204386064378" stroke-miterlimit="10"/></g><g transform="translate(-6,-6) scale(1,1)"><g><path fill="none" stroke="none"/><text fill="#000000" stroke="none" font-family="Arial" font-size="13px" font-style="normal" font-weight="normal" text-decoration="none" x="256.5" y="621.5">«extend»</text></g></g><g transform="translate(-6,-6) scale(1,1)"><path fill="#ffffff" stroke="none" d="M 288 536 L 1117 536 L 1127 546 L 1127 576 L 288 576 L 288 536"/></g><g transform="translate(-6,-6) scale(1,1)"><path fill="none" stroke="#000000" d="M 288 536 L 1117 536 L 1127 546 L 1127 576 L 288 576 L 288 536 L 288 536" stroke-miterlimit="10"/></g><g transform="translate(-6,-6) scale(1,1)"><path fill="none" stroke="#000000" d="M 1117 536 L 1117 546 L 1127 546 L 1117 536" stroke-miterlimit="10"/></g><g transform="translate(-6,-6) scale(1,1)"><g><path fill="none" stroke="none"/><text fill="#000000" stroke="none" font-family="Arial" font-size="15px" font-style="normal" font-weight="normal" text-decoration="none" x="293" y="556">3rd Iteration (Construction Phase): Movements from waste to Tableau, Tableau To foundation and start game (DemoMode)</text><text fill="#000000" stroke="none" font-family="Arial" font-size="15px" font-style="normal" font-weight="normal" text-decoration="none" x="293" y="571">try web controls like drag</text></g></g><g transform="translate(-6,-6) scale(1,1)"><path fill="#ffffff" stroke="none" d="M 280 760 L 1109 760 L 1119 770 L 1119 800 L 280 800 L 280 760"/></g><g transform="translate(-6,-6) scale(1,1)"><path fill="none" stroke="#000000" d="M 280 760 L 1109 760 L 1119 770 L 1119 800 L 280 800 L 280 760 L 280 760" stroke-miterlimit="10"/></g><g transform="translate(-6,-6) scale(1,1)"><path fill="none" stroke="#000000" d="M 1109 760 L 1109 770 L 1119 770 L 1109 760" stroke-miterlimit="10"/></g><g transform="translate(-6,-6) scale(1,1)"><g><path fill="none" stroke="none"/><text fill="#000000" stroke="none" font-family="Arial" font-size="15px" font-style="normal" font-weight="normal" text-decoration="none" x="285" y="780">4rd Iteration (Construction Phase): Finish all use cases, load, exit and new Game among others</text></g></g><g transform="translate(-6,-6) scale(1,1)"><path fill="#C0C0C0" stroke="none" d="M 319 869.5 C 319 854.312168 370.7111056 842 434.5 842 C 498.2888944 842 550 854.312168 550 869.5 C 550 884.687832 498.2888944 897 434.5 897 C 370.7111056 897 319 884.687832 319 869.5 Z" opacity="0.2"/></g><g transform="translate(-6,-6) scale(1,1)"><path fill="#ffffff" stroke="none" d="M 312 862.5 C 312 847.312168 363.7111056 835 427.5 835 C 491.2888944 835 543 847.312168 543 862.5 C 543 877.687832 491.2888944 890 427.5 890 C 363.7111056 890 312 877.687832 312 862.5 Z"/></g><g transform="translate(-6,-6) scale(1,1)"><path fill="none" stroke="#000000" d="M 312 862.5 C 312 847.312168 363.7111056 835 427.5 835 C 491.2888944 835 543 847.312168 543 862.5 C 543 877.687832 491.2888944 890 427.5 890 C 363.7111056 890 312 877.687832 312 862.5 Z" stroke-miterlimit="10"/></g><g transform="translate(-6,-6) scale(1,1)"><g><path fill="none" stroke="none"/><text fill="#000000" stroke="none" font-family="Arial" font-size="13px" font-style="normal" font-weight="bold" text-decoration="none" x="395.339599609375" y="862">LoadGame</text></g></g><g transform="translate(-6,-6) scale(1,1)"><g><path fill="none" stroke="none"/><text fill="#000000" stroke="none" font-family="Arial" font-size="13px" font-style="normal" font-weight="normal" text-decoration="none" x="350.20458984375" y="877">(from OutGameUseCases)</text></g></g><g transform="translate(-6,-6) scale(1,1)"><path fill="#C0C0C0" stroke="none" d="M 599 866.5 C 599 851.312168 650.7111056 839 714.5 839 C 778.2888944 839 830 851.312168 830 866.5 C 830 881.687832 778.2888944 894 714.5 894 C 650.7111056 894 599 881.687832 599 866.5 Z" opacity="0.2"/></g><g transform="translate(-6,-6) scale(1,1)"><path fill="#ffffff" stroke="none" d="M 592 859.5 C 592 844.312168 643.7111056 832 707.5 832 C 771.2888944 832 823 844.312168 823 859.5 C 823 874.687832 771.2888944 887 707.5 887 C 643.7111056 887 592 874.687832 592 859.5 Z"/></g><g transform="translate(-6,-6) scale(1,1)"><path fill="none" stroke="#000000" d="M 592 859.5 C 592 844.312168 643.7111056 832 707.5 832 C 771.2888944 832 823 844.312168 823 859.5 C 823 874.687832 771.2888944 887 707.5 887 C 643.7111056 887 592 874.687832 592 859.5 Z" stroke-miterlimit="10"/></g><g transform="translate(-6,-6) scale(1,1)"><g><path fill="none" stroke="none"/><text fill="#000000" stroke="none" font-family="Arial" font-size="13px" font-style="normal" font-weight="bold" text-decoration="none" x="679.6845703125" y="859">exitGame</text></g></g><g transform="translate(-6,-6) scale(1,1)"><g><path fill="none" stroke="none"/><text fill="#000000" stroke="none" font-family="Arial" font-size="13px" font-style="normal" font-weight="normal" text-decoration="none" x="630.20458984375" y="874">(from OutGameUseCases)</text></g></g><g transform="translate(-6,-6) scale(1,1)"><path fill="#C0C0C0" stroke="none" d="M 903 874.5 C 903 859.312168 954.7111056 847 1018.5 847 C 1082.2888944000001 847 1134 859.312168 1134 874.5 C 1134 889.687832 1082.2888944000001 902 1018.5 902 C 954.7111056 902 903 889.687832 903 874.5 Z" opacity="0.2"/></g><g transform="translate(-6,-6) scale(1,1)"><path fill="#ffffff" stroke="none" d="M 896 867.5 C 896 852.312168 947.7111056 840 1011.5 840 C 1075.2888944000001 840 1127 852.312168 1127 867.5 C 1127 882.687832 1075.2888944000001 895 1011.5 895 C 947.7111056 895 896 882.687832 896 867.5 Z"/></g><g transform="translate(-6,-6) scale(1,1)"><path fill="none" stroke="#000000" d="M 896 867.5 C 896 852.312168 947.7111056 840 1011.5 840 C 1075.2888944000001 840 1127 852.312168 1127 867.5 C 1127 882.687832 1075.2888944000001 895 1011.5 895 C 947.7111056 895 896 882.687832 896 867.5 Z" stroke-miterlimit="10"/></g><g transform="translate(-6,-6) scale(1,1)"><g><path fill="none" stroke="none"/><text fill="#000000" stroke="none" font-family="Arial" font-size="13px" font-style="normal" font-weight="bold" text-decoration="none" x="980.79638671875" y="867">NewGame</text></g></g><g transform="translate(-6,-6) scale(1,1)"><g><path fill="none" stroke="none"/><text fill="#000000" stroke="none" font-family="Arial" font-size="13px" font-style="normal" font-weight="normal" text-decoration="none" x="934.20458984375" y="882">(from OutGameUseCases)</text></g></g><g transform="translate(-6,-6) scale(1,1)"><path fill="#C0C0C0" stroke="none" d="M 1511 514.5 C 1511 499.312168 1562.7111055999999 487 1626.5 487 C 1690.2888944000001 487 1742 499.312168 1742 514.5 C 1742 529.687832 1690.2888944000001 542 1626.5 542 C 1562.7111055999999 542 1511 529.687832 1511 514.5 Z" opacity="0.2"/></g><g transform="translate(-6,-6) scale(1,1)"><path fill="#ffffff" stroke="none" d="M 1504 507.5 C 1504 492.312168 1555.7111055999999 480 1619.5 480 C 1683.2888944000001 480 1735 492.312168 1735 507.5 C 1735 522.687832 1683.2888944000001 535 1619.5 535 C 1555.7111055999999 535 1504 522.687832 1504 507.5 Z"/></g><g transform="translate(-6,-6) scale(1,1)"><path fill="none" stroke="#000000" d="M 1504 507.5 C 1504 492.312168 1555.7111055999999 480 1619.5 480 C 1683.2888944000001 480 1735 492.312168 1735 507.5 C 1735 522.687832 1683.2888944000001 535 1619.5 535 C 1555.7111055999999 535 1504 522.687832 1504 507.5 Z" stroke-miterlimit="10"/></g><g transform="translate(-6,-6) scale(1,1)"><g><path fill="none" stroke="none"/><text fill="#000000" stroke="none" font-family="Arial" font-size="13px" font-style="normal" font-weight="bold" text-decoration="none" x="1567.474609375" y="507">SelectGameMode</text></g></g><g transform="translate(-6,-6) scale(1,1)"><g><path fill="none" stroke="none"/><text fill="#000000" stroke="none" font-family="Arial" font-size="13px" font-style="normal" font-weight="normal" text-decoration="none" x="1542.20458984375" y="522">(from OutGameUseCases)</text></g></g><g transform="translate(-6,-6) scale(1,1)"><path fill="none" stroke="#000000" d="M 1049 272 L 1551 479" stroke-miterlimit="10" stroke-dasharray="3"/></g><g transform="translate(-6,-6) scale(1,1)"><path fill="none" stroke="#000000" d="M 1540.0000139253084 479.0175030451641 L 1551 479 L 1543.209458731701 471.2342117755549" stroke-miterlimit="10"/></g><g transform="translate(-6,-6) scale(1,1)"><g><path fill="none" stroke="none"/><text fill="#000000" stroke="none" font-family="Arial" font-size="13px" font-style="normal" font-weight="normal" text-decoration="none" x="1283.5" y="353.5">«include»</text></g></g><g transform="translate(-6,-6) scale(1,1)"><path fill="none" stroke="#000000" d="M 1079 647 L 1507 536" stroke-miterlimit="10" stroke-dasharray="3"/></g><g transform="translate(-6,-6) scale(1,1)"><path fill="none" stroke="#000000" d="M 1498.219529149808 542.6259589229734 L 1507 536 L 1496.1060090335204 534.4765300061166" stroke-miterlimit="10"/></g><g transform="translate(-6,-6) scale(1,1)"><g><path fill="none" stroke="none"/><text fill="#000000" stroke="none" font-family="Arial" font-size="13px" font-style="normal" font-weight="normal" text-decoration="none" x="1258.5" y="567.5">«extend»</text></g></g></g></svg>