<svg version="1.1" xmlns="http://www.w3.org/2000/svg" xmlns:xlink="http://www.w3.org/1999/xlink" width="978.62060546875" height="619"><defs/><g><g transform="translate(-14,-6) scale(1,1)"><rect fill="#ffffff" stroke="none" x="336" y="16" width="103.39453125" height="22"/></g><g transform="translate(-14,-6) scale(1,1)"><path fill="none" stroke="#000000" d="M 336 16 L 439.39453125 16 L 439.39453125 38 L 336 38 L 336 16 Z Z" stroke-miterlimit="10"/></g><g transform="translate(-14,-6) scale(1,1)"><path fill="none" stroke="#000000" d="M 368.39453125 16 L 368.39453125 38" stroke-miterlimit="10"/></g><g transform="translate(-14,-6) scale(1,1)"><g><path fill="none" stroke="none"/><text fill="#000000" stroke="none" font-family="Arial" font-size="13px" font-style="normal" font-weight="normal" text-decoration="none" x="374.3095703125" y="33.5">4+1 views</text></g></g><g transform="translate(-14,-6) scale(1,1)"><g><path fill="none" stroke="none"/><text fill="#000000" stroke="none" font-family="Arial" font-size="13px" font-style="normal" font-weight="bold" text-decoration="none" x="342.444091796875" y="33.5">link</text></g></g><g transform="translate(-14,-6) scale(1,1)"><rect fill="#ffffff" stroke="none" x="200" y="16" width="124.0380859375" height="22"/></g><g transform="translate(-14,-6) scale(1,1)"><path fill="none" stroke="#000000" d="M 200 16 L 324.0380859375 16 L 324.0380859375 38 L 200 38 L 200 16 Z Z" stroke-miterlimit="10"/></g><g transform="translate(-14,-6) scale(1,1)"><path fill="none" stroke="#000000" d="M 232.39453125 16 L 232.39453125 38" stroke-miterlimit="10"/></g><g transform="translate(-14,-6) scale(1,1)"><g><path fill="none" stroke="none"/><text fill="#000000" stroke="none" font-family="Arial" font-size="13px" font-style="normal" font-weight="normal" text-decoration="none" x="236.89453125" y="33.5">UseCaseView</text></g></g><g transform="translate(-14,-6) scale(1,1)"><g><path fill="none" stroke="none"/><text fill="#000000" stroke="none" font-family="Arial" font-size="13px" font-style="normal" font-weight="bold" text-decoration="none" x="206.444091796875" y="33.5">link</text></g></g><g transform="translate(-14,-6) scale(1,1)"><rect fill="#ffffff" stroke="none" x="24" y="16" width="169.56982421875" height="22"/></g><g transform="translate(-14,-6) scale(1,1)"><path fill="none" stroke="#000000" d="M 24 16 L 193.56982421875 16 L 193.56982421875 38 L 24 38 L 24 16 Z Z" stroke-miterlimit="10"/></g><g transform="translate(-14,-6) scale(1,1)"><path fill="none" stroke="#000000" d="M 56.39453125 16 L 56.39453125 38" stroke-miterlimit="10"/></g><g transform="translate(-14,-6) scale(1,1)"><g><path fill="none" stroke="none"/><text fill="#000000" stroke="none" font-family="Arial" font-size="13px" font-style="normal" font-weight="normal" text-decoration="none" x="60.89453125" y="33.5">UseCaseSpecification</text></g></g><g transform="translate(-14,-6) scale(1,1)"><g><path fill="none" stroke="none"/><text fill="#000000" stroke="none" font-family="Arial" font-size="13px" font-style="normal" font-weight="bold" text-decoration="none" x="30.444091796875" y="33.5">link</text></g></g><g transform="translate(-14,-6) scale(1,1)"><path fill="#C0C0C0" stroke="none" d="M 95 360.5 C 95 355.2532944 99.2532944 351 104.5 351 C 109.7467056 351 114 355.2532944 114 360.5 C 114 365.7467056 109.7467056 370 104.5 370 C 99.2532944 370 95 365.7467056 95 360.5 Z" opacity="0.2"/></g><g transform="translate(-14,-6) scale(1,1)"><path fill="#000000" stroke="none" d="M 88 353.5 C 88 348.2532944 92.2532944 344 97.5 344 C 102.7467056 344 107 348.2532944 107 353.5 C 107 358.7467056 102.7467056 363 97.5 363 C 92.2532944 363 88 358.7467056 88 353.5 Z"/></g><g transform="translate(-14,-6) scale(1,1)"><path fill="#C0C0C0" stroke="none" d="M 209 303 L 333 303 Q 343 303 343 313 L 343 413 Q 343 423 333 423 L 209 423 Q 199 423 199 413 L 199 313 Q 199 303 209 303 Z" opacity="0.2"/></g><g transform="translate(-14,-6) scale(1,1)"><path fill="#ffffff" stroke="none" d="M 202 296 L 326 296 Q 336 296 336 306 L 336 406 Q 336 416 326 416 L 202 416 Q 192 416 192 406 L 192 306 Q 192 296 202 296 Z"/></g><g transform="translate(-14,-6) scale(1,1)"><path fill="none" stroke="#000000" d="M 202 296 L 326 296 Q 336 296 336 306 L 336 406 Q 336 416 326 416 L 202 416 Q 192 416 192 406 L 192 306 Q 192 296 202 296 Z" stroke-miterlimit="10"/></g><g transform="translate(-14,-6) scale(1,1)"><g><path fill="none" stroke="none"/><text fill="#000000" stroke="none" font-family="Arial" font-size="13px" font-style="normal" font-weight="bold" text-decoration="none" x="234.74365234375" y="315.5">IN_GAME</text></g></g><g transform="translate(-14,-6) scale(1,1)"><path fill="none" stroke="#000000" d="M 107 355 L 192 355" stroke-miterlimit="10"/></g><g transform="translate(-14,-6) scale(1,1)"><path fill="none" stroke="#000000" d="M 181.83732514237585 359.209517756016 L 192 355 L 181.83732514237585 350.790482243984" stroke-miterlimit="10"/></g><g transform="translate(-14,-6) scale(1,1)"><path fill="#C0C0C0" stroke="none" d="M 673 343 L 712 343 Q 722 343 722 353 L 722 372 Q 722 382 712 382 L 673 382 Q 663 382 663 372 L 663 353 Q 663 343 673 343 Z" opacity="0.2"/></g><g transform="translate(-14,-6) scale(1,1)"><path fill="#ffffff" stroke="none" d="M 666 336 L 705 336 Q 715 336 715 346 L 715 365 Q 715 375 705 375 L 666 375 Q 656 375 656 365 L 656 346 Q 656 336 666 336 Z"/></g><g transform="translate(-14,-6) scale(1,1)"><path fill="none" stroke="#000000" d="M 666 336 L 705 336 Q 715 336 715 346 L 715 365 Q 715 375 705 375 L 666 375 Q 656 375 656 365 L 656 346 Q 656 336 666 336 Z" stroke-miterlimit="10"/></g><g transform="translate(-14,-6) scale(1,1)"><g><path fill="none" stroke="none"/><text fill="#000000" stroke="none" font-family="Arial" font-size="13px" font-style="normal" font-weight="bold" text-decoration="none" x="685.5" y="355.5"></text></g></g><g transform="translate(-14,-6) scale(1,1)"><path fill="#C0C0C0" stroke="none" d="M 671 471.5 L 695.5 455 L 719 471.5 L 695.5 487 L 671 471.5" opacity="0.2"/></g><g transform="translate(-14,-6) scale(1,1)"><path fill="#ffffff" stroke="none" d="M 664 464 L 688 448 L 712 464 L 688 480 L 664 464"/></g><g transform="translate(-14,-6) scale(1,1)"><path fill="none" stroke="#000000" d="M 664 464 L 688 448 L 712 464 L 688 480 L 664 464 L 664 464" stroke-miterlimit="10"/></g><g transform="translate(-14,-6) scale(1,1)"><path fill="none" stroke="#000000" d="M 337 356 L 655 355" stroke-miterlimit="10"/></g><g transform="translate(-14,-6) scale(1,1)"><path fill="none" stroke="#000000" d="M 644.8506128023523 359.2414548815502 L 655 355 L 644.8241379788145 350.8224609964964" stroke-miterlimit="10"/></g><g transform="translate(-14,-6) scale(1,1)"><g><path fill="none" stroke="none"/><text fill="#000000" stroke="none" font-family="Arial" font-size="13px" font-style="normal" font-weight="normal" text-decoration="none" x="358.5" y="346.5">user wants to move waste card to some tableau</text></g></g><g transform="translate(-14,-6) scale(1,1)"><path fill="none" stroke="#000000" d="M 686 376 L 688 447" stroke-miterlimit="10"/></g><g transform="translate(-14,-6) scale(1,1)"><path fill="none" stroke="#000000" d="M 683.5059923418332 436.95988569943853 L 688 447 L 691.9216896160211 436.722823804391" stroke-miterlimit="10"/></g><g transform="translate(-14,-6) scale(1,1)"><g><path fill="none" stroke="none"/><text fill="#000000" stroke="none" font-family="Arial" font-size="13px" font-style="normal" font-weight="normal" text-decoration="none" x="614.5" y="416.5">user selects target tableau</text></g></g><g transform="translate(-14,-6) scale(1,1)"><path fill="#C0C0C0" stroke="none" d="M 665 583 L 725 583 Q 735 583 735 593 L 735 612 Q 735 622 725 622 L 665 622 Q 655 622 655 612 L 655 593 Q 655 583 665 583 Z" opacity="0.2"/></g><g transform="translate(-14,-6) scale(1,1)"><path fill="#ffffff" stroke="none" d="M 658 576 L 718 576 Q 728 576 728 586 L 728 605 Q 728 615 718 615 L 658 615 Q 648 615 648 605 L 648 586 Q 648 576 658 576 Z"/></g><g transform="translate(-14,-6) scale(1,1)"><path fill="none" stroke="#000000" d="M 658 576 L 718 576 Q 728 576 728 586 L 728 605 Q 728 615 718 615 L 658 615 Q 648 615 648 605 L 648 586 Q 648 576 658 576 Z" stroke-miterlimit="10"/></g><g transform="translate(-14,-6) scale(1,1)"><g><path fill="none" stroke="none"/><text fill="#000000" stroke="none" font-family="Arial" font-size="13px" font-style="normal" font-weight="bold" text-decoration="none" x="688" y="595.5"></text></g></g><g transform="translate(-14,-6) scale(1,1)"><path fill="none" stroke="#000000" d="M 688 480 L 688 576" stroke-miterlimit="10"/></g><g transform="translate(-14,-6) scale(1,1)"><path fill="none" stroke="#000000" d="M 683.790482243984 565.8373251423759 L 688 576 L 692.209517756016 565.8373251423759" stroke-miterlimit="10"/></g><g transform="translate(-14,-6) scale(1,1)"><g><path fill="none" stroke="none"/><text fill="#000000" stroke="none" font-family="Arial" font-size="13px" font-style="normal" font-weight="normal" text-decoration="none" x="630.5" y="522.5"> [allowed]</text></g></g><g transform="translate(-14,-6) scale(1,1)"><path fill="none" stroke="#000000" d="M 728 595 L 952 595 L 952 216 L 240 216 L 240 296" stroke-miterlimit="10"/></g><g transform="translate(-14,-6) scale(1,1)"><path fill="none" stroke="#000000" d="M 235.790482243984 285.83732514237585 L 240 296 L 244.209517756016 285.83732514237585" stroke-miterlimit="10"/></g><g transform="translate(-14,-6) scale(1,1)"><g><path fill="none" stroke="none"/><text fill="#000000" stroke="none" font-family="Arial" font-size="13px" font-style="normal" font-weight="normal" text-decoration="none" x="742.5" y="588.5">move card from waste to selected tableau</text></g></g><g transform="translate(-14,-6) scale(1,1)"><path fill="none" stroke="#000000" d="M 712 472 L 856 472 L 856 256 L 264 256 L 264 296" stroke-miterlimit="10"/></g><g transform="translate(-14,-6) scale(1,1)"><path fill="none" stroke="#000000" d="M 259.790482243984 285.83732514237585 L 264 296 L 268.209517756016 285.83732514237585" stroke-miterlimit="10"/></g><g transform="translate(-14,-6) scale(1,1)"><path fill="#C0C0C0" stroke="none" d="M 255 563.5 C 255 556.59644 260.59644 551 267.5 551 C 274.40356 551 280 556.59644 280 563.5 C 280 570.40356 274.40356 576 267.5 576 C 260.59644 576 255 570.40356 255 563.5 Z" opacity="0.2"/></g><g transform="translate(-14,-6) scale(1,1)"><path fill="none" stroke="#000000" d="M 248 556.5 C 248 549.59644 253.59644 544 260.5 544 C 267.40356 544 273 549.59644 273 556.5 C 273 563.40356 267.40356 569 260.5 569 C 253.59644 569 248 563.40356 248 556.5 Z" stroke-miterlimit="10"/></g><g transform="translate(-14,-6) scale(1,1)"><path fill="#000000" stroke="none" d="M 253 556.5 C 253 552.357864 256.357864 549 260.5 549 C 264.642136 549 268 552.357864 268 556.5 C 268 560.642136 264.642136 564 260.5 564 C 256.357864 564 253 560.642136 253 556.5 Z"/></g><g transform="translate(-14,-6) scale(1,1)"><path fill="none" stroke="#000000" d="M 263 417 L 260 543" stroke-miterlimit="10"/></g><g transform="translate(-14,-6) scale(1,1)"><path fill="none" stroke="#000000" d="M 256.0335748038652 532.7400062785854 L 260 543 L 264.45022498208755 532.9404027114002" stroke-miterlimit="10"/></g><g transform="translate(-14,-6) scale(1,1)"><g><path fill="none" stroke="none"/><text fill="#000000" stroke="none" font-family="Arial" font-size="13px" font-style="normal" font-weight="normal" text-decoration="none" x="165.380859375" y="499.5"> [gameover || hasWon || exitMatch]</text></g></g></g></svg>