<svg version="1.1" xmlns="http://www.w3.org/2000/svg" xmlns:xlink="http://www.w3.org/1999/xlink" width="724" height="412"><defs/><g><g transform="translate(2,-14) scale(1,1)"><rect fill="#ffffff" stroke="none" x="8" y="24" width="153" height="22"/></g><g transform="translate(2,-14) scale(1,1)"><path fill="none" stroke="#000000" d="M 8 24 L 161 24 L 161 46 L 8 46 L 8 24 Z Z" stroke-miterlimit="10"/></g><g transform="translate(2,-14) scale(1,1)"><path fill="none" stroke="#000000" d="M 40.39453125 24 L 40.39453125 46" stroke-miterlimit="10"/></g><g transform="translate(2,-14) scale(1,1)"><g><path fill="none" stroke="none"/><text fill="#000000" stroke="none" font-family="Arial" font-size="13px" font-style="normal" font-weight="normal" text-decoration="none" x="45.701416015625" y="41.5">IndexAnalysisView</text></g></g><g transform="translate(2,-14) scale(1,1)"><g><path fill="none" stroke="none"/><text fill="#000000" stroke="none" font-family="Arial" font-size="13px" font-style="normal" font-weight="bold" text-decoration="none" x="14.444091796875" y="41.5">link</text></g></g><g transform="translate(2,-14) scale(1,1)"><rect fill="#ffffff" stroke="none" x="168" y="24" width="143.4453125" height="22"/></g><g transform="translate(2,-14) scale(1,1)"><path fill="none" stroke="#000000" d="M 168 24 L 311.4453125 24 L 311.4453125 46 L 168 46 L 168 24 Z Z" stroke-miterlimit="10"/></g><g transform="translate(2,-14) scale(1,1)"><path fill="none" stroke="#000000" d="M 200.39453125 24 L 200.39453125 46" stroke-miterlimit="10"/></g><g transform="translate(2,-14) scale(1,1)"><g><path fill="none" stroke="none"/><text fill="#000000" stroke="none" font-family="Arial" font-size="13px" font-style="normal" font-weight="normal" text-decoration="none" x="221.87451171875" y="41.5">designView</text></g></g><g transform="translate(2,-14) scale(1,1)"><g><path fill="none" stroke="none"/><text fill="#000000" stroke="none" font-family="Arial" font-size="13px" font-style="normal" font-weight="bold" text-decoration="none" x="174.444091796875" y="41.5">link</text></g></g><g transform="translate(2,-14) scale(1,1)"><rect fill="#ffffff" stroke="none" x="328" y="24" width="103.39453125" height="22"/></g><g transform="translate(2,-14) scale(1,1)"><path fill="none" stroke="#000000" d="M 328 24 L 431.39453125 24 L 431.39453125 46 L 328 46 L 328 24 Z Z" stroke-miterlimit="10"/></g><g transform="translate(2,-14) scale(1,1)"><path fill="none" stroke="#000000" d="M 360.39453125 24 L 360.39453125 46" stroke-miterlimit="10"/></g><g transform="translate(2,-14) scale(1,1)"><g><path fill="none" stroke="none"/><text fill="#000000" stroke="none" font-family="Arial" font-size="13px" font-style="normal" font-weight="normal" text-decoration="none" x="366.3095703125" y="41.5">4+1 views</text></g></g><g transform="translate(2,-14) scale(1,1)"><g><path fill="none" stroke="none"/><text fill="#000000" stroke="none" font-family="Arial" font-size="13px" font-style="normal" font-weight="bold" text-decoration="none" x="334.444091796875" y="41.5">link</text></g></g><g transform="translate(2,-14) scale(1,1)"><rect fill="#C0C0C0" stroke="none" x="111" y="151" width="112" height="15" opacity="0.2"/></g><g transform="translate(2,-14) scale(1,1)"><rect fill="#C0C0C0" stroke="none" x="111" y="165" width="280" height="130" opacity="0.2"/></g><g transform="translate(2,-14) scale(1,1)"><rect fill="#ffffff" stroke="none" x="104" y="159" width="280" height="129"/></g><g transform="translate(2,-14) scale(1,1)"><path fill="none" stroke="#000000" d="M 104 159 L 384 159 L 384 288 L 104 288 L 104 159 Z Z" stroke-miterlimit="10"/></g><g transform="translate(2,-14) scale(1,1)"><rect fill="#ffffff" stroke="none" x="104" y="144" width="112" height="15"/></g><g transform="translate(2,-14) scale(1,1)"><path fill="none" stroke="#000000" d="M 104 144 L 216 144 L 216 159 L 104 159 L 104 144 Z Z" stroke-miterlimit="10"/></g><g transform="translate(2,-14) scale(1,1)"><rect fill="#ffffff" stroke="none" x="104" y="158" width="280" height="130"/></g><g transform="translate(2,-14) scale(1,1)"><path fill="none" stroke="#000000" d="M 104 158 L 384 158 L 384 288 L 104 288 L 104 158 Z Z" stroke-miterlimit="10"/></g><g transform="translate(2,-14) scale(1,1)"><g><path fill="none" stroke="none"/><text fill="#000000" stroke="none" font-family="Arial" font-size="13px" font-style="normal" font-weight="bold" text-decoration="none" x="170.67822265625" y="178.5">MoveFromStockToWaste</text></g></g><g transform="translate(2,-14) scale(1,1)"><rect fill="#C0C0C0" stroke="none" x="447" y="159" width="108.79999999999995" height="15" opacity="0.2"/></g><g transform="translate(2,-14) scale(1,1)"><rect fill="#C0C0C0" stroke="none" x="447" y="173" width="272" height="130" opacity="0.2"/></g><g transform="translate(2,-14) scale(1,1)"><rect fill="#ffffff" stroke="none" x="440" y="167" width="272" height="129"/></g><g transform="translate(2,-14) scale(1,1)"><path fill="none" stroke="#000000" d="M 440 167 L 712 167 L 712 296 L 440 296 L 440 167 Z Z" stroke-miterlimit="10"/></g><g transform="translate(2,-14) scale(1,1)"><rect fill="#ffffff" stroke="none" x="440" y="152" width="108.79999999999995" height="15"/></g><g transform="translate(2,-14) scale(1,1)"><path fill="none" stroke="#000000" d="M 440 152 L 548.8 152 L 548.8 167 L 440 167 L 440 152 Z Z" stroke-miterlimit="10"/></g><g transform="translate(2,-14) scale(1,1)"><rect fill="#ffffff" stroke="none" x="440" y="166" width="272" height="130"/></g><g transform="translate(2,-14) scale(1,1)"><path fill="none" stroke="#000000" d="M 440 166 L 712 166 L 712 296 L 440 296 L 440 166 Z Z" stroke-miterlimit="10"/></g><g transform="translate(2,-14) scale(1,1)"><g><path fill="none" stroke="none"/><text fill="#000000" stroke="none" font-family="Arial" font-size="13px" font-style="normal" font-weight="bold" text-decoration="none" x="490.37646484375" y="186.5">MoveFromTableauToTableau</text></g></g><g transform="translate(2,-14) scale(1,1)"><rect fill="#C0C0C0" stroke="none" x="247" y="327" width="131.2" height="15" opacity="0.2"/></g><g transform="translate(2,-14) scale(1,1)"><rect fill="#C0C0C0" stroke="none" x="247" y="341" width="328" height="82" opacity="0.2"/></g><g transform="translate(2,-14) scale(1,1)"><rect fill="#ffffff" stroke="none" x="240" y="335" width="328" height="81"/></g><g transform="translate(2,-14) scale(1,1)"><path fill="none" stroke="#000000" d="M 240 335 L 568 335 L 568 416 L 240 416 L 240 335 Z Z" stroke-miterlimit="10"/></g><g transform="translate(2,-14) scale(1,1)"><rect fill="#ffffff" stroke="none" x="240" y="320" width="131.2" height="15"/></g><g transform="translate(2,-14) scale(1,1)"><path fill="none" stroke="#000000" d="M 240 320 L 371.2 320 L 371.2 335 L 240 335 L 240 320 Z Z" stroke-miterlimit="10"/></g><g transform="translate(2,-14) scale(1,1)"><rect fill="#ffffff" stroke="none" x="240" y="334" width="328" height="82"/></g><g transform="translate(2,-14) scale(1,1)"><path fill="none" stroke="#000000" d="M 240 334 L 568 334 L 568 416 L 240 416 L 240 334 Z Z" stroke-miterlimit="10"/></g><g transform="translate(2,-14) scale(1,1)"><g><path fill="none" stroke="none"/><text fill="#000000" stroke="none" font-family="Arial" font-size="13px" font-style="normal" font-weight="bold" text-decoration="none" x="323.445068359375" y="354.5">MoveFromWasteToTableau</text></g></g><g transform="translate(2,-14) scale(1,1)"><rect fill="#ffffff" stroke="none" x="112" y="200" width="224" height="22"/></g><g transform="translate(2,-14) scale(1,1)"><path fill="none" stroke="#000000" d="M 112 200 L 336 200 L 336 222 L 112 222 L 112 200 Z Z" stroke-miterlimit="10"/></g><g transform="translate(2,-14) scale(1,1)"><path fill="none" stroke="#000000" d="M 144.39453125 200 L 144.39453125 222" stroke-miterlimit="10"/></g><g transform="translate(2,-14) scale(1,1)"><g><path fill="none" stroke="none"/><text fill="#000000" stroke="none" font-family="Arial" font-size="13px" font-style="normal" font-weight="normal" text-decoration="none" x="149.819580078125" y="217.5">MoveFromStockToWasteClass</text></g></g><g transform="translate(2,-14) scale(1,1)"><g><path fill="none" stroke="none"/><text fill="#000000" stroke="none" font-family="Arial" font-size="13px" font-style="normal" font-weight="bold" text-decoration="none" x="118.444091796875" y="217.5">link</text></g></g><g transform="translate(2,-14) scale(1,1)"><rect fill="#ffffff" stroke="none" x="112" y="240" width="266.2470703125" height="22"/></g><g transform="translate(2,-14) scale(1,1)"><path fill="none" stroke="#000000" d="M 112 240 L 378.2470703125 240 L 378.2470703125 262 L 112 262 L 112 240 Z Z" stroke-miterlimit="10"/></g><g transform="translate(2,-14) scale(1,1)"><path fill="none" stroke="#000000" d="M 144.39453125 240 L 144.39453125 262" stroke-miterlimit="10"/></g><g transform="translate(2,-14) scale(1,1)"><g><path fill="none" stroke="none"/><text fill="#000000" stroke="none" font-family="Arial" font-size="13px" font-style="normal" font-weight="normal" text-decoration="none" x="148.89453125" y="257.5">MoveFromStockToWasteCollaboration</text></g></g><g transform="translate(2,-14) scale(1,1)"><g><path fill="none" stroke="none"/><text fill="#000000" stroke="none" font-family="Arial" font-size="13px" font-style="normal" font-weight="bold" text-decoration="none" x="118.444091796875" y="257.5">link</text></g></g><g transform="translate(2,-14) scale(1,1)"><rect fill="#ffffff" stroke="none" x="448" y="208" width="246.75341796875" height="22"/></g><g transform="translate(2,-14) scale(1,1)"><path fill="none" stroke="#000000" d="M 448 208 L 694.75341796875 208 L 694.75341796875 230 L 448 230 L 448 208 Z Z" stroke-miterlimit="10"/></g><g transform="translate(2,-14) scale(1,1)"><path fill="none" stroke="#000000" d="M 480.39453125 208 L 480.39453125 230" stroke-miterlimit="10"/></g><g transform="translate(2,-14) scale(1,1)"><g><path fill="none" stroke="none"/><text fill="#000000" stroke="none" font-family="Arial" font-size="13px" font-style="normal" font-weight="normal" text-decoration="none" x="484.89453125" y="225.5">MoveFromTableauToTableauClass</text></g></g><g transform="translate(2,-14) scale(1,1)"><g><path fill="none" stroke="none"/><text fill="#000000" stroke="none" font-family="Arial" font-size="13px" font-style="normal" font-weight="bold" text-decoration="none" x="454.444091796875" y="225.5">link</text></g></g><g transform="translate(2,-14) scale(1,1)"><rect fill="#ffffff" stroke="none" x="448" y="248" width="251.1015625" height="22"/></g><g transform="translate(2,-14) scale(1,1)"><path fill="none" stroke="#000000" d="M 448 248 L 699.1015625 248 L 699.1015625 270 L 448 270 L 448 248 Z Z" stroke-miterlimit="10"/></g><g transform="translate(2,-14) scale(1,1)"><path fill="none" stroke="#000000" d="M 480.39453125 248 L 480.39453125 270" stroke-miterlimit="10"/></g><g transform="translate(2,-14) scale(1,1)"><g><path fill="none" stroke="none"/><text fill="#000000" stroke="none" font-family="Arial" font-size="13px" font-style="normal" font-weight="normal" text-decoration="none" x="484.89453125" y="265.5">MoveFromTableauToTableauCollab</text></g></g><g transform="translate(2,-14) scale(1,1)"><g><path fill="none" stroke="none"/><text fill="#000000" stroke="none" font-family="Arial" font-size="13px" font-style="normal" font-weight="bold" text-decoration="none" x="454.444091796875" y="265.5">link</text></g></g><g transform="translate(2,-14) scale(1,1)"><rect fill="#ffffff" stroke="none" x="264" y="368" width="280.71337890625" height="22"/></g><g transform="translate(2,-14) scale(1,1)"><path fill="none" stroke="#000000" d="M 264 368 L 544.71337890625 368 L 544.71337890625 390 L 264 390 L 264 368 Z Z" stroke-miterlimit="10"/></g><g transform="translate(2,-14) scale(1,1)"><path fill="none" stroke="#000000" d="M 296.39453125 368 L 296.39453125 390" stroke-miterlimit="10"/></g><g transform="translate(2,-14) scale(1,1)"><g><path fill="none" stroke="none"/><text fill="#000000" stroke="none" font-family="Arial" font-size="13px" font-style="normal" font-weight="normal" text-decoration="none" x="300.89453125" y="385.5">MoveFromWasteToTableauCollaboration</text></g></g><g transform="translate(2,-14) scale(1,1)"><g><path fill="none" stroke="none"/><text fill="#000000" stroke="none" font-family="Arial" font-size="13px" font-style="normal" font-weight="bold" text-decoration="none" x="270.444091796875" y="385.5">link</text></g></g></g></svg>