<svg version="1.1" xmlns="http://www.w3.org/2000/svg" xmlns:xlink="http://www.w3.org/1999/xlink" width="810.236328125" height="575"><defs/><g><g transform="translate(-6,-6) scale(1,1)"><path fill="none" stroke="#000000" d="M 183.5 270 L 222.5 270 L 222.5 309 L 183.5 309 L 183.5 270 Z Z" stroke-miterlimit="10"/></g><g transform="translate(-6,-6) scale(1,1)"><path fill="none" stroke="#000000" d="M 183.5 270 L 222.5 309" stroke-miterlimit="10"/></g><g transform="translate(-6,-6) scale(1,1)"><path fill="none" stroke="#000000" d="M 222.5 270 L 183.5 309" stroke-miterlimit="10"/></g><g transform="translate(-6,-6) scale(1,1)"><path fill="none" stroke="#000000" d="M 165 349 L 241 349" stroke-miterlimit="10"/></g><g transform="translate(-6,-6) scale(1,1)"><path fill="none" stroke="#000000" d="M 165 359 L 241 359" stroke-miterlimit="10"/></g><g transform="translate(-6,-6) scale(1,1)"><g><path fill="none" stroke="none"/><text fill="#000000" stroke="none" font-family="Arial" font-size="13px" font-style="normal" font-weight="bold" text-decoration="none" x="171.2109375" y="328.5">GameView</text></g></g><g transform="translate(-6,-6) scale(1,1)"><g><path fill="none" stroke="none"/><text fill="#000000" stroke="none" font-family="Arial" font-size="13px" font-style="normal" font-weight="normal" text-decoration="none" x="169.7763671875" y="343.5">(from View)</text></g></g><g transform="translate(-6,-6) scale(1,1)"><path fill="none" stroke="#000000" d="M 342.5 358 L 381.5 358 L 381.5 397 L 342.5 397 L 342.5 358 Z Z" stroke-miterlimit="10"/></g><g transform="translate(-6,-6) scale(1,1)"><path fill="none" stroke="#000000" d="M 342.5 358 L 381.5 397" stroke-miterlimit="10"/></g><g transform="translate(-6,-6) scale(1,1)"><path fill="none" stroke="#000000" d="M 381.5 358 L 342.5 397" stroke-miterlimit="10"/></g><g transform="translate(-6,-6) scale(1,1)"><path fill="none" stroke="#000000" d="M 291 437 L 433 437" stroke-miterlimit="10"/></g><g transform="translate(-6,-6) scale(1,1)"><path fill="none" stroke="#000000" d="M 291 447 L 433 447" stroke-miterlimit="10"/></g><g transform="translate(-6,-6) scale(1,1)"><g><path fill="none" stroke="none"/><text fill="#000000" stroke="none" font-family="Arial" font-size="13px" font-style="normal" font-weight="bold" text-decoration="none" x="299.86279296875" y="416.5">ShowGameController</text></g></g><g transform="translate(-6,-6) scale(1,1)"><g><path fill="none" stroke="none"/><text fill="#000000" stroke="none" font-family="Arial" font-size="13px" font-style="normal" font-weight="normal" text-decoration="none" x="314.687744140625" y="431.5">(from Controller)</text></g></g><g transform="translate(-6,-6) scale(1,1)"><path fill="none" stroke="#000000" d="M 242 341 L 290 367" stroke-miterlimit="10"/></g><g transform="translate(-6,-6) scale(1,1)"><path fill="none" stroke="#000000" d="M 279.05911926849234 365.8610843670736 L 290 367 L 283.0689640098393 358.45829407535604" stroke-miterlimit="10"/></g><g transform="translate(-6,-6) scale(1,1)"><path fill="none" stroke="#000000" d="M 242 341 L 290 367" stroke-miterlimit="10"/></g><g transform="translate(-6,-6) scale(1,1)"><path fill="none" stroke="#000000" d="M 279.05911926849234 365.8610843670736 L 290 367 L 283.0689640098393 358.45829407535604" stroke-miterlimit="10"/></g><g transform="translate(-6,-6) scale(1,1)"><path fill="none" stroke="#000000" d="M 386 192 L 425 192 L 425 231 L 386 231 L 386 192 Z Z" stroke-miterlimit="10"/></g><g transform="translate(-6,-6) scale(1,1)"><path fill="none" stroke="#000000" d="M 386 192 L 425 231" stroke-miterlimit="10"/></g><g transform="translate(-6,-6) scale(1,1)"><path fill="none" stroke="#000000" d="M 425 192 L 386 231" stroke-miterlimit="10"/></g><g transform="translate(-6,-6) scale(1,1)"><path fill="none" stroke="#000000" d="M 280 271 L 531 271" stroke-miterlimit="10"/></g><g transform="translate(-6,-6) scale(1,1)"><path fill="none" stroke="#000000" d="M 280 281 L 531 281" stroke-miterlimit="10"/></g><g transform="translate(-6,-6) scale(1,1)"><g><path fill="none" stroke="none"/><text fill="#000000" stroke="none" font-family="Arial" font-size="13px" font-style="normal" font-weight="bold" text-decoration="none" x="291.69921875" y="250.5">MoveFromTableauToTableauController</text></g></g><g transform="translate(-6,-6) scale(1,1)"><g><path fill="none" stroke="none"/><text fill="#000000" stroke="none" font-family="Arial" font-size="13px" font-style="normal" font-weight="normal" text-decoration="none" x="358.187744140625" y="265.5">(from Controller)</text></g></g><g transform="translate(-6,-6) scale(1,1)"><path fill="none" stroke="#000000" d="M 648.838623046875 324 L 687.838623046875 324 L 687.838623046875 363 L 648.838623046875 363 L 648.838623046875 324 Z Z" stroke-miterlimit="10"/></g><g transform="translate(-6,-6) scale(1,1)"><path fill="none" stroke="#000000" d="M 648.838623046875 324 L 687.838623046875 363" stroke-miterlimit="10"/></g><g transform="translate(-6,-6) scale(1,1)"><path fill="none" stroke="#000000" d="M 687.838623046875 324 L 648.838623046875 363" stroke-miterlimit="10"/></g><g transform="translate(-6,-6) scale(1,1)"><path fill="none" stroke="#000000" d="M 627 403 L 709.67724609375 403" stroke-miterlimit="10"/></g><g transform="translate(-6,-6) scale(1,1)"><path fill="none" stroke="#000000" d="M 627 413 L 709.67724609375 413" stroke-miterlimit="10"/></g><g transform="translate(-6,-6) scale(1,1)"><g><path fill="none" stroke="none"/><text fill="#000000" stroke="none" font-family="Arial" font-size="13px" font-style="normal" font-weight="bold" text-decoration="none" x="634.3818359375" y="382.5">GameEntity</text></g></g><g transform="translate(-6,-6) scale(1,1)"><g><path fill="none" stroke="none"/><text fill="#000000" stroke="none" font-family="Arial" font-size="13px" font-style="normal" font-weight="normal" text-decoration="none" x="631.5" y="397.5">(from Model)</text></g></g><g transform="translate(-6,-6) scale(1,1)"><path fill="none" stroke="#000000" d="M 652 184 L 691 184 L 691 223 L 652 223 L 652 184 Z Z" stroke-miterlimit="10"/></g><g transform="translate(-6,-6) scale(1,1)"><path fill="none" stroke="#000000" d="M 652 184 L 691 223" stroke-miterlimit="10"/></g><g transform="translate(-6,-6) scale(1,1)"><path fill="none" stroke="#000000" d="M 691 184 L 652 223" stroke-miterlimit="10"/></g><g transform="translate(-6,-6) scale(1,1)"><path fill="none" stroke="#000000" d="M 624 263 L 719 263" stroke-miterlimit="10"/></g><g transform="translate(-6,-6) scale(1,1)"><path fill="none" stroke="#000000" d="M 624 273 L 719 273" stroke-miterlimit="10"/></g><g transform="translate(-6,-6) scale(1,1)"><g><path fill="none" stroke="none"/><text fill="#000000" stroke="none" font-family="Arial" font-size="13px" font-style="normal" font-weight="bold" text-decoration="none" x="632.119140625" y="242.5">SessionEntity</text></g></g><g transform="translate(-6,-6) scale(1,1)"><g><path fill="none" stroke="none"/><text fill="#000000" stroke="none" font-family="Arial" font-size="13px" font-style="normal" font-weight="normal" text-decoration="none" x="634.661376953125" y="257.5">(from Model)</text></g></g><g transform="translate(-6,-6) scale(1,1)"><path fill="none" stroke="#000000" d="M 670 284 L 669 323" stroke-miterlimit="10"/></g><g transform="translate(-6,-6) scale(1,1)"><path fill="none" stroke="#000000" d="M 665.0523611490146 312.73276339504196 L 669 323 L 673.4686304262053 312.94856517138015" stroke-miterlimit="10"/></g><g transform="translate(-6,-6) scale(1,1)"><path fill="none" stroke="#000000" d="M 485.838623046875 472 L 524.838623046875 472 L 524.838623046875 511 L 485.838623046875 511 L 485.838623046875 472 Z Z" stroke-miterlimit="10"/></g><g transform="translate(-6,-6) scale(1,1)"><path fill="none" stroke="#000000" d="M 485.838623046875 472 L 524.838623046875 511" stroke-miterlimit="10"/></g><g transform="translate(-6,-6) scale(1,1)"><path fill="none" stroke="#000000" d="M 524.838623046875 472 L 485.838623046875 511" stroke-miterlimit="10"/></g><g transform="translate(-6,-6) scale(1,1)"><path fill="none" stroke="#000000" d="M 464 551 L 546.67724609375 551" stroke-miterlimit="10"/></g><g transform="translate(-6,-6) scale(1,1)"><path fill="none" stroke="#000000" d="M 464 561 L 546.67724609375 561" stroke-miterlimit="10"/></g><g transform="translate(-6,-6) scale(1,1)"><g><path fill="none" stroke="none"/><text fill="#000000" stroke="none" font-family="Arial" font-size="13px" font-style="normal" font-weight="bold" text-decoration="none" x="471.7373046875" y="530.5">BoardEntity</text></g></g><g transform="translate(-6,-6) scale(1,1)"><g><path fill="none" stroke="none"/><text fill="#000000" stroke="none" font-family="Arial" font-size="13px" font-style="normal" font-weight="normal" text-decoration="none" x="468.5" y="545.5">(from Model)</text></g></g><g transform="translate(-6,-6) scale(1,1)"><path fill="none" stroke="#000000" d="M 626 411 L 548 482" stroke-miterlimit="10"/></g><g transform="translate(-6,-6) scale(1,1)"><path fill="none" stroke="#000000" d="M 552.6817950911825 472.0460663693101 L 548 482 L 558.3490230268427 478.2720350873593" stroke-miterlimit="10"/></g><g transform="translate(-6,-6) scale(1,1)"><path fill="none" stroke="#000000" d="M 597.838623046875 472 L 636.838623046875 472 L 636.838623046875 511 L 597.838623046875 511 L 597.838623046875 472 Z Z" stroke-miterlimit="10"/></g><g transform="translate(-6,-6) scale(1,1)"><path fill="none" stroke="#000000" d="M 597.838623046875 472 L 636.838623046875 511" stroke-miterlimit="10"/></g><g transform="translate(-6,-6) scale(1,1)"><path fill="none" stroke="#000000" d="M 636.838623046875 472 L 597.838623046875 511" stroke-miterlimit="10"/></g><g transform="translate(-6,-6) scale(1,1)"><path fill="none" stroke="#000000" d="M 576 551 L 658.67724609375 551" stroke-miterlimit="10"/></g><g transform="translate(-6,-6) scale(1,1)"><path fill="none" stroke="#000000" d="M 576 561 L 658.67724609375 561" stroke-miterlimit="10"/></g><g transform="translate(-6,-6) scale(1,1)"><g><path fill="none" stroke="none"/><text fill="#000000" stroke="none" font-family="Arial" font-size="13px" font-style="normal" font-weight="bold" text-decoration="none" x="586.99365234375" y="530.5">CardEntity</text></g></g><g transform="translate(-6,-6) scale(1,1)"><g><path fill="none" stroke="none"/><text fill="#000000" stroke="none" font-family="Arial" font-size="13px" font-style="normal" font-weight="normal" text-decoration="none" x="580.5" y="545.5">(from Model)</text></g></g><g transform="translate(-6,-6) scale(1,1)"><path fill="none" stroke="#000000" d="M 650 424 L 634 471" stroke-miterlimit="10"/></g><g transform="translate(-6,-6) scale(1,1)"><path fill="none" stroke="#000000" d="M 633.2901226072194 460.02292962183355 L 634 471 L 641.2600017837173 462.7360799797903" stroke-miterlimit="10"/></g><g transform="translate(-6,-6) scale(1,1)"><path fill="none" stroke="#000000" d="M 739.6181640625 440 L 778.6181640625 440 L 778.6181640625 479 L 739.6181640625 479 L 739.6181640625 440 Z Z" stroke-miterlimit="10"/></g><g transform="translate(-6,-6) scale(1,1)"><path fill="none" stroke="#000000" d="M 739.6181640625 440 L 778.6181640625 479" stroke-miterlimit="10"/></g><g transform="translate(-6,-6) scale(1,1)"><path fill="none" stroke="#000000" d="M 778.6181640625 440 L 739.6181640625 479" stroke-miterlimit="10"/></g><g transform="translate(-6,-6) scale(1,1)"><path fill="none" stroke="#000000" d="M 712 519 L 806.236328125 519" stroke-miterlimit="10"/></g><g transform="translate(-6,-6) scale(1,1)"><path fill="none" stroke="#000000" d="M 712 529 L 806.236328125 529" stroke-miterlimit="10"/></g><g transform="translate(-6,-6) scale(1,1)"><g><path fill="none" stroke="none"/><text fill="#000000" stroke="none" font-family="Arial" font-size="13px" font-style="normal" font-weight="bold" text-decoration="none" x="719.372314453125" y="498.5">TableauEntity</text></g></g><g transform="translate(-6,-6) scale(1,1)"><g><path fill="none" stroke="none"/><text fill="#000000" stroke="none" font-family="Arial" font-size="13px" font-style="normal" font-weight="normal" text-decoration="none" x="722.279541015625" y="513.5">(from Model)</text></g></g><g transform="translate(-6,-6) scale(1,1)"><path fill="none" stroke="#000000" d="M 708 424 L 720 439" stroke-miterlimit="10"/></g><g transform="translate(-6,-6) scale(1,1)"><path fill="none" stroke="#000000" d="M 710.3643462280668 433.693949077946 L 720 439 L 716.9385084650058 428.4346192883948" stroke-miterlimit="10"/></g><g transform="translate(-6,-6) scale(1,1)"><path fill="none" stroke="#000000" d="M 242 304 L 279 290" stroke-miterlimit="10"/></g><g transform="translate(-6,-6) scale(1,1)"><path fill="none" stroke="#000000" d="M 270.9847049344536 297.5335944284403 L 279 290 L 268.0052747988817 289.6593862130004" stroke-miterlimit="10"/></g><g transform="translate(-6,-6) scale(1,1)"><path fill="none" stroke="#000000" d="M 507 292 L 626 352" stroke-miterlimit="10"/></g><g transform="translate(-6,-6) scale(1,1)"><path fill="none" stroke="#000000" d="M 615.0303521749353 351.18340548982206 L 626 352 L 618.820707151295 343.6658681200419" stroke-miterlimit="10"/></g><g transform="translate(-6,-6) scale(1,1)"><path fill="none" stroke="#000000" d="M 532 237 L 623 234" stroke-miterlimit="10"/></g><g transform="translate(-6,-6) scale(1,1)"><path fill="none" stroke="#000000" d="M 612.9815431306147 238.54208343783614 L 623 234 L 612.7041432110236 230.1276192102417" stroke-miterlimit="10"/></g><g transform="translate(-6,-6) scale(1,1)"><rect fill="#ffffff" stroke="none" x="16" y="16" width="185" height="22"/></g><g transform="translate(-6,-6) scale(1,1)"><path fill="none" stroke="#000000" d="M 16 16 L 201 16 L 201 38 L 16 38 L 16 16 Z Z" stroke-miterlimit="10"/></g><g transform="translate(-6,-6) scale(1,1)"><path fill="none" stroke="#000000" d="M 48.39453125 16 L 48.39453125 38" stroke-miterlimit="10"/></g><g transform="translate(-6,-6) scale(1,1)"><g><path fill="none" stroke="none"/><text fill="#000000" stroke="none" font-family="Arial" font-size="13px" font-style="normal" font-weight="normal" text-decoration="none" x="53.806884765625" y="33.5">IndexUseCasesAnalysis</text></g></g><g transform="translate(-6,-6) scale(1,1)"><g><path fill="none" stroke="none"/><text fill="#000000" stroke="none" font-family="Arial" font-size="13px" font-style="normal" font-weight="bold" text-decoration="none" x="22.444091796875" y="33.5">link</text></g></g><g transform="translate(-6,-6) scale(1,1)"><rect fill="#ffffff" stroke="none" x="216" y="16" width="153" height="22"/></g><g transform="translate(-6,-6) scale(1,1)"><path fill="none" stroke="#000000" d="M 216 16 L 369 16 L 369 38 L 216 38 L 216 16 Z Z" stroke-miterlimit="10"/></g><g transform="translate(-6,-6) scale(1,1)"><path fill="none" stroke="#000000" d="M 248.39453125 16 L 248.39453125 38" stroke-miterlimit="10"/></g><g transform="translate(-6,-6) scale(1,1)"><g><path fill="none" stroke="none"/><text fill="#000000" stroke="none" font-family="Arial" font-size="13px" font-style="normal" font-weight="normal" text-decoration="none" x="253.701416015625" y="33.5">IndexAnalysisView</text></g></g><g transform="translate(-6,-6) scale(1,1)"><g><path fill="none" stroke="none"/><text fill="#000000" stroke="none" font-family="Arial" font-size="13px" font-style="normal" font-weight="bold" text-decoration="none" x="222.444091796875" y="33.5">link</text></g></g><g transform="translate(-6,-6) scale(1,1)"><rect fill="#ffffff" stroke="none" x="384" y="16" width="143.4453125" height="22"/></g><g transform="translate(-6,-6) scale(1,1)"><path fill="none" stroke="#000000" d="M 384 16 L 527.4453125 16 L 527.4453125 38 L 384 38 L 384 16 Z Z" stroke-miterlimit="10"/></g><g transform="translate(-6,-6) scale(1,1)"><path fill="none" stroke="#000000" d="M 416.39453125 16 L 416.39453125 38" stroke-miterlimit="10"/></g><g transform="translate(-6,-6) scale(1,1)"><g><path fill="none" stroke="none"/><text fill="#000000" stroke="none" font-family="Arial" font-size="13px" font-style="normal" font-weight="normal" text-decoration="none" x="437.87451171875" y="33.5">designView</text></g></g><g transform="translate(-6,-6) scale(1,1)"><g><path fill="none" stroke="none"/><text fill="#000000" stroke="none" font-family="Arial" font-size="13px" font-style="normal" font-weight="bold" text-decoration="none" x="390.444091796875" y="33.5">link</text></g></g><g transform="translate(-6,-6) scale(1,1)"><rect fill="#ffffff" stroke="none" x="544" y="16" width="103.39453125" height="22"/></g><g transform="translate(-6,-6) scale(1,1)"><path fill="none" stroke="#000000" d="M 544 16 L 647.39453125 16 L 647.39453125 38 L 544 38 L 544 16 Z Z" stroke-miterlimit="10"/></g><g transform="translate(-6,-6) scale(1,1)"><path fill="none" stroke="#000000" d="M 576.39453125 16 L 576.39453125 38" stroke-miterlimit="10"/></g><g transform="translate(-6,-6) scale(1,1)"><g><path fill="none" stroke="none"/><text fill="#000000" stroke="none" font-family="Arial" font-size="13px" font-style="normal" font-weight="normal" text-decoration="none" x="582.3095703125" y="33.5">4+1 views</text></g></g><g transform="translate(-6,-6) scale(1,1)"><g><path fill="none" stroke="none"/><text fill="#000000" stroke="none" font-family="Arial" font-size="13px" font-style="normal" font-weight="bold" text-decoration="none" x="550.444091796875" y="33.5">link</text></g></g></g></svg>