<svg version="1.1" xmlns="http://www.w3.org/2000/svg" xmlns:xlink="http://www.w3.org/1999/xlink" width="786.998046875" height="699"><defs/><g><g transform="translate(-6,-5) scale(1,1)"><rect fill="#ffffff" stroke="none" x="16" y="16" width="103.39453125" height="22"/></g><g transform="translate(-6,-5) scale(1,1)"><path fill="none" stroke="#000000" d="M 16 16 L 119.39453125 16 L 119.39453125 38 L 16 38 L 16 16 Z Z" stroke-miterlimit="10"/></g><g transform="translate(-6,-5) scale(1,1)"><path fill="none" stroke="#000000" d="M 48.39453125 16 L 48.39453125 38" stroke-miterlimit="10"/></g><g transform="translate(-6,-5) scale(1,1)"><g><path fill="none" stroke="none"/><text fill="#000000" stroke="none" font-family="Arial" font-size="13px" font-style="normal" font-weight="normal" text-decoration="none" x="54.3095703125" y="33.5">4+1 views</text></g></g><g transform="translate(-6,-5) scale(1,1)"><g><path fill="none" stroke="none"/><text fill="#000000" stroke="none" font-family="Arial" font-size="13px" font-style="normal" font-weight="bold" text-decoration="none" x="22.444091796875" y="33.5">link</text></g></g><g transform="translate(-6,-5) scale(1,1)"><rect fill="#ffffff" stroke="none" x="136" y="15" width="120.43896484375" height="22"/></g><g transform="translate(-6,-5) scale(1,1)"><path fill="none" stroke="#000000" d="M 136 15 L 256.43896484375 15 L 256.43896484375 37 L 136 37 L 136 15 Z Z" stroke-miterlimit="10"/></g><g transform="translate(-6,-5) scale(1,1)"><path fill="none" stroke="#000000" d="M 168.39453125 15 L 168.39453125 37" stroke-miterlimit="10"/></g><g transform="translate(-6,-5) scale(1,1)"><g><path fill="none" stroke="none"/><text fill="#000000" stroke="none" font-family="Arial" font-size="13px" font-style="normal" font-weight="normal" text-decoration="none" x="172.89453125" y="32.5">domainModel</text></g></g><g transform="translate(-6,-5) scale(1,1)"><g><path fill="none" stroke="none"/><text fill="#000000" stroke="none" font-family="Arial" font-size="13px" font-style="normal" font-weight="bold" text-decoration="none" x="142.444091796875" y="32.5">link</text></g></g><g transform="translate(-6,-5) scale(1,1)"><rect fill="#ffffff" stroke="none" x="272" y="16" width="181.814453125" height="22"/></g><g transform="translate(-6,-5) scale(1,1)"><path fill="none" stroke="#000000" d="M 272 16 L 453.814453125 16 L 453.814453125 38 L 272 38 L 272 16 Z Z" stroke-miterlimit="10"/></g><g transform="translate(-6,-5) scale(1,1)"><path fill="none" stroke="#000000" d="M 304.39453125 16 L 304.39453125 38" stroke-miterlimit="10"/></g><g transform="translate(-6,-5) scale(1,1)"><g><path fill="none" stroke="none"/><text fill="#000000" stroke="none" font-family="Arial" font-size="13px" font-style="normal" font-weight="normal" text-decoration="none" x="308.89453125" y="33.5">Game (Activity diagram)</text></g></g><g transform="translate(-6,-5) scale(1,1)"><g><path fill="none" stroke="none"/><text fill="#000000" stroke="none" font-family="Arial" font-size="13px" font-style="normal" font-weight="bold" text-decoration="none" x="278.444091796875" y="33.5">link</text></g></g><g transform="translate(-6,-5) scale(1,1)"><path fill="#C0C0C0" stroke="none" d="M 487 131.5 C 487 124.59644 492.59644 119 499.5 119 C 506.40356 119 512 124.59644 512 131.5 C 512 138.40356 506.40356 144 499.5 144 C 492.59644 144 487 138.40356 487 131.5 Z" opacity="0.2"/></g><g transform="translate(-6,-5) scale(1,1)"><path fill="none" stroke="#000000" d="M 480 124.5 C 480 117.59644 485.59644 112 492.5 112 C 499.40356 112 505 117.59644 505 124.5 C 505 131.40356 499.40356 137 492.5 137 C 485.59644 137 480 131.40356 480 124.5 Z" stroke-miterlimit="10"/></g><g transform="translate(-6,-5) scale(1,1)"><path fill="#000000" stroke="none" d="M 485 124.5 C 485 120.357864 488.357864 117 492.5 117 C 496.642136 117 500 120.357864 500 124.5 C 500 128.642136 496.642136 132 492.5 132 C 488.357864 132 485 128.642136 485 124.5 Z"/></g><g transform="translate(-6,-5) scale(1,1)"><path fill="#C0C0C0" stroke="none" d="M 487 200.5 L 498.5 191 L 509 200.5 L 498.5 209 L 487 200.5" opacity="0.2"/></g><g transform="translate(-6,-5) scale(1,1)"><path fill="#ffffff" stroke="none" d="M 480 193 L 491 184 L 502 193 L 491 202 L 480 193"/></g><g transform="translate(-6,-5) scale(1,1)"><path fill="none" stroke="#000000" d="M 480 193 L 491 184 L 502 193 L 491 202 L 480 193 L 480 193" stroke-miterlimit="10"/></g><g transform="translate(-6,-5) scale(1,1)"><path fill="none" stroke="#000000" d="M 492 138 L 491 183" stroke-miterlimit="10"/></g><g transform="translate(-6,-5) scale(1,1)"><path fill="none" stroke="#000000" d="M 487.01730272371066 172.74631176573828 L 491 183 L 495.43426023114176 172.9333552659034" stroke-miterlimit="10"/></g><g transform="translate(-6,-5) scale(1,1)"><path fill="#C0C0C0" stroke="none" d="M 391 280.5 L 402.5 271 L 413 280.5 L 402.5 289 L 391 280.5" opacity="0.2"/></g><g transform="translate(-6,-5) scale(1,1)"><path fill="#ffffff" stroke="none" d="M 384 273 L 395 264 L 406 273 L 395 282 L 384 273"/></g><g transform="translate(-6,-5) scale(1,1)"><path fill="none" stroke="#000000" d="M 384 273 L 395 264 L 406 273 L 395 282 L 384 273 L 384 273" stroke-miterlimit="10"/></g><g transform="translate(-6,-5) scale(1,1)"><path fill="none" stroke="#000000" d="M 479 203 L 407 263" stroke-miterlimit="10"/></g><g transform="translate(-6,-5) scale(1,1)"><path fill="none" stroke="#000000" d="M 412.11231548574403 253.2601729802721 L 407 263 L 417.50205068076815 259.72785521430103" stroke-miterlimit="10"/></g><g transform="translate(-6,-5) scale(1,1)"><g><path fill="none" stroke="none"/><text fill="#000000" stroke="none" font-family="Arial" font-size="13px" font-style="normal" font-weight="normal" text-decoration="none" x="366.5" y="219.5"> [emptyDeck]</text></g></g><g transform="translate(-6,-5) scale(1,1)"><path fill="#C0C0C0" stroke="none" d="M 575 280.5 L 586.5 271 L 597 280.5 L 586.5 289 L 575 280.5" opacity="0.2"/></g><g transform="translate(-6,-5) scale(1,1)"><path fill="#ffffff" stroke="none" d="M 568 273 L 579 264 L 590 273 L 579 282 L 568 273"/></g><g transform="translate(-6,-5) scale(1,1)"><path fill="none" stroke="#000000" d="M 568 273 L 579 264 L 590 273 L 579 282 L 568 273 L 568 273" stroke-miterlimit="10"/></g><g transform="translate(-6,-5) scale(1,1)"><path fill="none" stroke="#000000" d="M 502 203 L 568 263" stroke-miterlimit="10"/></g><g transform="translate(-6,-5) scale(1,1)"><path fill="none" stroke="#000000" d="M 557.6486015496341 259.2786359863939 L 568 263 L 563.3118576902668 253.04905423169788" stroke-miterlimit="10"/></g><g transform="translate(-6,-5) scale(1,1)"><path fill="#C0C0C0" stroke="none" d="M 705 447 L 779.998046875 447 Q 789.998046875 447 789.998046875 457 L 789.998046875 477 Q 789.998046875 487 779.998046875 487 L 705 487 Q 695 487 695 477 L 695 457 Q 695 447 705 447 Z" opacity="0.2"/></g><g transform="translate(-6,-5) scale(1,1)"><path fill="#ffffff" stroke="none" d="M 698 440 L 772.998046875 440 Q 782.998046875 440 782.998046875 450 L 782.998046875 470 Q 782.998046875 480 772.998046875 480 L 698 480 Q 688 480 688 470 L 688 450 Q 688 440 698 440 Z"/></g><g transform="translate(-6,-5) scale(1,1)"><path fill="none" stroke="#000000" d="M 698 440 L 772.998046875 440 Q 782.998046875 440 782.998046875 450 L 782.998046875 470 Q 782.998046875 480 772.998046875 480 L 698 480 Q 688 480 688 470 L 688 450 Q 688 440 698 440 Z" stroke-miterlimit="10"/></g><g transform="translate(-6,-5) scale(1,1)"><g><path fill="none" stroke="none"/><text fill="#000000" stroke="none" font-family="Arial" font-size="13px" font-style="normal" font-weight="bold" text-decoration="none" x="694.67724609375" y="459.5">Recycle1Card</text></g></g><g transform="translate(-6,-5) scale(1,1)"><path fill="none" stroke="#000000" d="M 587 283 L 717 439" stroke-miterlimit="10"/></g><g transform="translate(-6,-5) scale(1,1)"><path fill="none" stroke="#000000" d="M 707.260172980272 433.88768451425597 L 717 439 L 713.727855214301 428.49794931923185" stroke-miterlimit="10"/></g><g transform="translate(-6,-5) scale(1,1)"><g><path fill="none" stroke="none"/><text fill="#000000" stroke="none" font-family="Arial" font-size="13px" font-style="normal" font-weight="normal" text-decoration="none" x="643.5" y="353.5"> [singlePass]</text></g></g><g transform="translate(-6,-5) scale(1,1)"><path fill="#C0C0C0" stroke="none" d="M 481 455 L 555.998046875 455 Q 565.998046875 455 565.998046875 465 L 565.998046875 485 Q 565.998046875 495 555.998046875 495 L 481 495 Q 471 495 471 485 L 471 465 Q 471 455 481 455 Z" opacity="0.2"/></g><g transform="translate(-6,-5) scale(1,1)"><path fill="#ffffff" stroke="none" d="M 474 448 L 548.998046875 448 Q 558.998046875 448 558.998046875 458 L 558.998046875 478 Q 558.998046875 488 548.998046875 488 L 474 488 Q 464 488 464 478 L 464 458 Q 464 448 474 448 Z"/></g><g transform="translate(-6,-5) scale(1,1)"><path fill="none" stroke="#000000" d="M 474 448 L 548.998046875 448 Q 558.998046875 448 558.998046875 458 L 558.998046875 478 Q 558.998046875 488 548.998046875 488 L 474 488 Q 464 488 464 478 L 464 458 Q 464 448 474 448 Z" stroke-miterlimit="10"/></g><g transform="translate(-6,-5) scale(1,1)"><g><path fill="none" stroke="none"/><text fill="#000000" stroke="none" font-family="Arial" font-size="13px" font-style="normal" font-weight="bold" text-decoration="none" x="470.67724609375" y="467.5">Recycle3Card</text></g></g><g transform="translate(-6,-5) scale(1,1)"><path fill="none" stroke="#000000" d="M 576 283 L 518 447" stroke-miterlimit="10"/></g><g transform="translate(-6,-5) scale(1,1)"><path fill="none" stroke="#000000" d="M 517.419813511434 436.01531140002203 L 518 447 L 525.3570939978491 438.82239840131524" stroke-miterlimit="10"/></g><g transform="translate(-6,-5) scale(1,1)"><path fill="#C0C0C0" stroke="none" d="M 393 335 L 502.6435546875 335 Q 512.6435546875 335 512.6435546875 345 L 512.6435546875 365 Q 512.6435546875 375 502.6435546875 375 L 393 375 Q 383 375 383 365 L 383 345 Q 383 335 393 335 Z" opacity="0.2"/></g><g transform="translate(-6,-5) scale(1,1)"><path fill="#ffffff" stroke="none" d="M 386 328 L 495.6435546875 328 Q 505.6435546875 328 505.6435546875 338 L 505.6435546875 358 Q 505.6435546875 368 495.6435546875 368 L 386 368 Q 376 368 376 358 L 376 338 Q 376 328 386 328 Z"/></g><g transform="translate(-6,-5) scale(1,1)"><path fill="none" stroke="#000000" d="M 386 328 L 495.6435546875 328 Q 505.6435546875 328 505.6435546875 338 L 505.6435546875 358 Q 505.6435546875 368 495.6435546875 368 L 386 368 Q 376 368 376 358 L 376 338 Q 376 328 386 328 Z" stroke-miterlimit="10"/></g><g transform="translate(-6,-5) scale(1,1)"><g><path fill="none" stroke="none"/><text fill="#000000" stroke="none" font-family="Arial" font-size="13px" font-style="normal" font-weight="bold" text-decoration="none" x="384.12451171875" y="347.5">FillDeckFromWaste</text></g></g><g transform="translate(-6,-5) scale(1,1)"><path fill="none" stroke="#000000" d="M 401 283 L 427 327" stroke-miterlimit="10"/></g><g transform="translate(-6,-5) scale(1,1)"><path fill="none" stroke="#000000" d="M 418.2058639031708 320.3921886898576 L 427 327 L 425.45403491745753 316.1091785450518" stroke-miterlimit="10"/></g><g transform="translate(-6,-5) scale(1,1)"><path fill="none" stroke="#000000" d="M 452 369 L 499 447" stroke-miterlimit="10"/></g><g transform="translate(-6,-5) scale(1,1)"><path fill="none" stroke="#000000" d="M 490.1493982596297 440.46801340836083 L 499 447 L 497.36049150537036 436.12286747823504" stroke-miterlimit="10"/></g><g transform="translate(-6,-5) scale(1,1)"><path fill="#C0C0C0" stroke="none" d="M 201 543 L 255.76171875 543 Q 265.76171875 543 265.76171875 553 L 265.76171875 573 Q 265.76171875 583 255.76171875 583 L 201 583 Q 191 583 191 573 L 191 553 Q 191 543 201 543 Z" opacity="0.2"/></g><g transform="translate(-6,-5) scale(1,1)"><path fill="#ffffff" stroke="none" d="M 194 536 L 248.76171875 536 Q 258.76171875 536 258.76171875 546 L 258.76171875 566 Q 258.76171875 576 248.76171875 576 L 194 576 Q 184 576 184 566 L 184 546 Q 184 536 194 536 Z"/></g><g transform="translate(-6,-5) scale(1,1)"><path fill="none" stroke="#000000" d="M 194 536 L 248.76171875 536 Q 258.76171875 536 258.76171875 546 L 258.76171875 566 Q 258.76171875 576 248.76171875 576 L 194 576 Q 184 576 184 566 L 184 546 Q 184 536 194 536 Z" stroke-miterlimit="10"/></g><g transform="translate(-6,-5) scale(1,1)"><g><path fill="none" stroke="none"/><text fill="#000000" stroke="none" font-family="Arial" font-size="13px" font-style="normal" font-weight="bold" text-decoration="none" x="189.594970703125" y="555.5">GameOver</text></g></g><g transform="translate(-6,-5) scale(1,1)"><path fill="none" stroke="#000000" d="M 389 283 L 234 535" stroke-miterlimit="10"/></g><g transform="translate(-6,-5) scale(1,1)"><path fill="none" stroke="#000000" d="M 235.7387558057199 524.1382907308254 L 234 535 L 242.90987430056222 528.5490977415418" stroke-miterlimit="10"/></g><g transform="translate(-6,-5) scale(1,1)"><g><path fill="none" stroke="none"/><text fill="#000000" stroke="none" font-family="Arial" font-size="13px" font-style="normal" font-weight="normal" text-decoration="none" x="205.5" y="440.5"> [singlePass]</text></g></g><g transform="translate(-6,-5) scale(1,1)"><path fill="#C0C0C0" stroke="none" d="M 431 643.5 C 431 636.59644 436.59644 631 443.5 631 C 450.40356 631 456 636.59644 456 643.5 C 456 650.40356 450.40356 656 443.5 656 C 436.59644 656 431 650.40356 431 643.5 Z" opacity="0.2"/></g><g transform="translate(-6,-5) scale(1,1)"><path fill="none" stroke="#000000" d="M 424 636.5 C 424 629.59644 429.59644 624 436.5 624 C 443.40356 624 449 629.59644 449 636.5 C 449 643.40356 443.40356 649 436.5 649 C 429.59644 649 424 643.40356 424 636.5 Z" stroke-miterlimit="10"/></g><g transform="translate(-6,-5) scale(1,1)"><path fill="#000000" stroke="none" d="M 429 636.5 C 429 632.357864 432.357864 629 436.5 629 C 440.642136 629 444 632.357864 444 636.5 C 444 640.642136 440.642136 644 436.5 644 C 432.357864 644 429 640.642136 429 636.5 Z"/></g><g transform="translate(-6,-5) scale(1,1)"><path fill="none" stroke="#000000" d="M 260 570 L 423 631" stroke-miterlimit="10"/></g><g transform="translate(-6,-5) scale(1,1)"><path fill="none" stroke="#000000" d="M 412.0065840680135 631.3805340278429 L 423 631 L 414.95740285452814 623.4955592376481" stroke-miterlimit="10"/></g><g transform="translate(-6,-5) scale(1,1)"><path fill="none" stroke="#000000" d="M 502 489 L 442 623" stroke-miterlimit="10"/></g><g transform="translate(-6,-5) scale(1,1)"><path fill="none" stroke="#000000" d="M 442.31116490437046 612.0044019534048 L 442 623 L 449.99508875589663 615.4449648719986" stroke-miterlimit="10"/></g><g transform="translate(-6,-5) scale(1,1)"><path fill="none" stroke="#000000" d="M 699 481 L 450 628" stroke-miterlimit="10"/></g><g transform="translate(-6,-5) scale(1,1)"><path fill="none" stroke="#000000" d="M 456.61138126302785 619.2085474581908 L 450 628 L 460.89144823288973 626.4584568153036" stroke-miterlimit="10"/></g><g transform="translate(-6,-5) scale(1,1)"><rect fill="#ffffff" stroke="none" x="352" y="672" width="181.814453125" height="22"/></g><g transform="translate(-6,-5) scale(1,1)"><path fill="none" stroke="#000000" d="M 352 672 L 533.814453125 672 L 533.814453125 694 L 352 694 L 352 672 Z Z" stroke-miterlimit="10"/></g><g transform="translate(-6,-5) scale(1,1)"><path fill="none" stroke="#000000" d="M 384.39453125 672 L 384.39453125 694" stroke-miterlimit="10"/></g><g transform="translate(-6,-5) scale(1,1)"><g><path fill="none" stroke="none"/><text fill="#000000" stroke="none" font-family="Arial" font-size="13px" font-style="normal" font-weight="normal" text-decoration="none" x="388.89453125" y="689.5">Game (Activity diagram)</text></g></g><g transform="translate(-6,-5) scale(1,1)"><g><path fill="none" stroke="none"/><text fill="#000000" stroke="none" font-family="Arial" font-size="13px" font-style="normal" font-weight="bold" text-decoration="none" x="358.444091796875" y="689.5">link</text></g></g></g></svg>