<svg version="1.1" xmlns="http://www.w3.org/2000/svg" xmlns:xlink="http://www.w3.org/1999/xlink" width="437" height="541"><defs/><g><g transform="translate(-6,-6) scale(1,1)"><rect fill="#ffffff" stroke="none" x="136" y="17" width="124.0380859375" height="22"/></g><g transform="translate(-6,-6) scale(1,1)"><path fill="none" stroke="#000000" d="M 136 17 L 260.0380859375 17 L 260.0380859375 39 L 136 39 L 136 17 Z Z" stroke-miterlimit="10"/></g><g transform="translate(-6,-6) scale(1,1)"><path fill="none" stroke="#000000" d="M 168.39453125 17 L 168.39453125 39" stroke-miterlimit="10"/></g><g transform="translate(-6,-6) scale(1,1)"><g><path fill="none" stroke="none"/><text fill="#000000" stroke="none" font-family="Arial" font-size="13px" font-style="normal" font-weight="normal" text-decoration="none" x="172.89453125" y="34.5">UseCaseView</text></g></g><g transform="translate(-6,-6) scale(1,1)"><g><path fill="none" stroke="none"/><text fill="#000000" stroke="none" font-family="Arial" font-size="13px" font-style="normal" font-weight="bold" text-decoration="none" x="142.444091796875" y="34.5">link</text></g></g><g transform="translate(-6,-6) scale(1,1)"><rect fill="#ffffff" stroke="none" x="16" y="16" width="103.39453125" height="22"/></g><g transform="translate(-6,-6) scale(1,1)"><path fill="none" stroke="#000000" d="M 16 16 L 119.39453125 16 L 119.39453125 38 L 16 38 L 16 16 Z Z" stroke-miterlimit="10"/></g><g transform="translate(-6,-6) scale(1,1)"><path fill="none" stroke="#000000" d="M 48.39453125 16 L 48.39453125 38" stroke-miterlimit="10"/></g><g transform="translate(-6,-6) scale(1,1)"><g><path fill="none" stroke="none"/><text fill="#000000" stroke="none" font-family="Arial" font-size="13px" font-style="normal" font-weight="normal" text-decoration="none" x="54.3095703125" y="33.5">4+1 views</text></g></g><g transform="translate(-6,-6) scale(1,1)"><g><path fill="none" stroke="none"/><text fill="#000000" stroke="none" font-family="Arial" font-size="13px" font-style="normal" font-weight="bold" text-decoration="none" x="22.444091796875" y="33.5">link</text></g></g><g transform="translate(-6,-6) scale(1,1)"><path fill="#C0C0C0" stroke="none" d="M 367 136.5 C 367 131.2532944 371.2532944 127 376.5 127 C 381.7467056 127 386 131.2532944 386 136.5 C 386 141.7467056 381.7467056 146 376.5 146 C 371.2532944 146 367 141.7467056 367 136.5 Z" opacity="0.2"/></g><g transform="translate(-6,-6) scale(1,1)"><path fill="#000000" stroke="none" d="M 360 129.5 C 360 124.2532944 364.2532944 120 369.5 120 C 374.7467056 120 379 124.2532944 379 129.5 C 379 134.7467056 374.7467056 139 369.5 139 C 364.2532944 139 360 134.7467056 360 129.5 Z"/></g><g transform="translate(-6,-6) scale(1,1)"><path fill="#C0C0C0" stroke="none" d="M 415 531.5 C 415 524.59644 420.59644 519 427.5 519 C 434.40356 519 440 524.59644 440 531.5 C 440 538.40356 434.40356 544 427.5 544 C 420.59644 544 415 538.40356 415 531.5 Z" opacity="0.2"/></g><g transform="translate(-6,-6) scale(1,1)"><path fill="none" stroke="#000000" d="M 408 524.5 C 408 517.59644 413.59644 512 420.5 512 C 427.40356 512 433 517.59644 433 524.5 C 433 531.40356 427.40356 537 420.5 537 C 413.59644 537 408 531.40356 408 524.5 Z" stroke-miterlimit="10"/></g><g transform="translate(-6,-6) scale(1,1)"><path fill="#000000" stroke="none" d="M 413 524.5 C 413 520.357864 416.357864 517 420.5 517 C 424.642136 517 428 520.357864 428 524.5 C 428 528.642136 424.642136 532 420.5 532 C 416.357864 532 413 528.642136 413 524.5 Z"/></g><g transform="translate(-6,-6) scale(1,1)"><path fill="#C0C0C0" stroke="none" d="M 353 175 L 392 175 Q 402 175 402 185 L 402 204 Q 402 214 392 214 L 353 214 Q 343 214 343 204 L 343 185 Q 343 175 353 175 Z" opacity="0.2"/></g><g transform="translate(-6,-6) scale(1,1)"><path fill="#ffffff" stroke="none" d="M 346 168 L 385 168 Q 395 168 395 178 L 395 197 Q 395 207 385 207 L 346 207 Q 336 207 336 197 L 336 178 Q 336 168 346 168 Z"/></g><g transform="translate(-6,-6) scale(1,1)"><path fill="none" stroke="#000000" d="M 346 168 L 385 168 Q 395 168 395 178 L 395 197 Q 395 207 385 207 L 346 207 Q 336 207 336 197 L 336 178 Q 336 168 346 168 Z" stroke-miterlimit="10"/></g><g transform="translate(-6,-6) scale(1,1)"><g><path fill="none" stroke="none"/><text fill="#000000" stroke="none" font-family="Arial" font-size="13px" font-style="normal" font-weight="bold" text-decoration="none" x="342.378662109375" y="187.5">InGame</text></g></g><g transform="translate(-6,-6) scale(1,1)"><path fill="none" stroke="#000000" d="M 368 139 L 368 168" stroke-miterlimit="10"/></g><g transform="translate(-6,-6) scale(1,1)"><path fill="none" stroke="#000000" d="M 363.790482243984 157.83732514237585 L 368 168 L 372.209517756016 157.83732514237585" stroke-miterlimit="10"/></g></g></svg>