<svg version="1.1" xmlns="http://www.w3.org/2000/svg" xmlns:xlink="http://www.w3.org/1999/xlink" width="842" height="750"><defs/><g><g transform="translate(-14,-6) scale(1,1)"><rect fill="#ffffff" stroke="none" x="272" y="16" width="103.39453125" height="22"/></g><g transform="translate(-14,-6) scale(1,1)"><path fill="none" stroke="#000000" d="M 272 16 L 375.39453125 16 L 375.39453125 38 L 272 38 L 272 16 Z Z" stroke-miterlimit="10"/></g><g transform="translate(-14,-6) scale(1,1)"><path fill="none" stroke="#000000" d="M 304.39453125 16 L 304.39453125 38" stroke-miterlimit="10"/></g><g transform="translate(-14,-6) scale(1,1)"><g><path fill="none" stroke="none"/><text fill="#000000" stroke="none" font-family="Arial" font-size="13px" font-style="normal" font-weight="normal" text-decoration="none" x="310.3095703125" y="33.5">4+1 views</text></g></g><g transform="translate(-14,-6) scale(1,1)"><g><path fill="none" stroke="none"/><text fill="#000000" stroke="none" font-family="Arial" font-size="13px" font-style="normal" font-weight="bold" text-decoration="none" x="278.444091796875" y="33.5">link</text></g></g><g transform="translate(-14,-6) scale(1,1)"><rect fill="#ffffff" stroke="none" x="136" y="16" width="124.0380859375" height="22"/></g><g transform="translate(-14,-6) scale(1,1)"><path fill="none" stroke="#000000" d="M 136 16 L 260.0380859375 16 L 260.0380859375 38 L 136 38 L 136 16 Z Z" stroke-miterlimit="10"/></g><g transform="translate(-14,-6) scale(1,1)"><path fill="none" stroke="#000000" d="M 168.39453125 16 L 168.39453125 38" stroke-miterlimit="10"/></g><g transform="translate(-14,-6) scale(1,1)"><g><path fill="none" stroke="none"/><text fill="#000000" stroke="none" font-family="Arial" font-size="13px" font-style="normal" font-weight="normal" text-decoration="none" x="172.89453125" y="33.5">UseCaseView</text></g></g><g transform="translate(-14,-6) scale(1,1)"><g><path fill="none" stroke="none"/><text fill="#000000" stroke="none" font-family="Arial" font-size="13px" font-style="normal" font-weight="bold" text-decoration="none" x="142.444091796875" y="33.5">link</text></g></g><g transform="translate(-14,-6) scale(1,1)"><path fill="#ffffff" stroke="none" d="M 96.40935031960227 401.68 C 96.40935031960227 396.886167936 100.29519264454773 393 105.088623046875 393 C 109.88205344920227 393 113.76789577414773 396.886167936 113.76789577414773 401.68 C 113.76789577414773 406.473832064 109.88205344920227 410.36 105.088623046875 410.36 C 100.29519264454773 410.36 96.40935031960227 406.473832064 96.40935031960227 401.68 Z"/></g><g transform="translate(-14,-6) scale(1,1)"><path fill="none" stroke="#000000" d="M 96.40935031960227 401.68 C 96.40935031960227 396.886167936 100.29519264454773 393 105.088623046875 393 C 109.88205344920227 393 113.76789577414773 396.886167936 113.76789577414773 401.68 C 113.76789577414773 406.473832064 109.88205344920227 410.36 105.088623046875 410.36 C 100.29519264454773 410.36 96.40935031960227 406.473832064 96.40935031960227 401.68 Z" stroke-miterlimit="10"/></g><g transform="translate(-14,-6) scale(1,1)"><path fill="none" stroke="#000000" d="M 105.088623046875 410.36 L 105.088623046875 427.64" stroke-miterlimit="10"/></g><g transform="translate(-14,-6) scale(1,1)"><path fill="none" stroke="#000000" d="M 95.89880486505682 416.84 L 114.27844122869318 416.84" stroke-miterlimit="10"/></g><g transform="translate(-14,-6) scale(1,1)"><path fill="none" stroke="#000000" d="M 105.088623046875 427.64 L 92.32498668323863 445" stroke-miterlimit="10"/></g><g transform="translate(-14,-6) scale(1,1)"><path fill="none" stroke="#000000" d="M 105.088623046875 427.64 L 117.85225941051137 445" stroke-miterlimit="10"/></g><g transform="translate(-14,-6) scale(1,1)"><g><path fill="none" stroke="none"/><text fill="#000000" stroke="none" font-family="Arial" font-size="13px" font-style="normal" font-weight="bold" text-decoration="none" x="86.66455078125" y="465.5">Player</text></g></g><g transform="translate(-14,-6) scale(1,1)"><path fill="#C0C0C0" stroke="none" d="M 279 528 C 279 518.6111584 301.8334752 511 330 511 C 358.1665248 511 381 518.6111584 381 528 C 381 537.3888416 358.1665248 545 330 545 C 301.8334752 545 279 537.3888416 279 528 Z" opacity="0.2"/></g><g transform="translate(-14,-6) scale(1,1)"><path fill="#ffffff" stroke="none" d="M 272 521 C 272 511.6111584 294.8334752 504 323 504 C 351.1665248 504 374 511.6111584 374 521 C 374 530.3888416 351.1665248 538 323 538 C 294.8334752 538 272 530.3888416 272 521 Z"/></g><g transform="translate(-14,-6) scale(1,1)"><path fill="none" stroke="#000000" d="M 272 521 C 272 511.6111584 294.8334752 504 323 504 C 351.1665248 504 374 511.6111584 374 521 C 374 530.3888416 351.1665248 538 323 538 C 294.8334752 538 272 530.3888416 272 521 Z" stroke-miterlimit="10"/></g><g transform="translate(-14,-6) scale(1,1)"><g><path fill="none" stroke="none"/><text fill="#000000" stroke="none" font-family="Arial" font-size="13px" font-style="normal" font-weight="bold" text-decoration="none" x="293.016845703125" y="528">MoveCard</text></g></g><g transform="translate(-14,-6) scale(1,1)"><path fill="#C0C0C0" stroke="none" d="M 335 376 C 335 366.6111584 368.8024976 359 410.5 359 C 452.1975024 359 486 366.6111584 486 376 C 486 385.3888416 452.1975024 393 410.5 393 C 368.8024976 393 335 385.3888416 335 376 Z" opacity="0.2"/></g><g transform="translate(-14,-6) scale(1,1)"><path fill="#ffffff" stroke="none" d="M 328 369 C 328 359.6111584 361.8024976 352 403.5 352 C 445.1975024 352 479 359.6111584 479 369 C 479 378.3888416 445.1975024 386 403.5 386 C 361.8024976 386 328 378.3888416 328 369 Z"/></g><g transform="translate(-14,-6) scale(1,1)"><path fill="none" stroke="#000000" d="M 328 369 C 328 359.6111584 361.8024976 352 403.5 352 C 445.1975024 352 479 359.6111584 479 369 C 479 378.3888416 445.1975024 386 403.5 386 C 361.8024976 386 328 378.3888416 328 369 Z" stroke-miterlimit="10"/></g><g transform="translate(-14,-6) scale(1,1)"><g><path fill="none" stroke="none"/><text fill="#000000" stroke="none" font-family="Arial" font-size="13px" font-style="normal" font-weight="bold" text-decoration="none" x="357.615966796875" y="376">UndoMovement</text></g></g><g transform="translate(-14,-6) scale(1,1)"><path fill="#C0C0C0" stroke="none" d="M 271 448 C 271 438.6111584 304.57864 431 346 431 C 387.42136 431 421 438.6111584 421 448 C 421 457.3888416 387.42136 465 346 465 C 304.57864 465 271 457.3888416 271 448 Z" opacity="0.2"/></g><g transform="translate(-14,-6) scale(1,1)"><path fill="#ffffff" stroke="none" d="M 264 441 C 264 431.6111584 297.57864 424 339 424 C 380.42136 424 414 431.6111584 414 441 C 414 450.3888416 380.42136 458 339 458 C 297.57864 458 264 450.3888416 264 441 Z"/></g><g transform="translate(-14,-6) scale(1,1)"><path fill="none" stroke="#000000" d="M 264 441 C 264 431.6111584 297.57864 424 339 424 C 380.42136 424 414 431.6111584 414 441 C 414 450.3888416 380.42136 458 339 458 C 297.57864 458 264 450.3888416 264 441 Z" stroke-miterlimit="10"/></g><g transform="translate(-14,-6) scale(1,1)"><g><path fill="none" stroke="none"/><text fill="#000000" stroke="none" font-family="Arial" font-size="13px" font-style="normal" font-weight="bold" text-decoration="none" x="293.115966796875" y="448">RedoMovement</text></g></g><g transform="translate(-14,-6) scale(1,1)"><path fill="#C0C0C0" stroke="none" d="M 487 248 C 487 238.6111584 509.1619024 231 536.5 231 C 563.8380976 231 586 238.6111584 586 248 C 586 257.3888416 563.8380976 265 536.5 265 C 509.1619024 265 487 257.3888416 487 248 Z" opacity="0.2"/></g><g transform="translate(-14,-6) scale(1,1)"><path fill="#ffffff" stroke="none" d="M 480 241 C 480 231.6111584 502.1619024 224 529.5 224 C 556.8380976 224 579 231.6111584 579 241 C 579 250.3888416 556.8380976 258 529.5 258 C 502.1619024 258 480 250.3888416 480 241 Z"/></g><g transform="translate(-14,-6) scale(1,1)"><path fill="none" stroke="#000000" d="M 480 241 C 480 231.6111584 502.1619024 224 529.5 224 C 556.8380976 224 579 231.6111584 579 241 C 579 250.3888416 556.8380976 258 529.5 258 C 502.1619024 258 480 250.3888416 480 241 Z" stroke-miterlimit="10"/></g><g transform="translate(-14,-6) scale(1,1)"><g><path fill="none" stroke="none"/><text fill="#000000" stroke="none" font-family="Arial" font-size="13px" font-style="normal" font-weight="bold" text-decoration="none" x="500.964111328125" y="248">ExitMatch</text></g></g><g transform="translate(-14,-6) scale(1,1)"><path fill="#C0C0C0" stroke="none" d="M 175 616 C 175 606.6111584 202.7583424 599 237 599 C 271.2416576 599 299 606.6111584 299 616 C 299 625.3888416 271.2416576 633 237 633 C 202.7583424 633 175 625.3888416 175 616 Z" opacity="0.2"/></g><g transform="translate(-14,-6) scale(1,1)"><path fill="#ffffff" stroke="none" d="M 168 609 C 168 599.6111584 195.7583424 592 230 592 C 264.2416576 592 292 599.6111584 292 609 C 292 618.3888416 264.2416576 626 230 626 C 195.7583424 626 168 618.3888416 168 609 Z"/></g><g transform="translate(-14,-6) scale(1,1)"><path fill="none" stroke="#000000" d="M 168 609 C 168 599.6111584 195.7583424 592 230 592 C 264.2416576 592 292 599.6111584 292 609 C 292 618.3888416 264.2416576 626 230 626 C 195.7583424 626 168 618.3888416 168 609 Z" stroke-miterlimit="10"/></g><g transform="translate(-14,-6) scale(1,1)"><g><path fill="none" stroke="none"/><text fill="#000000" stroke="none" font-family="Arial" font-size="13px" font-style="normal" font-weight="bold" text-decoration="none" x="192.793212890625" y="616">RecycleCard</text></g></g><g transform="translate(-14,-6) scale(1,1)"><path fill="none" stroke="#000000" d="M 131 426 L 327 385" stroke-miterlimit="10"/></g><g transform="translate(-14,-6) scale(1,1)"><path fill="none" stroke="#000000" d="M 317.91453923025693 391.2011613913411 L 327 385 L 316.1907258084608 382.9604923505598" stroke-miterlimit="10"/></g><g transform="translate(-14,-6) scale(1,1)"><path fill="none" stroke="#000000" d="M 131 432 L 263 438" stroke-miterlimit="10"/></g><g transform="translate(-14,-6) scale(1,1)"><path fill="none" stroke="#000000" d="M 252.6566631779511 441.74371251375516 L 263 438 L 253.0389518877435 433.33336089832187" stroke-miterlimit="10"/></g><g transform="translate(-14,-6) scale(1,1)"><path fill="none" stroke="#000000" d="M 131 419 L 489 259" stroke-miterlimit="10"/></g><g transform="translate(-14,-6) scale(1,1)"><path fill="none" stroke="#000000" d="M 481.4394118515892 266.9898377236406 L 489 259 L 478.00418841553375 259.30352528546643" stroke-miterlimit="10"/></g><g transform="translate(-14,-6) scale(1,1)"><path fill="none" stroke="#000000" d="M 131 442 L 279 503" stroke-miterlimit="10"/></g><g transform="translate(-14,-6) scale(1,1)"><path fill="none" stroke="#000000" d="M 268.00001688706067 503.01927472565507 L 279 503 L 271.20820805868686 495.23546663711926" stroke-miterlimit="10"/></g><g transform="translate(-14,-6) scale(1,1)"><path fill="none" stroke="#000000" d="M 131 468 L 217 591" stroke-miterlimit="10"/></g><g transform="translate(-14,-6) scale(1,1)"><path fill="none" stroke="#000000" d="M 207.7267455661179 585.0833495789859 L 217 591 L 214.62652254074303 580.2591152715245" stroke-miterlimit="10"/></g><g transform="translate(-14,-6) scale(1,1)"><path fill="#C0C0C0" stroke="none" d="M 383 736 C 383 726.6111584 424.6375136 719 476 719 C 527.3624864 719 569 726.6111584 569 736 C 569 745.3888416 527.3624864 753 476 753 C 424.6375136 753 383 745.3888416 383 736 Z" opacity="0.2"/></g><g transform="translate(-14,-6) scale(1,1)"><path fill="#ffffff" stroke="none" d="M 376 729 C 376 719.6111584 417.6375136 712 469 712 C 520.3624864 712 562 719.6111584 562 729 C 562 738.3888416 520.3624864 746 469 746 C 417.6375136 746 376 738.3888416 376 729 Z"/></g><g transform="translate(-14,-6) scale(1,1)"><path fill="none" stroke="#000000" d="M 376 729 C 376 719.6111584 417.6375136 712 469 712 C 520.3624864 712 562 719.6111584 562 729 C 562 738.3888416 520.3624864 746 469 746 C 417.6375136 746 376 738.3888416 376 729 Z" stroke-miterlimit="10"/></g><g transform="translate(-14,-6) scale(1,1)"><g><path fill="none" stroke="none"/><text fill="#000000" stroke="none" font-family="Arial" font-size="13px" font-style="normal" font-weight="bold" text-decoration="none" x="410.8427734375" y="736">MoveStockToWaste</text></g></g><g transform="translate(-14,-6) scale(1,1)"><path fill="#C0C0C0" stroke="none" d="M 559 384 C 559 374.6111584 605.1146656 367 662 367 C 718.8853344 367 765 374.6111584 765 384 C 765 393.3888416 718.8853344 401 662 401 C 605.1146656 401 559 393.3888416 559 384 Z" opacity="0.2"/></g><g transform="translate(-14,-6) scale(1,1)"><path fill="#ffffff" stroke="none" d="M 552 377 C 552 367.6111584 598.1146656 360 655 360 C 711.8853344 360 758 367.6111584 758 377 C 758 386.3888416 711.8853344 394 655 394 C 598.1146656 394 552 386.3888416 552 377 Z"/></g><g transform="translate(-14,-6) scale(1,1)"><path fill="none" stroke="#000000" d="M 552 377 C 552 367.6111584 598.1146656 360 655 360 C 711.8853344 360 758 367.6111584 758 377 C 758 386.3888416 711.8853344 394 655 394 C 598.1146656 394 552 386.3888416 552 377 Z" stroke-miterlimit="10"/></g><g transform="translate(-14,-6) scale(1,1)"><g><path fill="none" stroke="none"/><text fill="#000000" stroke="none" font-family="Arial" font-size="13px" font-style="normal" font-weight="bold" text-decoration="none" x="589.609619140625" y="384">MoveWasteToTableau</text></g></g><g transform="translate(-14,-6) scale(1,1)"><path fill="#C0C0C0" stroke="none" d="M 599 448 C 599 438.6111584 651.8303936 431 717 431 C 782.1696064 431 835 438.6111584 835 448 C 835 457.3888416 782.1696064 465 717 465 C 651.8303936 465 599 457.3888416 599 448 Z" opacity="0.2"/></g><g transform="translate(-14,-6) scale(1,1)"><path fill="#ffffff" stroke="none" d="M 592 441 C 592 431.6111584 644.8303936 424 710 424 C 775.1696064 424 828 431.6111584 828 441 C 828 450.3888416 775.1696064 458 710 458 C 644.8303936 458 592 450.3888416 592 441 Z"/></g><g transform="translate(-14,-6) scale(1,1)"><path fill="none" stroke="#000000" d="M 592 441 C 592 431.6111584 644.8303936 424 710 424 C 775.1696064 424 828 431.6111584 828 441 C 828 450.3888416 775.1696064 458 710 458 C 644.8303936 458 592 450.3888416 592 441 Z" stroke-miterlimit="10"/></g><g transform="translate(-14,-6) scale(1,1)"><g><path fill="none" stroke="none"/><text fill="#000000" stroke="none" font-family="Arial" font-size="13px" font-style="normal" font-weight="bold" text-decoration="none" x="635.57373046875" y="448">MoveWasteToFoundation</text></g></g><g transform="translate(-14,-6) scale(1,1)"><path fill="#C0C0C0" stroke="none" d="M 615 512 C 615 502.6111584 664.4725296 495 725.5 495 C 786.5274704 495 836 502.6111584 836 512 C 836 521.3888416 786.5274704 529 725.5 529 C 664.4725296 529 615 521.3888416 615 512 Z" opacity="0.2"/></g><g transform="translate(-14,-6) scale(1,1)"><path fill="#ffffff" stroke="none" d="M 608 505 C 608 495.6111584 657.4725296 488 718.5 488 C 779.5274704 488 829 495.6111584 829 505 C 829 514.3888416 779.5274704 522 718.5 522 C 657.4725296 522 608 514.3888416 608 505 Z"/></g><g transform="translate(-14,-6) scale(1,1)"><path fill="none" stroke="#000000" d="M 608 505 C 608 495.6111584 657.4725296 488 718.5 488 C 779.5274704 488 829 495.6111584 829 505 C 829 514.3888416 779.5274704 522 718.5 522 C 657.4725296 522 608 514.3888416 608 505 Z" stroke-miterlimit="10"/></g><g transform="translate(-14,-6) scale(1,1)"><g><path fill="none" stroke="none"/><text fill="#000000" stroke="none" font-family="Arial" font-size="13px" font-style="normal" font-weight="bold" text-decoration="none" x="648.041015625" y="512">MoveTableauToTableau</text></g></g><g transform="translate(-14,-6) scale(1,1)"><path fill="#C0C0C0" stroke="none" d="M 575 584 C 575 574.6111584 637.2324128 567 714 567 C 790.7675872 567 853 574.6111584 853 584 C 853 593.3888416 790.7675872 601 714 601 C 637.2324128 601 575 593.3888416 575 584 Z" opacity="0.2"/></g><g transform="translate(-14,-6) scale(1,1)"><path fill="#ffffff" stroke="none" d="M 568 577 C 568 567.6111584 630.2324128 560 707 560 C 783.7675872 560 846 567.6111584 846 577 C 846 586.3888416 783.7675872 594 707 594 C 630.2324128 594 568 586.3888416 568 577 Z"/></g><g transform="translate(-14,-6) scale(1,1)"><path fill="none" stroke="#000000" d="M 568 577 C 568 567.6111584 630.2324128 560 707 560 C 783.7675872 560 846 567.6111584 846 577 C 846 586.3888416 783.7675872 594 707 594 C 630.2324128 594 568 586.3888416 568 577 Z" stroke-miterlimit="10"/></g><g transform="translate(-14,-6) scale(1,1)"><g><path fill="none" stroke="none"/><text fill="#000000" stroke="none" font-family="Arial" font-size="13px" font-style="normal" font-weight="bold" text-decoration="none" x="627.505126953125" y="584">MoveTableauToFoundation</text></g></g><g transform="translate(-14,-6) scale(1,1)"><path fill="none" stroke="#000000" d="M 614 395 L 365 503" stroke-miterlimit="10" stroke-dasharray="3"/></g><g transform="translate(-14,-6) scale(1,1)"><path fill="none" stroke="#000000" d="M 372.6484116654534 495.094192071916 L 365 503 L 375.998494150655 502.81799335724185" stroke-miterlimit="10"/></g><g transform="translate(-14,-6) scale(1,1)"><g><path fill="none" stroke="none"/><text fill="#000000" stroke="none" font-family="Arial" font-size="13px" font-style="normal" font-weight="normal" text-decoration="none" x="480.5" y="429.5">«extend»</text></g></g><g transform="translate(-14,-6) scale(1,1)"><path fill="none" stroke="#000000" d="M 623 459 L 375 510" stroke-miterlimit="10" stroke-dasharray="3"/></g><g transform="translate(-14,-6) scale(1,1)"><path fill="none" stroke="#000000" d="M 384.1064462499195 503.8296971956534 L 375 510 L 385.8022928507567 512.0761669409011" stroke-miterlimit="10"/></g><g transform="translate(-14,-6) scale(1,1)"><g><path fill="none" stroke="none"/><text fill="#000000" stroke="none" font-family="Arial" font-size="13px" font-style="normal" font-weight="normal" text-decoration="none" x="484.5" y="478.5">«extend»</text></g></g><g transform="translate(-14,-6) scale(1,1)"><path fill="none" stroke="#000000" d="M 607 509 L 375 519" stroke-miterlimit="10" stroke-dasharray="3"/></g><g transform="translate(-14,-6) scale(1,1)"><path fill="none" stroke="#000000" d="M 384.9719709268921 514.356747278769 L 375 519 L 385.3345237501458 522.7679727782552" stroke-miterlimit="10"/></g><g transform="translate(-14,-6) scale(1,1)"><g><path fill="none" stroke="none"/><text fill="#000000" stroke="none" font-family="Arial" font-size="13px" font-style="normal" font-weight="normal" text-decoration="none" x="482.5" y="508.5">«extend»</text></g></g><g transform="translate(-14,-6) scale(1,1)"><path fill="none" stroke="#000000" d="M 584 559 L 375 529" stroke-miterlimit="10" stroke-dasharray="3"/></g><g transform="translate(-14,-6) scale(1,1)"><path fill="none" stroke="#000000" d="M 385.6576766760083 526.2771471083312 L 375 529 L 384.4614631931716 534.6107677054267" stroke-miterlimit="10"/></g><g transform="translate(-14,-6) scale(1,1)"><g><path fill="none" stroke="none"/><text fill="#000000" stroke="none" font-family="Arial" font-size="13px" font-style="normal" font-weight="normal" text-decoration="none" x="492.5" y="546.5">«extend»</text></g></g><g transform="translate(-14,-6) scale(1,1)"><path fill="#C0C0C0" stroke="none" d="M 535 672 C 535 662.6111584 591.4121152 655 661 655 C 730.5878848 655 787 662.6111584 787 672 C 787 681.3888416 730.5878848 689 661 689 C 591.4121152 689 535 681.3888416 535 672 Z" opacity="0.2"/></g><g transform="translate(-14,-6) scale(1,1)"><path fill="#ffffff" stroke="none" d="M 528 665 C 528 655.6111584 584.4121152 648 654 648 C 723.5878848 648 780 655.6111584 780 665 C 780 674.3888416 723.5878848 682 654 682 C 584.4121152 682 528 674.3888416 528 665 Z"/></g><g transform="translate(-14,-6) scale(1,1)"><path fill="none" stroke="#000000" d="M 528 665 C 528 655.6111584 584.4121152 648 654 648 C 723.5878848 648 780 655.6111584 780 665 C 780 674.3888416 723.5878848 682 654 682 C 584.4121152 682 528 674.3888416 528 665 Z" stroke-miterlimit="10"/></g><g transform="translate(-14,-6) scale(1,1)"><g><path fill="none" stroke="none"/><text fill="#000000" stroke="none" font-family="Arial" font-size="13px" font-style="normal" font-weight="bold" text-decoration="none" x="574.505126953125" y="672">MoveFoundationToTableau</text></g></g><g transform="translate(-14,-6) scale(1,1)"><path fill="none" stroke="#000000" d="M 613 647 L 364 539" stroke-miterlimit="10" stroke-dasharray="3"/></g><g transform="translate(-14,-6) scale(1,1)"><path fill="none" stroke="#000000" d="M 374.998494150655 539.1820066427582 L 364 539 L 371.6484116654534 546.9058079280841" stroke-miterlimit="10"/></g><g transform="translate(-14,-6) scale(1,1)"><g><path fill="none" stroke="none"/><text fill="#000000" stroke="none" font-family="Arial" font-size="13px" font-style="normal" font-weight="normal" text-decoration="none" x="469.5" y="589.5">«extend»</text></g></g><g transform="translate(-14,-6) scale(1,1)"><rect fill="#ffffff" stroke="none" x="24" y="16" width="102.36083984375" height="22"/></g><g transform="translate(-14,-6) scale(1,1)"><path fill="none" stroke="#000000" d="M 24 16 L 126.36083984375 16 L 126.36083984375 38 L 24 38 L 24 16 Z Z" stroke-miterlimit="10"/></g><g transform="translate(-14,-6) scale(1,1)"><path fill="none" stroke="#000000" d="M 56.39453125 16 L 56.39453125 38" stroke-miterlimit="10"/></g><g transform="translate(-14,-6) scale(1,1)"><g><path fill="none" stroke="none"/><text fill="#000000" stroke="none" font-family="Arial" font-size="13px" font-style="normal" font-weight="normal" text-decoration="none" x="60.89453125" y="33.5">UseCases</text></g></g><g transform="translate(-14,-6) scale(1,1)"><g><path fill="none" stroke="none"/><text fill="#000000" stroke="none" font-family="Arial" font-size="13px" font-style="normal" font-weight="bold" text-decoration="none" x="30.444091796875" y="33.5">link</text></g></g><g transform="translate(-14,-6) scale(1,1)"><path fill="#C0C0C0" stroke="none" d="M 191 240 C 191 230.6111584 215.4004784 223 245.5 223 C 275.5995216 223 300 230.6111584 300 240 C 300 249.3888416 275.5995216 257 245.5 257 C 215.4004784 257 191 249.3888416 191 240 Z" opacity="0.2"/></g><g transform="translate(-14,-6) scale(1,1)"><path fill="#ffffff" stroke="none" d="M 184 233 C 184 223.6111584 208.4004784 216 238.5 216 C 268.5995216 216 293 223.6111584 293 233 C 293 242.3888416 268.5995216 250 238.5 250 C 208.4004784 250 184 242.3888416 184 233 Z"/></g><g transform="translate(-14,-6) scale(1,1)"><path fill="none" stroke="#000000" d="M 184 233 C 184 223.6111584 208.4004784 216 238.5 216 C 268.5995216 216 293 223.6111584 293 233 C 293 242.3888416 268.5995216 250 238.5 250 C 208.4004784 250 184 242.3888416 184 233 Z" stroke-miterlimit="10"/></g><g transform="translate(-14,-6) scale(1,1)"><g><path fill="none" stroke="none"/><text fill="#000000" stroke="none" font-family="Arial" font-size="13px" font-style="normal" font-weight="bold" text-decoration="none" x="205.984130859375" y="240">SaveMatch</text></g></g><g transform="translate(-14,-6) scale(1,1)"><path fill="none" stroke="#000000" d="M 131 392 L 226 251" stroke-miterlimit="10"/></g><g transform="translate(-14,-6) scale(1,1)"><path fill="none" stroke="#000000" d="M 223.8125087818045 261.78030065305774 L 226 251 L 216.83038643082102 257.0760338208349" stroke-miterlimit="10"/></g><g transform="translate(-14,-6) scale(1,1)"><path fill="none" stroke="#000000" d="M 479 240 L 294 235" stroke-miterlimit="10" stroke-dasharray="3"/></g><g transform="translate(-14,-6) scale(1,1)"><path fill="none" stroke="#000000" d="M 304.27269439553993 231.06658547114054 L 294 235 L 304.04523595471755 239.4825477815691" stroke-miterlimit="10"/></g><g transform="translate(-14,-6) scale(1,1)"><g><path fill="none" stroke="none"/><text fill="#000000" stroke="none" font-family="Arial" font-size="13px" font-style="normal" font-weight="normal" text-decoration="none" x="358.5" y="272.5">«extend»</text></g></g><g transform="translate(-14,-6) scale(1,1)"><path fill="none" stroke="#000000" d="M 266 627 L 433 711" stroke-miterlimit="10" stroke-dasharray="3"/></g><g transform="translate(-14,-6) scale(1,1)"><path fill="none" stroke="#000000" d="M 422.0295705971409 710.1939735011274 L 433 711 L 425.8126817798789 702.6727881735412" stroke-miterlimit="10"/></g><g transform="translate(-14,-6) scale(1,1)"><g><path fill="none" stroke="none"/><text fill="#000000" stroke="none" font-family="Arial" font-size="13px" font-style="normal" font-weight="normal" text-decoration="none" x="334.5" y="648.5">«include»</text></g></g></g></svg>