<svg version="1.1" xmlns="http://www.w3.org/2000/svg" xmlns:xlink="http://www.w3.org/1999/xlink" width="976.31689453125" height="683"><defs/><g><g transform="translate(-6,-14) scale(1,1)"><rect fill="#ffffff" stroke="none" x="344" y="24" width="103.39453125" height="22"/></g><g transform="translate(-6,-14) scale(1,1)"><path fill="none" stroke="#000000" d="M 344 24 L 447.39453125 24 L 447.39453125 46 L 344 46 L 344 24 Z Z" stroke-miterlimit="10"/></g><g transform="translate(-6,-14) scale(1,1)"><path fill="none" stroke="#000000" d="M 376.39453125 24 L 376.39453125 46" stroke-miterlimit="10"/></g><g transform="translate(-6,-14) scale(1,1)"><g><path fill="none" stroke="none"/><text fill="#000000" stroke="none" font-family="Arial" font-size="13px" font-style="normal" font-weight="normal" text-decoration="none" x="382.3095703125" y="41.5">4+1 views</text></g></g><g transform="translate(-6,-14) scale(1,1)"><g><path fill="none" stroke="none"/><text fill="#000000" stroke="none" font-family="Arial" font-size="13px" font-style="normal" font-weight="bold" text-decoration="none" x="350.444091796875" y="41.5">link</text></g></g><g transform="translate(-6,-14) scale(1,1)"><rect fill="#ffffff" stroke="none" x="200" y="24" width="124.0380859375" height="22"/></g><g transform="translate(-6,-14) scale(1,1)"><path fill="none" stroke="#000000" d="M 200 24 L 324.0380859375 24 L 324.0380859375 46 L 200 46 L 200 24 Z Z" stroke-miterlimit="10"/></g><g transform="translate(-6,-14) scale(1,1)"><path fill="none" stroke="#000000" d="M 232.39453125 24 L 232.39453125 46" stroke-miterlimit="10"/></g><g transform="translate(-6,-14) scale(1,1)"><g><path fill="none" stroke="none"/><text fill="#000000" stroke="none" font-family="Arial" font-size="13px" font-style="normal" font-weight="normal" text-decoration="none" x="236.89453125" y="41.5">UseCaseView</text></g></g><g transform="translate(-6,-14) scale(1,1)"><g><path fill="none" stroke="none"/><text fill="#000000" stroke="none" font-family="Arial" font-size="13px" font-style="normal" font-weight="bold" text-decoration="none" x="206.444091796875" y="41.5">link</text></g></g><g transform="translate(-6,-14) scale(1,1)"><rect fill="#ffffff" stroke="none" x="16" y="24" width="169.56982421875" height="22"/></g><g transform="translate(-6,-14) scale(1,1)"><path fill="none" stroke="#000000" d="M 16 24 L 185.56982421875 24 L 185.56982421875 46 L 16 46 L 16 24 Z Z" stroke-miterlimit="10"/></g><g transform="translate(-6,-14) scale(1,1)"><path fill="none" stroke="#000000" d="M 48.39453125 24 L 48.39453125 46" stroke-miterlimit="10"/></g><g transform="translate(-6,-14) scale(1,1)"><g><path fill="none" stroke="none"/><text fill="#000000" stroke="none" font-family="Arial" font-size="13px" font-style="normal" font-weight="normal" text-decoration="none" x="52.89453125" y="41.5">UseCaseSpecification</text></g></g><g transform="translate(-6,-14) scale(1,1)"><g><path fill="none" stroke="none"/><text fill="#000000" stroke="none" font-family="Arial" font-size="13px" font-style="normal" font-weight="bold" text-decoration="none" x="22.444091796875" y="41.5">link</text></g></g><g transform="translate(-6,-14) scale(1,1)"><path fill="#C0C0C0" stroke="none" d="M 79 384.5 C 79 379.2532944 83.2532944 375 88.5 375 C 93.7467056 375 98 379.2532944 98 384.5 C 98 389.7467056 93.7467056 394 88.5 394 C 83.2532944 394 79 389.7467056 79 384.5 Z" opacity="0.2"/></g><g transform="translate(-6,-14) scale(1,1)"><path fill="#000000" stroke="none" d="M 72 377.5 C 72 372.2532944 76.2532944 368 81.5 368 C 86.7467056 368 91 372.2532944 91 377.5 C 91 382.7467056 86.7467056 387 81.5 387 C 76.2532944 387 72 382.7467056 72 377.5 Z"/></g><g transform="translate(-6,-14) scale(1,1)"><path fill="none" stroke="#000000" d="M 385 376 L 607 377" stroke-miterlimit="10"/></g><g transform="translate(-6,-14) scale(1,1)"><path fill="none" stroke="#000000" d="M 596.8184666446691 381.16369769967554 L 607 377 L 596.8563898433171 372.7447475998199" stroke-miterlimit="10"/></g><g transform="translate(-6,-14) scale(1,1)"><g><path fill="none" stroke="none"/><text fill="#000000" stroke="none" font-family="Arial" font-size="13px" font-style="normal" font-weight="normal" text-decoration="none" x="402.5" y="372.5">player wants recycle waste card</text></g></g><g transform="translate(-6,-14) scale(1,1)"><path fill="#C0C0C0" stroke="none" d="M 615 384.5 L 630.5 375 L 645 384.5 L 630.5 393 L 615 384.5" opacity="0.2"/></g><g transform="translate(-6,-14) scale(1,1)"><path fill="#ffffff" stroke="none" d="M 608 377 L 623 368 L 638 377 L 623 386 L 608 377"/></g><g transform="translate(-6,-14) scale(1,1)"><path fill="none" stroke="#000000" d="M 608 377 L 623 368 L 638 377 L 623 386 L 608 377 L 608 377" stroke-miterlimit="10"/></g><g transform="translate(-6,-14) scale(1,1)"><path fill="#C0C0C0" stroke="none" d="M 849 287 L 888 287 Q 898 287 898 297 L 898 325 Q 898 335 888 335 L 849 335 Q 839 335 839 325 L 839 297 Q 839 287 849 287 Z" opacity="0.2"/></g><g transform="translate(-6,-14) scale(1,1)"><path fill="#ffffff" stroke="none" d="M 842 280 L 881 280 Q 891 280 891 290 L 891 318 Q 891 328 881 328 L 842 328 Q 832 328 832 318 L 832 290 Q 832 280 842 280 Z"/></g><g transform="translate(-6,-14) scale(1,1)"><path fill="none" stroke="#000000" d="M 842 280 L 881 280 Q 891 280 891 290 L 891 318 Q 891 328 881 328 L 842 328 Q 832 328 832 318 L 832 290 Q 832 280 842 280 Z" stroke-miterlimit="10"/></g><g transform="translate(-6,-14) scale(1,1)"><g><path fill="none" stroke="none"/><text fill="#000000" stroke="none" font-family="Arial" font-size="13px" font-style="normal" font-weight="bold" text-decoration="none" x="861.5" y="299.5"></text></g></g><g transform="translate(-6,-14) scale(1,1)"><path fill="none" stroke="#000000" d="M 631 387 L 755 535" stroke-miterlimit="10"/></g><g transform="translate(-6,-14) scale(1,1)"><path fill="none" stroke="#000000" d="M 745.2466467733045 529.913537492981 L 755 535 L 751.7000099250602 524.5066656631317" stroke-miterlimit="10"/></g><g transform="translate(-6,-14) scale(1,1)"><g><path fill="none" stroke="none"/><text fill="#000000" stroke="none" font-family="Arial" font-size="13px" font-style="normal" font-weight="normal" text-decoration="none" x="663.5" y="475.5"> [emptyDeck]</text></g></g><g transform="translate(-6,-14) scale(1,1)"><path fill="none" stroke="#000000" d="M 630 367 L 664 315" stroke-miterlimit="10"/></g><g transform="translate(-6,-14) scale(1,1)"><path fill="none" stroke="#000000" d="M 661.9617211092324 325.8095059629685 L 664 315 L 654.9152442066974 321.2021941420802" stroke-miterlimit="10"/></g><g transform="translate(-6,-14) scale(1,1)"><path fill="#C0C0C0" stroke="none" d="M 751 552.5 L 770.5 543 L 789 552.5 L 770.5 561 L 751 552.5" opacity="0.2"/></g><g transform="translate(-6,-14) scale(1,1)"><path fill="#ffffff" stroke="none" d="M 744 545 L 763 536 L 782 545 L 763 554 L 744 545"/></g><g transform="translate(-6,-14) scale(1,1)"><path fill="none" stroke="#000000" d="M 744 545 L 763 536 L 782 545 L 763 554 L 744 545 L 744 545" stroke-miterlimit="10"/></g><g transform="translate(-6,-14) scale(1,1)"><path fill="#C0C0C0" stroke="none" d="M 737 655 L 809.07177734375 655 Q 819.07177734375 655 819.07177734375 665 L 819.07177734375 684 Q 819.07177734375 694 809.07177734375 694 L 737 694 Q 727 694 727 684 L 727 665 Q 727 655 737 655 Z" opacity="0.2"/></g><g transform="translate(-6,-14) scale(1,1)"><path fill="#ffffff" stroke="none" d="M 730 648 L 802.07177734375 648 Q 812.07177734375 648 812.07177734375 658 L 812.07177734375 677 Q 812.07177734375 687 802.07177734375 687 L 730 687 Q 720 687 720 677 L 720 658 Q 720 648 730 648 Z"/></g><g transform="translate(-6,-14) scale(1,1)"><path fill="none" stroke="#000000" d="M 730 648 L 802.07177734375 648 Q 812.07177734375 648 812.07177734375 658 L 812.07177734375 677 Q 812.07177734375 687 802.07177734375 687 L 730 687 Q 720 687 720 677 L 720 658 Q 720 648 730 648 Z" stroke-miterlimit="10"/></g><g transform="translate(-6,-14) scale(1,1)"><g><path fill="none" stroke="none"/><text fill="#000000" stroke="none" font-family="Arial" font-size="13px" font-style="normal" font-weight="bold" text-decoration="none" x="724.858642578125" y="667.5">GAME_OVER</text></g></g><g transform="translate(-6,-14) scale(1,1)"><path fill="none" stroke="#000000" d="M 763 555 L 766 647" stroke-miterlimit="10"/></g><g transform="translate(-6,-14) scale(1,1)"><path fill="none" stroke="#000000" d="M 761.4615029847217 636.9799179223766 L 766 647 L 769.8760659692351 636.7055299989685" stroke-miterlimit="10"/></g><g transform="translate(-6,-14) scale(1,1)"><g><path fill="none" stroke="none"/><text fill="#000000" stroke="none" font-family="Arial" font-size="13px" font-style="normal" font-weight="normal" text-decoration="none" x="698.5" y="609.5"> [simplePass]</text></g></g><g transform="translate(-6,-14) scale(1,1)"><path fill="#C0C0C0" stroke="none" d="M 697 119 L 736 119 Q 746 119 746 129 L 746 148 Q 746 158 736 158 L 697 158 Q 687 158 687 148 L 687 129 Q 687 119 697 119 Z" opacity="0.2"/></g><g transform="translate(-6,-14) scale(1,1)"><path fill="#ffffff" stroke="none" d="M 690 112 L 729 112 Q 739 112 739 122 L 739 141 Q 739 151 729 151 L 690 151 Q 680 151 680 141 L 680 122 Q 680 112 690 112 Z"/></g><g transform="translate(-6,-14) scale(1,1)"><path fill="none" stroke="#000000" d="M 690 112 L 729 112 Q 739 112 739 122 L 739 141 Q 739 151 729 151 L 690 151 Q 680 151 680 141 L 680 122 Q 680 112 690 112 Z" stroke-miterlimit="10"/></g><g transform="translate(-6,-14) scale(1,1)"><g><path fill="none" stroke="none"/><text fill="#000000" stroke="none" font-family="Arial" font-size="13px" font-style="normal" font-weight="bold" text-decoration="none" x="709.5" y="131.5"></text></g></g><g transform="translate(-6,-14) scale(1,1)"><path fill="none" stroke="#000000" d="M 839 279 L 727 152" stroke-miterlimit="10"/></g><g transform="translate(-6,-14) scale(1,1)"><path fill="none" stroke="#000000" d="M 736.8790414998576 156.83782379217047 L 727 152 L 730.5646792265433 162.406395245802" stroke-miterlimit="10"/></g><g transform="translate(-6,-14) scale(1,1)"><g><path fill="none" stroke="none"/><text fill="#000000" stroke="none" font-family="Arial" font-size="13px" font-style="normal" font-weight="normal" text-decoration="none" x="713.26123046875" y="223.5">move 3 top deck's cards to waste</text></g></g><g transform="translate(-6,-14) scale(1,1)"><path fill="#C0C0C0" stroke="none" d="M 841 431 L 880 431 Q 890 431 890 441 L 890 460 Q 890 470 880 470 L 841 470 Q 831 470 831 460 L 831 441 Q 831 431 841 431 Z" opacity="0.2"/></g><g transform="translate(-6,-14) scale(1,1)"><path fill="#ffffff" stroke="none" d="M 834 424 L 873 424 Q 883 424 883 434 L 883 453 Q 883 463 873 463 L 834 463 Q 824 463 824 453 L 824 434 Q 824 424 834 424 Z"/></g><g transform="translate(-6,-14) scale(1,1)"><path fill="none" stroke="#000000" d="M 834 424 L 873 424 Q 883 424 883 434 L 883 453 Q 883 463 873 463 L 834 463 Q 824 463 824 453 L 824 434 Q 824 424 834 424 Z" stroke-miterlimit="10"/></g><g transform="translate(-6,-14) scale(1,1)"><g><path fill="none" stroke="none"/><text fill="#000000" stroke="none" font-family="Arial" font-size="13px" font-style="normal" font-weight="bold" text-decoration="none" x="853.5" y="443.5"></text></g></g><g transform="translate(-6,-14) scale(1,1)"><path fill="none" stroke="#000000" d="M 772 535 L 834 464" stroke-miterlimit="10"/></g><g transform="translate(-6,-14) scale(1,1)"><path fill="none" stroke="#000000" d="M 830.4862178673338 474.42369105087806 L 834 464 L 824.1447181993102 468.886043453449" stroke-miterlimit="10"/></g><g transform="translate(-6,-14) scale(1,1)"><path fill="none" stroke="#000000" d="M 854 423 L 860 329" stroke-miterlimit="10"/></g><g transform="translate(-6,-14) scale(1,1)"><path fill="none" stroke="#000000" d="M 863.5536046184968 339.41018223737694 L 860 329 L 855.1516674699579 338.8738883768319" stroke-miterlimit="10"/></g><g transform="translate(-6,-14) scale(1,1)"><g><path fill="none" stroke="none"/><text fill="#000000" stroke="none" font-family="Arial" font-size="13px" font-style="normal" font-weight="normal" text-decoration="none" x="769.5" y="390.5">All cards from waste to deck</text></g></g><g transform="translate(-6,-14) scale(1,1)"><path fill="#C0C0C0" stroke="none" d="M 295 675.5 C 295 668.59644 300.59644 663 307.5 663 C 314.40356 663 320 668.59644 320 675.5 C 320 682.40356 314.40356 688 307.5 688 C 300.59644 688 295 682.40356 295 675.5 Z" opacity="0.2"/></g><g transform="translate(-6,-14) scale(1,1)"><path fill="none" stroke="#000000" d="M 288 668.5 C 288 661.59644 293.59644 656 300.5 656 C 307.40356 656 313 661.59644 313 668.5 C 313 675.40356 307.40356 681 300.5 681 C 293.59644 681 288 675.40356 288 668.5 Z" stroke-miterlimit="10"/></g><g transform="translate(-6,-14) scale(1,1)"><path fill="#000000" stroke="none" d="M 293 668.5 C 293 664.357864 296.357864 661 300.5 661 C 304.642136 661 308 664.357864 308 668.5 C 308 672.642136 304.642136 676 300.5 676 C 296.357864 676 293 672.642136 293 668.5 Z"/></g><g transform="translate(-6,-14) scale(1,1)"><path fill="#C0C0C0" stroke="none" d="M 663 312.5 L 678.5 303 L 693 312.5 L 678.5 321 L 663 312.5" opacity="0.2"/></g><g transform="translate(-6,-14) scale(1,1)"><path fill="#ffffff" stroke="none" d="M 656 305 L 671 296 L 686 305 L 671 314 L 656 305"/></g><g transform="translate(-6,-14) scale(1,1)"><path fill="none" stroke="#000000" d="M 656 305 L 671 296 L 686 305 L 671 314 L 656 305 L 656 305" stroke-miterlimit="10"/></g><g transform="translate(-6,-14) scale(1,1)"><path fill="none" stroke="#000000" d="M 687 305 L 831 304" stroke-miterlimit="10"/></g><g transform="translate(-6,-14) scale(1,1)"><path fill="none" stroke="#000000" d="M 820.8668022399194 308.27998868632824 L 831 304 L 820.8083381252383 299.8611561722471" stroke-miterlimit="10"/></g><g transform="translate(-6,-14) scale(1,1)"><path fill="#C0C0C0" stroke="none" d="M 545 215 L 584 215 Q 594 215 594 225 L 594 244 Q 594 254 584 254 L 545 254 Q 535 254 535 244 L 535 225 Q 535 215 545 215 Z" opacity="0.2"/></g><g transform="translate(-6,-14) scale(1,1)"><path fill="#ffffff" stroke="none" d="M 538 208 L 577 208 Q 587 208 587 218 L 587 237 Q 587 247 577 247 L 538 247 Q 528 247 528 237 L 528 218 Q 528 208 538 208 Z"/></g><g transform="translate(-6,-14) scale(1,1)"><path fill="none" stroke="#000000" d="M 538 208 L 577 208 Q 587 208 587 218 L 587 237 Q 587 247 577 247 L 538 247 Q 528 247 528 237 L 528 218 Q 528 208 538 208 Z" stroke-miterlimit="10"/></g><g transform="translate(-6,-14) scale(1,1)"><g><path fill="none" stroke="none"/><text fill="#000000" stroke="none" font-family="Arial" font-size="13px" font-style="normal" font-weight="bold" text-decoration="none" x="557.5" y="227.5"></text></g></g><g transform="translate(-6,-14) scale(1,1)"><path fill="none" stroke="#000000" d="M 588 207 L 679 150" stroke-miterlimit="10"/></g><g transform="translate(-6,-14) scale(1,1)"><path fill="none" stroke="#000000" d="M 672.6219529515079 158.9621713801523 L 679 150 L 668.1528275242227 151.82725183834611" stroke-miterlimit="10"/></g><g transform="translate(-6,-14) scale(1,1)"><g><path fill="none" stroke="none"/><text fill="#000000" stroke="none" font-family="Arial" font-size="13px" font-style="normal" font-weight="normal" text-decoration="none" x="519.5" y="179.5">move 1 top deck's card to waste</text></g></g><g transform="translate(-6,-14) scale(1,1)"><path fill="none" stroke="#000000" d="M 656 295 L 588 248" stroke-miterlimit="10"/></g><g transform="translate(-6,-14) scale(1,1)"><path fill="none" stroke="#000000" d="M 598.7535461396292 250.3154363353085 L 588 248 L 593.9666446630318 257.2411661312366" stroke-miterlimit="10"/></g><g transform="translate(-6,-14) scale(1,1)"><g><path fill="none" stroke="none"/><text fill="#000000" stroke="none" font-family="Arial" font-size="13px" font-style="normal" font-weight="normal" text-decoration="none" x="588.5" y="275.5"> [singlePass]</text></g></g><g transform="translate(-6,-14) scale(1,1)"><path fill="#C0C0C0" stroke="none" d="M 241 319 L 381 319 Q 391 319 391 329 L 391 437 Q 391 447 381 447 L 241 447 Q 231 447 231 437 L 231 329 Q 231 319 241 319 Z" opacity="0.2"/></g><g transform="translate(-6,-14) scale(1,1)"><path fill="#ffffff" stroke="none" d="M 234 312 L 374 312 Q 384 312 384 322 L 384 430 Q 384 440 374 440 L 234 440 Q 224 440 224 430 L 224 322 Q 224 312 234 312 Z"/></g><g transform="translate(-6,-14) scale(1,1)"><path fill="none" stroke="#000000" d="M 234 312 L 374 312 Q 384 312 384 322 L 384 430 Q 384 440 374 440 L 234 440 Q 224 440 224 430 L 224 322 Q 224 312 234 312 Z" stroke-miterlimit="10"/></g><g transform="translate(-6,-14) scale(1,1)"><g><path fill="none" stroke="none"/><text fill="#000000" stroke="none" font-family="Arial" font-size="13px" font-style="normal" font-weight="bold" text-decoration="none" x="274.74365234375" y="331.5">IN_GAME</text></g></g><g transform="translate(-6,-14) scale(1,1)"><path fill="none" stroke="#000000" d="M 92 377 L 223 376" stroke-miterlimit="10"/></g><g transform="translate(-6,-14) scale(1,1)"><path fill="none" stroke="#000000" d="M 212.86975401454208 380.28697052405465 L 223 376 L 212.805488440289 371.8681802969008" stroke-miterlimit="10"/></g><g transform="translate(-6,-14) scale(1,1)"><path fill="none" stroke="#000000" d="M 680 136 L 304 136 L 304 312" stroke-miterlimit="10"/></g><g transform="translate(-6,-14) scale(1,1)"><path fill="none" stroke="#000000" d="M 299.790482243984 301.83732514237585 L 304 312 L 308.209517756016 301.83732514237585" stroke-miterlimit="10"/></g><g transform="translate(-6,-14) scale(1,1)"><path fill="none" stroke="#000000" d="M 719 667 L 314 668" stroke-miterlimit="10"/></g><g transform="translate(-6,-14) scale(1,1)"><path fill="none" stroke="#000000" d="M 324.1522500394046 663.7654021280161 L 314 668 L 324.1730377180423 672.1844119762865" stroke-miterlimit="10"/></g><g transform="translate(-6,-14) scale(1,1)"><path fill="none" stroke="#000000" d="M 303 441 L 300 655" stroke-miterlimit="10"/></g><g transform="translate(-6,-14) scale(1,1)"><path fill="none" stroke="#000000" d="M 295.9333492255561 644.7793174651242 L 300 655 L 304.35155758943876 644.8973297319076" stroke-miterlimit="10"/></g><g transform="translate(-6,-14) scale(1,1)"><g><path fill="none" stroke="none"/><text fill="#000000" stroke="none" font-family="Arial" font-size="13px" font-style="normal" font-weight="normal" text-decoration="none" x="215.040283203125" y="554.5"> [gameover || hasWon || exitMatch]</text></g></g></g></svg>